<svg id="Layer_1" data-name="Layer 1" xmlns="http://www.w3.org/2000/svg" xmlns:xlink="http://www.w3.org/1999/xlink" viewBox="0 0 60 60">
  <defs>
    <style>
      .cls-1, .cls-3 {
        fill: none;
      }

      .cls-2 {
        clip-path: url(#clip-path);
      }

      .cls-3, .cls-6 {
        stroke: #313133;
      }

      .cls-3 {
        stroke-miterlimit: 10;
      }

      .cls-4 {
        fill: url(#Crosshatch_Fill);
      }

      .cls-5 {
        fill: #313133;
      }

      .cls-6, .cls-7 {
        fill: #fff;
      }

      .cls-6 {
        stroke-linecap: round;
        stroke-linejoin: round;
      }
    </style>
    <clipPath id="clip-path">
      <polygon class="cls-1" points="44.801 0 44.801 44.801 0 44.801 0 0 44.801 0"/>
    </clipPath>
    <pattern id="Crosshatch_Fill" data-name="Crosshatch Fill" width="44.801" height="44.801" patternUnits="userSpaceOnUse" viewBox="0 0 44.801 44.801">
      <rect class="cls-1" width="44.801" height="44.801"/>
      <g class="cls-2">
        <g>
          <line class="cls-3" x1="4.695" y1="81.654" x2="123.306" y2="-36.957"/>
          <line class="cls-3" x1="-1.705" y1="81.654" x2="116.906" y2="-36.957"/>
          <line class="cls-3" x1="-8.105" y1="81.654" x2="110.506" y2="-36.957"/>
          <line class="cls-3" x1="-14.505" y1="81.654" x2="104.106" y2="-36.957"/>
          <line class="cls-3" x1="-20.905" y1="81.654" x2="97.706" y2="-36.957"/>
          <line class="cls-3" x1="-27.305" y1="81.654" x2="91.306" y2="-36.957"/>
          <line class="cls-3" x1="-33.705" y1="81.654" x2="84.906" y2="-36.957"/>
          <line class="cls-3" x1="-40.105" y1="81.654" x2="78.506" y2="-36.957"/>
          <line class="cls-3" x1="-46.505" y1="81.654" x2="72.106" y2="-36.957"/>
          <line class="cls-3" x1="-52.905" y1="81.654" x2="65.706" y2="-36.957"/>
          <line class="cls-3" x1="-59.306" y1="81.654" x2="59.306" y2="-36.957"/>
          <line class="cls-3" x1="-65.706" y1="81.654" x2="52.905" y2="-36.957"/>
          <line class="cls-3" x1="-72.106" y1="81.654" x2="46.505" y2="-36.957"/>
          <line class="cls-3" x1="-78.506" y1="81.654" x2="40.105" y2="-36.957"/>
          <line class="cls-3" x1="-84.906" y1="81.654" x2="33.705" y2="-36.957"/>
          <line class="cls-3" x1="11.095" y1="81.654" x2="129.707" y2="-36.957"/>
          <line class="cls-3" x1="-36.905" y1="4.644" x2="81.706" y2="123.255"/>
          <line class="cls-3" x1="-36.905" y1="-1.756" x2="81.706" y2="116.855"/>
          <line class="cls-3" x1="-36.905" y1="-8.157" x2="81.706" y2="110.455"/>
          <line class="cls-3" x1="-36.905" y1="-14.557" x2="81.706" y2="104.054"/>
          <line class="cls-3" x1="-36.905" y1="-20.957" x2="81.706" y2="97.654"/>
          <line class="cls-3" x1="-36.905" y1="-27.357" x2="81.706" y2="91.254"/>
          <line class="cls-3" x1="-36.905" y1="-33.757" x2="81.706" y2="84.854"/>
          <line class="cls-3" x1="-36.905" y1="-40.157" x2="81.706" y2="78.454"/>
          <line class="cls-3" x1="-36.905" y1="-46.557" x2="81.706" y2="72.054"/>
          <line class="cls-3" x1="-36.905" y1="-52.957" x2="81.706" y2="65.654"/>
          <line class="cls-3" x1="-36.905" y1="-59.357" x2="81.706" y2="59.254"/>
          <line class="cls-3" x1="-36.905" y1="-65.757" x2="81.706" y2="52.854"/>
          <line class="cls-3" x1="-36.905" y1="-72.158" x2="81.706" y2="46.454"/>
          <line class="cls-3" x1="-36.905" y1="-78.558" x2="81.706" y2="40.054"/>
          <line class="cls-3" x1="-36.905" y1="-84.958" x2="81.706" y2="33.653"/>
          <line class="cls-3" x1="-36.905" y1="11.044" x2="81.706" y2="129.655"/>
        </g>
      </g>
    </pattern>
  </defs>
  <title>ABOUT - Awards</title>
  <g>
    <path class="cls-4" d="M30,59.5A29.5,29.5,0,1,1,59.5,30,29.533,29.533,0,0,1,30,59.5Z"/>
    <path class="cls-5" d="M30,1A29,29,0,1,1,1,30,29.033,29.033,0,0,1,30,1m0-1A30,30,0,1,0,60,30,30,30,0,0,0,30,0Z"/>
  </g>
  <path class="cls-6" d="M42.976,18"/>
  <g>
    <g>
      <g>
        <path class="cls-7" d="M34.479,54.76a1.234,1.234,0,0,1-1.224-1.042l-3.422-21.6a1.235,1.235,0,0,1,1.026-1.412l6.056-.959a1.194,1.194,0,0,1,.194-.016,1.229,1.229,0,0,1,1.218,1.041l3.422,21.6a1.209,1.209,0,0,1-.276.991,1.241,1.241,0,0,1-.944.438,1.224,1.224,0,0,1-.72-.235l-2.321-1.671a.228.228,0,0,0-.136-.045.231.231,0,0,0-.189.1L35.47,54.255a1.22,1.22,0,0,1-.99.5Z"/>
        <path class="cls-5" d="M37.109,30.235a.734.734,0,0,1,.724.619l3.423,21.6a.735.735,0,0,1-.728.851.724.724,0,0,1-.426-.14l-2.323-1.672a.734.734,0,0,0-1.021.162l-1.692,2.308a.718.718,0,0,1-.587.3.73.73,0,0,1-.73-.62l-3.423-21.6a.734.734,0,0,1,.61-.84l6.056-.96a.739.739,0,0,1,.116-.009m0-1h0a1.739,1.739,0,0,0-.272.021l-6.056.96A1.736,1.736,0,0,0,29.34,32.2l3.423,21.6a1.733,1.733,0,0,0,3.111.754l1.536-2.1,2.108,1.518a1.721,1.721,0,0,0,1.01.329,1.735,1.735,0,0,0,1.715-2.007L38.82,30.7a1.726,1.726,0,0,0-1.712-1.463Z"/>
      </g>
      <g>
        <path class="cls-7" d="M25.178,54.76a1.219,1.219,0,0,1-.99-.5L22.5,51.946a.231.231,0,0,0-.325-.052l-2.323,1.672a1.224,1.224,0,0,1-.718.234,1.242,1.242,0,0,1-.945-.437,1.211,1.211,0,0,1-.276-.991l3.422-21.6a1.227,1.227,0,0,1,1.218-1.041,1.188,1.188,0,0,1,.194.016l6.056.959a1.234,1.234,0,0,1,1.025,1.412L26.4,53.718A1.231,1.231,0,0,1,25.178,54.76Z"/>
        <path class="cls-5" d="M22.549,30.235a.739.739,0,0,1,.116.009l6.056.96a.734.734,0,0,1,.61.84l-3.423,21.6a.73.73,0,0,1-.73.62.718.718,0,0,1-.587-.3L22.9,51.65a.734.734,0,0,0-1.021-.162l-2.323,1.672a.724.724,0,0,1-.426.14.735.735,0,0,1-.728-.851l3.423-21.6a.734.734,0,0,1,.724-.619m0-1A1.725,1.725,0,0,0,20.837,30.7l-3.423,21.6a1.732,1.732,0,0,0,2.725,1.679l2.108-1.518,1.536,2.1A1.733,1.733,0,0,0,26.9,53.8l3.423-21.6a1.736,1.736,0,0,0-1.441-1.984l-6.056-.96a1.738,1.738,0,0,0-.272-.021Z"/>
      </g>
    </g>
    <g>
      <g>
        <path class="cls-7" d="M30,34.8a2.647,2.647,0,0,1-1.3-.34l-1.752-.981a1.665,1.665,0,0,0-.788-.212l-2.008-.024a2.666,2.666,0,0,1-2.247-1.3l-1.026-1.727a1.655,1.655,0,0,0-.577-.577L18.577,28.62a2.671,2.671,0,0,1-1.3-2.247l-.024-2.01a1.663,1.663,0,0,0-.211-.787l-.983-1.752a2.667,2.667,0,0,1,0-2.594l.983-1.752a1.665,1.665,0,0,0,.211-.788l.024-2.008a2.669,2.669,0,0,1,1.3-2.247l1.728-1.026a1.654,1.654,0,0,0,.577-.576L21.907,9.1a2.669,2.669,0,0,1,2.247-1.3l2.009-.025a1.662,1.662,0,0,0,.788-.21L28.7,6.589a2.651,2.651,0,0,1,2.594,0l1.753.983a1.652,1.652,0,0,0,.786.21l2.01.025a2.667,2.667,0,0,1,2.246,1.3l1.026,1.728a1.655,1.655,0,0,0,.576.576l1.729,1.027a2.667,2.667,0,0,1,1.3,2.246l.024,2.01a1.668,1.668,0,0,0,.212.788l.982,1.752a2.662,2.662,0,0,1,0,2.594l-.981,1.752a1.664,1.664,0,0,0-.212.788l-.024,2.008a2.666,2.666,0,0,1-1.3,2.247l-1.728,1.026a1.666,1.666,0,0,0-.576.577L38.092,31.95a2.666,2.666,0,0,1-2.245,1.3l-2.011.024a1.663,1.663,0,0,0-.787.212l-1.753.982A2.651,2.651,0,0,1,30,34.8Z"/>
        <path class="cls-5" d="M30,6.75a2.15,2.15,0,0,1,1.052.275l1.753.983a2.151,2.151,0,0,0,1.026.275l2.009.025A2.151,2.151,0,0,1,37.662,9.36l1.026,1.728a2.151,2.151,0,0,0,.751.751l1.728,1.026a2.151,2.151,0,0,1,1.052,1.822l.025,2.009a2.151,2.151,0,0,0,.275,1.026l.983,1.753a2.151,2.151,0,0,1,0,2.1l-.983,1.753a2.151,2.151,0,0,0-.275,1.026l-.025,2.009a2.151,2.151,0,0,1-1.052,1.823l-1.728,1.026a2.151,2.151,0,0,0-.751.751l-1.026,1.728a2.151,2.151,0,0,1-1.822,1.052l-2.009.025a2.151,2.151,0,0,0-1.026.275l-1.753.983a2.151,2.151,0,0,1-2.1,0L27.2,33.046a2.151,2.151,0,0,0-1.026-.275l-2.009-.025a2.151,2.151,0,0,1-1.822-1.052l-1.026-1.728a2.151,2.151,0,0,0-.751-.751L18.833,28.19a2.151,2.151,0,0,1-1.052-1.823l-.025-2.009a2.151,2.151,0,0,0-.275-1.026L16.5,21.58a2.151,2.151,0,0,1,0-2.1l.983-1.753a2.151,2.151,0,0,0,.275-1.026l.025-2.009a2.151,2.151,0,0,1,1.052-1.822l1.728-1.026a2.151,2.151,0,0,0,.751-.751L22.338,9.36A2.151,2.151,0,0,1,24.16,8.308l2.009-.025A2.151,2.151,0,0,0,27.2,8.008l1.753-.983A2.15,2.15,0,0,1,30,6.75m0-1a3.158,3.158,0,0,0-1.541.4l-1.753.983a1.154,1.154,0,0,1-.549.147l-2.009.025a3.17,3.17,0,0,0-2.67,1.541l-1.026,1.728a1.154,1.154,0,0,1-.4.4l-1.728,1.026a3.17,3.17,0,0,0-1.541,2.67l-.025,2.009a1.154,1.154,0,0,1-.147.549l-.983,1.753a3.17,3.17,0,0,0,0,3.083l.983,1.753a1.154,1.154,0,0,1,.147.549l.025,2.009a3.17,3.17,0,0,0,1.541,2.67l1.728,1.026a1.154,1.154,0,0,1,.4.4l1.026,1.728a3.17,3.17,0,0,0,2.67,1.541l2.009.025a1.154,1.154,0,0,1,.549.147l1.753.983a3.151,3.151,0,0,0,3.083,0l1.753-.983a1.154,1.154,0,0,1,.549-.147l2.009-.025a3.17,3.17,0,0,0,2.67-1.541l1.026-1.728a1.154,1.154,0,0,1,.4-.4l1.728-1.026a3.17,3.17,0,0,0,1.541-2.67l.025-2.009a1.154,1.154,0,0,1,.147-.549l.983-1.753a3.17,3.17,0,0,0,0-3.083l-.983-1.753a1.154,1.154,0,0,1-.147-.549l-.025-2.009a3.17,3.17,0,0,0-1.541-2.67L39.95,10.979a1.154,1.154,0,0,1-.4-.4L38.522,8.849a3.17,3.17,0,0,0-2.67-1.541l-2.009-.025a1.154,1.154,0,0,1-.549-.147l-1.753-.983A3.158,3.158,0,0,0,30,5.75Z"/>
      </g>
      <g>
        <path class="cls-7" d="M30,30.511a9.983,9.983,0,1,1,9.983-9.983A9.995,9.995,0,0,1,30,30.511Z"/>
        <path class="cls-5" d="M30,11.044a9.483,9.483,0,1,1-9.483,9.483A9.483,9.483,0,0,1,30,11.044m0-1A10.483,10.483,0,1,0,40.483,20.527,10.5,10.5,0,0,0,30,10.044Z"/>
      </g>
    </g>
  </g>
</svg>
