<svg id="Layer_1" data-name="Layer 1" xmlns="http://www.w3.org/2000/svg" xmlns:xlink="http://www.w3.org/1999/xlink" viewBox="0 0 60 60">
  <defs>
    <style>
      .cls-1, .cls-3 {
        fill: none;
      }

      .cls-2 {
        clip-path: url(#clip-path);
      }

      .cls-3, .cls-6 {
        stroke: #313133;
      }

      .cls-3 {
        stroke-miterlimit: 10;
      }

      .cls-4 {
        fill: url(#Crosshatch_Fill);
      }

      .cls-5 {
        fill: #313133;
      }

      .cls-6, .cls-7 {
        fill: #fff;
      }

      .cls-6 {
        stroke-linecap: round;
        stroke-linejoin: round;
      }
    </style>
    <clipPath id="clip-path">
      <polygon class="cls-1" points="44.801 0 44.801 44.801 0 44.801 0 0 44.801 0"/>
    </clipPath>
    <pattern id="Crosshatch_Fill" data-name="Crosshatch Fill" width="44.801" height="44.801" patternUnits="userSpaceOnUse" viewBox="0 0 44.801 44.801">
      <rect class="cls-1" width="44.801" height="44.801"/>
      <g class="cls-2">
        <g>
          <line class="cls-3" x1="4.695" y1="81.654" x2="123.306" y2="-36.957"/>
          <line class="cls-3" x1="-1.705" y1="81.654" x2="116.906" y2="-36.957"/>
          <line class="cls-3" x1="-8.105" y1="81.654" x2="110.506" y2="-36.957"/>
          <line class="cls-3" x1="-14.505" y1="81.654" x2="104.106" y2="-36.957"/>
          <line class="cls-3" x1="-20.905" y1="81.654" x2="97.706" y2="-36.957"/>
          <line class="cls-3" x1="-27.305" y1="81.654" x2="91.306" y2="-36.957"/>
          <line class="cls-3" x1="-33.705" y1="81.654" x2="84.906" y2="-36.957"/>
          <line class="cls-3" x1="-40.105" y1="81.654" x2="78.506" y2="-36.957"/>
          <line class="cls-3" x1="-46.505" y1="81.654" x2="72.106" y2="-36.957"/>
          <line class="cls-3" x1="-52.905" y1="81.654" x2="65.706" y2="-36.957"/>
          <line class="cls-3" x1="-59.306" y1="81.654" x2="59.306" y2="-36.957"/>
          <line class="cls-3" x1="-65.706" y1="81.654" x2="52.905" y2="-36.957"/>
          <line class="cls-3" x1="-72.106" y1="81.654" x2="46.505" y2="-36.957"/>
          <line class="cls-3" x1="-78.506" y1="81.654" x2="40.105" y2="-36.957"/>
          <line class="cls-3" x1="-84.906" y1="81.654" x2="33.705" y2="-36.957"/>
          <line class="cls-3" x1="11.095" y1="81.654" x2="129.707" y2="-36.957"/>
          <line class="cls-3" x1="-36.905" y1="4.644" x2="81.706" y2="123.255"/>
          <line class="cls-3" x1="-36.905" y1="-1.756" x2="81.706" y2="116.855"/>
          <line class="cls-3" x1="-36.905" y1="-8.157" x2="81.706" y2="110.455"/>
          <line class="cls-3" x1="-36.905" y1="-14.557" x2="81.706" y2="104.054"/>
          <line class="cls-3" x1="-36.905" y1="-20.957" x2="81.706" y2="97.654"/>
          <line class="cls-3" x1="-36.905" y1="-27.357" x2="81.706" y2="91.254"/>
          <line class="cls-3" x1="-36.905" y1="-33.757" x2="81.706" y2="84.854"/>
          <line class="cls-3" x1="-36.905" y1="-40.157" x2="81.706" y2="78.454"/>
          <line class="cls-3" x1="-36.905" y1="-46.557" x2="81.706" y2="72.054"/>
          <line class="cls-3" x1="-36.905" y1="-52.957" x2="81.706" y2="65.654"/>
          <line class="cls-3" x1="-36.905" y1="-59.357" x2="81.706" y2="59.254"/>
          <line class="cls-3" x1="-36.905" y1="-65.757" x2="81.706" y2="52.854"/>
          <line class="cls-3" x1="-36.905" y1="-72.158" x2="81.706" y2="46.454"/>
          <line class="cls-3" x1="-36.905" y1="-78.558" x2="81.706" y2="40.054"/>
          <line class="cls-3" x1="-36.905" y1="-84.958" x2="81.706" y2="33.653"/>
          <line class="cls-3" x1="-36.905" y1="11.044" x2="81.706" y2="129.655"/>
        </g>
      </g>
    </pattern>
  </defs>
  <title>ABOUT - Education</title>
  <g>
    <path class="cls-4" d="M30,59.5A29.5,29.5,0,1,1,59.5,30,29.533,29.533,0,0,1,30,59.5Z"/>
    <path class="cls-5" d="M30,1A29,29,0,1,1,1,30,29.033,29.033,0,0,1,30,1m0-1A30,30,0,1,0,60,30,30,30,0,0,0,30,0Z"/>
  </g>
  <path class="cls-6" d="M42.976,18"/>
  <g>
    <g>
      <g>
        <path class="cls-7" d="M31.01,45.907a2.047,2.047,0,0,1-1.482-.64,18.371,18.371,0,0,0-6.318-4.091,19,19,0,0,0-6.923-1.508,10.808,10.808,0,0,0-1.121.057,2.1,2.1,0,0,1-.22.012h0A2.038,2.038,0,0,1,12.9,37.71V29.451a2.042,2.042,0,0,1,2.04-2.04H45.058a2.042,2.042,0,0,1,2.04,2.04v8.194a2.026,2.026,0,0,1-1.934,2.037,19.305,19.305,0,0,0-6.34,1.494,18.45,18.45,0,0,0-6.335,4.093A2.017,2.017,0,0,1,31.01,45.907Z"/>
        <path class="cls-5" d="M45.058,27.912A1.539,1.539,0,0,1,46.6,29.451v8.194a1.532,1.532,0,0,1-1.455,1.537,19.753,19.753,0,0,0-6.507,1.531,18.973,18.973,0,0,0-6.509,4.212,1.536,1.536,0,0,1-2.235,0A18.862,18.862,0,0,0,23.4,40.713a19.412,19.412,0,0,0-7.114-1.544,11.17,11.17,0,0,0-1.171.059,1.6,1.6,0,0,1-.168.009A1.532,1.532,0,0,1,13.4,37.71V29.451a1.539,1.539,0,0,1,1.539-1.539H45.058m0-1H14.942A2.542,2.542,0,0,0,12.4,29.451V37.71a2.538,2.538,0,0,0,2.543,2.527,2.6,2.6,0,0,0,.273-.014,10.207,10.207,0,0,1,1.066-.053,18.493,18.493,0,0,1,6.736,1.47,17.857,17.857,0,0,1,6.144,3.971,2.536,2.536,0,0,0,3.688,0,17.956,17.956,0,0,1,6.16-3.974,18.85,18.85,0,0,1,6.173-1.458A2.525,2.525,0,0,0,47.6,37.646V29.451a2.542,2.542,0,0,0-2.539-2.539Z"/>
      </g>
      <g>
        <path class="cls-7" d="M30.005,38.449a4.548,4.548,0,0,1-1.725-.341l-3.1-1.279a.477.477,0,0,1-.119-.031L5.571,28.8a1.319,1.319,0,0,1,0-2.442l17.4-7.119a.5.5,0,0,1,.185-.037l4.808-1.972a5.349,5.349,0,0,1,4.061,0l2.753,1.129a.439.439,0,0,1,.156.033l19.488,7.967a1.319,1.319,0,0,1,0,2.442L37.023,35.949c-.026.011-.114.032-.143.039l-5.162,2.123a4.5,4.5,0,0,1-1.713.338Z"/>
        <path class="cls-5" d="M30,17.333a4.849,4.849,0,0,1,1.841.363l2.921,1.2-.011-.036,19.489,7.967a.819.819,0,0,1,0,1.517L36.834,35.486l-.062.013L31.53,37.649a4.03,4.03,0,0,1-3.059,0l-3.232-1.333.011.022L5.761,28.342a.819.819,0,0,1,0-1.517l17.4-7.12.062.014L28.159,17.7A4.847,4.847,0,0,1,30,17.333m0-1a5.821,5.821,0,0,0-2.22.438l-4.734,1.942a1,1,0,0,0-.259.067L5.383,25.9a1.819,1.819,0,0,0,0,3.367L24.87,37.26a1,1,0,0,0,.17.053l3.048,1.257a5.03,5.03,0,0,0,3.82,0l5.159-2.115a1,1,0,0,0,.145-.047l17.405-7.144a1.819,1.819,0,0,0,0-3.367L35.128,17.933a1,1,0,0,0-.231-.063l-2.678-1.1A5.822,5.822,0,0,0,30,16.333Z"/>
      </g>
    </g>
    <g>
      <line class="cls-6" x1="52.052" y1="28.028" x2="52.052" y2="38.225"/>
      <g>
        <circle class="cls-7" cx="52.052" cy="39.116" r="1.589"/>
        <path class="cls-5" d="M52.052,38.027a1.089,1.089,0,1,1-1.089,1.089,1.089,1.089,0,0,1,1.089-1.089m0-1a2.089,2.089,0,1,0,2.089,2.089,2.091,2.091,0,0,0-2.089-2.089Z"/>
      </g>
    </g>
  </g>
</svg>
