<svg id="Layer_1" data-name="Layer 1" xmlns="http://www.w3.org/2000/svg" xmlns:xlink="http://www.w3.org/1999/xlink" viewBox="0 0 60 60">
  <defs>
    <style>
      .cls-1, .cls-3, .cls-7 {
        fill: none;
      }

      .cls-2 {
        clip-path: url(#clip-path);
      }

      .cls-3, .cls-6, .cls-7 {
        stroke: #313133;
      }

      .cls-3 {
        stroke-miterlimit: 10;
      }

      .cls-4 {
        fill: url(#Crosshatch_Fill);
      }

      .cls-5 {
        fill: #313133;
      }

      .cls-6, .cls-8 {
        fill: #fff;
      }

      .cls-6, .cls-7 {
        stroke-linecap: round;
        stroke-linejoin: round;
      }
    </style>
    <clipPath id="clip-path">
      <polygon class="cls-1" points="44.801 0 44.801 44.801 0 44.801 0 0 44.801 0"/>
    </clipPath>
    <pattern id="Crosshatch_Fill" data-name="Crosshatch Fill" width="44.801" height="44.801" patternUnits="userSpaceOnUse" viewBox="0 0 44.801 44.801">
      <rect class="cls-1" width="44.801" height="44.801"/>
      <g class="cls-2">
        <g>
          <line class="cls-3" x1="4.695" y1="81.654" x2="123.306" y2="-36.957"/>
          <line class="cls-3" x1="-1.705" y1="81.654" x2="116.906" y2="-36.957"/>
          <line class="cls-3" x1="-8.105" y1="81.654" x2="110.506" y2="-36.957"/>
          <line class="cls-3" x1="-14.505" y1="81.654" x2="104.106" y2="-36.957"/>
          <line class="cls-3" x1="-20.905" y1="81.654" x2="97.706" y2="-36.957"/>
          <line class="cls-3" x1="-27.305" y1="81.654" x2="91.306" y2="-36.957"/>
          <line class="cls-3" x1="-33.705" y1="81.654" x2="84.906" y2="-36.957"/>
          <line class="cls-3" x1="-40.105" y1="81.654" x2="78.506" y2="-36.957"/>
          <line class="cls-3" x1="-46.505" y1="81.654" x2="72.106" y2="-36.957"/>
          <line class="cls-3" x1="-52.905" y1="81.654" x2="65.706" y2="-36.957"/>
          <line class="cls-3" x1="-59.306" y1="81.654" x2="59.306" y2="-36.957"/>
          <line class="cls-3" x1="-65.706" y1="81.654" x2="52.905" y2="-36.957"/>
          <line class="cls-3" x1="-72.106" y1="81.654" x2="46.505" y2="-36.957"/>
          <line class="cls-3" x1="-78.506" y1="81.654" x2="40.105" y2="-36.957"/>
          <line class="cls-3" x1="-84.906" y1="81.654" x2="33.705" y2="-36.957"/>
          <line class="cls-3" x1="11.095" y1="81.654" x2="129.707" y2="-36.957"/>
          <line class="cls-3" x1="-36.905" y1="4.644" x2="81.706" y2="123.255"/>
          <line class="cls-3" x1="-36.905" y1="-1.756" x2="81.706" y2="116.855"/>
          <line class="cls-3" x1="-36.905" y1="-8.157" x2="81.706" y2="110.455"/>
          <line class="cls-3" x1="-36.905" y1="-14.557" x2="81.706" y2="104.054"/>
          <line class="cls-3" x1="-36.905" y1="-20.957" x2="81.706" y2="97.654"/>
          <line class="cls-3" x1="-36.905" y1="-27.357" x2="81.706" y2="91.254"/>
          <line class="cls-3" x1="-36.905" y1="-33.757" x2="81.706" y2="84.854"/>
          <line class="cls-3" x1="-36.905" y1="-40.157" x2="81.706" y2="78.454"/>
          <line class="cls-3" x1="-36.905" y1="-46.557" x2="81.706" y2="72.054"/>
          <line class="cls-3" x1="-36.905" y1="-52.957" x2="81.706" y2="65.654"/>
          <line class="cls-3" x1="-36.905" y1="-59.357" x2="81.706" y2="59.254"/>
          <line class="cls-3" x1="-36.905" y1="-65.757" x2="81.706" y2="52.854"/>
          <line class="cls-3" x1="-36.905" y1="-72.158" x2="81.706" y2="46.454"/>
          <line class="cls-3" x1="-36.905" y1="-78.558" x2="81.706" y2="40.054"/>
          <line class="cls-3" x1="-36.905" y1="-84.958" x2="81.706" y2="33.653"/>
          <line class="cls-3" x1="-36.905" y1="11.044" x2="81.706" y2="129.655"/>
        </g>
      </g>
    </pattern>
  </defs>
  <title>ABOUT - Patents</title>
  <g>
    <path class="cls-4" d="M30,59.5A29.5,29.5,0,1,1,59.5,30,29.533,29.533,0,0,1,30,59.5Z"/>
    <path class="cls-5" d="M30,1A29,29,0,1,1,1,30,29.033,29.033,0,0,1,30,1m0-1A30,30,0,1,0,60,30,30,30,0,0,0,30,0Z"/>
  </g>
  <path class="cls-6" d="M42.976,18"/>
  <rect class="cls-6" x="18.5" y="11.561" width="23" height="30.712"/>
  <line class="cls-7" x1="21.679" y1="15.755" x2="33.45" y2="15.755"/>
  <line class="cls-7" x1="21.679" y1="18.799" x2="36.765" y2="18.799"/>
  <line class="cls-7" x1="21.679" y1="20.716" x2="34.803" y2="20.716"/>
  <line class="cls-7" x1="21.679" y1="22.632" x2="35.818" y2="22.632"/>
  <line class="cls-7" x1="21.679" y1="24.549" x2="28.749" y2="24.549"/>
  <polyline class="cls-7" points="21.679 38.618 23.439 36.858 25.097 38.515 29.256 38.515"/>
  <g>
    <g>
      <path class="cls-8" d="M39.547,55.03a.9.9,0,0,1-.635-.264l-1.051-1.044-1.053,1.042a.9.9,0,0,1-.634.263.92.92,0,0,1-.646-.268.894.894,0,0,1-.261-.639l.011-12.043a.9.9,0,0,1,.9-.9l3.378,0a.905.905,0,0,1,.9.905l-.011,12.044A.907.907,0,0,1,39.547,55.03Z"/>
      <path class="cls-5" d="M36.184,41.674h0l3.377,0a.4.4,0,0,1,.4.4l-.011,12.044a.4.4,0,0,1-.407.4.4.4,0,0,1-.282-.118L38.147,53.3a.4.4,0,0,0-.569,0l-1.12,1.109a.4.4,0,0,1-.281.118.4.4,0,0,1-.407-.405l.011-12.044a.4.4,0,0,1,.4-.4m0-1h0a1.406,1.406,0,0,0-1.4,1.4l-.011,12.044a1.387,1.387,0,0,0,.442,1.025,1.408,1.408,0,0,0,.965.381,1.393,1.393,0,0,0,.985-.407l.7-.693.7.695a1.392,1.392,0,0,0,.987.409,1.408,1.408,0,0,0,1.407-1.4l.011-12.044a1.4,1.4,0,0,0-1.4-1.406l-3.377,0Z"/>
    </g>
    <g>
      <g>
        <path class="cls-8" d="M37.868,44.815a1.4,1.4,0,0,1-.687-.181l-.736-.412a.406.406,0,0,0-.193-.052l-.845-.011a1.408,1.408,0,0,1-1.189-.688l-.431-.724a.41.41,0,0,0-.141-.143l-.727-.431a1.391,1.391,0,0,1-.687-1.19l-.011-.844a.4.4,0,0,0-.051-.192l-.414-.738a1.413,1.413,0,0,1,0-1.373l.413-.737a.4.4,0,0,0,.052-.193l.011-.845a1.411,1.411,0,0,1,.688-1.188l.727-.432a.4.4,0,0,0,.141-.141l.432-.728a1.411,1.411,0,0,1,1.189-.687l.845-.01a.4.4,0,0,0,.189-.051l.74-.415a1.408,1.408,0,0,1,1.373,0l.737.413a.4.4,0,0,0,.193.053l.844.01a1.413,1.413,0,0,1,1.19.688l.431.727a.4.4,0,0,0,.141.141l.728.432a1.415,1.415,0,0,1,.687,1.189l.011.844a.41.41,0,0,0,.051.193l.414.737a1.412,1.412,0,0,1,0,1.374l-.412.736a.392.392,0,0,0-.052.193l-.011.845a1.416,1.416,0,0,1-.687,1.189l-.728.431a.415.415,0,0,0-.141.142l-.432.727a1.408,1.408,0,0,1-1.189.687l-.844.011a.4.4,0,0,0-.2.053l-.735.412A1.41,1.41,0,0,1,37.868,44.815Z"/>
        <path class="cls-5" d="M37.868,32.732a.9.9,0,0,1,.442.116l.737.413a.9.9,0,0,0,.431.116l.845.01a.9.9,0,0,1,.766.442l.431.726a.9.9,0,0,0,.316.316l.726.431a.9.9,0,0,1,.442.766l.01.845a.9.9,0,0,0,.116.431l.413.737a.9.9,0,0,1,0,.885l-.413.737a.9.9,0,0,0-.116.431l-.01.845a.9.9,0,0,1-.442.766l-.726.431a.9.9,0,0,0-.316.316l-.431.726a.9.9,0,0,1-.766.442l-.845.01a.9.9,0,0,0-.431.116l-.737.413a.9.9,0,0,1-.885,0l-.737-.413a.9.9,0,0,0-.431-.116l-.845-.01a.9.9,0,0,1-.766-.442l-.431-.726a.9.9,0,0,0-.316-.316l-.726-.431a.9.9,0,0,1-.442-.766l-.01-.845a.9.9,0,0,0-.116-.431l-.413-.737a.9.9,0,0,1,0-.885l.413-.737a.9.9,0,0,0,.116-.431l.01-.845a.9.9,0,0,1,.442-.766l.726-.431a.9.9,0,0,0,.316-.316l.431-.726a.9.9,0,0,1,.766-.442l.845-.01a.9.9,0,0,0,.431-.116l.737-.413a.9.9,0,0,1,.442-.116m0-1a1.908,1.908,0,0,0-.932.243l-.737.413-.8,0a1.916,1.916,0,0,0-1.614.932l-.431.726-.693.4a1.916,1.916,0,0,0-.932,1.613l-.01.845-.4.691a1.916,1.916,0,0,0,0,1.863l.413.737,0,.8a1.916,1.916,0,0,0,.932,1.613l.726.431.4.693a1.916,1.916,0,0,0,1.613.932l.845.01.691.4a1.9,1.9,0,0,0,1.863,0l.737-.413.8,0a1.916,1.916,0,0,0,1.614-.932L42.381,43l.693-.4A1.916,1.916,0,0,0,44,40.991l.01-.845.4-.691a1.916,1.916,0,0,0,0-1.863L44,36.855l0-.8a1.916,1.916,0,0,0-.932-1.613l-.726-.431-.4-.693a1.916,1.916,0,0,0-1.614-.932l-.845-.01-.691-.4a1.908,1.908,0,0,0-.932-.243Z"/>
      </g>
      <g>
        <circle class="cls-8" cx="37.868" cy="38.523" r="3.65"/>
        <path class="cls-5" d="M37.868,35.373a3.151,3.151,0,1,1-3.151,3.151,3.151,3.151,0,0,1,3.151-3.151m0-1a4.151,4.151,0,1,0,4.151,4.151,4.155,4.155,0,0,0-4.151-4.151Z"/>
      </g>
    </g>
  </g>
</svg>
