<svg xmlns="http://www.w3.org/2000/svg" xmlns:xlink="http://www.w3.org/1999/xlink" viewBox="0 0 720.568 1099.509">
  <defs>
    <style>
      .cls-1, .cls-12, .cls-13, .cls-16, .cls-3, .cls-4, .cls-7 {
        fill: none;
      }

      .cls-2 {
        clip-path: url(#clip-path);
      }

      .cls-10, .cls-11, .cls-12, .cls-13, .cls-14, .cls-3, .cls-4 {
        stroke: #313133;
      }

      .cls-10, .cls-12, .cls-14, .cls-15, .cls-16, .cls-3, .cls-4, .cls-5, .cls-6, .cls-7, .cls-8 {
        stroke-linecap: round;
      }

      .cls-10, .cls-12, .cls-14, .cls-15, .cls-16, .cls-3, .cls-4, .cls-5, .cls-6 {
        stroke-linejoin: round;
      }

      .cls-16, .cls-3, .cls-4 {
        stroke-width: 2px;
      }

      .cls-4 {
        stroke-dasharray: 0 4.874;
      }

      .cls-15, .cls-5, .cls-6, .cls-7, .cls-8 {
        stroke: #323232;
      }

      .cls-10, .cls-11, .cls-12, .cls-13, .cls-15, .cls-5, .cls-6, .cls-7, .cls-8 {
        stroke-width: 0.5px;
      }

      .cls-5 {
        fill: url(#New_Pattern_4);
      }

      .cls-10, .cls-11, .cls-6, .cls-8, .cls-9 {
        fill: #fff;
      }

      .cls-11, .cls-13, .cls-7, .cls-8 {
        stroke-miterlimit: 10;
      }

      .cls-14 {
        fill: #f07169;
      }

      .cls-15 {
        fill: url(#New_Pattern_4-3);
      }

      .cls-16 {
        stroke: #f07169;
      }
    </style>
    <clipPath id="clip-path">
      <rect class="cls-1" width="41.416" height="41.416"/>
    </clipPath>
    <pattern id="New_Pattern_4" data-name="New Pattern 4" width="41.416" height="41.416" patternUnits="userSpaceOnUse" viewBox="0 0 41.416 41.416">
      <rect class="cls-1" width="41.416" height="41.416"/>
      <g class="cls-2">
        <g>
          <g>
            <line class="cls-3" y1="-6.831" y2="-6.831"/>
            <line class="cls-4" x1="3.446" y1="-3.384" x2="43.078" y2="36.247"/>
            <line class="cls-3" x1="44.801" y1="37.97" x2="44.801" y2="37.97"/>
          </g>
          <g>
            <line class="cls-3" y1="-48.185" y2="-48.185"/>
            <line class="cls-4" x1="3.446" y1="-44.739" x2="43.078" y2="-5.108"/>
            <line class="cls-3" x1="44.801" y1="-3.384" x2="44.801" y2="-3.384"/>
          </g>
          <g>
            <line class="cls-3" y1="-41.293" y2="-41.293"/>
            <line class="cls-4" x1="3.446" y1="-37.846" x2="43.078" y2="1.785"/>
            <line class="cls-3" x1="44.801" y1="3.508" x2="44.801" y2="3.508"/>
          </g>
          <g>
            <line class="cls-3" y1="0.062" y2="0.062"/>
            <line class="cls-4" x1="3.446" y1="3.508" x2="43.078" y2="43.139"/>
            <line class="cls-3" x1="44.801" y1="44.863" x2="44.801" y2="44.863"/>
          </g>
          <g>
            <line class="cls-3" y1="6.954" y2="6.954"/>
            <line class="cls-4" x1="3.446" y1="10.4" x2="43.078" y2="50.032"/>
            <line class="cls-3" x1="44.801" y1="51.755" x2="44.801" y2="51.755"/>
          </g>
          <g>
            <line class="cls-3" y1="13.847" y2="13.847"/>
            <line class="cls-4" x1="3.446" y1="17.293" x2="43.078" y2="56.924"/>
            <line class="cls-3" x1="44.801" y1="58.647" x2="44.801" y2="58.647"/>
          </g>
          <g>
            <line class="cls-3" y1="20.739" y2="20.739"/>
            <line class="cls-4" x1="3.446" y1="24.185" x2="43.078" y2="63.817"/>
            <line class="cls-3" x1="44.801" y1="65.54" x2="44.801" y2="65.54"/>
          </g>
          <g>
            <line class="cls-3" y1="27.631" y2="27.631"/>
            <line class="cls-4" x1="3.446" y1="31.078" x2="43.078" y2="70.709"/>
            <line class="cls-3" x1="44.801" y1="72.432" x2="44.801" y2="72.432"/>
          </g>
          <g>
            <line class="cls-3" y1="34.524" y2="34.524"/>
            <line class="cls-4" x1="3.446" y1="37.97" x2="43.078" y2="77.601"/>
            <line class="cls-3" x1="44.801" y1="79.325" x2="44.801" y2="79.325"/>
          </g>
          <g>
            <line class="cls-3" y1="-27.508" y2="-27.508"/>
            <line class="cls-4" x1="3.446" y1="-24.062" x2="43.078" y2="15.57"/>
            <line class="cls-3" x1="44.801" y1="17.293" x2="44.801" y2="17.293"/>
          </g>
          <g>
            <line class="cls-3" y1="-34.4" y2="-34.4"/>
            <line class="cls-4" x1="3.446" y1="-30.954" x2="43.078" y2="8.677"/>
            <line class="cls-3" x1="44.801" y1="10.4" x2="44.801" y2="10.4"/>
          </g>
          <g>
            <line class="cls-3" y1="-20.615" y2="-20.615"/>
            <line class="cls-4" x1="3.446" y1="-17.169" x2="43.078" y2="22.462"/>
            <line class="cls-3" x1="44.801" y1="24.185" x2="44.801" y2="24.185"/>
          </g>
          <g>
            <line class="cls-3" y1="-13.723" y2="-13.723"/>
            <line class="cls-4" x1="3.446" y1="-10.277" x2="43.078" y2="29.355"/>
            <line class="cls-3" x1="44.801" y1="31.078" x2="44.801" y2="31.078"/>
          </g>
          <g>
            <line class="cls-3" y1="41.416" y2="41.416"/>
            <line class="cls-4" x1="3.446" y1="44.863" x2="43.078" y2="84.494"/>
            <line class="cls-3" x1="44.801" y1="86.217" x2="44.801" y2="86.217"/>
          </g>
        </g>
      </g>
    </pattern>
    <pattern id="New_Pattern_4-3" data-name="New Pattern 4" width="41.416" height="41.416" patternTransform="translate(30.839 40.174)" patternUnits="userSpaceOnUse" viewBox="0 0 41.416 41.416">
      <rect class="cls-1" width="41.416" height="41.416"/>
      <g class="cls-2">
        <g>
          <g>
            <line class="cls-3" y1="-6.831" y2="-6.831"/>
            <line class="cls-4" x1="3.446" y1="-3.384" x2="43.078" y2="36.247"/>
            <line class="cls-3" x1="44.801" y1="37.97" x2="44.801" y2="37.97"/>
          </g>
          <g>
            <line class="cls-3" y1="-48.185" y2="-48.185"/>
            <line class="cls-4" x1="3.446" y1="-44.739" x2="43.078" y2="-5.108"/>
            <line class="cls-3" x1="44.801" y1="-3.384" x2="44.801" y2="-3.384"/>
          </g>
          <g>
            <line class="cls-3" y1="-41.293" y2="-41.293"/>
            <line class="cls-4" x1="3.446" y1="-37.846" x2="43.078" y2="1.785"/>
            <line class="cls-3" x1="44.801" y1="3.508" x2="44.801" y2="3.508"/>
          </g>
          <g>
            <line class="cls-3" y1="0.062" y2="0.062"/>
            <line class="cls-4" x1="3.446" y1="3.508" x2="43.078" y2="43.139"/>
            <line class="cls-3" x1="44.801" y1="44.863" x2="44.801" y2="44.863"/>
          </g>
          <g>
            <line class="cls-3" y1="6.954" y2="6.954"/>
            <line class="cls-4" x1="3.446" y1="10.4" x2="43.078" y2="50.032"/>
            <line class="cls-3" x1="44.801" y1="51.755" x2="44.801" y2="51.755"/>
          </g>
          <g>
            <line class="cls-3" y1="13.847" y2="13.847"/>
            <line class="cls-4" x1="3.446" y1="17.293" x2="43.078" y2="56.924"/>
            <line class="cls-3" x1="44.801" y1="58.647" x2="44.801" y2="58.647"/>
          </g>
          <g>
            <line class="cls-3" y1="20.739" y2="20.739"/>
            <line class="cls-4" x1="3.446" y1="24.185" x2="43.078" y2="63.817"/>
            <line class="cls-3" x1="44.801" y1="65.54" x2="44.801" y2="65.54"/>
          </g>
          <g>
            <line class="cls-3" y1="27.631" y2="27.631"/>
            <line class="cls-4" x1="3.446" y1="31.078" x2="43.078" y2="70.709"/>
            <line class="cls-3" x1="44.801" y1="72.432" x2="44.801" y2="72.432"/>
          </g>
          <g>
            <line class="cls-3" y1="34.524" y2="34.524"/>
            <line class="cls-4" x1="3.446" y1="37.97" x2="43.078" y2="77.601"/>
            <line class="cls-3" x1="44.801" y1="79.325" x2="44.801" y2="79.325"/>
          </g>
          <g>
            <line class="cls-3" y1="-27.508" y2="-27.508"/>
            <line class="cls-4" x1="3.446" y1="-24.062" x2="43.078" y2="15.57"/>
            <line class="cls-3" x1="44.801" y1="17.293" x2="44.801" y2="17.293"/>
          </g>
          <g>
            <line class="cls-3" y1="-34.4" y2="-34.4"/>
            <line class="cls-4" x1="3.446" y1="-30.954" x2="43.078" y2="8.677"/>
            <line class="cls-3" x1="44.801" y1="10.4" x2="44.801" y2="10.4"/>
          </g>
          <g>
            <line class="cls-3" y1="-20.615" y2="-20.615"/>
            <line class="cls-4" x1="3.446" y1="-17.169" x2="43.078" y2="22.462"/>
            <line class="cls-3" x1="44.801" y1="24.185" x2="44.801" y2="24.185"/>
          </g>
          <g>
            <line class="cls-3" y1="-13.723" y2="-13.723"/>
            <line class="cls-4" x1="3.446" y1="-10.277" x2="43.078" y2="29.355"/>
            <line class="cls-3" x1="44.801" y1="31.078" x2="44.801" y2="31.078"/>
          </g>
          <g>
            <line class="cls-3" y1="41.416" y2="41.416"/>
            <line class="cls-4" x1="3.446" y1="44.863" x2="43.078" y2="84.494"/>
            <line class="cls-3" x1="44.801" y1="86.217" x2="44.801" y2="86.217"/>
          </g>
        </g>
      </g>
    </pattern>
  </defs>
  <title>Configuration Linework - Clip</title>
  <g id="Layer_2" data-name="Layer 2">
    <path class="cls-5" d="M636.725,306.9,430.534,343.258c-16.224,2.861-29.376,18.332-29.376,34.556h0c0,16.224,13.152,27.057,29.376,24.2l206.191-36.357c16.224-2.861,29.376-18.332,29.376-34.556h0C666.1,314.873,652.949,304.04,636.725,306.9Zm0,52L430.534,395.26c-12.476,2.2-22.625-6.16-22.625-18.636s10.15-24.416,22.625-26.615l206.191-36.357c12.476-2.2,22.625,6.16,22.625,18.636S649.2,356.7,636.725,358.9Z" transform="translate(-40.856 -306.193)"/>
    <path class="cls-6" d="M523.367,361.376c0,11.469-9.3,22.4-20.766,24.427s-20.766-5.636-20.766-17.1,9.3-22.4,20.766-24.427S523.367,349.907,523.367,361.376Z" transform="translate(-40.856 -306.193)"/>
    <path class="cls-1" d="M136.9,802.712" transform="translate(-40.856 -306.193)"/>
    <line class="cls-7" x1="309.413" y1="147.773" x2="464.064" y2="147.773"/>
    <g>
      <circle class="cls-8" cx="289.589" cy="147.773" r="19.824"/>
      <path class="cls-8" d="M350.269,453.966h-7.39a.149.149,0,0,1-.143-.107l-1.539-5.3a.149.149,0,0,0-.285,0l-1.9,6.542a.149.149,0,0,1-.285,0l-.418-1.442a.148.148,0,0,0-.285,0l-1.014,3.493a.149.149,0,0,1-.285,0l-3.5-12.072a.149.149,0,0,0-.285,0l-4.464,15.382a.148.148,0,0,1-.285,0l-2.6-8.948a.148.148,0,0,0-.285,0l-1.406,4.845a.149.149,0,0,1-.285,0l-1.5-5.171a.148.148,0,0,0-.285,0l-.971,3.344a.149.149,0,0,1-.287-.008.149.149,0,0,0-.287-.008l-.1.332a.148.148,0,0,1-.285,0l-.893-3.078a.148.148,0,0,0-.286,0l-.551,2.085a.149.149,0,0,1-.144.111h-7.4" transform="translate(-40.856 -306.193)"/>
    </g>
    <line class="cls-7" x1="213.779" y1="445.402" x2="213.779" y2="530.085"/>
    <g>
      <circle class="cls-8" cx="213.779" cy="425.501" r="19.824"/>
      <line class="cls-7" x1="233.603" y1="425.501" x2="221.669" y2="425.501"/>
      <line class="cls-7" x1="205.89" y1="425.501" x2="193.955" y2="425.501"/>
      <line class="cls-7" x1="221.669" y1="420.501" x2="205.89" y2="420.501"/>
      <line class="cls-7" x1="213.779" y1="420.501" x2="213.779" y2="415.761"/>
      <circle class="cls-8" cx="221.669" cy="425.501" r="1.591"/>
      <circle class="cls-8" cx="205.89" cy="425.501" r="1.591"/>
    </g>
  </g>
  <g id="Layer_1" data-name="Layer 1">
    <polyline class="cls-9" points="479.901 93.727 491.208 116.071 489.099 106.14 482.601 90.693 485.554 59.135 487.677 57.77 502.683 80.762 513.974 105.258 524.31 110.554 505.317 80.1 508.642 70.39 528.724 100.763 551.454 127.326 571.536 151.601 547.923 180.952 511.783 192.648 489.099 193.751 466.682 186.91 464.064 170.297"/>
    <g>
      <g>
        <polygon class="cls-10" points="630.145 221.626 630.139 221.62 630.142 221.623 630.145 221.626"/>
        <polygon class="cls-10" points="630.688 222.175 630.683 222.17 630.685 222.172 630.688 222.175"/>
        <polygon class="cls-10" points="629.602 221.077 629.595 221.071 629.598 221.074 629.602 221.077"/>
        <polygon class="cls-10" points="631.227 222.72 631.229 222.721 631.232 222.723 631.227 222.72"/>
        <path class="cls-10" d="M761.174,602.856a10.774,10.774,0,0,1-1.563-1.089q-4.045-3.437-8.058-6.911a8.4,8.4,0,0,0-3.466-2.071h0a40.615,40.615,0,0,1-5.851-4.4,31.09,31.09,0,0,0-4.96-3.763,6.392,6.392,0,0,0-2.352-1.785h0a2.02,2.02,0,0,0-1.035-.949,1.87,1.87,0,0,1-.618-.518h0a6.547,6.547,0,0,0-.55-.464l-1.013-.66a2.166,2.166,0,0,1-.63-.5l-.01-.007a3.439,3.439,0,0,0-.554-.482l-.047-.046a.553.553,0,0,0-.476-.464l0,0h0l-4.826-4.525-.6-.539h0l.005,0a1.29,1.29,0,0,1-.555-.54h0l0,0,0,0-.556-.535h0l0,0a4.032,4.032,0,0,1-.558-.517l-.017-.014a6.591,6.591,0,0,0-.536-.469l-2.657-2.3a1.775,1.775,0,0,1-.625-.5,5.729,5.729,0,0,0-2.628-1.162h0c-2.454-.879-2.458-.875-4.556-3.11-.56-.6-1.081-1.23-1.629-1.838a62.2,62.2,0,0,0-6.351-6.378,67.935,67.935,0,0,1-5.035-4.595,47.324,47.324,0,0,0-8.757-6.423,1.307,1.307,0,0,0-1.085-.547h0a2.953,2.953,0,0,1-.546-.546h0l-.516-.589v0l-3.394-3.777a2.084,2.084,0,0,0-.475-.483l-.048-.051a6.779,6.779,0,0,0-.478-.536l-.028-.031a6.085,6.085,0,0,1-.508-.529l-.026-.026a4.017,4.017,0,0,1-.518-.52l-.028-.028a3.834,3.834,0,0,1-.517-.518l-.029-.029a4.336,4.336,0,0,1-.521-.511l-.032-.03q-.257-.237-.525-.46l-1.049-.656-.588-.488h0l-.029-.023q-.252-.25-.523-.479a2.224,2.224,0,0,0-1.57-.647,3.218,3.218,0,0,1-.633-.456l-.035-.034a3.236,3.236,0,0,0-.511-.518l-.03-.03a4.144,4.144,0,0,0-.514-.523l-.025-.025a6.132,6.132,0,0,0-.519-.53l-.018-.019q-.255-.276-.524-.539l-.011-.011q-.271-.269-.529-.55l0,0a4.17,4.17,0,0,1-.54-.551h0a3.26,3.26,0,0,1-.547-.55l0,0a3.005,3.005,0,0,1-.546-.549,2.738,2.738,0,0,1-.545-.549,2.424,2.424,0,0,1-.543-.549,2.157,2.157,0,0,1-.544-.549,2.062,2.062,0,0,1-.546-.568L666,522.369a3.273,3.273,0,0,0-.495-.51l-.024-.024a3.373,3.373,0,0,0-.527-.509l-.032-.032a2.733,2.733,0,0,0-.515-.515l0-.043c-.171-.179-6.366-6.365-6.56-6.52M481.9,481.583a100.2,100.2,0,0,1,9.561,20.089,6.889,6.889,0,0,0,1.225,2.693h0l.3,1.076h0a.651.651,0,0,0,.333.709h0a3.888,3.888,0,0,0,1.532,2.6h0l.371.548a.443.443,0,0,0,.389.437h0l.053.07a.579.579,0,0,0,.45.553l.027.035a.6.6,0,0,0,.481.579.648.648,0,0,0,.545.551l0,.039a.458.458,0,0,0,.466.517l.068.069a.444.444,0,0,0,.477.477l.071.072a.44.44,0,0,0,.476.472l.076.074a.449.449,0,0,0,.505.448l.066.063a.463.463,0,0,0,.526.456,111.979,111.979,0,0,0,10.319,8.457c2.043,1.518,4.1,3.021,6.116,4.571a68.94,68.94,0,0,0,5.853,3.992c7.351,4.532,15.128,8.307,22.532,12.744a26.9,26.9,0,0,0,9.432,3.4c2.5.423,5.007.856,7.511,1.284a1.145,1.145,0,0,0,1.126.39l.931.217a.617.617,0,0,0,.709.335.5.5,0,0,0,.444.18.581.581,0,0,0,.652.408h0l.079.043a1.013,1.013,0,0,0,.932.644l.018.015a.5.5,0,0,0,.58.446l.038.028h0c1.8,1.518,3.668,2.958,5.371,4.574,2.177,2.067,4.231,4.265,6.317,6.427a36.16,36.16,0,0,1,7.662,12.158,10.967,10.967,0,0,0,1.991,3.5,28.459,28.459,0,0,1,4.651,7.029,21.738,21.738,0,0,0,4.031,6.119,26.085,26.085,0,0,1,1.939,2.292,25,25,0,0,1,2.225,3.1c1.749,3.186,3.893,6.141,5.432,9.452a21.9,21.9,0,0,0,1.831,2.708c1.763,2.65,3.6,5.254,5.237,7.981.892,1.487,1.866,2.887,2.878,4.288a32.029,32.029,0,0,1,4.611,7.679,9,9,0,0,0,1.5,2.255q2.425,3.129,4.907,6.213M478.774,476.49m29.373-13.033q.055.751.109,1.5h0a13.466,13.466,0,0,0,.265,4.287c.265,1.083.55,2.3-.257,3.366h0q-3.211-4.854-5.972-9.978c-1.194-2.226-2.464-4.413-3.781-6.568,0,0-5.376-5.216-6.764-7.4h0l-.009-.008h0a12.288,12.288,0,0,0-2.521-3.463,73.232,73.232,0,0,0-10.94-9.565,20.546,20.546,0,0,0-2.331-1.33v0a19.758,19.758,0,0,0-7.637-4.27,2.975,2.975,0,0,0-.549-.407,14.4,14.4,0,0,0-7.684-.605q-.276.226-.547.456-.271.033-.54.084-.283.238-.579.461a3.234,3.234,0,0,0-1.605.631q-.28.232-.557.468a2.122,2.122,0,0,0-1.159,1.021h0a4.9,4.9,0,0,0-2.057,3.365h0a6.616,6.616,0,0,0-.132,5.532v0a9.837,9.837,0,0,0,2.668,4.653,67.459,67.459,0,0,1,6.451,8.057c1.034,1.6,2.137,3.152,3.283,4.67,1.913,2.534,3.768,5.1,5.429,7.812a12.683,12.683,0,0,0,1.435,1.975c2.4,2.606,7.665,10.511,9.735,13.378M503.857,451.9h0m26.1-87.938c-.262-.472-1.61-2.755-1.814-3.254a10.54,10.54,0,0,1-.4-1.29,12.229,12.229,0,0,0-7.548-8.6c-5.171-1.4-7.663,1.731-7.663,1.731s-4.407,5.829-1.166,16.9c.336,2.647,1.569,5,2.422,7.484,1.476,4.293,4.116,8.039,5.748,12.258l.264,1a.522.522,0,0,0,.289.633,24.266,24.266,0,0,0,1.751,5.26l.051.106a1.013,1.013,0,0,0,.433,1.052l.168.645a.82.82,0,0,0,.335.983h0L528,411.018c-.105.251-.038.417.238.483l.2.569q.016.8.033,1.6h0c-.255.184-.513.2-.666-.1-.5-.966-.98-1.938-1.446-2.919-2.1-4.412-4.888-8.472-6.574-13.092a7.952,7.952,0,0,0-.853-1.38l-3.749-5.983a.622.622,0,0,0-.452-.587h0l-.6-1.039h0c-1.146-2.394-3.171-4.09-4.831-6.075-.77-1.724-1.551-3.444-2.309-5.173-1.524-3.476-3.373-6.785-5.181-10.114a23.541,23.541,0,0,0-1.8-2.7,6.923,6.923,0,0,0-3.843-2.792h0a.728.728,0,0,0-.561-.5l.56.515h0c-.207-.15-.365-.353-.56-.516a4.364,4.364,0,0,0-4.845.038,13.681,13.681,0,0,0-4.9,4.942,10.678,10.678,0,0,0-.675,3.436,40.493,40.493,0,0,0,1.531,12.614c1.26,5.094,2.729,10.136,4.119,15.2.044.159.214.283.326.423l.19,1.016a.94.94,0,0,0,.427,1.1l.095,1.1a2.4,2.4,0,0,0,.378,2.219,68.857,68.857,0,0,0,4.772,13.871c1.055,2.314,2.135,4.617,3.145,6.95a15.175,15.175,0,0,1,1.655,5.437,8.15,8.15,0,0,0,.646,2.355,35.921,35.921,0,0,1,2.01,8.993c.14,1.516-.234,1.644.447,3.054a99.215,99.215,0,0,1,3.222,19.495m149.7,50.758h0l-.024-.033a3.833,3.833,0,0,0-.511-.514l-.033-.033a3.778,3.778,0,0,0-.513-.51l-.038-.036a2.431,2.431,0,0,0-.48-.464l-3.295-2.267h0a7.606,7.606,0,0,0-2.5-1.52c-1.262-.67-2.552-1.288-3.833-1.922a8.619,8.619,0,0,1-3.653-3.443,4.638,4.638,0,0,0-1.4-1.927q-.074-.239-.169-.47a.646.646,0,0,0-.412-.6h0a2.388,2.388,0,0,0-.143-.487.632.632,0,0,0-.413-.594h0a3.611,3.611,0,0,0-.134-.5.645.645,0,0,0-.381-.623h0a2.6,2.6,0,0,0-.124-.488,1.091,1.091,0,0,0-.468-1.1l-.1-.541h0a1.089,1.089,0,0,0-.451-1.1c-.691-2.057-1.452-4.094-2.058-6.176a52.737,52.737,0,0,0-3.864-9.259,26.906,26.906,0,0,1-2.191-5.538,81.164,81.164,0,0,0-6.946-17.067c-.5-.964-.986-1.931-1.479-2.9a.641.641,0,0,0-.412-.59h0a1.879,1.879,0,0,0-.145-.5.559.559,0,0,0-.428-.552h0l-.018-.02-.417-.647v0a1.465,1.465,0,0,0-.152-.446,3.3,3.3,0,0,1-.43-.6,1.715,1.715,0,0,0-.177-.47.623.623,0,0,0-.434-.557h0l-.013-.013-1.134-2.2q-.252-.281-.474-.586l-.62-1.054q-.247-.28-.477-.574l-1.143-1.606a5.245,5.245,0,0,1-.5-.582l-.616-1.062q-.238-.273-.48-.542a2.033,2.033,0,0,1-.528-.623l-1.722-2.113a3.665,3.665,0,0,0-.5-.494l-.03-.031q-.242-.286-.51-.547l-.006-.007a6.18,6.18,0,0,1-.532-.563l.007.007a3.088,3.088,0,0,1-.551-.558l.009.009a2.784,2.784,0,0,1-.555-.557l.01.009a2.751,2.751,0,0,1-.549-.548,2.886,2.886,0,0,1-.553-.57l-.522-.522h0l-2.305-2.7-.469-.554h0l-.525-.545h0c-1.007-1.51-2-3.029-3.027-4.525a14.349,14.349,0,0,0-1.494-1.932c-2.412-2.473-4.86-4.911-7.3-7.36a9.528,9.528,0,0,0-4.409-2.594,33.249,33.249,0,0,0-5.036-1.041c-1.46-.14-2.849-.539-4.276-.785a3.618,3.618,0,0,1-2.367-1.631,20.439,20.439,0,0,1-2.705-5.012c-1.093-3.078-2.133-6.175-3.225-9.254a32,32,0,0,0-6.329-11.331c-1.9-2.064-3.568-4.344-5.266-6.583-2.191-2.891-4.113-6.013-6.515-8.711-2.184-2.454-4.074-5.1-6.073-7.678a18.049,18.049,0,0,0-1.85-1.989,3.961,3.961,0,0,0-2.953-1.185,1.647,1.647,0,0,0-1.661-.461h0l-1.1-.006h0a18.5,18.5,0,0,0-5.471,1.375,5.344,5.344,0,0,0-3.337,4.066M604.3,431.115l.016-.019v.026Zm.508.08H604.8l.066-.05Z" transform="translate(-40.856 -306.193)"/>
        <polygon class="cls-10" points="573.312 135.311 573.313 135.312 573.315 135.314 573.312 135.311"/>
        <polygon class="cls-10" points="567.851 129.292 567.858 129.3 567.86 129.302 567.851 129.292"/>
      </g>
      <path class="cls-10" d="M508.265,472.611s2.756,4.435,2.667,8.275" transform="translate(-40.856 -306.193)"/>
      <polygon class="cls-9" points="497.359 57.845 479.644 64.092 495.44 91.108 515.96 78.56 497.359 57.845"/>
      <path class="cls-10" d="M529.955,363.963a85.6,85.6,0,0,0,8.695,12.074c4.3,4.635,11.079,21.254,13,26.454s10.74,12.436,10.74,12.436" transform="translate(-40.856 -306.193)"/>
    </g>
    <path class="cls-11" d="M508.147,463.457s-9.193-8.108-2.541-17.151c0,0,5.306-8.364,19.371-9.866s60.4-1.761,68.926-.555,8.182,6.89,8.182,7.493-1.722,5.6-10.249,5-40.737-1.292-57.617,1.809-24.626,5.5-25.579,7.751C508.64,457.933,507.354,461.9,508.147,463.457Z" transform="translate(-40.856 -306.193)"/>
    <path class="cls-12" d="M224.729,1055.43a118.865,118.865,0,0,0-1.329,21.327,18.8,18.8,0,0,1-.177,3.974c-1.421,8.419-.756,16.879-.654,25.334.056,4.642-.151,9.288-.267,13.931a6.631,6.631,0,0,1-.3,1.956c-1.6,4.675-1.437,9.508-1.1,14.3.3,4.333-.152,8.613-.292,12.917a5.9,5.9,0,0,1-2.139,4.824c-3.036,2.315-2.913,5.352-2.1,8.552a27.153,27.153,0,0,0,1.2,3.251,12.046,12.046,0,0,1-5.324,15.329,7.922,7.922,0,0,1-1.319.687,2.365,2.365,0,0,0-1.675,2.676c.162,4.478.1,8.971.456,13.433.705,8.947.8,17.906.73,26.866a39.1,39.1,0,0,0,1.466,11.3,17.225,17.225,0,0,1,.588,7.859h0q.009,5.483.017,10.966c1.288,2.551,2.614,5.088,2.909,8a.707.707,0,0,1,.2.785h0a51.68,51.68,0,0,1,2.813,13.169c.888,3.376.558,6.494-1.806,9.258-1.416,1.655-1.059,3.316.207,4.916.71.9,1.38,1.827,2.054,2.752a8.735,8.735,0,0,1,1.507,5.591c-.079,3.938-.12,7.887.088,11.817.147,2.776.729,5.528,1.117,8.291a7.9,7.9,0,0,1,1.051,5.132,9.125,9.125,0,0,1,.953,5.011,23.2,23.2,0,0,1,1.912,7.014l0,.009a3.371,3.371,0,0,1,1.06,2.946h0c1.749,3.555,4.583,5.784,8.145,7.52,5.5,2.68,10.81,5.76,16.144,8.77a12,12,0,0,1,5.686,12.212,2.14,2.14,0,0,1-1.149,1.526,1.051,1.051,0,0,1-.964,1.134c-1.223,2.226-3.533,2.325-5.594,2.653a106.1,106.1,0,0,1-31.274.036c-5.223-.717-9.822-2.659-12.836-7.536-1.293-2.092-2.747-4.047-3.88-6.287-2.316-4.58-4.723-9.161-8.317-12.942-.423-.445-.88-1.173-1.621-.642a1.747,1.747,0,0,0-.55,1.236c-.068,2.49-.158,4.987-.049,7.472.087,1.991-.848,3.25-2.038,4.773-3.24,4.15-7.339,4.629-12.007,3.719-2.114-.412-4.236-.782-6.351-1.189a4.067,4.067,0,0,1-3.323-3.288,20.485,20.485,0,0,1-.632-4.919c-.153-8.307-.475-16.612-.519-24.92a118.031,118.031,0,0,1,.436-13.926c.726-6.425,3.277-12.166,6.5-17.6a8.522,8.522,0,0,0,1-6.6c-.656-3.079-1.27-6.168-1.9-9.252a12.2,12.2,0,0,0-.428-1.942c-1.795-4.649-2.594-9.6-4.176-14.286a88.469,88.469,0,0,1-3.928-19.476c-.2-1.986-.21-3.96-1.058-5.834a10.518,10.518,0,0,1-.532-2.428c-1.408-7.662-2.906-15.309-4.176-22.994-.757-4.583-1.152-9.225-1.713-13.841-.076-.625-.175-1.248-.3-2.146-3.246.793-6.32,1.378-7.8,4.731-2.591,1.682-2.738,4.285-2.7,7,.069,5.483.116,10.967.1,16.45-.014,5.816.208,11.657-.242,17.443-.659,8.47-.815,16.786.919,25.226,1.4,6.83.065,13.917.149,20.89.032,2.655-.184,5.316-.066,7.964.112,2.531-.564,4.945-.761,7.423a1.774,1.774,0,0,0,1.117,1.976,17.107,17.107,0,0,1,3.068,1.588c2.839,2.032,3.5,3.985,2.633,7.328a3.073,3.073,0,0,1-.53,1.379c-2.331,2.318-1.808,4.971-1.218,7.779a46.826,46.826,0,0,1,.594,6.432c.113,1.657-.154,3.4.258,4.965,1.514,5.765,2.726,11.689,5.01,17.153a82.462,82.462,0,0,0,13.3,22.106c1.4,1.632,2.979,3.115,4.519,4.622s3.137,2.964,4.713,4.439c2.888,2.7,4.4,6.215,5.549,9.865a6.561,6.561,0,0,1-4.019,8.078,32.6,32.6,0,0,1-10.733,1.933,115.37,115.37,0,0,1-30.119-3.139c-1.29-.292-2.529-.805-3.813-1.126-4.686-1.17-7.761-4.255-9.965-8.356-.625-1.164-1.083-2.417-1.642-3.617-1.215-2.607-2.356-3.1-5.17-2.117a33.363,33.363,0,0,0-4.105,1.769,4.483,4.483,0,0,1-2.861.625,26.489,26.489,0,0,1-9.7-3.671,2.123,2.123,0,0,1-1.008-1.6,29.481,29.481,0,0,1-.48-3.438c-.162-8.658-1.435-17.22-2.392-25.8-.328-2.938-.621-5.911-1.09-8.843a25.871,25.871,0,0,1,2.238-15.984c.587-1.187,1.057-2.433,1.563-3.659,1.084-2.627,1.941-5.251,1.225-8.2a12.308,12.308,0,0,1,.152-3.461c-2.72-4.534-2.85-9.766-3.783-14.739a297.849,297.849,0,0,1-4.481-34.44c-.557-8.081-1.87-16.109-2.509-24.186-.627-7.917-.89-15.865-1.2-23.8-.179-4.631-.161-9.266-.756-13.878-.16-1.243-.565-2.655.646-3.714a3.764,3.764,0,0,1,.285-1.444c1.663-2.331,2.187-4.4.292-7.128-1.723-2.484-.986-4.142,1.563-5.837,1.378-.916,2.84-1.71,4.3-2.5a3.5,3.5,0,0,0,1.919-3.7,5.068,5.068,0,0,0-.247-1.955c-1.412-2.469-.48-4.814.186-7.2.767-2.746,1.7-5.391,4.011-7.288.512-.42.995-.879,1.467-1.344a3.018,3.018,0,0,0,.861-3.179c-.767-2.711-1.465-5.442-2.269-8.141a28.081,28.081,0,0,1-1.452-8.8,14.458,14.458,0,0,1,.841-5.367,18.716,18.716,0,0,0,1.016-10.285,21.379,21.379,0,0,1,1.791-13.085,11.445,11.445,0,0,0,.794-7.259,48.569,48.569,0,0,1-.4-14.395c.354-2.96-.6-18.789-3.073-20.867" transform="translate(-40.856 -306.193)"/>
    <path class="cls-12" d="M234.544,1030.341" transform="translate(-40.856 -306.193)"/>
    <path class="cls-12" d="M101.66,1070.226h0a30.962,30.962,0,0,0-5.362-8.185c-2.351-2.5-4.855-5.061-6.412-8.054-2.113-4.061-5.191-7.12-8.33-10.231a2.6,2.6,0,0,1-.685-2.268,2.912,2.912,0,0,1-.141-.841v0a2.283,2.283,0,0,1-.854-2.131q0-.506,0-1.012a1.346,1.346,0,0,1-.138-.822l0,0c-1.153-1.164-1.067-2.622-.969-4.082l-.021.029c-.25-.588-.738-1.188-.71-1.762.155-3.166-.694-6.179-1.247-9.238h0c-.514-.842-1.385-1.646-1.481-2.534-.522-4.833-2.926-9.137-3.713-13.9-.593-3.582-1.276-7.141-1.757-10.748-.5-3.758-1.589-7.435-2.208-11.182-.969-5.864-2.426-11.655-2.745-17.62a5.948,5.948,0,0,0-.134-1.485c-1.482-4.594-1.759-9.424-2.778-14.111a136.587,136.587,0,0,1-2.139-14.706c-.659-6.238-1.254-12.493-2.384-18.691-.945-5.187-2.059-10.418-1.485-15.773-1.625-5.9-.683-11.7.58-17.506.244-1.119.353-2.267.524-3.4h0v0c-.03-5.927-.178-11.856-.039-17.779a52.641,52.641,0,0,1,1.1-8.27A4.587,4.587,0,0,1,59.838,851h0q.079-1.462.158-2.925h0a13.122,13.122,0,0,1,.839-6.33c2.634-7.487,4.771-15.147,7.363-22.632,2.808-8.109,5.436-16.355,9.674-23.912h0c-.455-2.54.71-4.863,1.1-7.272a64.187,64.187,0,0,1,9.265-23.7,3.522,3.522,0,0,0,.264-.418,24.746,24.746,0,0,1,10.331-11.549h0l.906-1h0l4.645-12.315c1.522-4.761,1.553-9.718,1.535-14.662h0q.024-.9.048-1.805l-.425-1.137c-.417-.052-.7-.222-.616-.705h0l-2.509-.918-.063-.032.063.032-.139.15.01-.215c-2.051-.383-3.544-1.731-5.077-2.983a5.368,5.368,0,0,1-2.134-3.27c-1.021-7.628-4.577-14.491-6.5-21.844a33.661,33.661,0,0,1-1.037-6.315c-.43-6.265-1.1-12.514-1.733-18.764a16.066,16.066,0,0,0-2.044-5.56c-.374-.736-.832-1.429-1.229-2.154-2.17-3.965-2-5.26,1.23-9.259.536-1.628-.292-3.231-.089-4.853-.185-.608-.6-1.25-.517-1.819.421-2.883.818-5.8,2.579-8.27.574-3.59,3.071-5.75,5.84-7.626a16.977,16.977,0,0,1,4.006-1.947c4.348-1.485,8.74-2.84,13.107-4.269,1.253-.41,2.469-.935,3.722-1.346q3.286-1.078,6.6-2.076c4.224-1.269,7.87-.3,10.711,3.083a8.836,8.836,0,0,0,7.376,3.363c.165,0,.331.027.5.021a11.835,11.835,0,0,1,10.529,5.464,22.109,22.109,0,0,0,7.327,6.547,37.239,37.239,0,0,1,7.482,5.643,10.1,10.1,0,0,1,5.651,2.8,41.588,41.588,0,0,1,12.59,21.853c.55,2.578.78,5.227-.736,7.655" transform="translate(-40.856 -306.193)"/>
    <path class="cls-12" d="M272.406,844.168" transform="translate(-40.856 -306.193)"/>
    <path class="cls-12" d="M272.256,845.024" transform="translate(-40.856 -306.193)"/>
    <path class="cls-13" d="M508.147,463.457" transform="translate(-40.856 -306.193)"/>
    <path class="cls-14" d="M508.147,463.457s-9.193-8.108-2.541-17.151c0,0,5.306-8.364,19.371-9.866s60.4-1.761,68.926-.555,8.182,6.89,8.182,7.493-1.722,5.6-10.249,5-40.737-1.292-57.617,1.809-24.626,5.5-25.579,7.751C508.64,457.933,507.354,461.9,508.147,463.457Z" transform="translate(-40.856 -306.193)"/>
    <path class="cls-12" d="M98.835,752.258a28.985,28.985,0,0,1,12.47,0c7,1.492,16.221,10.491,27,14.047s14.555,9.333,17.777,9.888,8.357,1.742-.377-6.907" transform="translate(-40.856 -306.193)"/>
    <path class="cls-12" d="M191.828,1045.556s-7.083,19.066-6.972,23.288-3.778,26-7.222,34.443-6.741,23.554-6.815,29.665-.629,25-1.3,28.776-7.555,27.887-9.666,30.443-2.5,5.885-4.695,6.437" transform="translate(-40.856 -306.193)"/>
    <path class="cls-12" d="M220.9,860.27s-25.382,14.044-30.617,17.1-20.361,7.708-20.361,7.708-11.2,7.417-8.726,16,4.072,15.416,8.29,18.907,13.526-1.018,13.526-1.018,5.817-2.182,16.289-10.471,23.117-19.874,23.117-19.874" transform="translate(-40.856 -306.193)"/>
    <path class="cls-12" d="M266.512,862.735a38.023,38.023,0,0,0,14.4,1.4" transform="translate(-40.856 -306.193)"/>
    <line class="cls-12" x1="229.908" y1="555.944" x2="229.755" y2="557.511"/>
    <path class="cls-12" d="M267.874,861.887a64.341,64.341,0,0,0,8.157.116s2.11,2.115,3.09,2.3" transform="translate(-40.856 -306.193)"/>
    <path class="cls-12" d="M284.769,857.219a7.176,7.176,0,0,0-5.25-3.14,23.211,23.211,0,0,1-9.735-.4s4.02-1.761,9.768.282" transform="translate(-40.856 -306.193)"/>
    <path class="cls-12" d="M260.159,835.065s-8.307,1.181-11.048,2.38" transform="translate(-40.856 -306.193)"/>
    <path class="cls-14" d="M257.465,835.946s-1.928,2.185-.6,10.324,3.47,18.029,3.47,18.029.343,1.933-1.114,2.447-2.27-.086-2.527-1.071a91.058,91.058,0,0,1-4.327-15.722c-1.457-8.568-.428-12.509-.428-12.509a3.182,3.182,0,0,1,2.995-2.177,11.026,11.026,0,0,1,2.933.057Z" transform="translate(-40.856 -306.193)"/>
    <line class="cls-12" x1="182.923" y1="732.283" x2="183.873" y2="749.237"/>
    <path class="cls-12" d="M185.081,918s-.662,2.647-4.44,4.636-12.331,2.983-14.32,4.574-3.381,5.768-6.364,6.762-8.751,3.58-14.917,2.188-5.967,0-9.149-4.972c0,0-5.967-8.154-5.569-11.536" transform="translate(-40.856 -306.193)"/>
    <path class="cls-12" d="M136.9,932.712s-5.584,1.321-7.97,0-6.563-8.282-8.95-10.072-4.972-4.574-4.773-7.359.774-7.956-.011-12.928" transform="translate(-40.856 -306.193)"/>
    <path class="cls-12" d="M115.206,915.281s-3.381-1.591-7.16-3.779-.2-13.922,1.591-16.707,1.989-5.37,4.177-6.961" transform="translate(-40.856 -306.193)"/>
    <path class="cls-12" d="M107.142,901.557S96.51,887.834,95.914,882.663s-1.989-26.008-2.983-31.6-.2-19.315-4.177-25.879" transform="translate(-40.856 -306.193)"/>
    <path class="cls-12" d="M149.216,815.239s14.32,26.452,15.315,34.01,1.036,9.629.24,11.021" transform="translate(-40.856 -306.193)"/>
    <path class="cls-12" d="M169.925,885.077s-13.35,1.962-16.135,8.326-7.956,5.967-6.762,17.9,1.017,21.39,7.956,21.409,9.149-2.912,11.337-5.5" transform="translate(-40.856 -306.193)"/>
    <path class="cls-12" d="M168.4,863s-1.634-3.409-10.011-3.608-7.582-2.173-7.582-2.173" transform="translate(-40.856 -306.193)"/>
    <path class="cls-12" d="M180.388,881.571s1.149-16.059-2.407-16.971-4.924-3.465-16.779,0-16.05,6.383-16.05,6.383" transform="translate(-40.856 -306.193)"/>
    <path class="cls-12" d="M88.5,763.808s5.565-6.594,14.377-5.636,22.221,8.62,22.221,8.62,19.11,9,24.114,14.176,11.517,8.046,14.773,7.854,1.337-9.77,1.337-9.77l-4.658-8.176" transform="translate(-40.856 -306.193)"/>
    <path class="cls-12" d="M150.34,743.578a158.433,158.433,0,0,0-1.919,16.973c-.049,1.459.727,2.458,1.408,3.559a16.813,16.813,0,0,1,5.874,5.177,2.3,2.3,0,0,1,2.1.864h0a10.417,10.417,0,0,1,2.861.726c3.548,2.1,7.12,4.092,10.189,7.007a42.47,42.47,0,0,1,10.308,14.45,46.1,46.1,0,0,0,6.442,10.586,66.137,66.137,0,0,1,5.057,7.955c2.973,5.164,6.545,9.98,8.946,15.482a33.225,33.225,0,0,0,2.307,3.82c3.362,5.512,6.587,11.1,9.45,16.891h0a44.916,44.916,0,0,0,5.178,12.946,2.688,2.688,0,0,0,2.358.257,61.037,61.037,0,0,0,14.063-8.334,33.723,33.723,0,0,0,6.479-8.123,36.125,36.125,0,0,1,8.28-9.713,54.236,54.236,0,0,0,4.994-4.864,7.826,7.826,0,0,1,4.262-2.242s3.745-.615,5.5-1.043,2.91-1.455,6.076-1.327-.556,4.793-2.653,5.862-7.488,4.065-7.745,4.579c0,0,2.1.9,8.772-.128a54.1,54.1,0,0,1,9.756-.685c5.648.086,10.227,4.835,10.227,4.835s2.311,1.712,1.113,6.932c0,0-2.14,3.124-4.151.086s-5.349-4.236-12.752-2.867c0,0-2.361.143-2.277,1.289,0,0,3.887.164,6,.5a16.865,16.865,0,0,1,8.589,3.656c2.841,2.525,1.628,6.562,1.628,6.562a7.586,7.586,0,0,1-2.293,1.977s.282,3.671-.88,4.668-2.21,2.126-2.974,2.243c0,0,3.024.565,2.791,2.658s-1.127,2.857-3.472,3.937-10.544.2-14.054.964a55.379,55.379,0,0,0-9.918,3.7,27.491,27.491,0,0,1-9.336,2.176c-3.124.23-6.309.47-9.436.6a13.534,13.534,0,0,0-8.157,3.6c-2.545,2.343-4.43,4.432-6.911,6.845.29.947.7,2.44,1.066,3.358A33.15,33.15,0,0,1,225.6,902.1c.272,4.1.921,8.212,1.3,12.3.6,6.421,3.034,12.6,2.431,19.151,1.479,4.979.441,10.251,1.78,15.26a16.63,16.63,0,0,1,.341,3.959,77.035,77.035,0,0,0,1.74,16.254,17.378,17.378,0,0,1,.217,2.974c.137,2.462-.223,5.029,1.541,7.139.627,3.88,2.065,7.624.916,11.736-.843,3.017-.5,6.133.082,9.318.821,4.518,1.409,9.265-1.718,13.392l0,0,0,0a.97.97,0,0,1-.84.845l-.105.087h0s.561,17.886-1.772,20.664-27,8.666-42.442,10.777-17.555,1.222-47.22,5.666c-25.322,3.794-35.1,12.942-37.425,15.54a3.881,3.881,0,0,1-2.258,1.278,1.551,1.551,0,0,1-1.72-.58" transform="translate(-40.856 -306.193)"/>
    <g>
      <path class="cls-15" d="M76.784,1021.621c-.514-.842-1.385-1.646-1.481-2.534-.522-4.833-2.926-9.137-3.713-13.9-.593-3.582-1.276-7.141-1.757-10.748-.5-3.758-1.589-7.435-2.208-11.182-.969-5.864-2.426-11.655-2.745-17.62a5.948,5.948,0,0,0-.134-1.485c-1.482-4.594-1.759-9.424-2.778-14.111a136.587,136.587,0,0,1-2.139-14.706c-.659-6.238-1.254-12.493-2.384-18.691-.945-5.187-2.059-10.418-1.485-15.773-1.625-5.9-.683-11.7.58-17.506.244-1.119.353-2.267.524-3.4h0v0c-.03-5.927-.178-11.856-.039-17.779a52.641,52.641,0,0,1,1.1-8.27A4.587,4.587,0,0,1,59.838,851h0q.079-1.462.158-2.925h0a13.122,13.122,0,0,1,.839-6.33c2.634-7.487,4.771-15.147,7.363-22.632,1.7-4.921,3.347-9.891,5.319-14.728l-32.411,4.027v225.64l36.143-10.059c-.16-.788-.322-1.575-.465-2.366Z" transform="translate(-40.856 -306.193)"/>
      <path class="cls-15" d="M446.195,758.077l-265.6,33c.193.417.393.829.572,1.257a46.1,46.1,0,0,0,6.442,10.586,66.137,66.137,0,0,1,5.057,7.955c2.973,5.164,6.545,9.98,8.946,15.482a33.225,33.225,0,0,0,2.307,3.82c3.362,5.512,6.587,11.1,9.45,16.891h0a44.916,44.916,0,0,0,5.178,12.946,2.688,2.688,0,0,0,2.358.257,61.037,61.037,0,0,0,14.063-8.334,33.723,33.723,0,0,0,6.479-8.123,36.125,36.125,0,0,1,8.28-9.713,54.236,54.236,0,0,0,4.994-4.864,7.826,7.826,0,0,1,4.262-2.242s3.745-.615,5.5-1.043,2.91-1.455,6.076-1.327-.556,4.793-2.653,5.862-7.489,4.065-7.745,4.579c0,0,2.1.9,8.772-.128a54.1,54.1,0,0,1,9.756-.685c5.648.086,10.227,4.835,10.227,4.835s2.311,1.712,1.113,6.932c0,0-2.14,3.124-4.151.086s-5.349-4.236-12.752-2.867c0,0-2.361.143-2.278,1.289,0,0,3.887.164,6,.5a16.865,16.865,0,0,1,8.589,3.656c2.841,2.525,1.628,6.562,1.628,6.562a7.588,7.588,0,0,1-2.293,1.977s.282,3.671-.88,4.668-2.21,2.126-2.974,2.243c0,0,3.024.565,2.791,2.658s-1.127,2.857-3.472,3.937-10.544.2-14.055.964a55.385,55.385,0,0,0-9.918,3.7,27.491,27.491,0,0,1-9.336,2.176c-3.124.23-6.309.47-9.436.6a13.534,13.534,0,0,0-8.157,3.6c-2.545,2.343-4.43,4.432-6.911,6.845.29.947.7,2.44,1.066,3.358A33.15,33.15,0,0,1,225.6,902.1c.272,4.1.921,8.212,1.3,12.3.6,6.421,3.034,12.6,2.431,19.151,1.479,4.979.441,10.251,1.78,15.26a16.63,16.63,0,0,1,.341,3.959,77.035,77.035,0,0,0,1.74,16.254,17.378,17.378,0,0,1,.217,2.974c.137,2.462-.223,5.029,1.541,7.139.049.306.1.61.163.914l211.077-58.745Z" transform="translate(-40.856 -306.193)"/>
    </g>
    <path class="cls-12" d="M104.927,720.631s-.5-8.577-2.361-9.149S100,708.2,100,708.2s2.57-2.285,21.991-21.7,41.268-22.847,48.833-21.848,9.615,9.078,9.615,9.078a22.055,22.055,0,0,0-1.718,5.253c-.327,2.341-2.341.98-2.94,2.014a8.354,8.354,0,0,0-.383,2.955,11.185,11.185,0,0,1-.758,4.172,2.828,2.828,0,0,0-.22,1.313c.109,1.524.575,5.661,1.318,6.915v0a3.414,3.414,0,0,1,.891,2.72,42.838,42.838,0,0,1-.74,10.291,105.031,105.031,0,0,1-3.275,13.384,10.151,10.151,0,0,1-.959,1.654h0a33.131,33.131,0,0,1-1.224,3.172,28.225,28.225,0,0,0-3.058,9.236s.222,1.672-2.043,4.312-11.287,3.3-13.268,2.861-20.905-4.841-23.766-7.482-8.362-4.841-8.8-8.142" transform="translate(-40.856 -306.193)"/>
    <path class="cls-12" d="M87.322,682.324s15.251-23.725,39.373-33.088,36.234-7.821,36.234-7.821" transform="translate(-40.856 -306.193)"/>
    <line class="cls-16" x1="283.612" y1="544.869" x2="616.995" y2="518.99"/>
    <polygon class="cls-10" points="651.257 566.482 566.964 638.415 566.964 470.993 651.257 399.061 651.257 566.482"/>
  </g>
</svg>
