<svg xmlns="http://www.w3.org/2000/svg" xmlns:xlink="http://www.w3.org/1999/xlink" viewBox="0 0 741.74 1279.386">
  <defs>
    <style>
      .cls-1, .cls-14, .cls-18, .cls-3, .cls-4, .cls-6, .cls-9 {
        fill: none;
      }

      .cls-2 {
        clip-path: url(#clip-path);
      }

      .cls-12, .cls-13, .cls-3, .cls-4, .cls-6, .cls-8, .cls-9 {
        stroke: #313133;
      }

      .cls-10, .cls-12, .cls-13, .cls-14, .cls-15, .cls-16, .cls-17, .cls-18, .cls-3, .cls-4, .cls-7, .cls-8, .cls-9 {
        stroke-linecap: round;
      }

      .cls-10, .cls-12, .cls-13, .cls-16, .cls-17, .cls-18, .cls-3, .cls-4, .cls-7, .cls-8, .cls-9 {
        stroke-linejoin: round;
      }

      .cls-3, .cls-4 {
        stroke-width: 2px;
      }

      .cls-4 {
        stroke-dasharray: 0 4.874;
      }

      .cls-5 {
        clip-path: url(#clip-path-2);
      }

      .cls-14, .cls-15, .cls-6 {
        stroke-miterlimit: 10;
      }

      .cls-10, .cls-14, .cls-15, .cls-7 {
        stroke: #323232;
      }

      .cls-10, .cls-12, .cls-14, .cls-15, .cls-16, .cls-18, .cls-7, .cls-8, .cls-9 {
        stroke-width: 0.5px;
      }

      .cls-7 {
        fill: url(#New_Pattern_2);
      }

      .cls-8 {
        fill: url(#New_Pattern_3);
      }

      .cls-10, .cls-11, .cls-12, .cls-15, .cls-16 {
        fill: #fff;
      }

      .cls-13, .cls-17 {
        fill: #52badb;
      }

      .cls-16, .cls-17, .cls-18 {
        stroke: #261f1d;
      }
    </style>
    <clipPath id="clip-path">
      <rect class="cls-1" width="41.416" height="41.416"/>
    </clipPath>
    <clipPath id="clip-path-2">
      <polygon class="cls-1" points="44.801 0 44.801 44.801 0 44.801 0 0 44.801 0"/>
    </clipPath>
    <pattern id="New_Pattern_2" data-name="New Pattern 2" x="-59.141" y="-230.069" width="41.416" height="41.416" patternUnits="userSpaceOnUse" viewBox="0 0 41.416 41.416">
      <rect class="cls-1" width="41.416" height="41.416"/>
      <g class="cls-2">
        <g>
          <g>
            <line class="cls-3" y1="-6.831" y2="-6.831"/>
            <line class="cls-4" x1="3.446" y1="-3.384" x2="43.078" y2="36.247"/>
            <line class="cls-3" x1="44.801" y1="37.97" x2="44.801" y2="37.97"/>
          </g>
          <g>
            <line class="cls-3" y1="-48.185" y2="-48.185"/>
            <line class="cls-4" x1="3.446" y1="-44.739" x2="43.078" y2="-5.108"/>
            <line class="cls-3" x1="44.801" y1="-3.384" x2="44.801" y2="-3.384"/>
          </g>
          <g>
            <line class="cls-3" y1="-41.293" y2="-41.293"/>
            <line class="cls-4" x1="3.446" y1="-37.846" x2="43.078" y2="1.785"/>
            <line class="cls-3" x1="44.801" y1="3.508" x2="44.801" y2="3.508"/>
          </g>
          <g>
            <line class="cls-3" y1="0.062" y2="0.062"/>
            <line class="cls-4" x1="3.446" y1="3.508" x2="43.078" y2="43.139"/>
            <line class="cls-3" x1="44.801" y1="44.863" x2="44.801" y2="44.863"/>
          </g>
          <g>
            <line class="cls-3" y1="6.954" y2="6.954"/>
            <line class="cls-4" x1="3.446" y1="10.4" x2="43.078" y2="50.032"/>
            <line class="cls-3" x1="44.801" y1="51.755" x2="44.801" y2="51.755"/>
          </g>
          <g>
            <line class="cls-3" y1="13.847" y2="13.847"/>
            <line class="cls-4" x1="3.446" y1="17.293" x2="43.078" y2="56.924"/>
            <line class="cls-3" x1="44.801" y1="58.647" x2="44.801" y2="58.647"/>
          </g>
          <g>
            <line class="cls-3" y1="20.739" y2="20.739"/>
            <line class="cls-4" x1="3.446" y1="24.185" x2="43.078" y2="63.817"/>
            <line class="cls-3" x1="44.801" y1="65.54" x2="44.801" y2="65.54"/>
          </g>
          <g>
            <line class="cls-3" y1="27.631" y2="27.631"/>
            <line class="cls-4" x1="3.446" y1="31.078" x2="43.078" y2="70.709"/>
            <line class="cls-3" x1="44.801" y1="72.432" x2="44.801" y2="72.432"/>
          </g>
          <g>
            <line class="cls-3" y1="34.524" y2="34.524"/>
            <line class="cls-4" x1="3.446" y1="37.97" x2="43.078" y2="77.601"/>
            <line class="cls-3" x1="44.801" y1="79.325" x2="44.801" y2="79.325"/>
          </g>
          <g>
            <line class="cls-3" y1="-27.508" y2="-27.508"/>
            <line class="cls-4" x1="3.446" y1="-24.062" x2="43.078" y2="15.57"/>
            <line class="cls-3" x1="44.801" y1="17.293" x2="44.801" y2="17.293"/>
          </g>
          <g>
            <line class="cls-3" y1="-34.4" y2="-34.4"/>
            <line class="cls-4" x1="3.446" y1="-30.954" x2="43.078" y2="8.677"/>
            <line class="cls-3" x1="44.801" y1="10.4" x2="44.801" y2="10.4"/>
          </g>
          <g>
            <line class="cls-3" y1="-20.615" y2="-20.615"/>
            <line class="cls-4" x1="3.446" y1="-17.169" x2="43.078" y2="22.462"/>
            <line class="cls-3" x1="44.801" y1="24.185" x2="44.801" y2="24.185"/>
          </g>
          <g>
            <line class="cls-3" y1="-13.723" y2="-13.723"/>
            <line class="cls-4" x1="3.446" y1="-10.277" x2="43.078" y2="29.355"/>
            <line class="cls-3" x1="44.801" y1="31.078" x2="44.801" y2="31.078"/>
          </g>
          <g>
            <line class="cls-3" y1="41.416" y2="41.416"/>
            <line class="cls-4" x1="3.446" y1="44.863" x2="43.078" y2="84.494"/>
            <line class="cls-3" x1="44.801" y1="86.217" x2="44.801" y2="86.217"/>
          </g>
        </g>
      </g>
    </pattern>
    <pattern id="New_Pattern_3" data-name="New Pattern 3" x="-59.141" y="-230.069" width="44.801" height="44.801" patternUnits="userSpaceOnUse" viewBox="0 0 44.801 44.801">
      <rect class="cls-1" width="44.801" height="44.801"/>
      <g class="cls-5">
        <g>
          <line class="cls-6" x1="-36.905" y1="4.644" x2="81.706" y2="123.255"/>
          <line class="cls-6" x1="-36.905" y1="-1.756" x2="81.706" y2="116.855"/>
          <line class="cls-6" x1="-36.905" y1="-8.157" x2="81.706" y2="110.455"/>
          <line class="cls-6" x1="-36.905" y1="-14.557" x2="81.706" y2="104.054"/>
          <line class="cls-6" x1="-36.905" y1="-20.957" x2="81.706" y2="97.654"/>
          <line class="cls-6" x1="-36.905" y1="-27.357" x2="81.706" y2="91.254"/>
          <line class="cls-6" x1="-36.905" y1="-33.757" x2="81.706" y2="84.854"/>
          <line class="cls-6" x1="-36.905" y1="-40.157" x2="81.706" y2="78.454"/>
          <line class="cls-6" x1="-36.905" y1="-46.557" x2="81.706" y2="72.054"/>
          <line class="cls-6" x1="-36.905" y1="-52.957" x2="81.706" y2="65.654"/>
          <line class="cls-6" x1="-36.905" y1="-59.357" x2="81.706" y2="59.254"/>
          <line class="cls-6" x1="-36.905" y1="-65.757" x2="81.706" y2="52.854"/>
          <line class="cls-6" x1="-36.905" y1="-72.158" x2="81.706" y2="46.454"/>
          <line class="cls-6" x1="-36.905" y1="-78.558" x2="81.706" y2="40.054"/>
          <line class="cls-6" x1="-36.905" y1="-84.958" x2="81.706" y2="33.653"/>
          <line class="cls-6" x1="-36.905" y1="11.044" x2="81.706" y2="129.655"/>
        </g>
      </g>
    </pattern>
  </defs>
  <title>Configuration Linework - Cuff</title>
  <g id="Layer_4" data-name="Layer 4">
    <polygon class="cls-7" points="704.096 514.575 228.066 449.746 228.066 682.513 704.096 854.147 704.096 514.575"/>
  </g>
  <g id="Layer_2" data-name="Layer 2">
    <polygon class="cls-8" points="258.078 106.118 573.274 74.049 573.274 0.25 258.078 0.25 258.078 106.118"/>
    <line class="cls-9" x1="535.118" y1="117.567" x2="296.235" y2="141.872"/>
    <circle class="cls-10" cx="441.671" cy="126.153" r="20.036"/>
    <g>
      <polygon class="cls-11" points="473.034 88.198 490.62 86.244 517.245 143.402 554.861 208.131 523.107 238.664 488.911 142.913 473.034 88.198"/>
      <g>
        <g>
          <path class="cls-12" d="M541.662,316.794l-.511-1.277c-2.171-9.706-3.065-13.665-8.046-16.6s-11.749-.255-12.643,5.364,2.171,14.3,3.576,21.839,10.6,29.118,9.2,27.33a75.211,75.211,0,0,1-7.79-14.3c-2.043-5.364-4.342-23.116-8.812-27.458s-7.407-4.342-11.111-1.533-4.47,6.13-3.448,16.986,5.184,23.847,5.184,23.847a7.272,7.272,0,0,0,.342,1.082c.273,1.1.575,2.2.776,3.313.571,3.172,1.092,6.352,1.641,9.527.741,4.291,1.23,8.626,2.584,12.8,1.368,4.221,2.284,8.591,4.231,12.621a9.521,9.521,0,0,1,.6,1.889c.493,2.021.809,4.1,1.469,6.063a67.686,67.686,0,0,1,2.064,7.968,1.261,1.261,0,0,0,.335,1.167l.2,1.063a1.279,1.279,0,0,0,.384,1.207.609.609,0,0,0,.125.5q.03,1.439.06,2.877h0c.148,1.139-.152,2.324.344,3.429q.1,1.109.2,2.218c.2,2.218,1.084,7.582.153,5.162a32.467,32.467,0,0,1-1.426-5.507,34.277,34.277,0,0,1-3.436-6.085,26.481,26.481,0,0,0-3.445-6.076h0a18.324,18.324,0,0,0-3.366-5.219.528.528,0,0,0-.431-.588l-.313-.522a.372.372,0,0,0-.374-.425h0l-.089-.132a.473.473,0,0,0-.421-.55,5.331,5.331,0,0,0-1.361-1.741.4.4,0,0,0-.421-.449h0l-.079-.093a.5.5,0,0,0-.484-.526h0l-.045-.056a.515.515,0,0,0-.505-.557l-.028-.03a.6.6,0,0,0-.533-.565l-.016-.015h0a20.577,20.577,0,0,0-7.357-6.346c-.06-.072-.106-.169-.182-.213-3.615-2.1-7.361-1.629-11.12-.514-.283.084-.451.557-.673.849h0a11.748,11.748,0,0,0-2.295,2.436,2.541,2.541,0,0,0-.589,2.088,2.465,2.465,0,0,0-.068,1.73,4.007,4.007,0,0,0,.184,2.354.423.423,0,0,0,.284.567l.212.583a.412.412,0,0,0,.32.535l.3.638a.318.318,0,0,0,.293.431l.347.731c-.045.213.045.333.269.362l.4.789,0,.217.2.107.346.827,0,.216.2.1,5.359,16.163a.947.947,0,0,0,.363,1.075l.224,1.123h0a20.391,20.391,0,0,0,.979,3.992l.089.621a.979.979,0,0,0,.37,1.159,22.894,22.894,0,0,0,2.3,5.094,45.044,45.044,0,0,1,3.64,7.865c.167.436.375.856.563,1.283a1.013,1.013,0,0,0,.435,1.126l.148.585a1,1,0,0,0,.418,1.135h0l.159.576a1.013,1.013,0,0,0,.431,1.105h0l.146.605a1,1,0,0,0,.414,1.129l.142.58h0c.347,1.364.65,2.741,1.049,4.089a118.039,118.039,0,0,1,3.583,15.123,18.137,18.137,0,0,0,1.433,5.42,15.3,15.3,0,0,0,2.883,6.285l.278.479a.408.408,0,0,0,.4.457l.059.084a.53.53,0,0,0,.462.584h0l.021.029a.576.576,0,0,0,.5.606l.008.009a.657.657,0,0,0,.55.614c1.781,2.487,4.136,4.439,6.22,6.643a196.1,196.1,0,0,0,15.411,14.816c4.273,3.632,8.547,7.264,12.771,10.951,4.694,4.1,9.733,7.547,15.8,9.342a13.255,13.255,0,0,1,5.639,3.171h0a4.555,4.555,0,0,0,.377.76l37.658,46.739a74.555,74.555,0,0,0,7.875,8.581c.344.327.656.69,1.011,1,2.508,2.227,4.325,5.039,6.432,7.6a2,2,0,0,1,.463,1,3.522,3.522,0,0,0,1.146,1.908c1.868,2.255,4.082,4.273,4.955,7.215a1.7,1.7,0,0,0,.441.725,46.3,46.3,0,0,1,4.067,5.116,67.888,67.888,0,0,0,6.064,6.418,7.17,7.17,0,0,1,2.083,3.312,8.953,8.953,0,0,0,.973,2.351c2.023,3.215,3.938,6.518,6.214,9.548,3.555,4.732,6.324,9.917,9.245,15.021,1.459,2.55,2.855,5.136,4.319,7.684a14.117,14.117,0,0,0,1.492,2.082,12.807,12.807,0,0,1,2.137,3.668,85.464,85.464,0,0,0,4.329,9.283c1.754,3.25,3.445,6.545,4.951,9.916m-32.43-200.6a24.266,24.266,0,0,0-1.509-10.6c-.034-.088-.046-.184-.074-.274-1.131-3.608-1.837-7.329-3.011-10.934a56.678,56.678,0,0,0-1.835-5.917,6.948,6.948,0,0,1-.453-2.209,21.076,21.076,0,0,0-1.05-4.692c-.53-1.617-1.164-3.2-1.653-4.829a48.008,48.008,0,0,0-2.485-6.329,1.022,1.022,0,0,0-.469-1.071h0l-.172-.631a.492.492,0,0,0-.346-.586l-.165-.565a.528.528,0,0,0-.355-.643h0l-.276-1.06a.483.483,0,0,0-.364-.569l-.205-.565a.5.5,0,0,0-.379-.572l-.01-.019h0a8.115,8.115,0,0,0-.338-1.067,67.206,67.206,0,0,0-7.289-11.864,63.438,63.438,0,0,1-5.717-8.145c-1.073-2.007-2.2-3.986-3.31-5.973a51.009,51.009,0,0,0-5.238-8.118c-1.158-1.378-2.255-2.815-3.281-4.294a18.285,18.285,0,0,0-4.808-4.8c-2.6-1.752-4.907-4.106-7.861-5.145-3.714-1.306-4.086-2.219-5.586-4.843s-3.15-11.4-4.8-14.475-7.942-13-7.942-13a46.647,46.647,0,0,1-3.536-5.817,64.711,64.711,0,0,0-5.7-9.146c-1.141-1.508-2.243-3.053-3.261-4.647-.915-1.433-1.673-2.966-2.532-4.437-1.649-2.826-3.808-5.213-7.182-5.166-1.232.017-6.25-.865-9.248,3.3,0,0,7.447,12.96,10.072,18.135s8.475,17.475,10.35,22.575,6,17.625,7.8,21.825,2.85,7.875,5.85,9.975M644.1,476.49,800.631,617.348a.77.77,0,0,0-.648-.545.684.684,0,0,0-.6-.53h0l-.011-.009a3.43,3.43,0,0,0-.578-.516l-.042-.034a.561.561,0,0,0-.541-.491h0l-.081-.067a.451.451,0,0,0-.455-.42h0l-1.04-.815a.7.7,0,0,0-.682-.5h0l-.016-.01c-.08-.275-.226-.466-.548-.441h0l-1.088-.738a.679.679,0,0,0-.641-.5l-.029-.021a.531.531,0,0,0-.56-.489h0l-.082-.061a.423.423,0,0,0-.456-.417h0l-1.049-.812a.73.73,0,0,0-.647-.542.647.647,0,0,0-.594-.531h0l-.018-.014a3.092,3.092,0,0,0-.564-.528l-.035-.033a.573.573,0,0,0-.538-.531h0l-.04-.039a.575.575,0,0,0-.531-.527h0l-.045-.043a.564.564,0,0,0-.528-.51h0l-.064-.055a.5.5,0,0,0-.476-.448h0a4.914,4.914,0,0,0-1.685-1.324.584.584,0,0,0-.594-.464,1.979,1.979,0,0,0-1.158-.654,1.457,1.457,0,0,0-.559-.4.539.539,0,0,0-.428-.245.735.735,0,0,0-.715-.482h0l-.013-.008c-.1-.261-.245-.452-.558-.432h0l-1.078-.747a.7.7,0,0,0-.645-.507l-.022-.016a.514.514,0,0,0-.541-.462h0l-1.048-.739a.718.718,0,0,0-.67-.5l-.016-.012a.564.564,0,0,0-.576-.5h0l-.058-.044a.455.455,0,0,0-.487-.443h0a4.323,4.323,0,0,0-1.685-1.319.609.609,0,0,0-.622-.477l-.062-.044a.436.436,0,0,0-.483-.423h0a.59.59,0,0,0-.435-.279h0a14.811,14.811,0,0,0-3.693-3.054c-2.509-1.692-5.249-3.06-7.425-5.224A68.476,68.476,0,0,0,756,582.269c-1.864-1.466-3.683-2.989-5.544-4.459a10.381,10.381,0,0,0-2.112-1.429,13.32,13.32,0,0,1-3.048-2.066c-2.849-2.361-5.59-4.871-8.576-7.043-3.3-2.4-6.411-5.036-9.592-7.579-5.335-4.263-10.543-8.685-15.834-13-1.98-1.616-4.044-3.13-6.07-4.69q-.3-.226-.612-.44l-.091-.047h0c-.492-.428-1-.844-1.475-1.286q-6.549-6.05-13.344-11.821c-1.507-1.275-2.791-2.811-4.207-4.2M512.846,480.3h0Z" transform="translate(-59.141 -230.069)"/>
          <path class="cls-12" d="M704.611,541.56l.612.44A.549.549,0,0,0,704.611,541.56Z" transform="translate(-59.141 -230.069)"/>
          <path class="cls-12" d="M789.662,608.321l.564.528A.611.611,0,0,0,789.662,608.321Z" transform="translate(-59.141 -230.069)"/>
          <path class="cls-12" d="M798.793,615.748l.578.516A.605.605,0,0,0,798.793,615.748Z" transform="translate(-59.141 -230.069)"/>
        </g>
        <path class="cls-12" d="M644.1,476.49s28.53,36.794,34.963,42.257l6.433,5.463" transform="translate(-59.141 -230.069)"/>
        <path class="cls-12" d="M533.233,353.448s12.8,30.982,13.7,35.857" transform="translate(-59.141 -230.069)"/>
        <path class="cls-12" d="M584.751,367.375s1.708,10.154,4.933,16.379,3.975,8.025,4.575,8.625" transform="translate(-59.141 -230.069)"/>
        <path class="cls-12" d="M526.576,458.032s-2.606-10.33-1.861-14.8-1.061-15.349-2.221-20.107" transform="translate(-59.141 -230.069)"/>
      </g>
      <path class="cls-12" d="M572.09,533.784a7.718,7.718,0,0,1-1.23-4.41c.239-7.57,3.179-30.629,29.183-44.1,31.438-16.287,48.1-4.972,48.1-4.972s24.431,23.342,27.461,27.509,8.007,9.285,5.518,12.691l-6.523-6.369s-18.881-8.216-44.258,6.934-34.881,38.284-25.5,49.263c0,0,3.907,6.227-2.721,1.492C595.838,567.33,580.005,546.135,572.09,533.784Z" transform="translate(-59.141 -230.069)"/>
      <path class="cls-13" d="M675.607,507.81c-3.03-4.166-27.461-27.509-27.461-27.509s-16.666-11.315-48.1,4.972c-23.8,12.33-28.277,32.683-29.049,41.85h0l-3.673-2.086h0c.2.853,4.29,8,4.769,8.748,7.915,12.351,23.748,33.545,30.036,38.037,6.628,4.735,2.721-1.492,2.721-1.492-9.384-10.978.12-34.112,25.5-49.263s44.258-6.934,44.258-6.934l6.523,6.369C683.614,517.095,678.637,511.976,675.607,507.81Z" transform="translate(-59.141 -230.069)"/>
    </g>
    <line class="cls-9" x1="413.592" y1="129.932" x2="429.679" y2="128.295"/>
    <line class="cls-14" x1="605.654" y1="157.13" x2="605.654" y2="266.42"/>
    <g>
      <circle class="cls-15" cx="605.654" cy="137.306" r="19.824"/>
      <path class="cls-15" d="M684.619,367.375h-7.39a.149.149,0,0,1-.143-.107l-1.539-5.3a.149.149,0,0,0-.285,0l-1.9,6.542a.149.149,0,0,1-.285,0l-.418-1.442a.148.148,0,0,0-.285,0l-1.014,3.493a.149.149,0,0,1-.285,0l-3.5-12.072a.149.149,0,0,0-.285,0l-4.464,15.382a.148.148,0,0,1-.285,0l-2.6-8.948a.148.148,0,0,0-.285,0l-1.406,4.845a.149.149,0,0,1-.285,0l-1.5-5.171a.148.148,0,0,0-.285,0l-.971,3.344a.149.149,0,0,1-.287-.008.149.149,0,0,0-.287-.008l-.1.332a.148.148,0,0,1-.285,0l-.893-3.078a.148.148,0,0,0-.286,0l-.551,2.085a.149.149,0,0,1-.144.111h-7.4" transform="translate(-59.141 -230.069)"/>
    </g>
    <line class="cls-14" x1="166.964" y1="732.019" x2="166.964" y2="626.184"/>
    <g>
      <circle class="cls-15" cx="166.964" cy="751.843" r="19.824"/>
      <line class="cls-14" x1="186.788" y1="751.843" x2="174.854" y2="751.843"/>
      <line class="cls-14" x1="159.075" y1="751.843" x2="147.141" y2="751.843"/>
      <line class="cls-14" x1="174.854" y1="746.843" x2="159.075" y2="746.843"/>
      <line class="cls-14" x1="166.964" y1="746.843" x2="166.964" y2="742.103"/>
      <circle class="cls-15" cx="174.854" cy="751.843" r="1.591"/>
      <circle class="cls-15" cx="159.075" cy="751.843" r="1.591"/>
    </g>
  </g>
  <g id="Layer_3" data-name="Layer 3">
    <g>
      <g>
        <path class="cls-16" d="M441.99,1422.982l0-.083C441.683,1422.961,441.78,1422.969,441.99,1422.982Z" transform="translate(-59.141 -230.069)"/>
        <path class="cls-16" d="M282.287,882.014a96.832,96.832,0,0,0,24.561,9.866l4.216,3.757c.71,2.5,3,3.253,4.928,4.329a3.34,3.34,0,0,1,1.794,3.342,10.917,10.917,0,0,1-.229,3.36c-1.361,3.727-.97,7.58-1.1,11.4-.054,1.579.22,3.265-.241,4.716-1.478,4.647-1.018,9.386-1.077,14.108.438,4.566-1.247,8.912-1.374,13.428-.183,6.528-.466,13.031-1.064,19.563-1.151,12.589-.088,25.241,1.32,37.814.068.6.653,1.15,1,1.723h0c.043,1.966.078,3.933.129,5.9a4.5,4.5,0,0,0,1.294,3.574h0a3.36,3.36,0,0,0,.219,1.306h0c-.08,1.937-.681,3.969,1.016,5.583a5.952,5.952,0,0,0,.2,1.208h0l.077,1.426q.618.7,1.2,1.419l-.038-.032a12.538,12.538,0,0,1-.122,3.384c-1.9,5.991-1.006,12.135-1.155,18.22a3.3,3.3,0,0,0,1.339,2.95l.013.015L334.183,1068h0c.1,4.775-.124,9.584.375,14.318.813,7.716.853,15.433.934,23.167.093,8.87.069,17.759.652,26.6a326.953,326.953,0,0,1,.46,32.736,123.033,123.033,0,0,0,1.524,25.811c1.067,6.028,2.657,11.968,2.985,18.144a9.337,9.337,0,0,0,6.58,8.672l4.227,4.938a202.444,202.444,0,0,1-.578,25.027c-.831,11.921-2.689,23.782-2.266,35.782-1.51,2.775-1.385,5.776-1.214,8.784a1.728,1.728,0,0,0-.117,2.073v0l0,.015c-.185.881-.348,1.761-.463,2.641q-2.522,14.368-5.034,28.733a2.328,2.328,0,0,0,.085.673h0c-1.168,5.634-2.809,11.19-2.791,17.018-.85,3.255-1.91,6.474-2.489,9.776a11.171,11.171,0,0,0,1.79,9.059c1.378,1.848,1.123,2.294-.721,3.868a25.708,25.708,0,0,0-3.162,2.548c-1.749,2.071-3.4,4.211-3.164,7.25.8,10.456-.716,20.715-2.462,30.995-.96,5.652-3.666,10.688-4.818,16.225a2.861,2.861,0,0,0-1.446,2.763h0l-.025.041A26.11,26.11,0,0,1,311.2,1433c-2.5.682-5.19,1.467-7.155,3.48h0l-.024.021c-1.108.043-2.186.154-2.8,1.28h0l.171.333-.187-.329a7.984,7.984,0,0,0-5.5,2.927,2.789,2.789,0,0,0-2.524,1.421,10.8,10.8,0,0,0-7.14,6.6,2.812,2.812,0,0,0-1.321,2.83c-1.356,1.123-.972,2.869-1.473,4.3-1.288,3.675.137,6.665,2.8,9.107,1.646,1.508,3.468,2.893,5.876,3.021l.5.316.59-.044a2.727,2.727,0,0,0,2.954,1.051h0l2.429.339h0a4.933,4.933,0,0,0,4.432,1.006h0c9.605,2.512,19.39,2.114,29.124,1.424,3.723-.264,7.649-.965,10.605-3.83a16.179,16.179,0,0,0,7.4-4.566c2.118-2.118,3.862-4.495,3.557-7.764.356-.56.757-1.1,1.062-1.682,3.79-7.279,8.433-13.9,14.892-19.08,1.165-.935,2.3-2.264,4.275-1.524,0,4.231.134,8.5-.042,12.759a17.927,17.927,0,0,0,2.435,9.71c.773,1.377,1.831,2.743,3.611,2.746,5.371.009,10.794.42,15.981-1.535h0c2.315.279,3.822-1.015,5.172-2.637a7.134,7.134,0,0,0,1.589-5.032c-.282-9.29.483-18.537,1.208-27.788.442-5.632.851-11.271,1.077-16.915a51.964,51.964,0,0,0-4.328-23.784c-2.462-5.495-5.721-10.7-6.771-16.837-.242-1.413-.541-2.439.242-3.675a13.976,13.976,0,0,0,2.005-9.746l-.451-.288.014-.016.438.3c1.322-1.6,1.143-3.532,1.23-5.408a4.855,4.855,0,0,0,1.261-4.354h0a.528.528,0,0,0,.187-.869h0l3.974-8.543h0c2.531-4.634,3.119-9.8,3.992-14.871a157.94,157.94,0,0,1,3.5-17.2c1.614-5.592,3.358-11.241,3.593-17.158h0a160.783,160.783,0,0,0,3.99-21.164,110.864,110.864,0,0,1,2.184-14.039c.448-1.8,1.838-1.678,3.083-2,1.217.6,2.592,1.151,2.1,2.905a9.6,9.6,0,0,0,.22,5.918,11.839,11.839,0,0,0,8.343,8.01,13.835,13.835,0,0,0,1.615,5.287c-.181,2.949-.425,5.907,1.308,8.563h0c.67,6.05,1.062,12.149,2.114,18.131a76.831,76.831,0,0,1,1.262,10.7c.2,5.633.036,11.443,1.4,16.83,1.638,6.477,1.75,12.922,1.989,19.443.205,5.623.123,11.273,1.414,16.806a.6.6,0,0,0,.036,1.022c-.309,2.917-.682,5.829-.9,8.752-.136,1.795-.225,3.64.908,5.241h0a.623.623,0,0,0,.129,1.013c-.442,4.079.893,8.173-.1,12.247h0a10.289,10.289,0,0,0-1.981,10.063,8.011,8.011,0,0,1-.042,4.586,15.924,15.924,0,0,0-.317,5.347,51.958,51.958,0,0,1-.143,10.8c-.156,1.971-.186,3.952-.269,5.928l.019,0c-.006.029-.013.058-.019.087h0V1423a58.022,58.022,0,0,1-5.022,15.147,10.9,10.9,0,0,0-.614,2.607,83.38,83.38,0,0,1-15.042,20.006,38.015,38.015,0,0,0-3.216,3.522,38.763,38.763,0,0,1-10.285,8.828,28.947,28.947,0,0,0-8.269,6.9,1.747,1.747,0,0,0-1.455,1.522h0a6.764,6.764,0,0,0-3.825,5.6h0c-1.451,1.536-1.777,3.532-2.227,5.473-.837,3.613,0,6.575,3.368,8.536h0l.017.015a1.431,1.431,0,0,0,1.484,1.293,1.246,1.246,0,0,0,1.518,1.046h0c5.078,3.4,10.936,4.354,16.79,4.962,7.2.748,14.462,1.438,21.613-.6l.623.162.562-.313c6.663.475,12.978-1.216,19.166-3.331a18.972,18.972,0,0,0,11.066-10.2c2.638-2.58,3.694-6.031,5.081-9.292,1.038-2.441,1.678-5.1,4.1-6.687h0c2.669,3.638,5.424,7.184,9.685,9.134h0c1,1.591,2.7,1.6,4.118,1.293,4.474-.973,9.019-1.931,12.291-5.6,2.087-.933,2.869-2.811,3.227-4.832a66.049,66.049,0,0,0,.745-6.728c.214-2.933.134-5.9.5-8.806,1.016-8.079,2.149-16.144,3.324-24.2A46.27,46.27,0,0,0,505,1406.546l-.258-3.929a6.447,6.447,0,0,0,1.612-4.015c2.2-2.493,1.942-5.356,1.252-8.285-.093-4.229-.176-8.458-.286-12.687-.035-1.323.006-2.682-.92-3.8l.013-.012-.086-1.255h0c-.1-4.766-.256-9.532-.287-14.3-.071-10.676.017-21.353-.146-32.027-.121-7.95-.721-15.895-.78-23.844a297.36,297.36,0,0,0-5.774-54.1c.741-5.353-.125-10.281-3.518-14.684-1.542-2-1.855-4.393-2.049-6.976a115.605,115.605,0,0,0-2.177-12.607,5.811,5.811,0,0,0-5.508-5.094c-.9-.1-1.806-.112-2.7-.237-2.579-.361-2.879-.631-3.421-3.319-.49-2.435-.516-5.039-1.422-7.3-2.026-5.051-1.782-9.391,1.874-13.755,2.258-2.7,4.4-5.8,4.28-9.712h0c1.7-3.039,1.7-6.3,1.278-9.624a4.6,4.6,0,0,0-.164-4.114c.205-5.43-1.878-10.235-4.1-15h0c.043-2.75-1.4-5.093-2.17-7.613a10.237,10.237,0,0,1-.19-4.57c3.708-6.72,3.889-14,3.26-21.365-.246-2.877-1.039-5.708-.683-8.635h0a7.955,7.955,0,0,0,3.835-1.66h0c3.551-1.27,5.125-4.333,6.55-7.433a55.579,55.579,0,0,0,4.278-14.286c1.2-2.133,2.183-4.4,4.166-6a3.658,3.658,0,0,0,1.287-3.606h0l1.649-3.873h0l.006-.052a1.611,1.611,0,0,0,1.412-1.391h0a13.6,13.6,0,0,0,2.735-5.242,4.723,4.723,0,0,0,2.451-4.473l.023-.056h0a25.506,25.506,0,0,0,4.262-13.4h0a70.926,70.926,0,0,0,2.725-12.308h0a22.062,22.062,0,0,0,4.081-8.488c2.305-8.533,4.319-17.106,5.851-25.829.7-4.013,1.066-8.081,1.792-12.095.922-5.093,2.1-10.229,1.894-15.514a38.171,38.171,0,0,1,.674-5.388c.694-6.533,1.62-13.056,1.95-19.609.308-6.12-.031-12.273-.085-18.411h0q.019-2.024.036-4.049h0l.285-4.063h0c1.308-1.544,1-3.426,1.043-5.213.131-5.45.208-10.9.306-16.354h0a5.534,5.534,0,0,0,1.034-3.847c.038-5.441-.037-10.885.092-16.324.17-7.213-.732-14.543,2.222-21.482a6.353,6.353,0,0,0,.053-4.672c-.948-2.64-.821-5.349-.825-8.069q-.021-13.261-.085-26.523h0q.051-1.343.1-2.686h0c3.011-4.458,3.737-9.114,1.1-14a11.62,11.62,0,0,1-1.183-6.567c.126-1.8.051-3.613.066-5.42-.011-5.22.139-10.448-.086-15.659-.174-4.027-.576-8.085-2.487-11.783h0a7.828,7.828,0,0,0-.192-1.235h0a33.877,33.877,0,0,0-9.4-23.3h0a3.026,3.026,0,0,0-1.562-2.612h0l-1.342-2.743h0l-1.277-1.4-.014-.016q-.01-.669-.059-1.336a2.758,2.758,0,0,0-1.331-2.719l-.01-.012h0a27.429,27.429,0,0,0-2.691-4.591,129.229,129.229,0,0,1-12.96-16.912,7.784,7.784,0,0,0-3.455-3.077q-.027-.68-.073-1.358-.646-.692-1.272-1.4l-1.42-2.678c-.716-1.893-1.419-3.791-2.151-5.677-1-2.565-2.7-4.073-5.638-3.917-2.492.132-4.979.059-7.189-1.368l-6.839-8.181h0a9.056,9.056,0,0,0-3.993-4.11h0l-.216-1.356a12.7,12.7,0,0,1-1.22-1.471,10.029,10.029,0,0,0-4.048-6.876v0a8.546,8.546,0,0,0-2.75-5.443v0a9.431,9.431,0,0,0-2.679-5.394h0a5,5,0,0,0-.323-1.261q-.5-.792-1-1.583l0-.008a3.492,3.492,0,0,0-1.354-2.742h0a2.745,2.745,0,0,0-.269-1.113h0q.045-3.379.089-6.758c.569-.53,1.665-.111,1.992-1.1,1.833-.039,3.591-.194,4.92-1.757a6.818,6.818,0,0,0,1.307-5.122,30.814,30.814,0,0,0-.468-3.363c-1.151-6.962-1.729-13.9.346-20.824a26.144,26.144,0,0,0,.785-5.377,8.794,8.794,0,0,0-2.042-6.991,10.34,10.34,0,0,1-3.134-7.914,11.372,11.372,0,0,0-.653-3.321c-2.352-8.5-4.648-17.02-7.138-25.481-1.148-3.9-2.451-7.831-5.074-11.045-5.734-7.025-11.769-13.756-19.751-18.379a51.5,51.5,0,0,1-3.915-3.637,13.867,13.867,0,0,0-8.2-4.266,46.213,46.213,0,0,0-8.7-.692c-3.36.023-6.719.414-10.075.683-2.214.178-4.513.181-6.045,2.231h0c-3.117,1.93-3.413,5.158-3.833,8.329h0c-1.3,2.61-2.752,4.919-5.507,6.47-6.338,3.569-11.409,8.773-16.626,13.756a19.681,19.681,0,0,0-2.249,1.441,131.275,131.275,0,0,0-21.809,23.2,27.353,27.353,0,0,1-7.135,6.932h0c-1.441.257-2.653.778-2.854,2.469h0c-2.05,3.989-2.7,8.426-4.062,12.635-1.471,4.54-1.468,9.242-1.586,13.913-.049,1.918-.156,4.066,1.662,5.518h0c.7,2.037,2.439,2.551,4.285,2.9a.8.8,0,0,0,.1,1.12,17.406,17.406,0,0,0,3.885,10.754h0c.416,1.9,1.971,2.922,3.308,4.038,2.886,2.408,5.876,4.692,8.823,7.026h0q.22,1.259.438,2.518h0q-.144,10.206-.282,20.413c-.019,1.562-.3,3.218,1.226,4.353v0c3.022,2.317,6.393,1.589,9.735,1.115h0l2.491,1.756h0a1.061,1.061,0,0,0,.139,1.06h0c.02,1.948-.413,4.014,1.431,5.486h0l.022.034a9.7,9.7,0,0,1,1.405,1.359l.628.252.61-.294h0l1.535,1.4q-.009,1.364-.019,2.727h0c-.173,1.164-.033,2.369,1.263,2.608,2.85.525,5.242,2.084,7.846,3.157h0a3.729,3.729,0,0,0,1.668,2.486h0l1.59,2.6c3.887,5.128,6.447,6.1,11.967,4.563,2.171-.6,4.337-1.2,5.9-2.994h0a15.8,15.8,0,0,0,2.433-1.053c2.633-1.691,5.169-3.535,7.828-5.18,2.419-1.5,4.139-1.01,5.529,1.478a12.024,12.024,0,0,1,1.838,5.69c.17,2.954-.813,5.192-3.8,6.233A15.369,15.369,0,0,0,410.7,702c-4.833.218-9.1,2.638-13.783,3.513-3.552.664-7.232,1.241-10.508,2.658a144.757,144.757,0,0,0-18.284,9.144c-4.4,2.7-8.435,6.279-9.32,11.993v0c-2.169,1.772-2.806,4.157-2.731,6.827h0c-3.944,9.549-6.138,19.66-9.426,29.42a7.32,7.32,0,0,0-.093,2.012h0l-.016.012c-1.592.98-1.336,2.563-1.326,4.065h0q-.066.675-.073,1.353h0c-2.149,1.9-1.115,4.465-1.4,6.755h0a12.887,12.887,0,0,0-1.32,2.274c-2.3,6.825-3.328,13.905-4.1,21.033a3.56,3.56,0,0,0-1.32,2.208c-1.07,5.16-3.137,9.586-8.116,12.283-2.093,1.134-3.775,3.027-5.644,4.575l-8.144,4.061h0c-1.454.278-2.626.933-2.659,2.582-.058,2.954-.024,5.91.013,8.864a3.071,3.071,0,0,0,1.31,2.281l1.577,4.041h0a6.9,6.9,0,0,0-.158,1.337h0c-.595,1.363-1.512,2.617-1.425,4.21a14.655,14.655,0,0,0-1.324,1.46q0,.635-.064,1.267l.074-.018c-.013.028-.022.055-.034.083l-.04-.065a72.334,72.334,0,0,1-8.132-.286c-4.443-.633-8.82-1.714-13.253-2.439-8.484-1.388-16.637-4-24.721-6.775,0,0-20.337-7.632-21.993-10.3m38.028,49.582M177.268,827.5h0c.468,3.083,1.627,6.012,1.649,9.223a8.366,8.366,0,0,0,1.634,5.02,59.046,59.046,0,0,1,4.039,6.15,6.1,6.1,0,0,0,3.611,2.876h0a7.33,7.33,0,0,0,5.582,1.862l20.173-.436m6.915-31.406h0c-.862-1.023-1.521-2.485-2.621-2.993-5.053-2.334-9.832-5.3-15.356-6.593-6.534-1.533-13.213-2.224-19.765-3.759a20.941,20.941,0,0,0-9.316,1.753s-1.306,1.337-.9,4.44M509.2,929.269,347.883,812.631h0Zm-34.136,36.88h0Zm-1.314,2.707h0Zm86.422,629.028a1.5,1.5,0,0,1-.56.24A1.741,1.741,0,0,0,398.856,1481.246Zm109.736-34.213c-.222,1.583-.456,3.165-.689,4.748q.341-3.1.792-6.139A4.644,4.644,0,0,1,508.592,1447.033Z" transform="translate(-59.141 -230.069)"/>
        <path class="cls-16" d="M365.662,677.447l-1.4-1.359A1.573,1.573,0,0,0,365.662,677.447Z" transform="translate(-59.141 -230.069)"/>
      </g>
      <path class="cls-16" d="M332.935,616.411s-1.632-5.4,13.143-2.9,55.7,8.159,69.528,8.02,39.15,9.01,42.016,10.791l2.866,1.781" transform="translate(-59.141 -230.069)"/>
      <path class="cls-16" d="M335.489,578.976s17.383-4.247,45.153.793c0,0,37.772,8.217,57.851,9.11s19.439-1.6,26.844,1.788" transform="translate(-59.141 -230.069)"/>
      <path class="cls-16" d="M408.915,687.721s15.432-9.257,19.059-14.4,4.762-7.279,4.892-8.478" transform="translate(-59.141 -230.069)"/>
      <path class="cls-16" d="M487.164,682.834s-6.1-1.847-20.468,5.517-21.849,27.484-25.315,29.986-23.8,11.792-27.938,9.732-10.272-5.5-5.783-14.536a98.916,98.916,0,0,1,6.566-13.316" transform="translate(-59.141 -230.069)"/>
      <path class="cls-16" d="M481.784,944.183s-22.623,63.431-28.8,72.775-14.016,22.081-16.666,28.127-4.508,10.531-4.072,14.7-1.837,19.381-4.555,24.925-8.723,20.186-8.526,23.445.3,11.681-2.667,13.167a12.763,12.763,0,0,1-10.745.05c-3.164-1.675-3.435-1.829-6.078-1.647s-6.124-.813-7.917-2.8a7.9,7.9,0,0,1-7.808,1.61c-4.407-1.643-9.334-8.7-7.649-12.256s.289-21.067,6.291-25.824,6.137-11.562,16.414-24.138c0,0,1.184-1.183,5.638-14.677s15.71-36.212,16.455-39.894,7.992-34.639,12.5-43.059,7.9-26.036,10.356-29.419C443.952,929.269,464.879,941.237,481.784,944.183Z" transform="translate(-59.141 -230.069)"/>
      <path class="cls-16" d="M409.473,1104.478" transform="translate(-59.141 -230.069)"/>
      <path class="cls-16" d="M443.952,929.269s-1.867.451-.341-3.117,3.265-9.174,2.477-9.857S433.4,911.086,434.4,908.3s2.777-7.433,7.236-9.475" transform="translate(-59.141 -230.069)"/>
      <path class="cls-16" d="M441.212,869.283s-11.856,14.436-6.265,20.238,9.17,14.5,9.17,14.5" transform="translate(-59.141 -230.069)"/>
      <path class="cls-16" d="M454.513,869.935s-19.12.718-20.215-3.983,1.144-9.7,1.144-9.7,16.677-5.476,24.545-4.2" transform="translate(-59.141 -230.069)"/>
      <path class="cls-16" d="M457.8,813.1s-15.788,29.148-22.832,34.551c0,0-4.347,4.506.473,8.6" transform="translate(-59.141 -230.069)"/>
      <path class="cls-16" d="M446.985,831.957S440.6,819.795,448.7,799.73" transform="translate(-59.141 -230.069)"/>
      <path class="cls-16" d="M537.732,811.295s-11.85,41.2-12.509,52.485" transform="translate(-59.141 -230.069)"/>
      <path class="cls-16" d="M509.768,840.471s9.071,19.348,17.784,26.8c0,0,3.6,2.631,0,6.8s.414,5.709.414,5.709,6.695,2.888,4.114,8.843a47.14,47.14,0,0,0-3.151,9.109s-3.424,10.419-10.919,9.629-15.28-8.247-15.28-8.247" transform="translate(-59.141 -230.069)"/>
      <path class="cls-16" d="M446.087,916.294s43.368,12.313,56.106,11.257c0,0,8.333-2.645,3.618-16.207" transform="translate(-59.141 -230.069)"/>
      <path class="cls-16" d="M511.143,905.486s-2.378,4.021-10.664,9.288" transform="translate(-59.141 -230.069)"/>
      <path class="cls-16" d="M481.784,944.183s1.262,1.982,4.229-3.134,5.88-13.928,5.88-13.928" transform="translate(-59.141 -230.069)"/>
      <path class="cls-16" d="M334.183,1068s26.574,21.094,44.63,17.9" transform="translate(-59.141 -230.069)"/>
      <path class="cls-16" d="M423.11,1095.287s40.78,11.093,58.824,8.4" transform="translate(-59.141 -230.069)"/>
      <path class="cls-16" d="M319,1033.19s26.674,22.7,45.5,24.919,27.307,6.164,27.307,6.164" transform="translate(-59.141 -230.069)"/>
      <path class="cls-16" d="M432.648,1066.613s27.683,6.114,40.634,6.191,25.482-2.949,28.766-2.1" transform="translate(-59.141 -230.069)"/>
      <path class="cls-16" d="M317.785,903.308s1.9-41.891,5.629-50.062,14.325-37.443,14.9-50.18" transform="translate(-59.141 -230.069)"/>
      <path class="cls-16" d="M312.434,852.218s10.379,23.919-1.371,43.42" transform="translate(-59.141 -230.069)"/>
      <path class="cls-17" d="M223.051,822.278s-15.282-7.86-19.7-7.624c0,0-1.985,6.3,0,6.956,0,0,19.23,14.887,19.7,19.257,0,0-4.1,11.217-9.094,11.325a4.548,4.548,0,0,0,2.663,2.71c2.015.683,1.358-1.619,17.064,3.853,0,0,2.338,1.619,4.994-1.251s7.867-20.633,5.112-26.514a6.7,6.7,0,0,0-2.758-3.955c-2.147-1.233-13.342-4.726-15.33-5.935S223.051,822.278,223.051,822.278Z" transform="translate(-59.141 -230.069)"/>
      <path class="cls-16" d="M282.287,882.015s-38.154-21.266-43.609-24.51" transform="translate(-59.141 -230.069)"/>
      <path class="cls-16" d="M197.794,816.222c1.163-1.034,4.192-5.227-8.144-6.463s-16.742,3.876-16.742,3.876c-2.319,1.141-.347,5.816-.347,5.816s3.03,4.918,4.706,8.047" transform="translate(-59.141 -230.069)"/>
      <path class="cls-16" d="M177.774,822.933s1.018-3.867,1.923-5.031,4.524-1.293,8.4-.9c0,0,13.31-.353,16.845-.048,2.3.2,7.069,1.206,7.327,2.5s.2,4.786-2.715,4.786a18.329,18.329,0,0,1,4.88.284c2.456.517,2.191,5.265-2.812,6.179a8.364,8.364,0,0,1-4.4-.676s2.456.934,2.844,1.71,1.034,4.137-2.456,4.137-6.6-1.155-7.632-2.318" transform="translate(-59.141 -230.069)"/>
      <path class="cls-16" d="M209.558,824.236s-17.782-1.593-21.819-1.257-4.822,5.046-5.271,8.8" transform="translate(-59.141 -230.069)"/>
      <path class="cls-16" d="M207.231,830.024s-3.96-3.287-7.156-3.063-10.317,2.747-11.551,4.037-2.355,3.757-2.411,8.411" transform="translate(-59.141 -230.069)"/>
      <path class="cls-16" d="M192.5,836.93s7.681.877,8.382-2.471" transform="translate(-59.141 -230.069)"/>
      <path class="cls-16" d="M192.785,844.287s4.486-5.872,3.308-7.253" transform="translate(-59.141 -230.069)"/>
      <path class="cls-16" d="M198.168,846.922s1.346-3.833.449-6.262" transform="translate(-59.141 -230.069)"/>
    </g>
    <polygon class="cls-18" points="52.424 667.117 0.25 630.585 0.25 443.735 52.424 480.267 52.424 667.117"/>
    <polygon class="cls-18" points="52.424 472.291 0.25 435.758 0.25 248.908 52.424 285.441 52.424 472.291"/>
    <polygon class="cls-18" points="52.424 861.944 0.25 825.411 0.25 638.561 52.424 675.094 52.424 861.944"/>
  </g>
</svg>
