<svg xmlns="http://www.w3.org/2000/svg" xmlns:xlink="http://www.w3.org/1999/xlink" viewBox="0 0 794.469 994.438">
  <defs>
    <style>
      .cls-1, .cls-13, .cls-14, .cls-18, .cls-19, .cls-3, .cls-5, .cls-6 {
        fill: none;
      }

      .cls-2 {
        clip-path: url(#clip-path);
      }

      .cls-10, .cls-11, .cls-12, .cls-13, .cls-15, .cls-3, .cls-5, .cls-6 {
        stroke: #1a1a1a;
      }

      .cls-19, .cls-20, .cls-3 {
        stroke-miterlimit: 10;
      }

      .cls-4 {
        clip-path: url(#clip-path-2);
      }

      .cls-10, .cls-11, .cls-12, .cls-13, .cls-14, .cls-15, .cls-16, .cls-17, .cls-18, .cls-19, .cls-20, .cls-5, .cls-6, .cls-9 {
        stroke-linecap: round;
      }

      .cls-10, .cls-11, .cls-12, .cls-13, .cls-14, .cls-15, .cls-16, .cls-17, .cls-18, .cls-5, .cls-6, .cls-9 {
        stroke-linejoin: round;
      }

      .cls-5, .cls-6 {
        stroke-width: 2px;
      }

      .cls-6 {
        stroke-dasharray: 0 4.874;
      }

      .cls-7 {
        clip-path: url(#clip-path-3);
      }

      .cls-8 {
        clip-path: url(#clip-path-4);
      }

      .cls-16, .cls-17, .cls-18, .cls-19, .cls-20, .cls-9 {
        stroke: #2e2628;
      }

      .cls-10, .cls-11, .cls-13, .cls-15, .cls-16, .cls-17, .cls-18, .cls-19, .cls-20, .cls-9 {
        stroke-width: 0.5px;
      }

      .cls-9 {
        fill: url(#New_Pattern_2);
      }

      .cls-10 {
        fill: url(#New_Pattern);
      }

      .cls-11, .cls-17, .cls-20 {
        fill: #fff;
      }

      .cls-12 {
        fill: #f4355b;
      }

      .cls-14 {
        stroke: #f4355b;
        stroke-width: 3px;
      }

      .cls-15 {
        fill: url(#New_Pattern_3);
      }

      .cls-16 {
        fill: url(#New_Pattern_2-3);
      }
    </style>
    <clipPath id="clip-path">
      <polygon class="cls-1" points="44.801 0 44.801 44.801 0 44.801 0 0 44.801 0"/>
    </clipPath>
    <clipPath id="clip-path-2">
      <rect class="cls-1" width="41.416" height="41.416"/>
    </clipPath>
    <clipPath id="clip-path-3">
      <rect class="cls-1" width="44.801" height="44.801"/>
    </clipPath>
    <clipPath id="clip-path-4">
      <rect class="cls-1" y="0.001" width="44.8" height="44.8"/>
    </clipPath>
    <pattern id="New_Pattern_2" data-name="New Pattern 2" x="-9.75" y="-287.313" width="41.416" height="41.416" patternUnits="userSpaceOnUse" viewBox="0 0 41.416 41.416">
      <rect class="cls-1" width="41.416" height="41.416"/>
      <g class="cls-4">
        <g>
          <g>
            <line class="cls-5" y1="-6.831" y2="-6.831"/>
            <line class="cls-6" x1="3.446" y1="-3.384" x2="43.078" y2="36.247"/>
            <line class="cls-5" x1="44.801" y1="37.97" x2="44.801" y2="37.97"/>
          </g>
          <g>
            <line class="cls-5" y1="-48.185" y2="-48.185"/>
            <line class="cls-6" x1="3.446" y1="-44.739" x2="43.078" y2="-5.108"/>
            <line class="cls-5" x1="44.801" y1="-3.384" x2="44.801" y2="-3.384"/>
          </g>
          <g>
            <line class="cls-5" y1="-41.293" y2="-41.293"/>
            <line class="cls-6" x1="3.446" y1="-37.846" x2="43.078" y2="1.785"/>
            <line class="cls-5" x1="44.801" y1="3.508" x2="44.801" y2="3.508"/>
          </g>
          <g>
            <line class="cls-5" y1="0.062" y2="0.062"/>
            <line class="cls-6" x1="3.446" y1="3.508" x2="43.078" y2="43.139"/>
            <line class="cls-5" x1="44.801" y1="44.863" x2="44.801" y2="44.863"/>
          </g>
          <g>
            <line class="cls-5" y1="6.954" y2="6.954"/>
            <line class="cls-6" x1="3.446" y1="10.4" x2="43.078" y2="50.032"/>
            <line class="cls-5" x1="44.801" y1="51.755" x2="44.801" y2="51.755"/>
          </g>
          <g>
            <line class="cls-5" y1="13.847" y2="13.847"/>
            <line class="cls-6" x1="3.446" y1="17.293" x2="43.078" y2="56.924"/>
            <line class="cls-5" x1="44.801" y1="58.647" x2="44.801" y2="58.647"/>
          </g>
          <g>
            <line class="cls-5" y1="20.739" y2="20.739"/>
            <line class="cls-6" x1="3.446" y1="24.185" x2="43.078" y2="63.817"/>
            <line class="cls-5" x1="44.801" y1="65.54" x2="44.801" y2="65.54"/>
          </g>
          <g>
            <line class="cls-5" y1="27.631" y2="27.631"/>
            <line class="cls-6" x1="3.446" y1="31.078" x2="43.078" y2="70.709"/>
            <line class="cls-5" x1="44.801" y1="72.432" x2="44.801" y2="72.432"/>
          </g>
          <g>
            <line class="cls-5" y1="34.524" y2="34.524"/>
            <line class="cls-6" x1="3.446" y1="37.97" x2="43.078" y2="77.601"/>
            <line class="cls-5" x1="44.801" y1="79.325" x2="44.801" y2="79.325"/>
          </g>
          <g>
            <line class="cls-5" y1="-27.508" y2="-27.508"/>
            <line class="cls-6" x1="3.446" y1="-24.062" x2="43.078" y2="15.57"/>
            <line class="cls-5" x1="44.801" y1="17.293" x2="44.801" y2="17.293"/>
          </g>
          <g>
            <line class="cls-5" y1="-34.4" y2="-34.4"/>
            <line class="cls-6" x1="3.446" y1="-30.954" x2="43.078" y2="8.677"/>
            <line class="cls-5" x1="44.801" y1="10.4" x2="44.801" y2="10.4"/>
          </g>
          <g>
            <line class="cls-5" y1="-20.615" y2="-20.615"/>
            <line class="cls-6" x1="3.446" y1="-17.169" x2="43.078" y2="22.462"/>
            <line class="cls-5" x1="44.801" y1="24.185" x2="44.801" y2="24.185"/>
          </g>
          <g>
            <line class="cls-5" y1="-13.723" y2="-13.723"/>
            <line class="cls-6" x1="3.446" y1="-10.277" x2="43.078" y2="29.355"/>
            <line class="cls-5" x1="44.801" y1="31.078" x2="44.801" y2="31.078"/>
          </g>
          <g>
            <line class="cls-5" y1="41.416" y2="41.416"/>
            <line class="cls-6" x1="3.446" y1="44.863" x2="43.078" y2="84.494"/>
            <line class="cls-5" x1="44.801" y1="86.217" x2="44.801" y2="86.217"/>
          </g>
        </g>
      </g>
    </pattern>
    <pattern id="New_Pattern" data-name="New Pattern" width="44.801" height="44.801" patternUnits="userSpaceOnUse" viewBox="0 0 44.801 44.801">
      <rect class="cls-1" width="44.801" height="44.801"/>
      <g class="cls-2">
        <g>
          <line class="cls-3" x1="4.695" y1="81.654" x2="123.306" y2="-36.957"/>
          <line class="cls-3" x1="-1.705" y1="81.654" x2="116.906" y2="-36.957"/>
          <line class="cls-3" x1="-8.105" y1="81.654" x2="110.506" y2="-36.957"/>
          <line class="cls-3" x1="-14.505" y1="81.654" x2="104.106" y2="-36.957"/>
          <line class="cls-3" x1="-20.905" y1="81.654" x2="97.706" y2="-36.957"/>
          <line class="cls-3" x1="-27.305" y1="81.654" x2="91.306" y2="-36.957"/>
          <line class="cls-3" x1="-33.705" y1="81.654" x2="84.906" y2="-36.957"/>
          <line class="cls-3" x1="-40.105" y1="81.654" x2="78.506" y2="-36.957"/>
          <line class="cls-3" x1="-46.505" y1="81.654" x2="72.106" y2="-36.957"/>
          <line class="cls-3" x1="-52.905" y1="81.654" x2="65.706" y2="-36.957"/>
          <line class="cls-3" x1="-59.306" y1="81.654" x2="59.306" y2="-36.957"/>
          <line class="cls-3" x1="-65.706" y1="81.654" x2="52.905" y2="-36.957"/>
          <line class="cls-3" x1="-72.106" y1="81.654" x2="46.505" y2="-36.957"/>
          <line class="cls-3" x1="-78.506" y1="81.654" x2="40.105" y2="-36.957"/>
          <line class="cls-3" x1="-84.906" y1="81.654" x2="33.705" y2="-36.957"/>
          <line class="cls-3" x1="11.095" y1="81.654" x2="129.707" y2="-36.957"/>
          <line class="cls-3" x1="-36.905" y1="4.644" x2="81.706" y2="123.255"/>
          <line class="cls-3" x1="-36.905" y1="-1.756" x2="81.706" y2="116.855"/>
          <line class="cls-3" x1="-36.905" y1="-8.157" x2="81.706" y2="110.455"/>
          <line class="cls-3" x1="-36.905" y1="-14.557" x2="81.706" y2="104.054"/>
          <line class="cls-3" x1="-36.905" y1="-20.957" x2="81.706" y2="97.654"/>
          <line class="cls-3" x1="-36.905" y1="-27.357" x2="81.706" y2="91.254"/>
          <line class="cls-3" x1="-36.905" y1="-33.757" x2="81.706" y2="84.854"/>
          <line class="cls-3" x1="-36.905" y1="-40.157" x2="81.706" y2="78.454"/>
          <line class="cls-3" x1="-36.905" y1="-46.557" x2="81.706" y2="72.054"/>
          <line class="cls-3" x1="-36.905" y1="-52.957" x2="81.706" y2="65.654"/>
          <line class="cls-3" x1="-36.905" y1="-59.357" x2="81.706" y2="59.254"/>
          <line class="cls-3" x1="-36.905" y1="-65.757" x2="81.706" y2="52.854"/>
          <line class="cls-3" x1="-36.905" y1="-72.158" x2="81.706" y2="46.454"/>
          <line class="cls-3" x1="-36.905" y1="-78.558" x2="81.706" y2="40.054"/>
          <line class="cls-3" x1="-36.905" y1="-84.958" x2="81.706" y2="33.653"/>
          <line class="cls-3" x1="-36.905" y1="11.044" x2="81.706" y2="129.655"/>
        </g>
      </g>
    </pattern>
    <pattern id="New_Pattern_3" data-name="New Pattern 3" width="44.801" height="44.801" patternUnits="userSpaceOnUse" viewBox="0 0 44.801 44.801">
      <rect class="cls-1" width="44.801" height="44.801"/>
      <g id="Straight_Line_Fill" data-name="Straight Line Fill">
        <g class="cls-7">
          <g class="cls-8">
            <line class="cls-3" x1="-36.906" y1="4.644" x2="81.705" y2="123.255"/>
            <line class="cls-3" x1="-36.906" y1="-1.757" x2="81.705" y2="116.854"/>
            <line class="cls-3" x1="-36.906" y1="-8.156" x2="81.705" y2="110.455"/>
            <line class="cls-3" x1="-36.906" y1="-14.557" x2="81.705" y2="104.054"/>
            <line class="cls-3" x1="-36.906" y1="-20.957" x2="81.705" y2="97.654"/>
            <line class="cls-3" x1="-36.906" y1="-27.357" x2="81.705" y2="91.254"/>
            <line class="cls-3" x1="-36.906" y1="-33.757" x2="81.705" y2="84.854"/>
            <line class="cls-3" x1="-36.906" y1="-40.157" x2="81.705" y2="78.454"/>
            <line class="cls-3" x1="-36.906" y1="-46.557" x2="81.705" y2="72.054"/>
            <line class="cls-3" x1="-36.906" y1="-52.957" x2="81.705" y2="65.654"/>
            <line class="cls-3" x1="-36.906" y1="-59.357" x2="81.705" y2="59.254"/>
            <line class="cls-3" x1="-36.906" y1="-65.758" x2="81.705" y2="52.853"/>
            <line class="cls-3" x1="-36.906" y1="-72.157" x2="81.705" y2="46.454"/>
            <line class="cls-3" x1="-36.906" y1="-78.557" x2="81.705" y2="40.054"/>
            <line class="cls-3" x1="-36.906" y1="-84.958" x2="81.705" y2="33.653"/>
            <line class="cls-3" x1="-36.906" y1="11.044" x2="81.705" y2="129.655"/>
          </g>
        </g>
      </g>
    </pattern>
    <pattern id="New_Pattern_2-3" data-name="New Pattern 2" width="41.416" height="41.416" patternUnits="userSpaceOnUse" viewBox="0 0 41.416 41.416">
      <rect class="cls-1" width="41.416" height="41.416"/>
      <g class="cls-4">
        <g>
          <g>
            <line class="cls-5" y1="-6.831" y2="-6.831"/>
            <line class="cls-6" x1="3.446" y1="-3.384" x2="43.078" y2="36.247"/>
            <line class="cls-5" x1="44.801" y1="37.97" x2="44.801" y2="37.97"/>
          </g>
          <g>
            <line class="cls-5" y1="-48.185" y2="-48.185"/>
            <line class="cls-6" x1="3.446" y1="-44.739" x2="43.078" y2="-5.108"/>
            <line class="cls-5" x1="44.801" y1="-3.384" x2="44.801" y2="-3.384"/>
          </g>
          <g>
            <line class="cls-5" y1="-41.293" y2="-41.293"/>
            <line class="cls-6" x1="3.446" y1="-37.846" x2="43.078" y2="1.785"/>
            <line class="cls-5" x1="44.801" y1="3.508" x2="44.801" y2="3.508"/>
          </g>
          <g>
            <line class="cls-5" y1="0.062" y2="0.062"/>
            <line class="cls-6" x1="3.446" y1="3.508" x2="43.078" y2="43.139"/>
            <line class="cls-5" x1="44.801" y1="44.863" x2="44.801" y2="44.863"/>
          </g>
          <g>
            <line class="cls-5" y1="6.954" y2="6.954"/>
            <line class="cls-6" x1="3.446" y1="10.4" x2="43.078" y2="50.032"/>
            <line class="cls-5" x1="44.801" y1="51.755" x2="44.801" y2="51.755"/>
          </g>
          <g>
            <line class="cls-5" y1="13.847" y2="13.847"/>
            <line class="cls-6" x1="3.446" y1="17.293" x2="43.078" y2="56.924"/>
            <line class="cls-5" x1="44.801" y1="58.647" x2="44.801" y2="58.647"/>
          </g>
          <g>
            <line class="cls-5" y1="20.739" y2="20.739"/>
            <line class="cls-6" x1="3.446" y1="24.185" x2="43.078" y2="63.817"/>
            <line class="cls-5" x1="44.801" y1="65.54" x2="44.801" y2="65.54"/>
          </g>
          <g>
            <line class="cls-5" y1="27.631" y2="27.631"/>
            <line class="cls-6" x1="3.446" y1="31.078" x2="43.078" y2="70.709"/>
            <line class="cls-5" x1="44.801" y1="72.432" x2="44.801" y2="72.432"/>
          </g>
          <g>
            <line class="cls-5" y1="34.524" y2="34.524"/>
            <line class="cls-6" x1="3.446" y1="37.97" x2="43.078" y2="77.601"/>
            <line class="cls-5" x1="44.801" y1="79.325" x2="44.801" y2="79.325"/>
          </g>
          <g>
            <line class="cls-5" y1="-27.508" y2="-27.508"/>
            <line class="cls-6" x1="3.446" y1="-24.062" x2="43.078" y2="15.57"/>
            <line class="cls-5" x1="44.801" y1="17.293" x2="44.801" y2="17.293"/>
          </g>
          <g>
            <line class="cls-5" y1="-34.4" y2="-34.4"/>
            <line class="cls-6" x1="3.446" y1="-30.954" x2="43.078" y2="8.677"/>
            <line class="cls-5" x1="44.801" y1="10.4" x2="44.801" y2="10.4"/>
          </g>
          <g>
            <line class="cls-5" y1="-20.615" y2="-20.615"/>
            <line class="cls-6" x1="3.446" y1="-17.169" x2="43.078" y2="22.462"/>
            <line class="cls-5" x1="44.801" y1="24.185" x2="44.801" y2="24.185"/>
          </g>
          <g>
            <line class="cls-5" y1="-13.723" y2="-13.723"/>
            <line class="cls-6" x1="3.446" y1="-10.277" x2="43.078" y2="29.355"/>
            <line class="cls-5" x1="44.801" y1="31.078" x2="44.801" y2="31.078"/>
          </g>
          <g>
            <line class="cls-5" y1="41.416" y2="41.416"/>
            <line class="cls-6" x1="3.446" y1="44.863" x2="43.078" y2="84.494"/>
            <line class="cls-5" x1="44.801" y1="86.217" x2="44.801" y2="86.217"/>
          </g>
        </g>
      </g>
    </pattern>
  </defs>
  <title>Configuration Linework - Ring</title>
  <g id="Layer_5" data-name="Layer 5">
    <polygon class="cls-9" points="0.25 521.311 378.809 384.951 378.809 646.613 0.25 867.942 0.25 521.311"/>
  </g>
  <g id="Layer_4" data-name="Layer 4">
    <path class="cls-10" d="M743.734,811.295c1.051,12.107-7.837,21.069-19.852,20.018s-22.607-11.718-23.658-23.825,7.837-21.069,19.852-20.018S742.683,799.188,743.734,811.295Z" transform="translate(-9.75 -287.313)"/>
    <path class="cls-11" d="M621.116,925.12s-4.613,5.23-5.334,6.191a5.859,5.859,0,0,1-1.442,1.4,9.757,9.757,0,0,1,6.529.6,9.535,9.535,0,0,1,4.767,5.488c.641,1.642-.2,3.525,1.322,4.046a9.226,9.226,0,0,1,3.164,2.644,15.983,15.983,0,0,1,1.242,4.446c0,1.562,3.009,4.249,3.009,4.249.776.79,1.77,1.454,1.72,2.762h0a.981.981,0,0,1,.125.655l.008.019a6.57,6.57,0,0,1,.024,6.185s-5.349,12.973-8.739,16.924c-2.7,3.142-5.277,6.4-8.624,8.918a.975.975,0,0,1-.922.708h0a27.1,27.1,0,0,1-5.155,4.373,4.466,4.466,0,0,1-3.154,1.017l-4.429,3.787h0l-3.91,6a89.956,89.956,0,0,1-1.538,3.042,7.079,7.079,0,0,1-2.143,3.86,1.847,1.847,0,0,1-.877,1.556c-1.14,2.961-3.243,5.334-4.876,7.994-1.115,1.815-2.348,3.56-3.405,5.406-2.3,4.018-4.919,7.824-7.585,11.6h-.008c-1.23,2.7-2.407,5.423-4.565,7.557a.949.949,0,0,1-.661.866,2.174,2.174,0,0,1-.944,1.4,14.716,14.716,0,0,1-2.572,4.985c-2.621,3.681-5.331,7.3-8,10.942h0a1.451,1.451,0,0,1-.813,1.524h0l-.04.029a1.868,1.868,0,0,1-.631,1.578l-.211,1.39c-.809,2.018.233,4.034.005,6.052a17.226,17.226,0,0,1,.418,9.717,1.356,1.356,0,0,1-.274.9l-.035.014a3.838,3.838,0,0,1-.757,3.016c-1.092,4.563-3.838,8.1-7.046,11.349h0a23.826,23.826,0,0,1-6.559,5.517,2.416,2.416,0,0,1-1.553,1.375h-.03a2.416,2.416,0,0,1-1.531,1.45,3.906,3.906,0,0,1-2.02,1.678h0c-1.021,1.309-2.714,2.05-3.208,3.8a.537.537,0,0,1-.105.6h0a6.874,6.874,0,0,1-1.465,4.617h0a6.03,6.03,0,0,1-1.547,3.729,23.215,23.215,0,0,1-5.077,7.74c-2.519,2.664-3.5,2.936-6.529,1.69-1.265-.521-2.489-1.142-3.731-1.717h0c-1.4-.183-2.638-.111-3.416,1.382a18.061,18.061,0,0,1-1.712,2.329h0c-.595,3.17-1.9,5.807-5.208,6.94a.719.719,0,0,1-.874.556l-.676.317a3.827,3.827,0,0,1-.925.594,17.739,17.739,0,0,1-10.723.012,20.741,20.741,0,0,1-7.408-1.679h0a2.8,2.8,0,0,0-1.62,1.475c-1.036,1.729-2.108,3.438-3.242,5.1a20.455,20.455,0,0,1-2.153,2.63,4.224,4.224,0,0,1-5.169,1.015c-.565-.255-1.208-.392-1.56-.985a17.836,17.836,0,0,1-6.752-5.385,3.657,3.657,0,0,0-2.143-.4c-1.551.414-3.134.7-4.7,1.047v-.011s0,.007,0,.011c-2.429.636-4.875,1.218-7.284,1.921a16.144,16.144,0,0,1-11.059-.51c-1.432-.6-2.791-1.146-4.287-.293l-6.821,9.741c-.058,1.335-.994,2.247-1.689,3.223-2.137,3-4.386,5.923-6.592,8.876h0a3.616,3.616,0,0,1-1.557,2.362l0,0h0a190.479,190.479,0,0,0-1.5,3.044v.02c-.982,2.457-2.818,4.342-4.34,6.433a56.262,56.262,0,0,1-6.377,7.222,2.527,2.527,0,0,1-1.508,1.427.844.844,0,0,1-.81.689c-3.331,2.263-3.412,2.274-2.831,6.656.972,7.33,1.516,14.7,1.967,22.069.183,2.995.127,6,.179,9.007a15.237,15.237,0,0,1,.5,2.176c.906,11.024,1.712,22.05,1.835,33.122.045,4.01.577,8.016.9,12.022.06.751.2,1.5.262,2.247.223,2.676.074,2.82-2.86,2.878h0l-3,.1a4.328,4.328,0,0,1-3.025.694,1.82,1.82,0,0,1-1.515.063h0c-3.105.191-6.21.4-9.317.549a4.589,4.589,0,0,1-1.4-.4l-.713-.138h0l-4.5-.112c-2.084.048-4.168.079-6.251.148a4.99,4.99,0,0,1-4.452-2.1c-6.243-.712-12.485-1.394-18.791-.964a5.849,5.849,0,0,1-4-.727h0c-8,1.179-16.058.291-24.08.679a4.121,4.121,0,0,1-3.223-.7h0a39.545,39.545,0,0,0-6.621.57,18.848,18.848,0,0,1-7.748.142h0c-3.7.036-7.4.571-11.1.116a3.457,3.457,0,0,1-.42.136c-2.188.714-4.462.45-6.668.276-4.255-.335-8.488-.958-12.726-1.488a3.9,3.9,0,0,1-1.02-.449h0l-.359.071-.313-.189h0l-5.308-.066-.752,0a15.267,15.267,0,0,0-5.791.76,3.48,3.48,0,0,1-2.533.041h0l-1.595-.042-.335.106-.34-.089h0c-1.366.583-2.741,1.147-4.1,1.756a2.659,2.659,0,0,1-2.806-.025h0l-3.732-.223h0a3.53,3.53,0,0,1-2.1.18h0a4.45,4.45,0,0,1-4.081.054,6.111,6.111,0,0,1-4.469-.091h0l-.77-.054h0l-1.5-.053c-.34.151-.692.455-1.019.431a78.568,78.568,0,0,1-12.837-1.785h0a23.926,23.926,0,0,1-5.97-.764c-.745-.067-1.5-.085-2.233-.21a10.673,10.673,0,0,0-5.9.5,15.823,15.823,0,0,1-6.263.985c-3.256-.047-6.513,0-9.77.006h0c-1.054.234-2.1.523-3.164.687-1.279.2-2.608.6-3.774-.4a15.2,15.2,0,0,1-4.458-1.715,10.867,10.867,0,0,1-6.074-1.5c-1.585-.006-3.17-.039-4.754-.011a14.929,14.929,0,0,1-4.376-.106l-5.291.032h0l-1.324.206h0c-.086.089-.171.252-.259.255-2.8.073-5.048,1.651-7.493,2.691h0l-.034.018a1.411,1.411,0,0,1-1.316.419c-1.076-.169-2.151-.346-3.226-.52h0l-5.64.123c-2.751.06-5.5-.178-8.241.471a3.724,3.724,0,0,1-3.578-.527h0l-.005-.058a.888.888,0,0,1-.938-.611,6.731,6.731,0,0,0-3.793-.9c-1.047.023-2.187.32-3.072-.587-2.918-.729-5.917-.63-8.883-.866h0l-.7.1h0c-3.28,1.141-6.527,1.457-9.723-.309a13.036,13.036,0,0,0-1.74-.668l-9.162-2.048h0l-1.423-.2h0a4.052,4.052,0,0,1-2.293-.762h0c-2.976-1.1-5.712-2.552-7.546-5.288h0a3.794,3.794,0,0,1-2.253-1.825c-1.365-2.507-2.727-5.016-4.01-7.565a14.171,14.171,0,0,1-.738-2.477,17.763,17.763,0,0,1-2.914-6.46c-1.206-5.522-3.368-10.756-4.8-16.208-.158-.6-.248-1.219-.369-1.829h0c-1.235-2.339-1.548-4.973-2.367-7.447a69.721,69.721,0,0,1-1.967-7.212,4.4,4.4,0,0,0-2.971-3.506,7.89,7.89,0,0,1-1.267-.753h0c-3.2-.556-6.423-1-9.589-1.7a33.757,33.757,0,0,1-9.429-3.574,10.739,10.739,0,0,1-4.445-3.873h0l-.753-.748.281-.217c-.028-.01-.054-.022-.083-.032l-.2.25a.975.975,0,0,1-.876-.643q.143-.14.3-.27h0c0-.009-.007-.016-.01-.026a1.2,1.2,0,0,1-.287.3,11.069,11.069,0,0,1-5.389-3.859,1.89,1.89,0,0,1-.455-.194,1.008,1.008,0,0,1-.923-.619q-.282-.389-.592-.755a1.466,1.466,0,0,1-.228-.642v0a1.843,1.843,0,0,1-.669-1.614l-.019-.021h0c-1-.8-.7-1.924-.749-2.963h0a3.185,3.185,0,0,1-.473-3.211c.472-1.6.305-3.245.545-4.844.445-2.966,1.049-5.912,1.677-8.847a67.206,67.206,0,0,0,1.377-9.262c.242-3.359.8-6.7,1.243-10.04.329-2.48.7-4.953,1.045-7.431a1.629,1.629,0,0,1,.783-1.209h0a4.882,4.882,0,0,0-.871-2.839,10.553,10.553,0,0,1-.749-1.7h0a1.691,1.691,0,0,1-.907-1.438,4.245,4.245,0,0,1-2.164-2.345,3.461,3.461,0,0,0,.79.049q-.384-.04-.79-.049a5.881,5.881,0,0,1-2.217-3.058,6.178,6.178,0,0,1-2.359-3.764,15.426,15.426,0,0,1-2.275-5.346h0c-.827-.58-.641-1.482-.733-2.3a1.365,1.365,0,0,1,.018-2.29h0v0h0a105.781,105.781,0,0,1,1.551-12.867,61.616,61.616,0,0,1,2.945-17.5h0q.051-.739.1-1.478-.029-1.468-.059-2.935h0c-1.255-2.094-.725-4.33-.4-6.5a19.74,19.74,0,0,1,1.276-4.649c.677-1.611.338-3.472,1.384-4.952q.061-9.619.117-19.237a17.745,17.745,0,0,1,.5-4.847,17.465,17.465,0,0,0,.264-3.745c.047-.869-.077-1.782.672-2.458h0c.1-1.542-.3-3.168.757-4.551a17.549,17.549,0,0,1,1-6.65c1.493-5.42,2.9-10.919,5.569-15.917,1.114-2.085,1.649-4.5,3.371-6.251h0c2.225-3.308,4.174-6.806,6.81-9.829h0a11.577,11.577,0,0,1,3.785-3.842h0c2.382-3.549,5.864-5.528,9.793-6.871h0c1.508-1.977,3.855-2.76,5.887-3.909a46.907,46.907,0,0,1,14.794-5.254,35.421,35.421,0,0,1,7.455-.662,29.283,29.283,0,0,1,9.32,1.216c4.032.983,8.051,2.024,12.083,3.006a10.519,10.519,0,0,0,6.684-.333v0h0l2.261-.861h0a20.735,20.735,0,0,1,6.03-2.28h0c.607-.809,1.492-.769,2.364-.772h0a1.524,1.524,0,0,1,.516.014l0,0a1.868,1.868,0,0,1,1.7-.794l-.011-.012h0l.736-.777h0c2-2.583,4.36-4.638,7.724-5.2h0l.536-.532c.042-.074.083-.124.125-.124l1.515-.014c.378-.015.756-.052,1.133-.042,3.027.08,6.034.058,8.73-1.63a.949.949,0,0,1,.8-.68l.788-.79h0a.818.818,0,0,1,.816-.636l.039-.064h0c-.083-.644-.035-1.233.65-1.556.553-.319.638-.9.814-1.437a83.557,83.557,0,0,0,5.925-8.54h0a10.311,10.311,0,0,1,1.344-3.456,1.683,1.683,0,0,1,.205-.272l-.017-1.992c-2.8-1.931-5.571-3.9-8.4-5.784-4.053-2.706-6.483-6.621-8.186-11.029a12.183,12.183,0,0,0-4.659-6.22c-1.9-1.236-3.611-2.75-5.525-3.951-1.256-.788-2.921-1-4.043-1.909s-1.77-2.422-2.716-3.6a9.256,9.256,0,0,0-1.93-1.8c-3.424-2.356-5.6-5.741-7.761-9.162a21.767,21.767,0,0,1-3.811-12.061,10.664,10.664,0,0,0-.5-2.581,101.645,101.645,0,0,0-5.407-16.088c-1.143-2.642-1.879-5.429-3.233-8.016-.906-1.731-1.078-3.848-1.578-5.791h0c-3.506-7.29-6.376-14.831-7.214-22.906-.6-5.774-2.107-11.414-2.286-17.231a186.465,186.465,0,0,1,.226-20.8c.275-3.412.941-6.721,1.545-10.064a9.567,9.567,0,0,1,1.612-3.757,1.217,1.217,0,0,1,.038-1.214,1.749,1.749,0,0,1-.478-1.735,74.753,74.753,0,0,1,3.677-13.837c.7-1.728,1.419-3.446,2.13-5.169h0c.3-2.815,1.6-5.337,2.8-7.775a109.1,109.1,0,0,0,4.458-10.83,15.528,15.528,0,0,1,6.6-8.466,17.192,17.192,0,0,0,3.446-2.941,8.884,8.884,0,0,1,4.832-2.763c4.824-.936,9.372-2.863,14.183-3.9,3.468-.746,6.977-1.045,10.456-1.61,9.549-1.553,19.118-1.165,28.675-.282,2.757.255,5.515.576,8.277.833a5.226,5.226,0,0,1,1.366.54,16.265,16.265,0,0,0-2.223.11,18.231,18.231,0,0,0,2.223-.11l.061.01a32.252,32.252,0,0,1,7.846.953c3.333.627,6.639,1.4,9.95,2.137,5.273,1.179,10.537,2.4,15.811,3.569a12.967,12.967,0,0,0,2.249.246c5.387.233,10.781.359,16.062,1.651,4.842,1.185,9.777.739,14.664.58,4.031-.131,8.043.235,12.065.081a1.923,1.923,0,0,1,1.683.668,69.745,69.745,0,0,1,13.684,2.514c2.5.676,4.959,1.729,7.46,2.543a3.363,3.363,0,0,1,1.579.954,4.284,4.284,0,0,0,1.12.994,32.734,32.734,0,0,1,7.363,5.8,55.942,55.942,0,0,1,8.058,6.031c4.714,3.911,8.718,8.541,12.9,13.009a42.27,42.27,0,0,1,7.97,12.118,8.678,8.678,0,0,1,2.426,3.728c1.6,4.9,3.358,9.764,3.841,14.961.361,3.888.835,7.77.379,11.677-.307,2.625.064,5.279-.515,7.9a38.211,38.211,0,0,0-1.106,7.073,6.726,6.726,0,0,1-.5,2.208c-1.386,3.515-2.137,7.224-3.333,10.8-1.228,3.672-2.656,7.328-3.194,11.22a7.985,7.985,0,0,1-1.406,3.474c-1.428,2.052-2.828,4.125-4.239,6.19-.1,1.186-1,1.973-1.482,2.965-.6,1.225-1.179,2.461-1.767,3.692.019,3.5-.031,7.011.073,10.512a61.632,61.632,0,0,1-1.457,16.024,57.431,57.431,0,0,1-3.818,12.09h0a11.772,11.772,0,0,1-2.156,4.606,1.661,1.661,0,0,1-.784,1.531,25.4,25.4,0,0,1-4.186,7.472c-1.756,2.121-3.332,4.4-4.884,6.678a65.846,65.846,0,0,1-10.938,11.877,7.739,7.739,0,0,1-3.484,2.115.737.737,0,0,1-.87.552h0q-2.11,1.222-4.22,2.445c-1.952,1.138-3.931,2.234-5.846,3.433a15.322,15.322,0,0,0-6.772,9.61,40.03,40.03,0,0,0-1.269,8.938,39.1,39.1,0,0,1-.7,8.244,25.811,25.811,0,0,0-.235,4.509,6.105,6.105,0,0,1-.6,3.288h0c.06,1.3.172,2.62-.809,3.7.081,1.6-.22,3.3,1.279,4.5a7.794,7.794,0,0,1,3.32,5.258l1.365.654c1.09-.9,2.378-.605,3.615-.594a12.418,12.418,0,0,1,4.039.814h0c1.837.071,3.264,1.1,4.708,2.055a18.47,18.47,0,0,0,6.436,2.842,15.777,15.777,0,0,0,4.428.436c1.721-.122,3.478-.3,5.1.578h0c.706.166,1.427.284,2.115.506a28.941,28.941,0,0,0,6.821,1.28l2.874-.28.012,0c3.609-.956,7.165-2.129,10.966-2.194,4.276-.073,8.543-.181,12.717,1h0a7.462,7.462,0,0,1,3.037-.065h0l1.443.039h0l.864.016h2.24a9.172,9.172,0,0,1,3.8-.185h0c2.107-.008,4.213-.026,6.319-.018a2.693,2.693,0,0,1,2.045.723h0a6.4,6.4,0,0,1,3.747.763h0a2.094,2.094,0,0,1,.753-.009c2.993,1.162,5.713.151,8.31-1.174a23.485,23.485,0,0,1,9.767-2.668,16.8,16.8,0,0,0,2.583-.548,7.7,7.7,0,0,1,4.418.775,3.76,3.76,0,0,1,2.377,2.76,6.583,6.583,0,0,1,1.175,1.415c.65,1.484,1.174,3.023,1.748,4.54v0l3.219,2.476-.008.005.01,0a6.646,6.646,0,0,1,1.5.117c4.3,1.339,8.77,2.057,13.013,3.623a12.08,12.08,0,0,1,4.4,2.779c1.7,1.662,3.078,3.662,5.174,4.9h0l1.5.076a16.24,16.24,0,0,1,6.081,1.46c2.581,1.173,5.113,2.455,7.666,3.691h0a4.908,4.908,0,0,1,2.937.942c2.059,1.184,3.563,3.018,5.326,4.549l.853.6c2.367.01,4.734.033,7.1.024a8.653,8.653,0,0,0,2.6-.156c3.832-1.257,7.333.2,10.895,1.191.212.059.37.316.553.481h0c.957.63,2.252.588,3.053,1.53h0l.747.128h0c1-.033,2-.125,2.994-.087a7.328,7.328,0,0,0,5.229-1.637h0q.137-1.876.274-3.753h0a16.085,16.085,0,0,1,4.406-4.412h0c2.691-1.356,5.408-2.664,8.069-4.079a16.564,16.564,0,0,1,16.61.042c.443.241.923.416,1.356.674,3.421,2.039,7.213,2.72,11.08,3.418,4.412.8,8.882,1.606,12.989,3.6h0l.757.138q.4.326.816.622a6.328,6.328,0,0,0,3.476.82c1.33-.022,2.661.028,3.991.047h0a10.975,10.975,0,0,0,3.159-2.051c6.087-6.593,13.1-12.221,19.4-18.59,4.616-4.662,8.888-9.611,13.187-14.555,1.716-1.973,2.958-4.419,5.261-5.874a3.26,3.26,0,0,1,1.2-2.274c1.254-1.246,2.484-2.516,3.744-3.755a3.292,3.292,0,0,0,1.168-2.293q.009-.765.017-1.529h0q.006-1.511.011-3.022h0c-.351-1.464-1.064-2.854-.909-4.423a3.322,3.322,0,0,1-.638-2.473c-.006-3.506-.166-7.021.036-10.515.194-3.358.717-6.695.774-10.072a7.162,7.162,0,0,1,.733-2.1h0a7.11,7.11,0,0,1,1.15-3.12,28.272,28.272,0,0,0,2.6-9.28,10.2,10.2,0,0,1,2.3-5.793h0a5.409,5.409,0,0,1,4.466-3.01,14,14,0,0,0,6.62-2.383s3.184-2.156,5.627-1.115c0,0,2.283,1.081,1.762,3l-1.522,3.2,4.215-2.767a9.222,9.222,0,0,1,1.258-1.323c2.616-1.856,5.265-3.665,7.9-5.49.836-.708,1.683-1.4,2.5-2.127a3.521,3.521,0,0,1,2.7-.92c1.249.094,2.433.328,3.044,1.624h0a3.128,3.128,0,0,1,.166,3.772,16.6,16.6,0,0,1-5.237,6.047h0M452.379,1032.71c.046.034.092.069.135.1l0-.018.024.011-.018.011,0,.011A1.287,1.287,0,0,1,452.379,1032.71Zm-120.43,239.379a.793.793,0,0,1,.071.11C332,1272.162,331.972,1272.127,331.949,1272.089Zm67.084-6.35c-.1-.014-.2-.034-.293-.057.1.011.209.027.313.042ZM64.051,1200.484l0,0h0Zm13.723-32.021a.5.5,0,0,0,.021.116c-.037.022-.075.043-.111.066A.339.339,0,0,1,77.774,1168.463Zm-.018.285a.1.1,0,0,1-.07-.085C77.707,1168.7,77.733,1168.717,77.756,1168.748ZM69.137,1210.5c.148.216.3.418.453.608C69.3,1211.027,69.066,1210.857,69.137,1210.5Zm124.186,55.852c-.083.062-.181.129-.291.2-.01-.007-.021-.016-.031-.023C193.107,1266.471,193.216,1266.413,193.323,1266.354ZM37.091,1011.126l.045,0C37.122,1011.128,37.105,1011.126,37.091,1011.126Zm-8.069,171.013c.014.028.022.055.038.083l0,.007c.007.013.01.025.017.038a.184.184,0,0,1-.113.037A.89.89,0,0,1,29.022,1182.138Zm302.84,84.393v0h0l-.039.057c-.011-.019-.019-.039-.032-.057Zm62.225-16.691c-.045.092-.093.183-.14.274a1.754,1.754,0,0,0-.128-.223Zm-258-281.5c.047.056.1.11.142.168l-.018.011-.13-.17Zm-31.869,298.192c.006.174.008.349.011.524a4,4,0,0,1-.026-.516ZM219.606,1268l-.038.037-.022.007-.024-.007Zm12.935,5.094c.077-.235.155-.467.247-.686A1.785,1.785,0,0,1,232.541,1273.1ZM303.013,910.63c-.005-.087,0-.17,0-.257.06.031.114.049.17.073C303.126,910.507,303.068,910.567,303.013,910.63ZM87.594,1267.272l.01.051c-.015-.014-.03-.031-.046-.045Zm130.931,7.834a2.063,2.063,0,0,1-.051.313C218.487,1275.311,218.507,1275.209,218.526,1275.105Zm136.9,1.319a.3.3,0,0,0,.135-.094.992.992,0,0,0-.014.1c0,.026-.02.034-.027.054C355.485,1276.465,355.463,1276.445,355.424,1276.424Zm30.3,3.8c0,.092.013.184.018.275a1.078,1.078,0,0,0-.093-.275Zm129.754-145.766c.02.011.042.014.063.024l-.063,0ZM354.774,999.593a.458.458,0,0,1-.146-.173A1.163,1.163,0,0,0,354.774,999.593ZM38.2,1004.747c-.01.019-.018.041-.027.061-.011-.02-.017-.041-.028-.06ZM17.84,1120.8l.232-.066c-.071.076-.139.147-.213.228Zm277.622,156.97a.825.825,0,0,1-.077-.256c.078.089.16.179.243.268l-.164-.01Zm167.659-132.3a.968.968,0,0,0-.1-.346l.114,0Z" transform="translate(-9.75 -287.313)"/>
    <path class="cls-11" d="M606.93,925.383a7.654,7.654,0,0,1,5.167.641c2.564,1.362,3.084,3.445,3.044,3.885a3.29,3.29,0,0,1-.521,2.03s-.347.78,1.6.486,1.985.066,1.985.066,2.409-.872.555-2.876-2.3-3.261-7.4-6.011-6.514,2.117-6.514,2.117Z" transform="translate(-9.75 -287.313)"/>
    <path class="cls-12" d="M606.93,925.383a7.654,7.654,0,0,1,5.167.641c2.564,1.362,3.084,3.445,3.044,3.885a3.29,3.29,0,0,1-.521,2.03s-.347.78,1.6.486,1.985.066,1.985.066,2.409-.872.555-2.876-2.3-3.261-7.4-6.011-6.514,2.117-6.514,2.117Z" transform="translate(-9.75 -287.313)"/>
    <path class="cls-11" d="M314.293,863.682s-43.693,57.96-51.755,66.3-26.688,18.626-44.2,20.85-40.469,7.229-60.266-5" transform="translate(-9.75 -287.313)"/>
    <path class="cls-11" d="M286.2,738.887S311,764.7,307.949,792.466s-39.155,76.645-54.151,87.475-33.046,34.712-65.814,38.322-49.921,6.086-56.68.582" transform="translate(-9.75 -287.313)"/>
    <path class="cls-13" d="M267.3,991.713s-29.946,14.67-44.711,16.831-43.934,6.212-59.779-3.736c-8.355-5.246-14.107-7.725-17.677-8.9a11.24,11.24,0,0,1-7.06-6.863,36.683,36.683,0,0,1-1.845-6.792c-.786-5.4-3.409-13.7,3.533-15.351" transform="translate(-9.75 -287.313)"/>
    <path class="cls-13" d="M115.6,977.416s.761,22.094,9.043,27.331,29.77,21.442,33.431,21.442,26.708,9.68,39.672,6.641,43.574-5.2,51.857-9.882,35.187-19.106,36.5-26.118" transform="translate(-9.75 -287.313)"/>
    <path class="cls-13" d="M534.417,1028.328s30.108,8.107,29.719,36.416" transform="translate(-9.75 -287.313)"/>
    <path class="cls-13" d="M604.566,926.3s-11.945,8.512-13.743,12.607" transform="translate(-9.75 -287.313)"/>
    <path class="cls-13" d="M470.592,1031.206s14.147-1.746,24.576,2.678" transform="translate(-9.75 -287.313)"/>
    <path class="cls-13" d="M539.852,1114.138s.509-12.464-1.7-16.73-12.8-40.295-20.226-47.09" transform="translate(-9.75 -287.313)"/>
    <path class="cls-13" d="M541.736,1111.643s1.311-11.39.837-18.185-3.445-25.915-2.671-33.5" transform="translate(-9.75 -287.313)"/>
    <path class="cls-13" d="M542.177,1089.323s2.451-3.45,2.609-10.245.632-19.91,1.9-23.7" transform="translate(-9.75 -287.313)"/>
    <path class="cls-13" d="M555.373,1055.375s5.831,9.143,6.756,15.8" transform="translate(-9.75 -287.313)"/>
    <path class="cls-13" d="M518.421,1131.537s4.1-12.164,10.492-14.851" transform="translate(-9.75 -287.313)"/>
    <path class="cls-13" d="M466.97,1032.77s7.972,5.064,9.236,8.857" transform="translate(-9.75 -287.313)"/>
    <path class="cls-13" d="M489.353,1141.983s7.237-24.507,20.669-33.672" transform="translate(-9.75 -287.313)"/>
    <path class="cls-13" d="M515.482,1061.7s4.179,21.807,8.92,25.915" transform="translate(-9.75 -287.313)"/>
    <path class="cls-13" d="M466.97,1144.918a19.622,19.622,0,0,0,8.446-3.739" transform="translate(-9.75 -287.313)"/>
    <path class="cls-13" d="M17.84,1120.8s.426-8.817,20.361,10.237" transform="translate(-9.75 -287.313)"/>
    <path class="cls-13" d="M42.748,1033.421s-10.5,23.841,6.107,122.041" transform="translate(-9.75 -287.313)"/>
    <line class="cls-14" x1="635.94" y1="617.029" x2="711.886" y2="522.421"/>
    <path class="cls-15" d="M683.583,806.032c1.051,12.107-7.837,21.069-19.852,20.018s-22.607-11.718-23.658-23.825,7.837-21.069,19.852-20.018S682.532,793.925,683.583,806.032Z" transform="translate(-9.75 -287.313)"/>
    <path class="cls-15" d="M803.885,816.557c1.051,12.107-7.837,21.069-19.852,20.018s-22.607-11.718-23.658-23.825,7.837-21.069,19.852-20.018S802.834,804.45,803.885,816.557Z" transform="translate(-9.75 -287.313)"/>
    <path class="cls-16" d="M314.606,365.828c0,19.886,16.121,33.165,36.007,29.658s36.007-22.47,36.007-42.356-16.121-33.165-36.007-29.658S314.606,345.941,314.606,365.828Zm8.061-1.421c0-15.434,12.512-30.152,27.946-32.873s27.946,7.584,27.946,23.018-12.512,30.152-27.946,32.873S322.667,379.84,322.667,364.406Z" transform="translate(-9.75 -287.313)"/>
    <path class="cls-17" d="M326.017,367.474c0,15.434,12.512,25.74,27.946,23.018s27.946-17.439,27.946-32.873S369.4,331.879,353.963,334.6,326.017,352.04,326.017,367.474Z" transform="translate(-9.75 -287.313)"/>
    <path class="cls-16" d="M507.469,330.48c0,19.886,16.121,33.165,36.007,29.658s36.007-22.47,36.007-42.356-16.121-33.165-36.007-29.658S507.469,310.594,507.469,330.48Zm8.061-1.421c0-15.434,12.512-30.152,27.946-32.873s27.946,7.584,27.946,23.018-12.512,30.152-27.946,32.873S515.531,344.493,515.531,329.059Z" transform="translate(-9.75 -287.313)"/>
    <path class="cls-17" d="M518.881,332.127c0,15.434,12.512,25.74,27.946,23.018s27.946-17.439,27.946-32.873-12.512-25.74-27.946-23.018S518.881,316.693,518.881,332.127Z" transform="translate(-9.75 -287.313)"/>
  </g>
  <g id="Layer_2" data-name="Layer 2">
    <path class="cls-18" d="M399.971,338.4c0,19.279,15.629,32.152,34.908,28.753s34.908-21.784,34.908-41.063-15.629-32.152-34.908-28.753S399.971,319.124,399.971,338.4Z" transform="translate(-9.75 -287.313)"/>
    <path class="cls-17" d="M402.067,351.319c0,24.84,20.137,41.427,44.977,37.047s44.978-28.068,44.978-52.908-20.137-41.427-44.978-37.047S402.067,326.479,402.067,351.319Zm10.07-1.776c0-19.279,15.629-37.664,34.908-41.063s34.908,9.474,34.908,28.753S466.324,374.9,447.045,378.3,412.137,368.823,412.137,349.543Z" transform="translate(-9.75 -287.313)"/>
    <path class="cls-16" d="M402.067,351.319c0,24.84,20.137,41.427,44.977,37.047s44.978-28.068,44.978-52.908-20.137-41.427-44.978-37.047S402.067,326.479,402.067,351.319Zm10.07-1.776c0-19.279,15.629-37.664,34.908-41.063s34.908,9.474,34.908,28.753S466.324,374.9,447.045,378.3,412.137,368.823,412.137,349.543Z" transform="translate(-9.75 -287.313)"/>
    <g>
      <g>
        <path class="cls-11" d="M766.257,549.466l.739.549A.736.736,0,0,0,766.257,549.466Z" transform="translate(-9.75 -287.313)"/>
        <path class="cls-11" d="M767.6,550.2l.732.492A.68.68,0,0,0,767.6,550.2Z" transform="translate(-9.75 -287.313)"/>
        <path class="cls-11" d="M474.989,417.42h0c.662,1.264,1.356,2.512,1.982,3.794,2.341,4.791,4.641,9.6,6.994,14.387a58.821,58.821,0,0,0,5.657,9.421,24.582,24.582,0,0,1,1.855,3.146.831.831,0,0,1-.2,1.174h0v0a2.841,2.841,0,0,0-.419-.513,133.677,133.677,0,0,1-10.328-8.977.728.728,0,0,0-.75-.619.674.674,0,0,0-.738-.591h0l-.007,0a.619.619,0,0,0-.716-.568h0l-.057-.035h0a16.613,16.613,0,0,0-4.6-3.452.674.674,0,0,0-.669-.494h0a.905.905,0,0,0-.527-.27.774.774,0,0,0-.807-.512l-.053-.025a.593.593,0,0,0-.64-.439h0l-.63-.272h0a8.306,8.306,0,0,0-3.319-2.1,3.529,3.529,0,0,1-.727-.472l.727.472a.708.708,0,0,0-.728-.472h0a4.24,4.24,0,0,0-.614-.186.688.688,0,0,0-.749-.444h0a3.683,3.683,0,0,0-.642-.166.65.65,0,0,0-.723-.449h0l-.684-.161h0a12.925,12.925,0,0,0-6.6-2.094h0a1.336,1.336,0,0,0-1.435-.495h0l-3.984.033a.718.718,0,0,0-.715.478h0c-3.163.56-5.253,2.724-7.3,4.925a2.8,2.8,0,0,0-.566,2.509,8.8,8.8,0,0,0-.1,4.037h0a.811.811,0,0,0,.052.653,1.378,1.378,0,0,0,.439,1.486h0a11.131,11.131,0,0,0,3.167,5.034q2.219,2.281,4.518,4.484a22.3,22.3,0,0,1,3.54,4.438c1.116,1.8,2.266,3.585,3.372,5.394a25.444,25.444,0,0,1,2.459,4.746,21.493,21.493,0,0,0,6.947,9.66,22.174,22.174,0,0,1,3.938,4.089c2.846,3.864,5.745,7.69,8.528,11.6,4.6,6.455,9.182,12.923,12.218,20.321.078.191.291.326.441.487h0l.042.1a.72.72,0,0,0,.485.825.594.594,0,0,0,.271.521.543.543,0,0,0,.466.656l.042.062a.789.789,0,0,0,.546.8,9.873,9.873,0,0,0,3.462,3.84h0c2.03,2.479,4.836,3.887,7.556,5.385,6.342,3.495,12.714,6.935,19.084,10.378a86.841,86.841,0,0,0,14.13,5.967c6.656,2.2,13.37,4.226,20.006,6.482a50.057,50.057,0,0,0,13.742,2.579c3.783.187,7.58.328,11.335.784,4.116.5,8.124,1.482,11.171,4.668a4.618,4.618,0,0,0,1.137.65,1.22,1.22,0,0,0,1.123.739l.04.037h0a29.447,29.447,0,0,1,5.8,8.118,8.1,8.1,0,0,0,.937,1.386c1.807,2.55,3.78,5,5.393,7.666a187.628,187.628,0,0,0,12.479,18.241,4.4,4.4,0,0,1,.97,1.72,7.105,7.105,0,0,0,1.184,2.36c3.27,5.465,7.44,10.341,10.442,15.981a6.543,6.543,0,0,0,.916,1.4c2.622,2.821,4.02,6.39,5.865,9.674,2.143,3.814,4.264,7.6,7.649,10.5a9.687,9.687,0,0,1,2.464,2.713c2.355,4.443,5.8,8.221,7.829,12.875a12.279,12.279,0,0,0,1.734,2.461c1.031,1.323,2.1,2.614,3.153,3.921,2.6,3.232,5.078,6.523,6.3,10.585a21.531,21.531,0,0,0,1.372,3.053c1.214,2.515,2.469,5.011,3.66,7.537m95.711-123.466,0,0h0a1.7,1.7,0,0,0-.627-.215.685.685,0,0,0-.717-.5l0,0,0,0a1.967,1.967,0,0,0-.612-.179,4.4,4.4,0,0,0-.732-.492,2.488,2.488,0,0,0-.6-.181q-.361-.285-.739-.549l-1.316-.768a.687.687,0,0,0-.7-.551l0,0,0,0-1.311-.794a.7.7,0,0,0-.7-.532l0,0,0,0a2.117,2.117,0,0,0-.532-.247h0a37.237,37.237,0,0,0-7.6-5.915c-3.186-1.836-6.183-3.921-9.231-5.959-4.714-3.152-8.943-6.99-13.928-9.746a7.159,7.159,0,0,1-.761-.647c-3.8-2.89-7.5-5.917-11.518-8.519L713.9,511.85c-24.58-14.908-45.6-30.259-45.6-30.259-1.371-1.464-2.686-2.986-4.124-4.382a49.5,49.5,0,0,1-9.766-13.914,61.812,61.812,0,0,0-6.53-10.49c-3.406-4.415-6.993-8.7-9.989-13.417a57.8,57.8,0,0,0-3.693-5.178c-2.093-2.612-4.244-5.174-6.367-7.759a80.6,80.6,0,0,0-9.87-9.977q-.35-.308-.67-.648l-.013-.013q-.331-.323-.678-.631l-.023-.019a3.51,3.51,0,0,0-.66-.617l-2.646-2.109q-.355-.3-.7-.608l-.026-.021a2.882,2.882,0,0,0-.663-.6l-1.971-1.451h0l-.657-.67h0l-.564-.429a.65.65,0,0,0-.177-.134l-.007-.005h0l-1.96-1.436-.7-.615h0l-.015-.023a.8.8,0,0,0-.658-.6l0,0,0,0-1.3-.782h0a.839.839,0,0,0-.734-.557h0l-1.272-.791a.86.86,0,0,0-.711-.589h0c-1.518-.754-2.91-1.8-4.652-2.037h0c-2.148-1.1-4.58-.738-6.833-1.311a2.956,2.956,0,0,0-1.327.1,19.175,19.175,0,0,1-11.8-.869c-1.344-.54-2.691-1.082-4.067-1.532a46.485,46.485,0,0,0-7.661-2.3,24.982,24.982,0,0,1-11.574-4.857,19.734,19.734,0,0,0-7.165-3.494,14.321,14.321,0,0,1-2.227-.721,18.024,18.024,0,0,0-11.471-.66,2.786,2.786,0,0,1-3.016-.9c-1.378-1.608-2.819-3.167-4.119-4.836-4.93-6.328-9.8-12.7-14.72-19.039a20.007,20.007,0,0,0-11.241-7.387Q494.1,352,488.952,350.578c-1.071-.294-2.085-.787-3.136-1.156q-2.994-1.052-6-2.064c-1.265-.426-2.568-.75-3.8-1.245a35.316,35.316,0,0,0-5.759-1.651,7.889,7.889,0,0,0-8.771,4.308,3.932,3.932,0,0,0-.675,1.447c-.1.675-3.268-3.192-3.268-3.192a16.042,16.042,0,0,0-4.637-2.5v0a4.791,4.791,0,0,0-2.92-1.544c-4.266-.292-5.865.871-5.865.871-10.324,5.789-.231,21.474-.231,21.474a138.088,138.088,0,0,0,7.438,13.062,59.967,59.967,0,0,1,4.195,7.582c1.83,4.062,3.814,8.056,5.824,12.033l13.651,19.42m134.172-8.236h-.012l.112-.1Z" transform="translate(-9.75 -287.313)"/>
      </g>
      <path class="cls-11" d="M548.412,396.047s-6.368-.772-11-4.438a107.441,107.441,0,0,1-8.791-7.914" transform="translate(-9.75 -287.313)"/>
      <path class="cls-11" d="M506.988,489.4a44.884,44.884,0,0,0-3.152-9.573c-1.985-3.852-6.3-10.507-7.471-16.811s-4.887-14.853-4.887-14.853" transform="translate(-9.75 -287.313)"/>
      <path class="cls-11" d="M460.8,350.217a77.776,77.776,0,0,0,11.065,11.276c5.819,4.585,17.152,12.234,21.706,21.261" transform="translate(-9.75 -287.313)"/>
      <path class="cls-11" d="M503.1,394.438s3.392,3.555,3.892,5.319" transform="translate(-9.75 -287.313)"/>
    </g>
    <path class="cls-11" d="M503.1,394.438a13.556,13.556,0,0,0-11.291-2.981c-7.046,1.174-16.621,8.853-17.8,12.195s-3.517,6.594-.946,12.646c0,0-7.907-2.349-7.907-11.02s8.4-15.176,10.749-16.892,5.239-3.511,12.1-4.691,9.3-1.541,9.3-1.541,4.155-1.445,5.239,2.62A33.023,33.023,0,0,1,503.1,394.438Z" transform="translate(-9.75 -287.313)"/>
    <path class="cls-12" d="M503.1,394.438a13.556,13.556,0,0,0-11.291-2.981c-7.046,1.174-16.621,8.853-17.8,12.195s-3.517,6.594-.946,12.646c0,0-7.907-2.349-7.907-11.02s8.4-15.176,10.749-16.892,5.239-3.511,12.1-4.691,9.3-1.541,9.3-1.541,4.155-1.445,5.239,2.62A33.023,33.023,0,0,1,503.1,394.438Z" transform="translate(-9.75 -287.313)"/>
  </g>
  <g id="Layer_6" data-name="Layer 6">
    <line class="cls-19" x1="648.133" y1="100.548" x2="493.482" y2="100.548"/>
    <g>
      <circle class="cls-20" cx="667.957" cy="100.548" r="19.824"/>
      <path class="cls-20" d="M657.883,387.86h7.39a.149.149,0,0,0,.143-.107l1.539-5.3a.149.149,0,0,1,.285,0l1.9,6.542a.149.149,0,0,0,.285,0l.418-1.442a.148.148,0,0,1,.285,0l1.014,3.493a.149.149,0,0,0,.285,0l3.5-12.072a.149.149,0,0,1,.285,0l4.464,15.382a.148.148,0,0,0,.285,0l2.6-8.948a.148.148,0,0,1,.285,0l1.406,4.845a.149.149,0,0,0,.285,0l1.5-5.171a.148.148,0,0,1,.285,0l.971,3.344a.149.149,0,0,0,.287-.008.149.149,0,0,1,.287-.008l.1.332a.148.148,0,0,0,.285,0l.893-3.078a.148.148,0,0,1,.286,0l.551,2.085a.149.149,0,0,0,.144.111h7.4" transform="translate(-9.75 -287.313)"/>
    </g>
    <line class="cls-19" x1="511.105" y1="637.04" x2="595.787" y2="637.04"/>
    <g>
      <circle class="cls-20" cx="491.281" cy="637.04" r="19.824"/>
      <line class="cls-19" x1="511.105" y1="637.04" x2="499.17" y2="637.04"/>
      <line class="cls-19" x1="483.391" y1="637.04" x2="471.457" y2="637.04"/>
      <line class="cls-19" x1="499.17" y1="632.04" x2="483.391" y2="632.04"/>
      <line class="cls-19" x1="491.281" y1="632.04" x2="491.281" y2="627.3"/>
      <circle class="cls-20" cx="499.17" cy="637.04" r="1.591"/>
      <circle class="cls-20" cx="483.391" cy="637.04" r="1.591"/>
    </g>
  </g>
</svg>
