<svg id="Layer_1" data-name="Layer 1" xmlns="http://www.w3.org/2000/svg" viewBox="0 0 55 55">
  <defs>
    <style>
      .cls-1 {
        fill: #fff;
      }
    </style>
  </defs>
  <title>CONTACT - Youtube</title>
  <path class="cls-1" d="M42.365,21.157a1.035,1.035,0,0,1,.1.024A.671.671,0,0,0,42.365,21.157Z" transform="translate(-2.5 -2.5)"/>
  <path class="cls-1" d="M28.134,25.433v.018C28.125,25.446,28.134,25.44,28.134,25.433Z" transform="translate(-2.5 -2.5)"/>
  <path class="cls-1" d="M28.134,36.126v.018C28.134,36.137,28.125,36.13,28.134,36.126Z" transform="translate(-2.5 -2.5)"/>
  <g>
    <path class="cls-1" d="M33.044,28.218c-1.834-1.173-3.658-2.34-5.412-3.523l-.007,0a.477.477,0,0,0-.734.4v9.772a.476.476,0,0,0,.734.4l.09-.058c1.663-1.109,3.383-2.2,5.122-3.306l2.326-1.5a.481.481,0,0,0,0-.805Z" transform="translate(-2.5 -2.5)"/>
    <path class="cls-1" d="M57.276,26.366a26.178,26.178,0,0,0-3.216-9.8A27.254,27.254,0,0,0,38.4,3.728a25.273,25.273,0,0,0-6.466-1.175c-.268-.015-.53-.053-.8-.053H29.05a20.935,20.935,0,0,0-2.512.23,25.763,25.763,0,0,0-9.77,3.2A27.285,27.285,0,0,0,3.516,23a25.021,25.021,0,0,0-.889,5.409c-.009.194.092.382-.128.574v2a19.734,19.734,0,0,1,.317,2.569A26.3,26.3,0,0,0,5.967,43.2,27.325,27.325,0,0,0,19.266,55.3a26.135,26.135,0,0,0,8.974,2.123c.209.013.42.073.627.073h2.446a19.65,19.65,0,0,0,2.376-.247,25.707,25.707,0,0,0,8.969-2.8A27.113,27.113,0,0,0,56.684,36.834a49.177,49.177,0,0,0,.77-5.049,4.206,4.206,0,0,0,.046-.621V28.8A20.139,20.139,0,0,0,57.276,26.366ZM44.727,37.241a4.519,4.519,0,0,1-1.67,2.726,4.135,4.135,0,0,1-1.48.52,10.2,10.2,0,0,1-1.644.126q-2.1.079-4.19.124c-.644.017-1.288,0-1.929,0-2.654.031-5.307.086-7.961.093-1.349,0-2.7-.048-4.046-.107-1.133-.05-2.264-.117-3.39-.227a3.248,3.248,0,0,1-2.794-2.314,13.344,13.344,0,0,1-.9-4.6c-.04-2.006-.152-4.019-.076-6.022a25.617,25.617,0,0,1,.287-3.411c.014-.083.031-.169.048-.253.028-.148.059-.293.1-.441a9.312,9.312,0,0,1,.409-1.3,3.727,3.727,0,0,1,1.858-2.385c.055-.024.112-.045.169-.067l.173-.057a4.485,4.485,0,0,1,1.057-.208c1.052-.076,2.1-.093,3.152-.117,2.62-.06,5.229-.107,7.842-.16v.05l1.387,0c1.354,0,2.627-.012,3.96,0,1.43.014,2.874.048,4.3.107a24.113,24.113,0,0,1,2.558.2,3.406,3.406,0,0,1,.363.062l.057.014a.644.644,0,0,0,.2.033h0c.192.239.366.207.527.322.026.019.052.038.078.06a2.921,2.921,0,0,1,.366.343,4.133,4.133,0,0,1,.751,1.221l0,.01a12.065,12.065,0,0,1,.739,2.507,15.336,15.336,0,0,1,.247,2.607c.021,1.534.086,3.067.093,4.6A21.6,21.6,0,0,1,44.727,37.241Z" transform="translate(-2.5 -2.5)"/>
  </g>
</svg>
