<svg id="Layer_1" data-name="Layer 1" xmlns="http://www.w3.org/2000/svg" viewBox="0 0 55 54.184">
  <defs>
    <style>
      .cls-1 {
        fill: #fff;
      }
    </style>
  </defs>
  <title>CONTACT - Github</title>
  <path class="cls-1" d="M28.167,2.56a27.5,27.5,0,0,0-4.927,54.1.862.862,0,0,0,1.055-.843c.01-3.553-.011-4.822-.011-6.1a3.11,3.11,0,0,0-.509,0,13.549,13.549,0,0,1-4.5,0,5.331,5.331,0,0,1-4.56-3.4A8.3,8.3,0,0,0,11.414,42c-.4-.243-.952-.982-.844-1.2.278-.56,1-.447,1.567-.337a6.144,6.144,0,0,1,4.011,2.9,11.726,11.726,0,0,0,1.3,1.679c1.824,1.894,4.618,1.539,6.639.74.164-.065.262-.353.346-.556.352-.847.668-1.709,1.041-2.546a3.505,3.505,0,0,1,.549-.7c-1.443-.314-2.856-.514-4.2-.935-3.34-1.045-6.026-2.907-7.368-6.319a18.38,18.38,0,0,1-1.194-5.97,11.218,11.218,0,0,1,2.6-8.144.818.818,0,0,0,.135-.719A9.594,9.594,0,0,1,16,13.974c.391-1.352.6-1.494,1.976-1.225.063.012.123.039.185.056a20.545,20.545,0,0,1,5.563,2.5,1.527,1.527,0,0,0,1.055.211,26.935,26.935,0,0,1,13.094,0,1.636,1.636,0,0,0,1.012-.167c1.425-.7,2.8-1.492,4.252-2.137a8.515,8.515,0,0,1,2.3-.53.974.974,0,0,1,.827.356,9.447,9.447,0,0,1,.486,6.42,1.632,1.632,0,0,0,.154,1.347,19.96,19.96,0,0,1,1.922,3.468,13.393,13.393,0,0,1,.358,6.761,12.832,12.832,0,0,1-2.039,5.65c-1.912,2.737-4.724,4.037-7.868,4.749-.883.2-1.784.319-2.752.488a6.95,6.95,0,0,1,1.854,5.209c.016,1.91.008,3.826.007,7.856a.855.855,0,0,0,1.133.816A27.5,27.5,0,0,0,28.167,2.56Z" transform="translate(-2.5 -2.5)"/>
</svg>
