<svg id="Layer_1" data-name="Layer 1" xmlns="http://www.w3.org/2000/svg" viewBox="0 0 55 55">
  <defs>
    <style>
      .cls-1 {
        fill: #fff;
      }

      .cls-2 {
        fill: none;
        stroke: #fff;
        stroke-linecap: round;
        stroke-linejoin: round;
      }
    </style>
  </defs>
  <title>CONTACT - Email</title>
  <path class="cls-1" d="M30,2.5A27.5,27.5,0,1,0,57.5,30,27.5,27.5,0,0,0,30,2.5ZM44.04,40.806c-.037,0-.07.016-.108.016H16.068c-.039,0-.071-.014-.108-.016a1.3,1.3,0,0,1-1.3-1.161,1.424,1.424,0,0,1-.024-.178c0-.032-.012-.059-.012-.092V20.618c0-.033.011-.06.012-.091a1.426,1.426,0,0,1,.022-.162,1.3,1.3,0,0,1,1.3-1.171c.037,0,.07-.016.108-.016H43.932c.039,0,.071.014.108.016a1.3,1.3,0,0,1,1.3,1.171,1.434,1.434,0,0,1,.022.162c0,.032.012.059.012.091V39.375c0,.033-.011.06-.012.092a1.425,1.425,0,0,1-.024.178A1.3,1.3,0,0,1,44.04,40.806Z" transform="translate(-2.5 -2.5)"/>
  <path class="cls-2" d="M30,40.823H16.068a1.441,1.441,0,0,1-1.027-2.451l8.137-8.277" transform="translate(-2.5 -2.5)"/>
  <line class="cls-2" x1="12.124" y1="18.118" x2="12.124" y2="36.875"/>
  <path class="cls-2" d="M30,40.823H43.932a1.441,1.441,0,0,0,1.027-2.451l-8.137-8.277" transform="translate(-2.5 -2.5)"/>
  <line class="cls-2" x1="42.876" y1="18.118" x2="42.876" y2="36.875"/>
  <path class="cls-2" d="M43.932,19.177a1.441,1.441,0,0,1,1.027,2.451L34.707,32.057c-1.4,1.417-2.7,3.269-4.707,3.269-1.983,0-3.313-1.852-4.707-3.269L15.04,21.628a1.441,1.441,0,0,1,1.027-2.451Z" transform="translate(-2.5 -2.5)"/>
</svg>
