<svg id="Layer_1" data-name="Layer 1" xmlns="http://www.w3.org/2000/svg" viewBox="0 0 55 55">
  <defs>
    <style>
      .cls-1 {
        fill: #fff;
      }
    </style>
  </defs>
  <title>CONTACT - LinkedIn</title>
  <path class="cls-1" d="M30.055,2.5A27.5,27.5,0,1,0,57.5,30.015,27.506,27.506,0,0,0,30.055,2.5ZM22.843,42.167c0,.443-.13.608-.594.6q-2.355-.036-4.715,0c-.473.008-.586-.17-.584-.606.016-2.688.008-5.375.008-8.063,0-2.634.012-5.267-.012-7.9,0-.54.132-.748.7-.734,1.516.032,3.034.022,4.55,0,.467-.006.644.136.644.626Q22.824,34.131,22.843,42.167ZM19.9,23.323a3.056,3.056,0,1,1,.046-6.093,3.053,3.053,0,1,1-.046,6.093ZM43.363,42.135c0,.465-.114.644-.614.634q-2.328-.045-4.661,0c-.491.01-.624-.156-.62-.628q.024-4.278,0-8.559a8.538,8.538,0,0,0-.118-1.466,2.531,2.531,0,0,0-1.911-2.289,2.954,2.954,0,0,0-3.249,1.266,3.627,3.627,0,0,0-.6,2.08c-.008,2.942-.04,5.887-.04,8.831v.712c-.2.018-.323.04-.467.04-1.59,0-3.161-.006-4.751.006-.351,0-.521-.058-.519-.473q.018-8.171.01-16.345c0-.327.116-.467.443-.467q2.467.006,4.935,0c.339,0,.437.162.427.479-.018.546,0,1.093,0,1.745.136-.15.219-.229.287-.319A5.868,5.868,0,0,1,37.7,25.156a5.63,5.63,0,0,1,4.945,3.861,11.955,11.955,0,0,1,.672,3.574C43.411,35.771,43.345,38.954,43.363,42.135Z" transform="translate(-2.5 -2.499)"/>
</svg>
