<svg id="Layer_1" data-name="Layer 1" xmlns="http://www.w3.org/2000/svg" viewBox="0 0 55 55">
  <defs>
    <style>
      .cls-1 {
        fill: #fff;
      }
    </style>
  </defs>
  <title>CONTACT - Phone Icon</title>
  <path class="cls-1" d="M30,2.5A27.5,27.5,0,1,0,57.5,30,27.5,27.5,0,0,0,30,2.5ZM44.286,40.922a2.753,2.753,0,0,1-.6.9c-1.681,2.046-2.12,2.394-2.741,2.576a2.363,2.363,0,0,1-.381.092,1.726,1.726,0,0,1-.217.022c-1.771.064-11.251.266-18.351-7.5A25.848,25.848,0,0,1,15.5,19.657a1.706,1.706,0,0,1,.02-.221,2,2,0,0,1,.093-.385c.183-.621.53-1.06,2.576-2.759a3.854,3.854,0,0,1,.9-.6,3.366,3.366,0,0,1,1.48-.2,4.1,4.1,0,0,1,1.37.311,3.567,3.567,0,0,1,1.206.841c.731.713,1.078,1.9,1.736,4.239a5.836,5.836,0,0,1,.31,1.571,4.137,4.137,0,0,1-.31,1.955,4.99,4.99,0,0,1-1.06,1.443l-.01.01a1.73,1.73,0,0,0-.368,1.92,17.227,17.227,0,0,0,3.393,5.068,16.379,16.379,0,0,0,5.385,3.749,1.72,1.72,0,0,0,1.845-.315l.079-.072a4.816,4.816,0,0,1,1.443-1.078,4.1,4.1,0,0,1,1.937-.311,6.29,6.29,0,0,1,1.571.311c2.357.676,3.545,1.023,4.257,1.736a3.97,3.97,0,0,1,.841,1.206,3.556,3.556,0,0,1,.292,1.37A3.088,3.088,0,0,1,44.286,40.922Z" transform="translate(-2.5 -2.5)"/>
</svg>
