<svg id="Layer_1" data-name="Layer 1" xmlns="http://www.w3.org/2000/svg" xmlns:xlink="http://www.w3.org/1999/xlink" viewBox="0 0 373.086 353.207">
  <defs>
    <style>
      .cls-1, .cls-3, .cls-6 {
        fill: none;
      }

      .cls-2 {
        clip-path: url(#clip-path);
      }

      .cls-3, .cls-5, .cls-6 {
        stroke: #313133;
      }

      .cls-3 {
        stroke-miterlimit: 10;
      }

      .cls-4 {
        fill: #313133;
      }

      .cls-5, .cls-6 {
        stroke-linecap: round;
        stroke-linejoin: round;
      }

      .cls-5 {
        fill: url(#New_Pattern_2);
      }
    </style>
    <clipPath id="clip-path">
      <polygon class="cls-1" points="44.801 0 44.801 44.801 0 44.801 0 0 44.801 0"/>
    </clipPath>
    <pattern id="New_Pattern_2" data-name="New Pattern 2" width="44.801" height="44.801" patternTransform="translate(-266.428 -281.59)" patternUnits="userSpaceOnUse" viewBox="0 0 44.801 44.801">
      <rect class="cls-1" width="44.801" height="44.801"/>
      <g class="cls-2">
        <g>
          <line class="cls-3" x1="-36.905" y1="4.644" x2="81.706" y2="123.255"/>
          <line class="cls-3" x1="-36.905" y1="-1.756" x2="81.706" y2="116.855"/>
          <line class="cls-3" x1="-36.905" y1="-8.157" x2="81.706" y2="110.455"/>
          <line class="cls-3" x1="-36.905" y1="-14.557" x2="81.706" y2="104.054"/>
          <line class="cls-3" x1="-36.905" y1="-20.957" x2="81.706" y2="97.654"/>
          <line class="cls-3" x1="-36.905" y1="-27.357" x2="81.706" y2="91.254"/>
          <line class="cls-3" x1="-36.905" y1="-33.757" x2="81.706" y2="84.854"/>
          <line class="cls-3" x1="-36.905" y1="-40.157" x2="81.706" y2="78.454"/>
          <line class="cls-3" x1="-36.905" y1="-46.557" x2="81.706" y2="72.054"/>
          <line class="cls-3" x1="-36.905" y1="-52.957" x2="81.706" y2="65.654"/>
          <line class="cls-3" x1="-36.905" y1="-59.357" x2="81.706" y2="59.254"/>
          <line class="cls-3" x1="-36.905" y1="-65.757" x2="81.706" y2="52.854"/>
          <line class="cls-3" x1="-36.905" y1="-72.158" x2="81.706" y2="46.454"/>
          <line class="cls-3" x1="-36.905" y1="-78.558" x2="81.706" y2="40.054"/>
          <line class="cls-3" x1="-36.905" y1="-84.958" x2="81.706" y2="33.653"/>
          <line class="cls-3" x1="-36.905" y1="11.044" x2="81.706" y2="129.655"/>
        </g>
      </g>
    </pattern>
  </defs>
  <title>Exploration Topics</title>
  <g>
    <path class="cls-4" d="M420.52,603.146v-7.82h2.186a3.408,3.408,0,0,1,1.724.438,3.023,3.023,0,0,1,1.189,1.255,3.942,3.942,0,0,1,.428,1.858v.72a3.953,3.953,0,0,1-.425,1.858,3.015,3.015,0,0,1-1.2,1.251,3.5,3.5,0,0,1-1.77.44Zm.661-7.262v6.7h1.482a2.553,2.553,0,0,0,1.982-.819,3.17,3.17,0,0,0,.747-2.218v-.687a3.094,3.094,0,0,0-.736-2.161,2.51,2.51,0,0,0-1.939-.817Z" transform="translate(-232.519 -254.881)"/>
    <path class="cls-4" d="M433.5,599.661a4.528,4.528,0,0,1-.373,1.9,2.855,2.855,0,0,1-1.066,1.257,2.921,2.921,0,0,1-1.6.44,2.777,2.777,0,0,1-2.213-.98,3.921,3.921,0,0,1-.843-2.645v-.806a4.5,4.5,0,0,1,.378-1.894,2.993,2.993,0,0,1,4.26-1.275,2.851,2.851,0,0,1,1.066,1.229,4.456,4.456,0,0,1,.393,1.843Zm-.661-.849a3.451,3.451,0,0,0-.64-2.213,2.3,2.3,0,0,0-3.488,0,3.486,3.486,0,0,0-.646,2.243v.816a3.454,3.454,0,0,0,.645,2.2,2.3,2.3,0,0,0,3.5.011,3.552,3.552,0,0,0,.628-2.236Z" transform="translate(-232.519 -254.881)"/>
    <path class="cls-4" d="M436.042,595.326l2.884,6.9,2.9-6.9h.881v7.82h-.661v-3.405l.055-3.491-2.912,6.9h-.51l-2.9-6.869.054,3.442v3.427h-.661v-7.82Z" transform="translate(-232.519 -254.881)"/>
    <path class="cls-4" d="M445.49,603.146h-.661v-7.82h.661Z" transform="translate(-232.519 -254.881)"/>
    <path class="cls-4" d="M453.434,603.146h-.66l-4.5-6.692v6.692h-.666v-7.82h.666l4.5,6.7v-6.7h.655Z" transform="translate(-232.519 -254.881)"/>
    <path class="cls-4" d="M459.739,600.95h-3.55l-.807,2.2h-.692l2.96-7.82h.628l2.96,7.82h-.687Zm-3.347-.559h3.137l-1.568-4.26Z" transform="translate(-232.519 -254.881)"/>
    <path class="cls-4" d="M468.209,603.146h-.66l-4.5-6.692v6.692h-.666v-7.82h.666l4.5,6.7v-6.7h.654Z" transform="translate(-232.519 -254.881)"/>
    <path class="cls-4" d="M475.348,595.885h-2.68v7.262h-.661v-7.262h-2.675v-.559h6.016Z" transform="translate(-232.519 -254.881)"/>
    <path class="cls-4" d="M484.865,603.146H484.2V599.4H479.73v3.749h-.66v-7.82h.66v3.513H484.2v-3.513h.666Z" transform="translate(-232.519 -254.881)"/>
    <path class="cls-4" d="M491.171,600.95h-3.55l-.807,2.2h-.692l2.96-7.82h.628l2.96,7.82h-.687Zm-3.347-.559h3.137l-1.568-4.26Z" transform="translate(-232.519 -254.881)"/>
    <path class="cls-4" d="M499.641,603.146h-.66l-4.5-6.692v6.692h-.666v-7.82h.666l4.5,6.7v-6.7h.654Z" transform="translate(-232.519 -254.881)"/>
    <path class="cls-4" d="M501.629,603.146v-7.82h2.186a3.412,3.412,0,0,1,1.725.438,3.032,3.032,0,0,1,1.189,1.255,3.941,3.941,0,0,1,.427,1.858v.72a3.947,3.947,0,0,1-.425,1.858,3.009,3.009,0,0,1-1.2,1.251,3.5,3.5,0,0,1-1.77.44Zm.66-7.262v6.7h1.482a2.554,2.554,0,0,0,1.982-.819,3.172,3.172,0,0,0,.746-2.218v-.687a3.092,3.092,0,0,0-.736-2.161,2.509,2.509,0,0,0-1.938-.817Z" transform="translate(-232.519 -254.881)"/>
    <path class="cls-4" d="M512.312,603.146h-.661v-7.82h.661Z" transform="translate(-232.519 -254.881)"/>
    <path class="cls-4" d="M520.256,603.146h-.661l-4.5-6.692v6.692h-.666v-7.82h.666l4.5,6.7v-6.7h.656Z" transform="translate(-232.519 -254.881)"/>
    <path class="cls-4" d="M527.394,595.885h-2.681v7.262h-.66v-7.262h-2.675v-.559h6.016Z" transform="translate(-232.519 -254.881)"/>
    <path class="cls-4" d="M532.975,599.4h-3.658v3.19h4.205v.559h-4.865v-7.82H533.5v.559h-4.179v2.954h3.658Z" transform="translate(-232.519 -254.881)"/>
    <path class="cls-4" d="M537.835,599.887h-2.272v3.26H534.9v-7.82h2.541a2.9,2.9,0,0,1,1.955.606,2.317,2.317,0,0,1,.264,3.021,2.252,2.252,0,0,1-1.182.794l1.955,3.33v.069h-.7Zm-2.272-.559h2.025a1.879,1.879,0,0,0,1.338-.474,1.79,1.79,0,0,0-.021-2.512,2.179,2.179,0,0,0-1.478-.458h-1.864Z" transform="translate(-232.519 -254.881)"/>
    <path class="cls-4" d="M546.117,600.95h-3.551l-.8,2.2h-.693l2.959-7.82h.629l2.959,7.82h-.687Zm-3.346-.559h3.137l-1.568-4.26Z" transform="translate(-232.519 -254.881)"/>
    <path class="cls-4" d="M554.244,600.708a2.8,2.8,0,0,1-.884,1.891,2.921,2.921,0,0,1-2,.655,2.758,2.758,0,0,1-1.539-.435,2.831,2.831,0,0,1-1.034-1.233,4.381,4.381,0,0,1-.37-1.823v-1.015a4.419,4.419,0,0,1,.365-1.848,2.806,2.806,0,0,1,1.05-1.244,2.867,2.867,0,0,1,1.576-.437,2.8,2.8,0,0,1,1.984.677,2.837,2.837,0,0,1,.847,1.875h-.666a1.991,1.991,0,0,0-2.165-1.993,2.05,2.05,0,0,0-1.694.8,3.448,3.448,0,0,0-.631,2.2v.957a3.482,3.482,0,0,0,.614,2.161,1.982,1.982,0,0,0,1.663.806,2.2,2.2,0,0,0,1.563-.5,2.379,2.379,0,0,0,.65-1.49Z" transform="translate(-232.519 -254.881)"/>
    <path class="cls-4" d="M561,595.885h-2.68v7.262h-.66v-7.262h-2.676v-.559H561Z" transform="translate(-232.519 -254.881)"/>
    <path class="cls-4" d="M563.068,603.146h-.66v-7.82h.66Z" transform="translate(-232.519 -254.881)"/>
    <path class="cls-4" d="M570.969,599.661a4.512,4.512,0,0,1-.373,1.9,2.831,2.831,0,0,1-1.066,1.257,2.912,2.912,0,0,1-1.6.44,2.773,2.773,0,0,1-2.213-.98,3.916,3.916,0,0,1-.844-2.645v-.806a4.5,4.5,0,0,1,.379-1.894,2.814,2.814,0,0,1,2.666-1.711,2.929,2.929,0,0,1,1.594.436,2.869,2.869,0,0,1,1.065,1.229,4.41,4.41,0,0,1,.392,1.843Zm-.66-.849a3.456,3.456,0,0,0-.639-2.213,2.3,2.3,0,0,0-3.488,0,3.486,3.486,0,0,0-.648,2.243v.816a3.454,3.454,0,0,0,.645,2.2,2.115,2.115,0,0,0,1.752.814,2.094,2.094,0,0,0,1.75-.8,3.54,3.54,0,0,0,.629-2.236Z" transform="translate(-232.519 -254.881)"/>
    <path class="cls-4" d="M578.457,603.146H577.8l-4.5-6.692v6.692h-.666v-7.82h.666l4.5,6.7v-6.7h.656Z" transform="translate(-232.519 -254.881)"/>
  </g>
  <circle class="cls-5" cx="11.326" cy="176.136" r="10.826"/>
  <circle class="cls-5" cx="164.258" cy="75.193" r="7.087"/>
  <circle class="cls-5" cx="164.258" cy="41.39" r="7.087"/>
  <circle class="cls-5" cx="164.258" cy="108.997" r="7.087"/>
  <circle class="cls-5" cx="164.258" cy="142.8" r="7.087"/>
  <circle class="cls-5" cx="164.258" cy="176.603" r="7.087"/>
  <circle class="cls-5" cx="164.258" cy="244.21" r="7.087"/>
  <circle class="cls-5" cx="164.258" cy="210.407" r="7.087"/>
  <circle class="cls-5" cx="164.258" cy="278.013" r="7.087"/>
  <g>
    <path class="cls-4" d="M269.7,431H266.6v2.095h3.631v1.295h-5.242v-7.82h5.231v1.3H266.6v1.864H269.7Z" transform="translate(-232.519 -254.881)"/>
    <path class="cls-4" d="M273.979,429.261l1.466-2.7H277.3l-2.277,3.878,2.336,3.942h-1.875l-1.5-2.739-1.5,2.739H270.6l2.336-3.942-2.277-3.878h1.853Z" transform="translate(-232.519 -254.881)"/>
    <path class="cls-4" d="M279.78,431.629v2.756h-1.611v-7.82h3.051a3.532,3.532,0,0,1,1.55.322,2.371,2.371,0,0,1,1.028.916,2.554,2.554,0,0,1,.36,1.351,2.246,2.246,0,0,1-.787,1.813,3.278,3.278,0,0,1-2.178.663Zm0-1.3h1.439a1.416,1.416,0,0,0,.975-.3,1.094,1.094,0,0,0,.336-.859,1.29,1.29,0,0,0-.338-.93,1.267,1.267,0,0,0-.935-.365H279.78Z" transform="translate(-232.519 -254.881)"/>
    <path class="cls-4" d="M286.875,433.09H290.3v1.295h-5.033v-7.82h1.611Z" transform="translate(-232.519 -254.881)"/>
    <path class="cls-4" d="M297.3,430.651a4.724,4.724,0,0,1-.408,2.025,3.077,3.077,0,0,1-1.168,1.343,3.451,3.451,0,0,1-3.478,0,3.1,3.1,0,0,1-1.182-1.334,4.589,4.589,0,0,1-.424-2v-.387a4.7,4.7,0,0,1,.416-2.032,3.1,3.1,0,0,1,1.177-1.349,3.448,3.448,0,0,1,3.475,0,3.1,3.1,0,0,1,1.177,1.349,4.681,4.681,0,0,1,.416,2.027Zm-1.633-.354a3.3,3.3,0,0,0-.44-1.869,1.556,1.556,0,0,0-2.508-.008,3.253,3.253,0,0,0-.446,1.851v.381a3.333,3.333,0,0,0,.44,1.858,1.542,1.542,0,0,0,2.514.024,3.31,3.31,0,0,0,.44-1.855Z" transform="translate(-232.519 -254.881)"/>
    <path class="cls-4" d="M301.367,431.521h-1.284v2.863h-1.611v-7.82h2.906a3.289,3.289,0,0,1,2.138.617,2.133,2.133,0,0,1,.752,1.746,2.412,2.412,0,0,1-.346,1.335,2.367,2.367,0,0,1-1.05.851l1.692,3.2v.075h-1.729Zm-1.284-1.3h1.3a1.334,1.334,0,0,0,.94-.309,1.1,1.1,0,0,0,.333-.852,1.182,1.182,0,0,0-.314-.87,1.3,1.3,0,0,0-.964-.317h-1.294Z" transform="translate(-232.519 -254.881)"/>
    <path class="cls-4" d="M309.907,432.773h-2.825l-.537,1.611h-1.713l2.911-7.82h1.493l2.927,7.82h-1.713Zm-2.39-1.306h1.955l-.983-2.927Z" transform="translate(-232.519 -254.881)"/>
    <path class="cls-4" d="M318.135,427.869h-2.4v6.516h-1.611v-6.516h-2.363v-1.3h6.37Z" transform="translate(-232.519 -254.881)"/>
    <path class="cls-4" d="M320.767,434.385h-1.611v-7.82h1.611Z" transform="translate(-232.519 -254.881)"/>
    <path class="cls-4" d="M328.684,430.651a4.724,4.724,0,0,1-.408,2.025,3.077,3.077,0,0,1-1.168,1.343,3.451,3.451,0,0,1-3.478,0,3.1,3.1,0,0,1-1.182-1.334,4.589,4.589,0,0,1-.424-2v-.387a4.7,4.7,0,0,1,.416-2.032,3.1,3.1,0,0,1,1.177-1.349,3.448,3.448,0,0,1,3.475,0,3.1,3.1,0,0,1,1.177,1.349,4.681,4.681,0,0,1,.416,2.027Zm-1.633-.354a3.3,3.3,0,0,0-.44-1.869,1.556,1.556,0,0,0-2.508-.008,3.253,3.253,0,0,0-.446,1.851v.381a3.333,3.333,0,0,0,.44,1.858,1.542,1.542,0,0,0,2.514.024,3.31,3.31,0,0,0,.44-1.855Z" transform="translate(-232.519 -254.881)"/>
    <path class="cls-4" d="M336.214,434.385H334.6l-3.137-5.146v5.146h-1.611v-7.82h1.611l3.142,5.156v-5.156h1.606Z" transform="translate(-232.519 -254.881)"/>
  </g>
  <g>
    <path class="cls-4" d="M425.907,392.251v5.339a2.7,2.7,0,0,1-.349,1.375,2.283,2.283,0,0,1-.97.9,3.152,3.152,0,0,1-1.437.314,2.836,2.836,0,0,1-1.979-.674,2.474,2.474,0,0,1-.771-1.867v-5.387h.655v5.291a2.035,2.035,0,0,0,.564,1.534,2.414,2.414,0,0,0,3.059,0,2.034,2.034,0,0,0,.561-1.525v-5.3Z" transform="translate(-232.519 -254.881)"/>
    <path class="cls-4" d="M432.175,398.149a1.266,1.266,0,0,0-.456-1.028,4.809,4.809,0,0,0-1.671-.72,5.862,5.862,0,0,1-1.772-.744,1.8,1.8,0,0,1-.057-2.951,3.032,3.032,0,0,1,1.889-.562,3.131,3.131,0,0,1,1.394.3,2.287,2.287,0,0,1,.953.838,2.2,2.2,0,0,1,.339,1.2h-.666a1.643,1.643,0,0,0-.549-1.29,2.13,2.13,0,0,0-1.471-.488,2.323,2.323,0,0,0-1.43.4,1.252,1.252,0,0,0-.531,1.046,1.182,1.182,0,0,0,.479.974,4.423,4.423,0,0,0,1.53.665,7.2,7.2,0,0,1,1.595.6,2.261,2.261,0,0,1,.816.739,1.841,1.841,0,0,1,.274,1.015,1.768,1.768,0,0,1-.738,1.482,3.147,3.147,0,0,1-1.947.559,3.819,3.819,0,0,1-1.518-.3,2.312,2.312,0,0,1-1.047-.827,2.134,2.134,0,0,1-.357-1.219h.661a1.56,1.56,0,0,0,.617,1.305,2.613,2.613,0,0,0,1.644.478,2.434,2.434,0,0,0,1.466-.4A1.259,1.259,0,0,0,432.175,398.149Z" transform="translate(-232.519 -254.881)"/>
    <path class="cls-4" d="M438.582,396.323h-3.657v3.19h4.206v.559h-4.867v-7.82h4.84v.559h-4.179v2.954h3.657Z" transform="translate(-232.519 -254.881)"/>
    <path class="cls-4" d="M448.976,396.586a4.516,4.516,0,0,1-.373,1.9,2.848,2.848,0,0,1-1.066,1.257,2.92,2.92,0,0,1-1.6.44,2.778,2.778,0,0,1-2.213-.98,3.917,3.917,0,0,1-.844-2.645v-.806a4.5,4.5,0,0,1,.379-1.893,2.816,2.816,0,0,1,2.667-1.711,2.926,2.926,0,0,1,1.593.435,2.863,2.863,0,0,1,1.066,1.23,4.436,4.436,0,0,1,.392,1.842Zm-.661-.849a3.458,3.458,0,0,0-.639-2.213,2.3,2.3,0,0,0-3.488,0,3.485,3.485,0,0,0-.647,2.243v.816a3.455,3.455,0,0,0,.645,2.2,2.3,2.3,0,0,0,3.5.011,3.547,3.547,0,0,0,.628-2.237Z" transform="translate(-232.519 -254.881)"/>
    <path class="cls-4" d="M454.948,396.414H451.3v3.658h-.66v-7.82h4.845v.559H451.3v3.045h3.647Z" transform="translate(-232.519 -254.881)"/>
    <path class="cls-4" d="M465.041,397.633a2.807,2.807,0,0,1-.884,1.891,2.923,2.923,0,0,1-2,.655,2.758,2.758,0,0,1-1.539-.435,2.83,2.83,0,0,1-1.034-1.233,4.383,4.383,0,0,1-.37-1.823v-1.015a4.421,4.421,0,0,1,.365-1.848,2.8,2.8,0,0,1,1.05-1.244,2.863,2.863,0,0,1,1.576-.437,2.8,2.8,0,0,1,1.984.677,2.837,2.837,0,0,1,.847,1.875h-.666a1.991,1.991,0,0,0-2.165-1.993,2.05,2.05,0,0,0-1.694.8,3.45,3.45,0,0,0-.631,2.2v.957a3.481,3.481,0,0,0,.614,2.161,1.981,1.981,0,0,0,1.663.806,2.2,2.2,0,0,0,1.563-.5,2.38,2.38,0,0,0,.65-1.49Z" transform="translate(-232.519 -254.881)"/>
    <path class="cls-4" d="M472.426,396.586a4.532,4.532,0,0,1-.373,1.9,2.848,2.848,0,0,1-1.066,1.257,2.922,2.922,0,0,1-1.6.44,2.776,2.776,0,0,1-2.213-.98,3.921,3.921,0,0,1-.843-2.645v-.806a4.5,4.5,0,0,1,.378-1.893,2.994,2.994,0,0,1,4.26-1.276,2.854,2.854,0,0,1,1.065,1.23,4.421,4.421,0,0,1,.393,1.842Zm-.66-.849a3.453,3.453,0,0,0-.64-2.213,2.3,2.3,0,0,0-3.488,0,3.485,3.485,0,0,0-.647,2.243v.816a3.455,3.455,0,0,0,.645,2.2,2.3,2.3,0,0,0,3.5.011,3.547,3.547,0,0,0,.629-2.237Z" transform="translate(-232.519 -254.881)"/>
    <path class="cls-4" d="M479.913,400.072h-.661l-4.5-6.692v6.692h-.666v-7.82h.666l4.5,6.7v-6.7h.655Z" transform="translate(-232.519 -254.881)"/>
    <path class="cls-4" d="M487.051,392.81h-2.68v7.262h-.66V392.81h-2.676v-.559h6.016Z" transform="translate(-232.519 -254.881)"/>
    <path class="cls-4" d="M492.632,396.323h-3.657v3.19h4.205v.559h-4.866v-7.82h4.839v.559h-4.178v2.954h3.657Z" transform="translate(-232.519 -254.881)"/>
    <path class="cls-4" d="M496.95,395.56l2.2-3.309h.789l-2.588,3.856,2.669,3.964h-.795l-2.277-3.416-2.288,3.416h-.784l2.675-3.964-2.594-3.856h.789Z" transform="translate(-232.519 -254.881)"/>
    <path class="cls-4" d="M506.607,392.81h-2.68v7.262h-.661V392.81h-2.675v-.559h6.016Z" transform="translate(-232.519 -254.881)"/>
    <path class="cls-4" d="M513.257,392.251v5.339a2.7,2.7,0,0,1-.349,1.375,2.285,2.285,0,0,1-.971.9,3.147,3.147,0,0,1-1.436.314,2.838,2.838,0,0,1-1.98-.674,2.473,2.473,0,0,1-.77-1.867v-5.387h.654v5.291a2.035,2.035,0,0,0,.564,1.534,2.413,2.413,0,0,0,3.059,0,2.03,2.03,0,0,0,.562-1.525v-5.3Z" transform="translate(-232.519 -254.881)"/>
    <path class="cls-4" d="M519.2,397.875h-3.551l-.806,2.2h-.692l2.959-7.82h.629l2.959,7.82h-.687Zm-3.347-.559h3.137l-1.568-4.259Z" transform="translate(-232.519 -254.881)"/>
    <path class="cls-4" d="M522.517,399.513h3.862v.559h-4.528v-7.82h.666Z" transform="translate(-232.519 -254.881)"/>
    <path class="cls-4" d="M535.858,397.633a2.8,2.8,0,0,1-.884,1.891,2.922,2.922,0,0,1-2,.655,2.755,2.755,0,0,1-1.538-.435,2.832,2.832,0,0,1-1.035-1.233,4.383,4.383,0,0,1-.37-1.823v-1.015a4.436,4.436,0,0,1,.365-1.848,2.8,2.8,0,0,1,1.05-1.244,2.867,2.867,0,0,1,1.576-.437,2.8,2.8,0,0,1,1.984.677,2.832,2.832,0,0,1,.847,1.875h-.666a1.99,1.99,0,0,0-2.165-1.993,2.048,2.048,0,0,0-1.693.8,3.444,3.444,0,0,0-.632,2.2v.957a3.481,3.481,0,0,0,.614,2.161,1.982,1.982,0,0,0,1.663.806,2.2,2.2,0,0,0,1.563-.5,2.385,2.385,0,0,0,.649-1.49Z" transform="translate(-232.519 -254.881)"/>
    <path class="cls-4" d="M542.852,392.251v5.339a2.7,2.7,0,0,1-.35,1.375,2.281,2.281,0,0,1-.969.9,3.158,3.158,0,0,1-1.437.314,2.834,2.834,0,0,1-1.979-.674,2.474,2.474,0,0,1-.771-1.867v-5.387H538v5.291a2.035,2.035,0,0,0,.563,1.534,2.415,2.415,0,0,0,3.06,0,2.037,2.037,0,0,0,.561-1.525v-5.3Z" transform="translate(-232.519 -254.881)"/>
    <path class="cls-4" d="M549.012,396.323h-3.657v3.19h4.206v.559h-4.867v-7.82h4.84v.559h-4.179v2.954h3.657Z" transform="translate(-232.519 -254.881)"/>
    <path class="cls-4" d="M555.377,398.149a1.264,1.264,0,0,0-.457-1.028,4.8,4.8,0,0,0-1.67-.72,5.862,5.862,0,0,1-1.772-.744,1.8,1.8,0,0,1-.057-2.951,3.033,3.033,0,0,1,1.888-.562,3.132,3.132,0,0,1,1.395.3,2.281,2.281,0,0,1,.953.838,2.2,2.2,0,0,1,.338,1.2h-.666a1.641,1.641,0,0,0-.547-1.29,2.134,2.134,0,0,0-1.473-.488,2.314,2.314,0,0,0-1.428.4,1.248,1.248,0,0,0-.532,1.046,1.184,1.184,0,0,0,.478.974,4.447,4.447,0,0,0,1.531.665,7.247,7.247,0,0,1,1.6.6,2.285,2.285,0,0,1,.816.739,1.857,1.857,0,0,1,.273,1.015,1.768,1.768,0,0,1-.738,1.482,3.145,3.145,0,0,1-1.947.559,3.826,3.826,0,0,1-1.518-.3,2.317,2.317,0,0,1-1.047-.827,2.134,2.134,0,0,1-.357-1.219h.66a1.564,1.564,0,0,0,.618,1.305,2.613,2.613,0,0,0,1.644.478,2.437,2.437,0,0,0,1.467-.4A1.261,1.261,0,0,0,555.377,398.149Z" transform="translate(-232.519 -254.881)"/>
  </g>
  <g>
    <path class="cls-4" d="M424.838,362.477H421.18v3.19h4.206v.559H420.52v-7.82h4.839v.559H421.18v2.954h3.658Z" transform="translate(-232.519 -254.881)"/>
    <path class="cls-4" d="M432.422,365.3a2.212,2.212,0,0,1-1.076.763,4.672,4.672,0,0,1-1.642.274,3.047,3.047,0,0,1-1.633-.44,2.937,2.937,0,0,1-1.106-1.246,4.208,4.208,0,0,1-.4-1.848v-.988a3.783,3.783,0,0,1,.821-2.57,2.784,2.784,0,0,1,2.208-.942,2.931,2.931,0,0,1,1.944.615,2.537,2.537,0,0,1,.875,1.694h-.66a2.027,2.027,0,0,0-.7-1.307,2.259,2.259,0,0,0-1.453-.444,2.124,2.124,0,0,0-1.734.779,3.381,3.381,0,0,0-.639,2.2v.924a3.865,3.865,0,0,0,.3,1.578,2.4,2.4,0,0,0,.871,1.062,2.294,2.294,0,0,0,1.3.376,3.63,3.63,0,0,0,1.466-.269,1.577,1.577,0,0,0,.592-.414v-2.02h-2.1v-.559h2.761Z" transform="translate(-232.519 -254.881)"/>
    <path class="cls-4" d="M440.076,362.74a4.532,4.532,0,0,1-.373,1.9,2.861,2.861,0,0,1-1.066,1.257,2.925,2.925,0,0,1-1.6.44,2.779,2.779,0,0,1-2.213-.98,3.921,3.921,0,0,1-.843-2.645V361.9a4.5,4.5,0,0,1,.378-1.893,2.994,2.994,0,0,1,4.26-1.276,2.85,2.85,0,0,1,1.066,1.23,4.452,4.452,0,0,1,.393,1.842Zm-.661-.849a3.453,3.453,0,0,0-.64-2.213,2.3,2.3,0,0,0-3.488,0,3.485,3.485,0,0,0-.646,2.243v.816a3.455,3.455,0,0,0,.645,2.2,2.3,2.3,0,0,0,3.5.011,3.553,3.553,0,0,0,.628-2.237Z" transform="translate(-232.519 -254.881)"/>
    <path class="cls-4" d="M447.278,363.787a2.8,2.8,0,0,1-.884,1.891,2.922,2.922,0,0,1-2,.655,2.755,2.755,0,0,1-1.538-.435,2.832,2.832,0,0,1-1.035-1.233,4.383,4.383,0,0,1-.37-1.823v-1.015a4.436,4.436,0,0,1,.365-1.848,2.8,2.8,0,0,1,1.05-1.244,2.867,2.867,0,0,1,1.576-.437,2.8,2.8,0,0,1,1.984.677,2.832,2.832,0,0,1,.847,1.875h-.666a1.99,1.99,0,0,0-2.165-1.993,2.048,2.048,0,0,0-1.693.8,3.444,3.444,0,0,0-.632,2.2v.957a3.481,3.481,0,0,0,.614,2.161,1.982,1.982,0,0,0,1.663.806,2.2,2.2,0,0,0,1.563-.5,2.385,2.385,0,0,0,.649-1.49Z" transform="translate(-232.519 -254.881)"/>
    <path class="cls-4" d="M453.2,362.477h-3.658v3.19h4.205v.559h-4.865v-7.82h4.839v.559h-4.179v2.954H453.2Z" transform="translate(-232.519 -254.881)"/>
    <path class="cls-4" d="M460.964,366.226H460.3l-4.5-6.692v6.692h-.666v-7.82h.666l4.5,6.7v-6.7h.655Z" transform="translate(-232.519 -254.881)"/>
    <path class="cls-4" d="M468.1,358.964h-2.68v7.262h-.66v-7.262h-2.676v-.559H468.1Z" transform="translate(-232.519 -254.881)"/>
    <path class="cls-4" d="M472.286,362.965h-2.272v3.26h-.666v-7.82h2.541a2.9,2.9,0,0,1,1.955.606,2.316,2.316,0,0,1,.264,3.02,2.252,2.252,0,0,1-1.182.794l1.955,3.33v.07h-.7Zm-2.272-.559h2.025a1.877,1.877,0,0,0,1.338-.474,1.79,1.79,0,0,0-.021-2.512,2.182,2.182,0,0,0-1.478-.458h-1.864Z" transform="translate(-232.519 -254.881)"/>
    <path class="cls-4" d="M477.152,366.226h-.66v-7.82h.66Z" transform="translate(-232.519 -254.881)"/>
    <path class="cls-4" d="M484.812,363.787a2.8,2.8,0,0,1-.884,1.891,2.922,2.922,0,0,1-2,.655,2.755,2.755,0,0,1-1.538-.435,2.832,2.832,0,0,1-1.035-1.233,4.383,4.383,0,0,1-.37-1.823v-1.015a4.436,4.436,0,0,1,.365-1.848,2.8,2.8,0,0,1,1.05-1.244,2.867,2.867,0,0,1,1.576-.437,2.8,2.8,0,0,1,1.984.677,2.832,2.832,0,0,1,.847,1.875h-.666a1.99,1.99,0,0,0-2.165-1.993,2.048,2.048,0,0,0-1.693.8,3.444,3.444,0,0,0-.632,2.2v.957a3.481,3.481,0,0,0,.614,2.161,1.982,1.982,0,0,0,1.663.806,2.2,2.2,0,0,0,1.563-.5,2.385,2.385,0,0,0,.649-1.49Z" transform="translate(-232.519 -254.881)"/>
    <path class="cls-4" d="M494.184,358.964H491.5v7.262h-.66v-7.262h-2.676v-.559h6.016Z" transform="translate(-232.519 -254.881)"/>
    <path class="cls-4" d="M501.075,362.74a4.516,4.516,0,0,1-.373,1.9,2.848,2.848,0,0,1-1.066,1.257,2.92,2.92,0,0,1-1.6.44,2.778,2.778,0,0,1-2.213-.98,3.917,3.917,0,0,1-.844-2.645V361.9a4.5,4.5,0,0,1,.379-1.893,2.816,2.816,0,0,1,2.667-1.711,2.926,2.926,0,0,1,1.593.435,2.863,2.863,0,0,1,1.066,1.23,4.436,4.436,0,0,1,.392,1.842Zm-.661-.849a3.458,3.458,0,0,0-.639-2.213,2.3,2.3,0,0,0-3.488,0,3.485,3.485,0,0,0-.647,2.243v.816a3.455,3.455,0,0,0,.645,2.2,2.3,2.3,0,0,0,3.5.011,3.547,3.547,0,0,0,.628-2.237Z" transform="translate(-232.519 -254.881)"/>
    <path class="cls-4" d="M509.733,362.477h-3.657v3.19h4.205v.559h-4.866v-7.82h4.839v.559h-4.178v2.954h3.657Z" transform="translate(-232.519 -254.881)"/>
    <path class="cls-4" d="M514.052,361.714l2.2-3.309h.789l-2.588,3.856,2.669,3.964h-.795l-2.277-3.416-2.288,3.416h-.784l2.675-3.964-2.594-3.856h.789Z" transform="translate(-232.519 -254.881)"/>
    <path class="cls-4" d="M524.047,362.74a4.516,4.516,0,0,1-.373,1.9,2.836,2.836,0,0,1-1.066,1.257,2.916,2.916,0,0,1-1.6.44,2.775,2.775,0,0,1-2.213-.98,3.917,3.917,0,0,1-.844-2.645V361.9a4.5,4.5,0,0,1,.379-1.893A2.814,2.814,0,0,1,521,358.3a2.929,2.929,0,0,1,1.594.435,2.867,2.867,0,0,1,1.065,1.23,4.406,4.406,0,0,1,.392,1.842Zm-.66-.849a3.458,3.458,0,0,0-.639-2.213,2.3,2.3,0,0,0-3.488,0,3.485,3.485,0,0,0-.648,2.243v.816a3.455,3.455,0,0,0,.645,2.2,2.3,2.3,0,0,0,3.5.011,3.541,3.541,0,0,0,.629-2.237Z" transform="translate(-232.519 -254.881)"/>
    <path class="cls-4" d="M531.25,363.787a2.81,2.81,0,0,1-.883,1.891,2.926,2.926,0,0,1-2,.655,2.758,2.758,0,0,1-1.539-.435,2.834,2.834,0,0,1-1.033-1.233,4.383,4.383,0,0,1-.371-1.823v-1.015a4.421,4.421,0,0,1,.365-1.848,2.813,2.813,0,0,1,1.051-1.244,2.861,2.861,0,0,1,1.576-.437,2.8,2.8,0,0,1,1.984.677,2.836,2.836,0,0,1,.846,1.875h-.666a1.99,1.99,0,0,0-2.164-1.993,2.053,2.053,0,0,0-1.7.8,3.456,3.456,0,0,0-.631,2.2v.957a3.475,3.475,0,0,0,.615,2.161,1.981,1.981,0,0,0,1.662.806,2.2,2.2,0,0,0,1.563-.5,2.375,2.375,0,0,0,.65-1.49Z" transform="translate(-232.519 -254.881)"/>
    <path class="cls-4" d="M537.174,362.477h-3.657v3.19h4.206v.559h-4.867v-7.82h4.84v.559h-4.179v2.954h3.657Z" transform="translate(-232.519 -254.881)"/>
    <path class="cls-4" d="M544.936,366.226h-.66l-4.5-6.692v6.692h-.666v-7.82h.666l4.5,6.7v-6.7h.655Z" transform="translate(-232.519 -254.881)"/>
    <path class="cls-4" d="M552.074,358.964h-2.681v7.262h-.661v-7.262h-2.674v-.559h6.016Z" transform="translate(-232.519 -254.881)"/>
    <path class="cls-4" d="M556.258,362.965h-2.271v3.26h-.666v-7.82h2.54a2.9,2.9,0,0,1,1.955.606,2.311,2.311,0,0,1,.263,3.02,2.248,2.248,0,0,1-1.182.794l1.955,3.33v.07h-.7Zm-2.271-.559h2.024a1.871,1.871,0,0,0,1.337-.474,1.785,1.785,0,0,0-.021-2.512,2.177,2.177,0,0,0-1.477-.458h-1.863Z" transform="translate(-232.519 -254.881)"/>
    <path class="cls-4" d="M561.124,366.226h-.661v-7.82h.661Z" transform="translate(-232.519 -254.881)"/>
    <path class="cls-4" d="M568.783,363.787a2.81,2.81,0,0,1-.883,1.891,2.926,2.926,0,0,1-2,.655,2.758,2.758,0,0,1-1.539-.435,2.834,2.834,0,0,1-1.033-1.233,4.383,4.383,0,0,1-.371-1.823v-1.015a4.421,4.421,0,0,1,.365-1.848,2.813,2.813,0,0,1,1.051-1.244,2.861,2.861,0,0,1,1.576-.437,2.8,2.8,0,0,1,1.984.677,2.836,2.836,0,0,1,.846,1.875h-.666a1.99,1.99,0,0,0-2.164-1.993,2.053,2.053,0,0,0-1.7.8,3.456,3.456,0,0,0-.631,2.2v.957a3.475,3.475,0,0,0,.615,2.161,1.981,1.981,0,0,0,1.662.806,2.2,2.2,0,0,0,1.563-.5,2.375,2.375,0,0,0,.65-1.49Z" transform="translate(-232.519 -254.881)"/>
  </g>
  <g>
    <path class="cls-4" d="M421.4,426.1l2.884,6.9,2.895-6.9h.881v7.82h-.66v-3.405l.054-3.491-2.911,6.9h-.51l-2.9-6.869.054,3.442v3.427h-.661V426.1Z" transform="translate(-232.519 -254.881)"/>
    <path class="cls-4" d="M435.424,426.1v5.339a2.692,2.692,0,0,1-.349,1.375,2.28,2.28,0,0,1-.97.9,3.154,3.154,0,0,1-1.437.314,2.837,2.837,0,0,1-1.979-.674,2.472,2.472,0,0,1-.771-1.866V426.1h.655v5.291a2.03,2.03,0,0,0,.564,1.533,2.413,2.413,0,0,0,3.059,0,2.033,2.033,0,0,0,.561-1.525v-5.3Z" transform="translate(-232.519 -254.881)"/>
    <path class="cls-4" d="M437.933,433.358h3.862v.559h-4.528V426.1h.666Z" transform="translate(-232.519 -254.881)"/>
    <path class="cls-4" d="M446.892,426.655h-2.681v7.262h-.66v-7.262h-2.675V426.1h6.016Z" transform="translate(-232.519 -254.881)"/>
    <path class="cls-4" d="M448.959,433.917h-.66V426.1h.66Z" transform="translate(-232.519 -254.881)"/>
    <path class="cls-4" d="M451.957,426.1l2.884,6.9,2.9-6.9h.881v7.82h-.661v-3.405l.054-3.491-2.911,6.9h-.511l-2.9-6.869.055,3.442v3.427h-.661V426.1Z" transform="translate(-232.519 -254.881)"/>
    <path class="cls-4" d="M466.378,430.432a4.512,4.512,0,0,1-.373,1.9,2.843,2.843,0,0,1-1.066,1.257,2.916,2.916,0,0,1-1.6.44,2.776,2.776,0,0,1-2.213-.98,3.916,3.916,0,0,1-.844-2.645v-.806a4.5,4.5,0,0,1,.379-1.894,2.815,2.815,0,0,1,2.667-1.71,2.926,2.926,0,0,1,1.593.435,2.864,2.864,0,0,1,1.066,1.229,4.44,4.44,0,0,1,.392,1.843Zm-.661-.849a3.456,3.456,0,0,0-.639-2.213,2.3,2.3,0,0,0-3.488,0,3.486,3.486,0,0,0-.647,2.243v.816a3.454,3.454,0,0,0,.645,2.2,2.3,2.3,0,0,0,3.5.011,3.546,3.546,0,0,0,.628-2.236Z" transform="translate(-232.519 -254.881)"/>
    <path class="cls-4" d="M468.043,433.917V426.1h2.186a3.407,3.407,0,0,1,1.725.438,3.026,3.026,0,0,1,1.189,1.255,3.942,3.942,0,0,1,.428,1.858v.72a3.959,3.959,0,0,1-.425,1.858,3.009,3.009,0,0,1-1.2,1.251,3.5,3.5,0,0,1-1.77.44Zm.66-7.262v6.7h1.482a2.554,2.554,0,0,0,1.982-.819,3.168,3.168,0,0,0,.746-2.218v-.687a3.091,3.091,0,0,0-.735-2.161,2.51,2.51,0,0,0-1.938-.817Z" transform="translate(-232.519 -254.881)"/>
    <path class="cls-4" d="M479.354,431.721H475.8l-.807,2.2h-.692l2.96-7.82h.628l2.96,7.82h-.687Zm-3.347-.559h3.137l-1.568-4.26Z" transform="translate(-232.519 -254.881)"/>
    <path class="cls-4" d="M482.668,433.358h3.862v.559H482V426.1h.666Z" transform="translate(-232.519 -254.881)"/>
    <path class="cls-4" d="M491.278,433.917h-.661V426.1h.661Z" transform="translate(-232.519 -254.881)"/>
    <path class="cls-4" d="M499.223,433.917h-.661l-4.5-6.692v6.692H493.4V426.1h.666l4.5,6.7v-6.7h.656Z" transform="translate(-232.519 -254.881)"/>
    <path class="cls-4" d="M501.87,430.732v3.185h-.661V426.1h2.664a2.809,2.809,0,0,1,1.926.623,2.169,2.169,0,0,1,.707,1.714,2.144,2.144,0,0,1-.68,1.7,2.889,2.889,0,0,1-1.969.6Zm0-.559h2a2.114,2.114,0,0,0,1.467-.457,1.637,1.637,0,0,0,.5-1.275,1.706,1.706,0,0,0-.5-1.294,2.018,2.018,0,0,0-1.426-.492H501.87Z" transform="translate(-232.519 -254.881)"/>
    <path class="cls-4" d="M513.369,426.1v5.339a2.692,2.692,0,0,1-.349,1.375,2.28,2.28,0,0,1-.97.9,3.154,3.154,0,0,1-1.437.314,2.837,2.837,0,0,1-1.979-.674,2.472,2.472,0,0,1-.771-1.866V426.1h.655v5.291a2.03,2.03,0,0,0,.564,1.533,2.413,2.413,0,0,0,3.059,0,2.033,2.033,0,0,0,.561-1.525v-5.3Z" transform="translate(-232.519 -254.881)"/>
    <path class="cls-4" d="M520.519,426.655h-2.681v7.262h-.66v-7.262H514.5V426.1h6.016Z" transform="translate(-232.519 -254.881)"/>
    <path class="cls-4" d="M526.121,431.994a1.265,1.265,0,0,0-.457-1.028,4.82,4.82,0,0,0-1.67-.72,5.869,5.869,0,0,1-1.773-.744,1.8,1.8,0,0,1-.057-2.951,3.039,3.039,0,0,1,1.889-.561,3.139,3.139,0,0,1,1.395.3,2.3,2.3,0,0,1,.953.838,2.211,2.211,0,0,1,.338,1.2h-.666a1.642,1.642,0,0,0-.548-1.29,2.133,2.133,0,0,0-1.472-.488,2.316,2.316,0,0,0-1.429.4,1.249,1.249,0,0,0-.532,1.046,1.184,1.184,0,0,0,.479.974,4.438,4.438,0,0,0,1.531.665,7.238,7.238,0,0,1,1.595.6,2.265,2.265,0,0,1,.816.739,1.847,1.847,0,0,1,.274,1.015,1.767,1.767,0,0,1-.738,1.482,3.146,3.146,0,0,1-1.947.559,3.827,3.827,0,0,1-1.518-.295,2.31,2.31,0,0,1-1.047-.827,2.134,2.134,0,0,1-.357-1.22h.66a1.564,1.564,0,0,0,.617,1.306,2.619,2.619,0,0,0,1.645.478,2.434,2.434,0,0,0,1.466-.4A1.262,1.262,0,0,0,526.121,431.994Z" transform="translate(-232.519 -254.881)"/>
  </g>
  <g>
    <path class="cls-4" d="M424.741,465.566h-3.55l-.806,2.2h-.693l2.959-7.82h.628l2.96,7.82h-.688Zm-3.346-.559h3.137l-1.568-4.26Z" transform="translate(-232.519 -254.881)"/>
    <path class="cls-4" d="M433.211,467.764h-.66l-4.5-6.693v6.693h-.666v-7.82h.666l4.5,6.7v-6.7h.654Z" transform="translate(-232.519 -254.881)"/>
    <path class="cls-4" d="M440.736,465.324a2.808,2.808,0,0,1-.883,1.891,2.924,2.924,0,0,1-2,.656,2.758,2.758,0,0,1-1.539-.436,2.838,2.838,0,0,1-1.033-1.232,4.386,4.386,0,0,1-.371-1.824v-1.015a4.422,4.422,0,0,1,.365-1.848,2.806,2.806,0,0,1,1.051-1.243,2.856,2.856,0,0,1,1.576-.437,2.8,2.8,0,0,1,1.984.676,2.836,2.836,0,0,1,.846,1.875h-.666a1.99,1.99,0,0,0-2.164-1.992,2.053,2.053,0,0,0-1.7.795,3.458,3.458,0,0,0-.631,2.2v.956a3.474,3.474,0,0,0,.615,2.161,1.982,1.982,0,0,0,1.662.807,2.193,2.193,0,0,0,1.563-.5,2.371,2.371,0,0,0,.65-1.49Z" transform="translate(-232.519 -254.881)"/>
    <path class="cls-4" d="M448.138,467.764h-.666v-3.75H443v3.75h-.661v-7.82H443v3.512h4.469v-3.512h.666Z" transform="translate(-232.519 -254.881)"/>
    <path class="cls-4" d="M455.9,464.277a4.535,4.535,0,0,1-.373,1.9,2.846,2.846,0,0,1-1.066,1.256,2.918,2.918,0,0,1-1.6.441,2.778,2.778,0,0,1-2.213-.98,3.924,3.924,0,0,1-.843-2.646v-.806a4.491,4.491,0,0,1,.378-1.893,2.814,2.814,0,0,1,2.667-1.711,2.923,2.923,0,0,1,1.593.435,2.856,2.856,0,0,1,1.065,1.229,4.425,4.425,0,0,1,.393,1.843Zm-.66-.849a3.453,3.453,0,0,0-.64-2.213,2.3,2.3,0,0,0-3.488,0,3.483,3.483,0,0,0-.647,2.242v.816a3.457,3.457,0,0,0,.645,2.205,2.3,2.3,0,0,0,3.5.01,3.546,3.546,0,0,0,.629-2.236Z" transform="translate(-232.519 -254.881)"/>
    <path class="cls-4" d="M460.491,464.5h-2.272v3.261h-.666v-7.82h2.541a2.9,2.9,0,0,1,1.955.605,2.317,2.317,0,0,1,.264,3.021,2.252,2.252,0,0,1-1.182.794l1.955,3.33v.07h-.7Zm-2.272-.559h2.025a1.875,1.875,0,0,0,1.338-.474,1.79,1.79,0,0,0-.021-2.512,2.184,2.184,0,0,0-1.478-.457h-1.864Z" transform="translate(-232.519 -254.881)"/>
    <path class="cls-4" d="M465.357,467.764h-.66v-7.82h.66Z" transform="translate(-232.519 -254.881)"/>
    <path class="cls-4" d="M473.3,467.764h-.66l-4.5-6.693v6.693h-.666v-7.82h.666l4.5,6.7v-6.7h.654Z" transform="translate(-232.519 -254.881)"/>
    <path class="cls-4" d="M480.934,466.834a2.208,2.208,0,0,1-1.076.763,4.672,4.672,0,0,1-1.642.274,3.044,3.044,0,0,1-1.633-.441,2.934,2.934,0,0,1-1.106-1.246,4.206,4.206,0,0,1-.4-1.848v-.988a3.785,3.785,0,0,1,.821-2.57,2.787,2.787,0,0,1,2.208-.941,2.931,2.931,0,0,1,1.944.615,2.535,2.535,0,0,1,.875,1.693h-.66a2.029,2.029,0,0,0-.7-1.307,2.264,2.264,0,0,0-1.453-.443,2.124,2.124,0,0,0-1.734.779,3.379,3.379,0,0,0-.639,2.2v.925a3.864,3.864,0,0,0,.3,1.577,2.4,2.4,0,0,0,.871,1.062,2.294,2.294,0,0,0,1.3.377,3.621,3.621,0,0,0,1.466-.27,1.571,1.571,0,0,0,.592-.413v-2.02h-2.1v-.559h2.761Z" transform="translate(-232.519 -254.881)"/>
    <path class="cls-4" d="M488.4,464.5h-2.271v3.261h-.666v-7.82h2.541a2.9,2.9,0,0,1,1.955.605,2.315,2.315,0,0,1,.263,3.021,2.252,2.252,0,0,1-1.182.794l1.955,3.33v.07h-.7Zm-2.271-.559h2.025a1.873,1.873,0,0,0,1.337-.474,1.787,1.787,0,0,0-.021-2.512A2.181,2.181,0,0,0,488,460.5h-1.863Z" transform="translate(-232.519 -254.881)"/>
    <path class="cls-4" d="M496.688,465.566h-3.551l-.806,2.2h-.692l2.959-7.82h.629l2.959,7.82H497.5Zm-3.347-.559h3.137l-1.568-4.26Z" transform="translate(-232.519 -254.881)"/>
    <path class="cls-4" d="M501.123,464.207l2.391-4.264h.763l-2.825,4.877v2.943h-.66V464.82l-2.82-4.877h.784Z" transform="translate(-232.519 -254.881)"/>
    <path class="cls-4" d="M510.8,465.324a2.808,2.808,0,0,1-.883,1.891,2.924,2.924,0,0,1-2,.656,2.758,2.758,0,0,1-1.539-.436,2.838,2.838,0,0,1-1.033-1.232,4.386,4.386,0,0,1-.371-1.824v-1.015a4.422,4.422,0,0,1,.365-1.848,2.806,2.806,0,0,1,1.051-1.243,2.856,2.856,0,0,1,1.576-.437,2.8,2.8,0,0,1,1.984.676,2.836,2.836,0,0,1,.846,1.875h-.666a1.99,1.99,0,0,0-2.164-1.992,2.053,2.053,0,0,0-1.7.795,3.458,3.458,0,0,0-.631,2.2v.956a3.474,3.474,0,0,0,.615,2.161,1.982,1.982,0,0,0,1.662.807,2.193,2.193,0,0,0,1.563-.5,2.371,2.371,0,0,0,.65-1.49Z" transform="translate(-232.519 -254.881)"/>
    <path class="cls-4" d="M516.625,465.566h-3.551l-.806,2.2h-.692l2.959-7.82h.629l2.959,7.82h-.687Zm-3.347-.559h3.137l-1.568-4.26Z" transform="translate(-232.519 -254.881)"/>
    <path class="cls-4" d="M523.7,465.84a1.265,1.265,0,0,0-.456-1.027,4.8,4.8,0,0,0-1.671-.721,5.812,5.812,0,0,1-1.772-.744,1.8,1.8,0,0,1-.057-2.951,3.035,3.035,0,0,1,1.889-.561,3.124,3.124,0,0,1,1.394.3,2.281,2.281,0,0,1,.953.838,2.2,2.2,0,0,1,.339,1.2h-.666a1.644,1.644,0,0,0-.549-1.29,2.13,2.13,0,0,0-1.471-.487,2.319,2.319,0,0,0-1.43.4,1.252,1.252,0,0,0-.531,1.047,1.18,1.18,0,0,0,.479.973,4.413,4.413,0,0,0,1.53.665,7.194,7.194,0,0,1,1.595.6,2.247,2.247,0,0,1,.816.738,1.842,1.842,0,0,1,.274,1.016,1.769,1.769,0,0,1-.738,1.482,3.15,3.15,0,0,1-1.947.559,3.827,3.827,0,0,1-1.518-.3,2.308,2.308,0,0,1-1.047-.827,2.133,2.133,0,0,1-.357-1.219h.661a1.559,1.559,0,0,0,.617,1.3,2.616,2.616,0,0,0,1.644.479,2.434,2.434,0,0,0,1.466-.4A1.259,1.259,0,0,0,523.7,465.84Z" transform="translate(-232.519 -254.881)"/>
    <path class="cls-4" d="M531.094,460.5h-2.68v7.262h-.66V460.5h-2.676v-.559h6.016Z" transform="translate(-232.519 -254.881)"/>
    <path class="cls-4" d="M533.162,467.764h-.66v-7.82h.66Z" transform="translate(-232.519 -254.881)"/>
    <path class="cls-4" d="M541.105,467.764h-.66l-4.5-6.693v6.693h-.666v-7.82h.666l4.5,6.7v-6.7h.654Z" transform="translate(-232.519 -254.881)"/>
    <path class="cls-4" d="M548.738,466.834a2.208,2.208,0,0,1-1.076.763,4.672,4.672,0,0,1-1.642.274,3.044,3.044,0,0,1-1.633-.441,2.934,2.934,0,0,1-1.106-1.246,4.206,4.206,0,0,1-.4-1.848v-.988a3.785,3.785,0,0,1,.821-2.57,2.787,2.787,0,0,1,2.208-.941,2.931,2.931,0,0,1,1.944.615,2.535,2.535,0,0,1,.875,1.693h-.66a2.029,2.029,0,0,0-.7-1.307,2.264,2.264,0,0,0-1.453-.443,2.124,2.124,0,0,0-1.734.779,3.379,3.379,0,0,0-.639,2.2v.925a3.864,3.864,0,0,0,.3,1.577,2.4,2.4,0,0,0,.871,1.062,2.294,2.294,0,0,0,1.3.377,3.621,3.621,0,0,0,1.466-.27,1.571,1.571,0,0,0,.592-.413v-2.02h-2.1v-.559h2.761Z" transform="translate(-232.519 -254.881)"/>
  </g>
  <g>
    <path class="cls-4" d="M420.52,501.609v-7.82h2.31a3.005,3.005,0,0,1,1.907.519,1.84,1.84,0,0,1,.65,1.529,1.735,1.735,0,0,1-.33,1.056,1.808,1.808,0,0,1-.905.643,1.893,1.893,0,0,1,1.515,1.873,2.03,2.03,0,0,1-.669,1.618,2.738,2.738,0,0,1-1.861.583Zm.661-4.313h1.8a2.028,2.028,0,0,0,1.281-.39,1.331,1.331,0,0,0,.454-1.09,1.309,1.309,0,0,0-.47-1.111,2.335,2.335,0,0,0-1.421-.357H421.18Zm0,.559v3.2h1.982a1.985,1.985,0,0,0,1.346-.432,1.5,1.5,0,0,0,.5-1.2,1.454,1.454,0,0,0-.475-1.146,1.915,1.915,0,0,0-1.313-.421Z" transform="translate(-232.519 -254.881)"/>
    <path class="cls-4" d="M428.066,501.609h-.661v-7.82h.661Z" transform="translate(-232.519 -254.881)"/>
    <path class="cls-4" d="M436.01,501.609h-.66l-4.5-6.692v6.692h-.666v-7.82h.666l4.5,6.7v-6.7h.655Z" transform="translate(-232.519 -254.881)"/>
    <path class="cls-4" d="M442.315,499.412h-3.55l-.807,2.2h-.692l2.96-7.82h.628l2.96,7.82h-.687Zm-3.347-.559h3.137l-1.568-4.259Z" transform="translate(-232.519 -254.881)"/>
    <path class="cls-4" d="M447.885,498.349h-2.271v3.261h-.666v-7.82h2.541a2.9,2.9,0,0,1,1.955.606,2.314,2.314,0,0,1,.263,3.02,2.252,2.252,0,0,1-1.182.794l1.955,3.33v.07h-.7Zm-2.271-.559h2.025a1.873,1.873,0,0,0,1.337-.474,1.787,1.787,0,0,0-.021-2.512,2.181,2.181,0,0,0-1.478-.457h-1.863Z" transform="translate(-232.519 -254.881)"/>
    <path class="cls-4" d="M453.981,498.054l2.39-4.265h.764l-2.826,4.877v2.943h-.66v-2.943l-2.82-4.877h.785Z" transform="translate(-232.519 -254.881)"/>
    <path class="cls-4" d="M466.593,500.68a2.216,2.216,0,0,1-1.077.763,4.655,4.655,0,0,1-1.641.274,3.054,3.054,0,0,1-1.633-.44,2.927,2.927,0,0,1-1.106-1.246,4.237,4.237,0,0,1-.4-1.848v-.988a3.774,3.774,0,0,1,.822-2.57,2.78,2.78,0,0,1,2.207-.942,2.933,2.933,0,0,1,1.944.615,2.536,2.536,0,0,1,.876,1.694h-.661a2.032,2.032,0,0,0-.7-1.307,2.261,2.261,0,0,0-1.453-.444,2.127,2.127,0,0,0-1.735.779,3.374,3.374,0,0,0-.64,2.2v.925a3.845,3.845,0,0,0,.3,1.577,2.4,2.4,0,0,0,.869,1.062,2.3,2.3,0,0,0,1.3.377,3.643,3.643,0,0,0,1.467-.269,1.571,1.571,0,0,0,.59-.414v-2.02h-2.1V497.9h2.761Z" transform="translate(-232.519 -254.881)"/>
    <path class="cls-4" d="M472.785,497.86h-3.657v3.19h4.206v.559h-4.867v-7.82h4.84v.559h-4.179V497.3h3.657Z" transform="translate(-232.519 -254.881)"/>
    <path class="cls-4" d="M479.15,499.687a1.264,1.264,0,0,0-.457-1.028,4.793,4.793,0,0,0-1.67-.72,5.862,5.862,0,0,1-1.772-.744,1.8,1.8,0,0,1-.057-2.951,3.03,3.03,0,0,1,1.888-.562,3.125,3.125,0,0,1,1.395.3,2.275,2.275,0,0,1,.953.838,2.2,2.2,0,0,1,.338,1.2H479.1a1.642,1.642,0,0,0-.547-1.29,2.134,2.134,0,0,0-1.473-.487,2.318,2.318,0,0,0-1.428.4,1.25,1.25,0,0,0-.532,1.047,1.185,1.185,0,0,0,.478.974,4.439,4.439,0,0,0,1.531.664,7.244,7.244,0,0,1,1.6.6,2.288,2.288,0,0,1,.816.738,1.858,1.858,0,0,1,.273,1.016,1.769,1.769,0,0,1-.738,1.482,3.148,3.148,0,0,1-1.947.559,3.817,3.817,0,0,1-1.518-.3,2.314,2.314,0,0,1-1.047-.827,2.133,2.133,0,0,1-.357-1.219h.66a1.563,1.563,0,0,0,.618,1.3,2.61,2.61,0,0,0,1.644.479,2.437,2.437,0,0,0,1.467-.4A1.26,1.26,0,0,0,479.15,499.687Z" transform="translate(-232.519 -254.881)"/>
    <path class="cls-4" d="M486.547,494.348h-2.681v7.262h-.661v-7.262h-2.674v-.559h6.016Z" transform="translate(-232.519 -254.881)"/>
    <path class="cls-4" d="M493.2,493.789v5.339a2.7,2.7,0,0,1-.349,1.375,2.286,2.286,0,0,1-.97.9,3.154,3.154,0,0,1-1.437.314,2.837,2.837,0,0,1-1.979-.674,2.476,2.476,0,0,1-.771-1.867v-5.387h.655v5.29a2.032,2.032,0,0,0,.564,1.534,2.413,2.413,0,0,0,3.059,0,2.034,2.034,0,0,0,.561-1.525v-5.3Z" transform="translate(-232.519 -254.881)"/>
    <path class="cls-4" d="M497.96,498.349h-2.272v3.261h-.666v-7.82h2.541a2.9,2.9,0,0,1,1.955.606,2.315,2.315,0,0,1,.264,3.02,2.252,2.252,0,0,1-1.182.794l1.955,3.33v.07h-.7Zm-2.272-.559h2.025a1.875,1.875,0,0,0,1.338-.474,1.79,1.79,0,0,0-.021-2.512,2.184,2.184,0,0,0-1.478-.457h-1.864Z" transform="translate(-232.519 -254.881)"/>
    <path class="cls-4" d="M506.339,497.86h-3.657v3.19h4.205v.559h-4.866v-7.82h4.839v.559h-4.178V497.3h3.657Z" transform="translate(-232.519 -254.881)"/>
    <path class="cls-4" d="M512.7,499.687a1.266,1.266,0,0,0-.456-1.028,4.791,4.791,0,0,0-1.671-.72,5.854,5.854,0,0,1-1.771-.744,1.8,1.8,0,0,1-.057-2.951,3.026,3.026,0,0,1,1.888-.562,3.124,3.124,0,0,1,1.394.3,2.269,2.269,0,0,1,.953.838,2.19,2.19,0,0,1,.339,1.2h-.666a1.643,1.643,0,0,0-.548-1.29,2.131,2.131,0,0,0-1.472-.487,2.321,2.321,0,0,0-1.429.4,1.251,1.251,0,0,0-.531,1.047,1.182,1.182,0,0,0,.478.974,4.432,4.432,0,0,0,1.53.664,7.2,7.2,0,0,1,1.6.6,2.28,2.28,0,0,1,.816.738,1.85,1.85,0,0,1,.273,1.016,1.769,1.769,0,0,1-.738,1.482,3.146,3.146,0,0,1-1.947.559,3.817,3.817,0,0,1-1.518-.3,2.319,2.319,0,0,1-1.047-.827,2.133,2.133,0,0,1-.357-1.219h.661a1.56,1.56,0,0,0,.618,1.3,2.607,2.607,0,0,0,1.643.479,2.437,2.437,0,0,0,1.467-.4A1.258,1.258,0,0,0,512.7,499.687Z" transform="translate(-232.519 -254.881)"/>
  </g>
  <circle class="cls-5" cx="164.258" cy="311.817" r="7.087"/>
  <g>
    <path class="cls-4" d="M420.52,569.3v-7.82h2.186a3.4,3.4,0,0,1,1.724.438,3.026,3.026,0,0,1,1.189,1.254,3.947,3.947,0,0,1,.428,1.858v.72a3.95,3.95,0,0,1-.425,1.858,3.018,3.018,0,0,1-1.2,1.252,3.509,3.509,0,0,1-1.77.44Zm.661-7.262v6.7h1.482a2.55,2.55,0,0,0,1.982-.82,3.166,3.166,0,0,0,.747-2.217v-.688a3.1,3.1,0,0,0-.736-2.161,2.506,2.506,0,0,0-1.939-.816Z" transform="translate(-232.519 -254.881)"/>
    <path class="cls-4" d="M428.527,569.3h-.66v-7.82h.66Z" transform="translate(-232.519 -254.881)"/>
    <path class="cls-4" d="M433.571,566.04H431.3V569.3h-.666v-7.82h2.541a2.9,2.9,0,0,1,1.955.606,2.315,2.315,0,0,1,.264,3.02,2.252,2.252,0,0,1-1.182.794l1.955,3.33v.07h-.7Zm-2.272-.559h2.025a1.875,1.875,0,0,0,1.338-.474,1.79,1.79,0,0,0-.021-2.512,2.184,2.184,0,0,0-1.478-.457H431.3Z" transform="translate(-232.519 -254.881)"/>
    <path class="cls-4" d="M441.95,565.552h-3.657v3.19H442.5v.559h-4.866v-7.82h4.839v.559h-4.178v2.954h3.657Z" transform="translate(-232.519 -254.881)"/>
    <path class="cls-4" d="M449.427,566.862a2.8,2.8,0,0,1-.884,1.891,2.924,2.924,0,0,1-2,.655,2.755,2.755,0,0,1-1.538-.436,2.83,2.83,0,0,1-1.035-1.232,4.384,4.384,0,0,1-.37-1.823V564.9a4.438,4.438,0,0,1,.365-1.848,2.8,2.8,0,0,1,1.05-1.243,2.863,2.863,0,0,1,1.576-.437,2.8,2.8,0,0,1,1.984.677,2.832,2.832,0,0,1,.847,1.874h-.666a1.99,1.99,0,0,0-2.165-1.992,2.048,2.048,0,0,0-1.693.795,3.447,3.447,0,0,0-.632,2.2v.956a3.48,3.48,0,0,0,.614,2.161,1.982,1.982,0,0,0,1.663.807,2.2,2.2,0,0,0,1.563-.5,2.386,2.386,0,0,0,.649-1.49Z" transform="translate(-232.519 -254.881)"/>
    <path class="cls-4" d="M456.184,562.039H453.5V569.3h-.661v-7.262h-2.675v-.559h6.016Z" transform="translate(-232.519 -254.881)"/>
    <path class="cls-4" d="M465,562.039h-2.681V569.3h-.661v-7.262h-2.674v-.559H465Z" transform="translate(-232.519 -254.881)"/>
    <path class="cls-4" d="M471.889,565.814a4.535,4.535,0,0,1-.373,1.9,2.854,2.854,0,0,1-1.066,1.257,2.926,2.926,0,0,1-1.6.44,2.778,2.778,0,0,1-2.213-.98,3.922,3.922,0,0,1-.843-2.646v-.806a4.494,4.494,0,0,1,.378-1.893,2.995,2.995,0,0,1,4.26-1.276,2.853,2.853,0,0,1,1.065,1.23,4.417,4.417,0,0,1,.393,1.842Zm-.66-.849a3.454,3.454,0,0,0-.64-2.213,2.3,2.3,0,0,0-3.488,0,3.483,3.483,0,0,0-.647,2.242v.816a3.455,3.455,0,0,0,.645,2.205,2.3,2.3,0,0,0,3.5.011,3.549,3.549,0,0,0,.629-2.237Z" transform="translate(-232.519 -254.881)"/>
    <path class="cls-4" d="M477.034,569.3h-.661v-7.82h.661Z" transform="translate(-232.519 -254.881)"/>
    <path class="cls-4" d="M484.979,569.3h-.661l-4.5-6.692V569.3h-.666v-7.82h.666l4.5,6.7v-6.7h.656Z" transform="translate(-232.519 -254.881)"/>
    <path class="cls-4" d="M486.965,569.3v-7.82h2.187a3.394,3.394,0,0,1,1.724.438,3.017,3.017,0,0,1,1.189,1.254,3.947,3.947,0,0,1,.428,1.858v.72a3.956,3.956,0,0,1-.424,1.858,3.024,3.024,0,0,1-1.2,1.252,3.509,3.509,0,0,1-1.77.44Zm.661-7.262v6.7h1.482a2.549,2.549,0,0,0,1.981-.82,3.164,3.164,0,0,0,.747-2.217v-.688a3.1,3.1,0,0,0-.735-2.161,2.507,2.507,0,0,0-1.939-.816Z" transform="translate(-232.519 -254.881)"/>
    <path class="cls-4" d="M494.974,569.3h-.661v-7.82h.661Z" transform="translate(-232.519 -254.881)"/>
    <path class="cls-4" d="M500.018,566.04h-2.272V569.3h-.666v-7.82h2.54a2.9,2.9,0,0,1,1.955.606,2.312,2.312,0,0,1,.264,3.02,2.248,2.248,0,0,1-1.182.794l1.955,3.33v.07h-.7Zm-2.272-.559h2.024a1.872,1.872,0,0,0,1.338-.474,1.787,1.787,0,0,0-.021-2.512,2.183,2.183,0,0,0-1.477-.457h-1.864Z" transform="translate(-232.519 -254.881)"/>
    <path class="cls-4" d="M508.4,565.552h-3.658v3.19h4.205v.559h-4.865v-7.82h4.839v.559h-4.179v2.954H508.4Z" transform="translate(-232.519 -254.881)"/>
    <path class="cls-4" d="M515.873,566.862a2.809,2.809,0,0,1-.884,1.891,2.926,2.926,0,0,1-2,.655,2.758,2.758,0,0,1-1.539-.436,2.828,2.828,0,0,1-1.034-1.232,4.384,4.384,0,0,1-.37-1.823V564.9a4.422,4.422,0,0,1,.365-1.848,2.8,2.8,0,0,1,1.05-1.243,2.859,2.859,0,0,1,1.576-.437,2.8,2.8,0,0,1,1.984.677,2.837,2.837,0,0,1,.847,1.874h-.666a1.991,1.991,0,0,0-2.165-1.992,2.049,2.049,0,0,0-1.694.795,3.452,3.452,0,0,0-.631,2.2v.956a3.48,3.48,0,0,0,.614,2.161,1.98,1.98,0,0,0,1.663.807,2.2,2.2,0,0,0,1.563-.5,2.381,2.381,0,0,0,.65-1.49Z" transform="translate(-232.519 -254.881)"/>
    <path class="cls-4" d="M522.629,562.039h-2.68V569.3h-.66v-7.262h-2.676v-.559h6.016Z" transform="translate(-232.519 -254.881)"/>
  </g>
  <g>
    <path class="cls-4" d="M421.325,535.795h-.661v-7.82h.661Z" transform="translate(-232.519 -254.881)"/>
    <path class="cls-4" d="M429.227,532.309a4.535,4.535,0,0,1-.373,1.9,2.866,2.866,0,0,1-1.066,1.257,2.929,2.929,0,0,1-1.6.44,2.778,2.778,0,0,1-2.212-.98,3.92,3.92,0,0,1-.843-2.646v-.806a4.494,4.494,0,0,1,.378-1.893,2.994,2.994,0,0,1,4.259-1.276,2.848,2.848,0,0,1,1.066,1.23,4.448,4.448,0,0,1,.393,1.842Zm-.661-.849a3.454,3.454,0,0,0-.64-2.213,2.3,2.3,0,0,0-3.488,0,3.483,3.483,0,0,0-.647,2.242v.816a3.455,3.455,0,0,0,.645,2.205,2.3,2.3,0,0,0,3.5.011,3.555,3.555,0,0,0,.628-2.237Z" transform="translate(-232.519 -254.881)"/>
    <path class="cls-4" d="M436.053,528.533h-2.68v7.262h-.661v-7.262h-2.675v-.559h6.016Z" transform="translate(-232.519 -254.881)"/>
    <path class="cls-4" d="M440.58,535.795h-.66v-7.82h.66Z" transform="translate(-232.519 -254.881)"/>
    <path class="cls-4" d="M448.524,535.795h-.661l-4.5-6.692v6.692H442.7v-7.82h.666l4.5,6.7v-6.7h.655Z" transform="translate(-232.519 -254.881)"/>
    <path class="cls-4" d="M455.662,528.533h-2.68v7.262h-.66v-7.262h-2.676v-.559h6.016Z" transform="translate(-232.519 -254.881)"/>
    <path class="cls-4" d="M461.243,532.046h-3.657v3.19h4.205v.559h-4.866v-7.82h4.839v.559h-4.178v2.954h3.657Z" transform="translate(-232.519 -254.881)"/>
    <path class="cls-4" d="M466.1,532.534h-2.271v3.261h-.666v-7.82h2.541a2.9,2.9,0,0,1,1.955.606,2.314,2.314,0,0,1,.263,3.02,2.252,2.252,0,0,1-1.182.794l1.955,3.33v.07h-.7Zm-2.271-.559h2.025a1.873,1.873,0,0,0,1.337-.474,1.787,1.787,0,0,0-.021-2.512,2.181,2.181,0,0,0-1.478-.457h-1.863Z" transform="translate(-232.519 -254.881)"/>
    <path class="cls-4" d="M474.387,533.6h-3.551l-.806,2.2h-.692l2.959-7.82h.629l2.959,7.82H475.2Zm-3.347-.559h3.137l-1.568-4.259Z" transform="translate(-232.519 -254.881)"/>
    <path class="cls-4" d="M482.513,533.356a2.8,2.8,0,0,1-.884,1.891,2.924,2.924,0,0,1-2,.655,2.755,2.755,0,0,1-1.538-.436,2.83,2.83,0,0,1-1.035-1.232,4.384,4.384,0,0,1-.37-1.823V531.4a4.438,4.438,0,0,1,.365-1.848,2.8,2.8,0,0,1,1.05-1.243,2.863,2.863,0,0,1,1.576-.437,2.8,2.8,0,0,1,1.984.677,2.832,2.832,0,0,1,.847,1.874h-.666a1.99,1.99,0,0,0-2.165-1.992,2.048,2.048,0,0,0-1.693.795,3.447,3.447,0,0,0-.632,2.2v.956a3.48,3.48,0,0,0,.614,2.161,1.982,1.982,0,0,0,1.663.807,2.2,2.2,0,0,0,1.563-.5,2.386,2.386,0,0,0,.649-1.49Z" transform="translate(-232.519 -254.881)"/>
    <path class="cls-4" d="M489.27,528.533h-2.68v7.262h-.661v-7.262h-2.675v-.559h6.016Z" transform="translate(-232.519 -254.881)"/>
    <path class="cls-4" d="M491.338,535.795h-.661v-7.82h.661Z" transform="translate(-232.519 -254.881)"/>
    <path class="cls-4" d="M499.238,532.309a4.535,4.535,0,0,1-.373,1.9,2.854,2.854,0,0,1-1.066,1.257,2.926,2.926,0,0,1-1.6.44,2.778,2.778,0,0,1-2.213-.98,3.922,3.922,0,0,1-.843-2.646v-.806a4.494,4.494,0,0,1,.378-1.893,2.995,2.995,0,0,1,4.26-1.276,2.853,2.853,0,0,1,1.065,1.23,4.417,4.417,0,0,1,.393,1.842Zm-.66-.849a3.454,3.454,0,0,0-.64-2.213,2.3,2.3,0,0,0-3.488,0,3.483,3.483,0,0,0-.647,2.242v.816a3.455,3.455,0,0,0,.645,2.205,2.3,2.3,0,0,0,3.5.011,3.549,3.549,0,0,0,.629-2.237Z" transform="translate(-232.519 -254.881)"/>
    <path class="cls-4" d="M506.726,535.795h-.661l-4.5-6.692v6.692H500.9v-7.82h.666l4.5,6.7v-6.7h.655Z" transform="translate(-232.519 -254.881)"/>
    <path class="cls-4" d="M513.139,533.872a1.264,1.264,0,0,0-.457-1.028,4.793,4.793,0,0,0-1.67-.72,5.862,5.862,0,0,1-1.772-.744,1.8,1.8,0,0,1-.057-2.951,3.03,3.03,0,0,1,1.888-.562,3.125,3.125,0,0,1,1.395.3,2.275,2.275,0,0,1,.953.838,2.2,2.2,0,0,1,.338,1.2h-.666a1.642,1.642,0,0,0-.547-1.29,2.134,2.134,0,0,0-1.473-.487,2.318,2.318,0,0,0-1.428.4,1.25,1.25,0,0,0-.532,1.047,1.185,1.185,0,0,0,.478.974,4.439,4.439,0,0,0,1.531.664,7.244,7.244,0,0,1,1.6.6,2.288,2.288,0,0,1,.816.738,1.858,1.858,0,0,1,.273,1.016,1.769,1.769,0,0,1-.738,1.482,3.148,3.148,0,0,1-1.947.559,3.817,3.817,0,0,1-1.518-.3,2.314,2.314,0,0,1-1.047-.827,2.133,2.133,0,0,1-.357-1.219h.66a1.563,1.563,0,0,0,.618,1.3,2.61,2.61,0,0,0,1.644.479,2.437,2.437,0,0,0,1.467-.4A1.26,1.26,0,0,0,513.139,533.872Z" transform="translate(-232.519 -254.881)"/>
  </g>
  <g>
    <path class="cls-4" d="M426.314,332.38h-.666v-3.749H421.18v3.749h-.661v-7.82h.661v3.513h4.469V324.56h.666Z" transform="translate(-232.519 -254.881)"/>
    <path class="cls-4" d="M434.082,328.894a4.532,4.532,0,0,1-.373,1.9,2.861,2.861,0,0,1-1.066,1.257,2.925,2.925,0,0,1-1.6.44,2.779,2.779,0,0,1-2.213-.98,3.921,3.921,0,0,1-.843-2.645v-.806a4.5,4.5,0,0,1,.378-1.893,2.994,2.994,0,0,1,4.26-1.276,2.85,2.85,0,0,1,1.066,1.23,4.452,4.452,0,0,1,.393,1.842Zm-.661-.849a3.453,3.453,0,0,0-.64-2.213,2.3,2.3,0,0,0-3.488,0,3.485,3.485,0,0,0-.646,2.243v.816a3.455,3.455,0,0,0,.645,2.2,2.3,2.3,0,0,0,3.5.011,3.553,3.553,0,0,0,.628-2.237Z" transform="translate(-232.519 -254.881)"/>
    <path class="cls-4" d="M436.622,324.56l2.884,6.9,2.9-6.9h.881v7.82h-.661v-3.405l.055-3.491-2.912,6.9h-.51l-2.9-6.87.054,3.443v3.427h-.661v-7.82Z" transform="translate(-232.519 -254.881)"/>
    <path class="cls-4" d="M451.043,328.894a4.516,4.516,0,0,1-.373,1.9,2.836,2.836,0,0,1-1.066,1.257,2.916,2.916,0,0,1-1.6.44,2.775,2.775,0,0,1-2.213-.98,3.917,3.917,0,0,1-.844-2.645v-.806a4.5,4.5,0,0,1,.379-1.893,2.814,2.814,0,0,1,2.666-1.711,2.929,2.929,0,0,1,1.594.435,2.867,2.867,0,0,1,1.065,1.23,4.406,4.406,0,0,1,.392,1.842Zm-.66-.849a3.458,3.458,0,0,0-.639-2.213,2.3,2.3,0,0,0-3.488,0,3.485,3.485,0,0,0-.648,2.243v.816a3.455,3.455,0,0,0,.645,2.2,2.3,2.3,0,0,0,3.5.011,3.541,3.541,0,0,0,.629-2.237Z" transform="translate(-232.519 -254.881)"/>
    <path class="cls-4" d="M458.531,332.38h-.661l-4.5-6.692v6.692h-.666v-7.82h.666l4.5,6.7v-6.7h.656Z" transform="translate(-232.519 -254.881)"/>
    <path class="cls-4" d="M466.056,329.941a2.8,2.8,0,0,1-.884,1.891,2.922,2.922,0,0,1-2,.655,2.755,2.755,0,0,1-1.538-.435,2.832,2.832,0,0,1-1.035-1.233,4.383,4.383,0,0,1-.37-1.823v-1.015a4.436,4.436,0,0,1,.365-1.848,2.8,2.8,0,0,1,1.05-1.244,2.867,2.867,0,0,1,1.576-.437,2.8,2.8,0,0,1,1.984.677,2.832,2.832,0,0,1,.847,1.875h-.666a1.99,1.99,0,0,0-2.165-1.993,2.048,2.048,0,0,0-1.693.8,3.444,3.444,0,0,0-.632,2.2v.957a3.481,3.481,0,0,0,.614,2.161,1.982,1.982,0,0,0,1.663.806,2.2,2.2,0,0,0,1.563-.5,2.385,2.385,0,0,0,.649-1.49Z" transform="translate(-232.519 -254.881)"/>
    <path class="cls-4" d="M473.049,324.56V329.9a2.7,2.7,0,0,1-.35,1.375,2.281,2.281,0,0,1-.969.9,3.158,3.158,0,0,1-1.437.314,2.834,2.834,0,0,1-1.979-.674,2.474,2.474,0,0,1-.771-1.867V324.56h.656v5.291a2.035,2.035,0,0,0,.563,1.534,2.415,2.415,0,0,0,3.06,0,2.037,2.037,0,0,0,.561-1.525v-5.3Z" transform="translate(-232.519 -254.881)"/>
    <path class="cls-4" d="M475.557,331.821h3.862v.559h-4.528v-7.82h.666Z" transform="translate(-232.519 -254.881)"/>
    <path class="cls-4" d="M485.01,330.183h-3.55l-.806,2.2h-.693l2.96-7.82h.628l2.96,7.82h-.687Zm-3.346-.559H484.8l-1.568-4.259Z" transform="translate(-232.519 -254.881)"/>
    <path class="cls-4" d="M490.58,329.12h-2.271v3.26h-.666v-7.82h2.54a2.9,2.9,0,0,1,1.955.606,2.311,2.311,0,0,1,.263,3.02,2.248,2.248,0,0,1-1.182.794l1.955,3.33v.07h-.7Zm-2.271-.559h2.024a1.871,1.871,0,0,0,1.337-.474,1.785,1.785,0,0,0-.021-2.512,2.177,2.177,0,0,0-1.477-.458h-1.863Z" transform="translate(-232.519 -254.881)"/>
    <path class="cls-4" d="M501.623,328.722h-3.646v3.658h-.661v-7.82h4.845v.559h-4.184v3.045h3.646Z" transform="translate(-232.519 -254.881)"/>
    <path class="cls-4" d="M504.169,331.821h3.862v.559H503.5v-7.82h.666Z" transform="translate(-232.519 -254.881)"/>
    <path class="cls-4" d="M513.617,328.631h-3.658v3.19h4.205v.559H509.3v-7.82h4.839v.559h-4.179v2.954h3.658Z" transform="translate(-232.519 -254.881)"/>
    <path class="cls-4" d="M517.936,327.868l2.2-3.309h.79l-2.589,3.856,2.67,3.964h-.795l-2.277-3.416-2.289,3.416h-.783l2.674-3.964-2.594-3.856h.789Z" transform="translate(-232.519 -254.881)"/>
    <path class="cls-4" d="M523.092,332.38h-.661v-7.82h.661Z" transform="translate(-232.519 -254.881)"/>
    <path class="cls-4" d="M525.213,332.38v-7.82h2.31a3.008,3.008,0,0,1,1.907.519,1.841,1.841,0,0,1,.649,1.529,1.734,1.734,0,0,1-.33,1.056,1.807,1.807,0,0,1-.905.643,1.894,1.894,0,0,1,1.515,1.874,2.031,2.031,0,0,1-.669,1.618,2.742,2.742,0,0,1-1.861.583Zm.66-4.313h1.8a2.026,2.026,0,0,0,1.281-.39,1.33,1.33,0,0,0,.454-1.09,1.309,1.309,0,0,0-.47-1.111,2.332,2.332,0,0,0-1.421-.358h-1.649Zm0,.559v3.2h1.982a1.983,1.983,0,0,0,1.346-.432,1.5,1.5,0,0,0,.5-1.2,1.453,1.453,0,0,0-.475-1.145,1.913,1.913,0,0,0-1.313-.421Z" transform="translate(-232.519 -254.881)"/>
    <path class="cls-4" d="M532.76,332.38H532.1v-7.82h.661Z" transform="translate(-232.519 -254.881)"/>
    <path class="cls-4" d="M535.547,331.821h3.861v.559h-4.527v-7.82h.666Z" transform="translate(-232.519 -254.881)"/>
    <path class="cls-4" d="M541.482,332.38h-.661v-7.82h.661Z" transform="translate(-232.519 -254.881)"/>
    <path class="cls-4" d="M548.754,325.118h-2.68v7.262h-.66v-7.262h-2.676v-.559h6.016Z" transform="translate(-232.519 -254.881)"/>
    <path class="cls-4" d="M552.4,328.824l2.39-4.265h.763l-2.825,4.877v2.943h-.661v-2.943l-2.819-4.877h.784Z" transform="translate(-232.519 -254.881)"/>
  </g>
  <g>
    <path class="cls-4" d="M424.945,297.249a1.265,1.265,0,0,0-.457-1.028,4.805,4.805,0,0,0-1.67-.72,5.862,5.862,0,0,1-1.772-.744,1.8,1.8,0,0,1-.057-2.951,3.033,3.033,0,0,1,1.888-.562,3.131,3.131,0,0,1,1.394.3,2.284,2.284,0,0,1,.953.838,2.2,2.2,0,0,1,.338,1.2H424.9a1.642,1.642,0,0,0-.548-1.29,2.132,2.132,0,0,0-1.472-.488,2.319,2.319,0,0,0-1.429.4,1.25,1.25,0,0,0-.532,1.046,1.183,1.183,0,0,0,.478.974,4.435,4.435,0,0,0,1.531.665,7.222,7.222,0,0,1,1.6.6,2.273,2.273,0,0,1,.816.739,1.849,1.849,0,0,1,.274,1.015,1.768,1.768,0,0,1-.738,1.482,3.146,3.146,0,0,1-1.947.559,3.822,3.822,0,0,1-1.518-.3,2.314,2.314,0,0,1-1.047-.827,2.134,2.134,0,0,1-.357-1.219h.661a1.562,1.562,0,0,0,.618,1.305,2.613,2.613,0,0,0,1.644.478,2.436,2.436,0,0,0,1.466-.4A1.26,1.26,0,0,0,424.945,297.249Z" transform="translate(-232.519 -254.881)"/>
    <path class="cls-4" d="M432.342,291.91h-2.681v7.262H429V291.91h-2.674v-.559h6.016Z" transform="translate(-232.519 -254.881)"/>
    <path class="cls-4" d="M437.4,296.975h-3.55l-.806,2.2h-.693l2.96-7.82h.628l2.96,7.82h-.687Zm-3.346-.559h3.137l-1.568-4.259Z" transform="translate(-232.519 -254.881)"/>
    <path class="cls-4" d="M444.662,291.91h-2.68v7.262h-.66V291.91h-2.676v-.559h6.016Z" transform="translate(-232.519 -254.881)"/>
    <path class="cls-4" d="M446.73,299.171h-.66v-7.82h.66Z" transform="translate(-232.519 -254.881)"/>
    <path class="cls-4" d="M454.39,296.733a2.8,2.8,0,0,1-.884,1.891,2.922,2.922,0,0,1-2,.655,2.755,2.755,0,0,1-1.538-.435,2.832,2.832,0,0,1-1.035-1.233,4.383,4.383,0,0,1-.37-1.823v-1.015a4.436,4.436,0,0,1,.365-1.848,2.8,2.8,0,0,1,1.05-1.244,2.867,2.867,0,0,1,1.576-.437,2.8,2.8,0,0,1,1.984.677,2.832,2.832,0,0,1,.847,1.875h-.666a1.99,1.99,0,0,0-2.165-1.993,2.048,2.048,0,0,0-1.693.8,3.444,3.444,0,0,0-.632,2.2v.957a3.481,3.481,0,0,0,.614,2.161,1.982,1.982,0,0,0,1.663.806,2.2,2.2,0,0,0,1.563-.5,2.385,2.385,0,0,0,.649-1.49Z" transform="translate(-232.519 -254.881)"/>
    <path class="cls-4" d="M462.893,296.975h-3.551l-.806,2.2h-.692l2.959-7.82h.629l2.959,7.82H463.7Zm-3.347-.559h3.137l-1.568-4.259Z" transform="translate(-232.519 -254.881)"/>
    <path class="cls-4" d="M469.848,295.514H466.2v3.658h-.661v-7.82h4.845v.559H466.2v3.045h3.646Z" transform="translate(-232.519 -254.881)"/>
    <path class="cls-4" d="M476.035,295.514h-3.646v3.658h-.661v-7.82h4.845v.559h-4.184v3.045h3.646Z" transform="translate(-232.519 -254.881)"/>
    <path class="cls-4" d="M483.694,295.686a4.516,4.516,0,0,1-.373,1.9,2.848,2.848,0,0,1-1.066,1.257,2.92,2.92,0,0,1-1.6.44,2.778,2.778,0,0,1-2.213-.98,3.917,3.917,0,0,1-.844-2.645v-.806a4.5,4.5,0,0,1,.379-1.893,2.816,2.816,0,0,1,2.667-1.711,2.926,2.926,0,0,1,1.593.435,2.863,2.863,0,0,1,1.066,1.23,4.436,4.436,0,0,1,.392,1.842Zm-.661-.849a3.458,3.458,0,0,0-.639-2.213,2.3,2.3,0,0,0-3.488,0,3.485,3.485,0,0,0-.647,2.243v.816a3.455,3.455,0,0,0,.645,2.2,2.3,2.3,0,0,0,3.5.011,3.547,3.547,0,0,0,.628-2.237Z" transform="translate(-232.519 -254.881)"/>
    <path class="cls-4" d="M488.281,295.911H486.01v3.26h-.666v-7.82h2.54a2.9,2.9,0,0,1,1.955.606,2.311,2.311,0,0,1,.263,3.02,2.248,2.248,0,0,1-1.182.794l1.955,3.33v.07h-.7Zm-2.271-.559h2.024a1.871,1.871,0,0,0,1.337-.474,1.785,1.785,0,0,0-.021-2.512,2.177,2.177,0,0,0-1.477-.458H486.01Z" transform="translate(-232.519 -254.881)"/>
    <path class="cls-4" d="M492.342,299.171v-7.82h2.186a3.4,3.4,0,0,1,1.725.438,3.027,3.027,0,0,1,1.189,1.254,3.944,3.944,0,0,1,.428,1.858v.72a3.958,3.958,0,0,1-.425,1.858,3.011,3.011,0,0,1-1.2,1.251,3.5,3.5,0,0,1-1.77.44Zm.66-7.262v6.7h1.482a2.552,2.552,0,0,0,1.982-.82,3.166,3.166,0,0,0,.746-2.217v-.688a3.092,3.092,0,0,0-.735-2.161,2.508,2.508,0,0,0-1.938-.817Z" transform="translate(-232.519 -254.881)"/>
    <path class="cls-4" d="M503.653,296.975H500.1l-.807,2.2H498.6l2.96-7.82h.628l2.96,7.82h-.687Zm-3.347-.559h3.137l-1.568-4.259Z" transform="translate(-232.519 -254.881)"/>
    <path class="cls-4" d="M512.123,299.171h-.66l-4.5-6.692v6.692H506.3v-7.82h.666l4.5,6.7v-6.7h.654Z" transform="translate(-232.519 -254.881)"/>
    <path class="cls-4" d="M519.648,296.733a2.81,2.81,0,0,1-.883,1.891,2.926,2.926,0,0,1-2,.655,2.758,2.758,0,0,1-1.539-.435,2.834,2.834,0,0,1-1.033-1.233,4.383,4.383,0,0,1-.371-1.823v-1.015a4.421,4.421,0,0,1,.365-1.848,2.813,2.813,0,0,1,1.051-1.244,2.861,2.861,0,0,1,1.576-.437,2.8,2.8,0,0,1,1.984.677,2.836,2.836,0,0,1,.846,1.875h-.666a1.99,1.99,0,0,0-2.164-1.993,2.053,2.053,0,0,0-1.7.8,3.456,3.456,0,0,0-.631,2.2v.957a3.475,3.475,0,0,0,.615,2.161,1.981,1.981,0,0,0,1.662.806,2.2,2.2,0,0,0,1.563-.5,2.375,2.375,0,0,0,.65-1.49Z" transform="translate(-232.519 -254.881)"/>
    <path class="cls-4" d="M525.572,295.422h-3.657v3.19h4.206v.559h-4.867v-7.82h4.84v.559h-4.179v2.954h3.657Z" transform="translate(-232.519 -254.881)"/>
    <path class="cls-4" d="M531.938,297.249a1.264,1.264,0,0,0-.457-1.028,4.8,4.8,0,0,0-1.67-.72,5.862,5.862,0,0,1-1.772-.744,1.8,1.8,0,0,1-.057-2.951,3.033,3.033,0,0,1,1.888-.562,3.132,3.132,0,0,1,1.395.3,2.281,2.281,0,0,1,.953.838,2.2,2.2,0,0,1,.338,1.2h-.666a1.641,1.641,0,0,0-.547-1.29,2.134,2.134,0,0,0-1.473-.488,2.314,2.314,0,0,0-1.428.4,1.248,1.248,0,0,0-.532,1.046,1.184,1.184,0,0,0,.478.974,4.447,4.447,0,0,0,1.531.665,7.247,7.247,0,0,1,1.6.6,2.285,2.285,0,0,1,.816.739,1.857,1.857,0,0,1,.273,1.015,1.768,1.768,0,0,1-.738,1.482,3.145,3.145,0,0,1-1.947.559,3.826,3.826,0,0,1-1.518-.3,2.317,2.317,0,0,1-1.047-.827,2.134,2.134,0,0,1-.357-1.219h.66a1.564,1.564,0,0,0,.618,1.305,2.613,2.613,0,0,0,1.644.478,2.437,2.437,0,0,0,1.467-.4A1.261,1.261,0,0,0,531.938,297.249Z" transform="translate(-232.519 -254.881)"/>
  </g>
  <circle class="cls-5" cx="164.258" cy="7.587" r="7.087"/>
  <circle class="cls-5" cx="164.258" cy="345.62" r="7.087"/>
  <g>
    <path class="cls-4" d="M420.52,264.773v-7.82h2.186a3.4,3.4,0,0,1,1.724.438,3.024,3.024,0,0,1,1.189,1.254,3.944,3.944,0,0,1,.428,1.858v.72a3.952,3.952,0,0,1-.425,1.858,3.017,3.017,0,0,1-1.2,1.251,3.5,3.5,0,0,1-1.77.44Zm.661-7.262v6.7h1.482a2.551,2.551,0,0,0,1.982-.82,3.168,3.168,0,0,0,.747-2.217v-.688a3.1,3.1,0,0,0-.736-2.161,2.508,2.508,0,0,0-1.939-.817Z" transform="translate(-232.519 -254.881)"/>
    <path class="cls-4" d="M429.785,261.218l2.39-4.265h.763l-2.825,4.877v2.943h-.661V261.83l-2.819-4.877h.784Z" transform="translate(-232.519 -254.881)"/>
    <path class="cls-4" d="M439.9,264.773h-.66l-4.5-6.692v6.692h-.666v-7.82h.666l4.5,6.7v-6.7h.655Z" transform="translate(-232.519 -254.881)"/>
    <path class="cls-4" d="M446.2,262.577h-3.55l-.807,2.2h-.692l2.96-7.82h.628l2.96,7.82h-.687Zm-3.347-.559h3.137l-1.568-4.259Z" transform="translate(-232.519 -254.881)"/>
    <path class="cls-4" d="M449.728,256.953l2.884,6.9,2.9-6.9h.881v7.82h-.661v-3.405l.055-3.491-2.912,6.9h-.51l-2.9-6.87.054,3.443v3.427h-.661v-7.82Z" transform="translate(-232.519 -254.881)"/>
    <path class="cls-4" d="M459.176,264.773h-.661v-7.82h.661Z" transform="translate(-232.519 -254.881)"/>
    <path class="cls-4" d="M466.834,262.335a2.8,2.8,0,0,1-.883,1.891,2.924,2.924,0,0,1-2,.655,2.755,2.755,0,0,1-1.538-.435,2.836,2.836,0,0,1-1.034-1.233,4.383,4.383,0,0,1-.371-1.823v-1.015a4.436,4.436,0,0,1,.365-1.848,2.813,2.813,0,0,1,1.051-1.244,2.865,2.865,0,0,1,1.576-.437,2.8,2.8,0,0,1,1.984.677,2.832,2.832,0,0,1,.846,1.875h-.666A1.99,1.99,0,0,0,464,257.4a2.051,2.051,0,0,0-1.694.8,3.45,3.45,0,0,0-.632,2.2v.957a3.475,3.475,0,0,0,.615,2.161,1.982,1.982,0,0,0,1.662.806,2.2,2.2,0,0,0,1.563-.5,2.379,2.379,0,0,0,.649-1.49Z" transform="translate(-232.519 -254.881)"/>
    <path class="cls-4" d="M475.337,262.577h-3.55l-.807,2.2h-.692l2.96-7.82h.628l2.96,7.82h-.687Zm-3.347-.559h3.137l-1.568-4.259Z" transform="translate(-232.519 -254.881)"/>
    <path class="cls-4" d="M482.293,261.116h-3.647v3.658h-.661v-7.82h4.846v.559h-4.185v3.045h3.647Z" transform="translate(-232.519 -254.881)"/>
    <path class="cls-4" d="M488.48,261.116h-3.647v3.658h-.661v-7.82h4.846v.559h-4.185v3.045h3.647Z" transform="translate(-232.519 -254.881)"/>
    <path class="cls-4" d="M496.139,261.288a4.516,4.516,0,0,1-.373,1.9,2.836,2.836,0,0,1-1.066,1.257,2.916,2.916,0,0,1-1.6.44,2.775,2.775,0,0,1-2.213-.98,3.917,3.917,0,0,1-.844-2.645v-.806a4.5,4.5,0,0,1,.379-1.893,2.814,2.814,0,0,1,2.666-1.711,2.929,2.929,0,0,1,1.594.435,2.867,2.867,0,0,1,1.065,1.23,4.406,4.406,0,0,1,.392,1.842Zm-.66-.849a3.458,3.458,0,0,0-.639-2.213,2.3,2.3,0,0,0-3.488,0,3.485,3.485,0,0,0-.648,2.243v.816a3.455,3.455,0,0,0,.645,2.2,2.3,2.3,0,0,0,3.5.011,3.541,3.541,0,0,0,.629-2.237Z" transform="translate(-232.519 -254.881)"/>
    <path class="cls-4" d="M500.727,261.513h-2.272v3.26h-.666v-7.82h2.54a2.9,2.9,0,0,1,1.955.606,2.313,2.313,0,0,1,.264,3.02,2.248,2.248,0,0,1-1.182.794l1.955,3.33v.07h-.7Zm-2.272-.559h2.024a1.874,1.874,0,0,0,1.338-.474,1.787,1.787,0,0,0-.021-2.512,2.181,2.181,0,0,0-1.477-.458h-1.864Z" transform="translate(-232.519 -254.881)"/>
    <path class="cls-4" d="M504.787,264.773v-7.82h2.186a3.407,3.407,0,0,1,1.725.438,3.033,3.033,0,0,1,1.189,1.254,3.944,3.944,0,0,1,.427,1.858v.72a3.946,3.946,0,0,1-.425,1.858,3.011,3.011,0,0,1-1.2,1.251,3.5,3.5,0,0,1-1.77.44Zm.66-7.262v6.7h1.482a2.552,2.552,0,0,0,1.982-.82,3.17,3.17,0,0,0,.746-2.217v-.688a3.093,3.093,0,0,0-.736-2.161,2.507,2.507,0,0,0-1.938-.817Z" transform="translate(-232.519 -254.881)"/>
    <path class="cls-4" d="M516.1,262.577h-3.55l-.806,2.2h-.693l2.96-7.82h.628l2.96,7.82h-.687Zm-3.346-.559h3.137l-1.568-4.259Z" transform="translate(-232.519 -254.881)"/>
    <path class="cls-4" d="M524.568,264.773h-.66l-4.5-6.692v6.692h-.666v-7.82h.666l4.5,6.7v-6.7h.655Z" transform="translate(-232.519 -254.881)"/>
    <path class="cls-4" d="M532.094,262.335a2.807,2.807,0,0,1-.884,1.891,2.923,2.923,0,0,1-2,.655,2.758,2.758,0,0,1-1.539-.435,2.83,2.83,0,0,1-1.034-1.233,4.383,4.383,0,0,1-.37-1.823v-1.015a4.421,4.421,0,0,1,.365-1.848,2.8,2.8,0,0,1,1.05-1.244,2.863,2.863,0,0,1,1.576-.437,2.8,2.8,0,0,1,1.984.677,2.837,2.837,0,0,1,.847,1.875h-.666a1.991,1.991,0,0,0-2.165-1.993,2.05,2.05,0,0,0-1.694.8,3.45,3.45,0,0,0-.631,2.2v.957a3.481,3.481,0,0,0,.614,2.161,1.981,1.981,0,0,0,1.663.806,2.2,2.2,0,0,0,1.563-.5,2.38,2.38,0,0,0,.65-1.49Z" transform="translate(-232.519 -254.881)"/>
    <path class="cls-4" d="M538.018,261.024h-3.658v3.19h4.206v.559H533.7v-7.82h4.84v.559h-4.18v2.954h3.658Z" transform="translate(-232.519 -254.881)"/>
    <path class="cls-4" d="M544.383,262.851a1.264,1.264,0,0,0-.457-1.028,4.811,4.811,0,0,0-1.67-.72,5.869,5.869,0,0,1-1.773-.744,1.8,1.8,0,0,1-.057-2.951,3.036,3.036,0,0,1,1.889-.562,3.132,3.132,0,0,1,1.395.3,2.293,2.293,0,0,1,.953.838,2.208,2.208,0,0,1,.338,1.2h-.666a1.642,1.642,0,0,0-.548-1.29,2.133,2.133,0,0,0-1.472-.488,2.32,2.32,0,0,0-1.429.4,1.251,1.251,0,0,0-.532,1.046,1.185,1.185,0,0,0,.479.974,4.43,4.43,0,0,0,1.531.665,7.235,7.235,0,0,1,1.595.6,2.269,2.269,0,0,1,.816.739,1.849,1.849,0,0,1,.274,1.015,1.768,1.768,0,0,1-.738,1.482,3.149,3.149,0,0,1-1.947.559,3.819,3.819,0,0,1-1.518-.3,2.306,2.306,0,0,1-1.047-.827,2.134,2.134,0,0,1-.357-1.219h.66a1.563,1.563,0,0,0,.617,1.305,2.616,2.616,0,0,0,1.645.478,2.434,2.434,0,0,0,1.466-.4A1.262,1.262,0,0,0,544.383,262.851Z" transform="translate(-232.519 -254.881)"/>
  </g>
  <polyline class="cls-6" points="114.474 176.603 133.914 176.603 133.914 38.578 157.171 38.578"/>
  <polyline class="cls-6" points="114.474 176.603 133.914 176.603 133.914 74.641 157.171 74.641"/>
  <polyline class="cls-6" points="114.474 176.603 133.914 176.603 133.914 108.997 157.171 108.997"/>
  <polyline class="cls-6" points="114.474 176.603 133.914 176.603 133.914 142.332 157.171 142.332"/>
  <polyline class="cls-6" points="114.474 176.603 133.914 176.603 133.914 176.603 157.171 176.603"/>
  <polyline class="cls-6" points="114.474 176.603 133.914 176.603 133.914 210.024 157.171 210.024"/>
  <polyline class="cls-6" points="114.474 176.603 133.914 176.603 133.914 243.87 157.171 243.87"/>
  <polyline class="cls-6" points="114.474 176.603 133.914 176.603 133.914 278.013 157.171 278.013"/>
  <polyline class="cls-6" points="114.474 176.603 133.914 176.603 133.914 311.817 157.171 311.817"/>
  <polyline class="cls-6" points="114.474 176.603 133.914 176.603 133.914 6.992 157.171 6.992"/>
  <polyline class="cls-6" points="114.474 176.603 133.914 176.603 133.914 343.403 157.171 343.403"/>
</svg>
