<svg xmlns="http://www.w3.org/2000/svg" xmlns:xlink="http://www.w3.org/1999/xlink" viewBox="0 0 818.011 590.524">
  <defs>
    <style>
      .cls-1, .cls-10, .cls-11, .cls-4, .cls-5, .cls-6, .cls-7, .cls-8, .cls-9 {
        fill: none;
      }

      .cls-2 {
        clip-path: url(#clip-path);
      }

      .cls-3 {
        clip-path: url(#clip-path-2);
      }

      .cls-11, .cls-12, .cls-4 {
        stroke: #313133;
      }

      .cls-4 {
        stroke-miterlimit: 10;
      }

      .cls-10, .cls-5, .cls-6, .cls-7, .cls-8, .cls-9 {
        stroke: #aeb0b3;
        stroke-width: 0.5px;
      }

      .cls-10, .cls-11, .cls-12, .cls-5, .cls-6, .cls-7, .cls-8, .cls-9 {
        stroke-linecap: round;
        stroke-linejoin: round;
      }

      .cls-6 {
        stroke-dasharray: 5.006 5.006;
      }

      .cls-7 {
        stroke-dasharray: 5.006 5.006;
      }

      .cls-8 {
        stroke-dasharray: 5.006 5.006;
      }

      .cls-9 {
        stroke-dasharray: 5.006 5.006;
      }

      .cls-10 {
        stroke-dasharray: 5.006 5.006;
      }

      .cls-12 {
        fill: url(#New_Pattern_3);
      }

      .cls-13 {
        fill: #313133;
      }
    </style>
    <clipPath id="clip-path">
      <rect class="cls-1" width="44.801" height="44.801"/>
    </clipPath>
    <clipPath id="clip-path-2">
      <rect class="cls-1" y="0.001" width="44.8" height="44.8"/>
    </clipPath>
    <pattern id="New_Pattern_3" data-name="New Pattern 3" x="-16.191" y="-134.994" width="44.801" height="44.801" patternUnits="userSpaceOnUse" viewBox="0 0 44.801 44.801">
      <rect class="cls-1" width="44.801" height="44.801"/>
      <g id="Straight_Line_Fill" data-name="Straight Line Fill">
        <g class="cls-2">
          <g class="cls-3">
            <line class="cls-4" x1="-36.906" y1="4.644" x2="81.705" y2="123.255"/>
            <line class="cls-4" x1="-36.906" y1="-1.757" x2="81.705" y2="116.854"/>
            <line class="cls-4" x1="-36.906" y1="-8.156" x2="81.705" y2="110.455"/>
            <line class="cls-4" x1="-36.906" y1="-14.557" x2="81.705" y2="104.054"/>
            <line class="cls-4" x1="-36.906" y1="-20.957" x2="81.705" y2="97.654"/>
            <line class="cls-4" x1="-36.906" y1="-27.357" x2="81.705" y2="91.254"/>
            <line class="cls-4" x1="-36.906" y1="-33.757" x2="81.705" y2="84.854"/>
            <line class="cls-4" x1="-36.906" y1="-40.157" x2="81.705" y2="78.454"/>
            <line class="cls-4" x1="-36.906" y1="-46.557" x2="81.705" y2="72.054"/>
            <line class="cls-4" x1="-36.906" y1="-52.957" x2="81.705" y2="65.654"/>
            <line class="cls-4" x1="-36.906" y1="-59.357" x2="81.705" y2="59.254"/>
            <line class="cls-4" x1="-36.906" y1="-65.758" x2="81.705" y2="52.853"/>
            <line class="cls-4" x1="-36.906" y1="-72.157" x2="81.705" y2="46.454"/>
            <line class="cls-4" x1="-36.906" y1="-78.557" x2="81.705" y2="40.054"/>
            <line class="cls-4" x1="-36.906" y1="-84.958" x2="81.705" y2="33.653"/>
            <line class="cls-4" x1="-36.906" y1="11.044" x2="81.705" y2="129.655"/>
          </g>
        </g>
      </g>
    </pattern>
  </defs>
  <title>Filtering Matrix - Clip Chart</title>
  <g id="Background_Lines" data-name="Background Lines">
    <g>
      <polyline class="cls-5" points="406.983 22.082 409.005 20.612 411.028 22.082"/>
      <line class="cls-6" x1="415.078" y1="25.024" x2="688.423" y2="223.621"/>
      <polyline class="cls-5" points="690.447 225.092 692.47 226.561 691.697 228.939"/>
      <line class="cls-6" x1="690.151" y1="233.7" x2="585.742" y2="555.036"/>
      <polyline class="cls-5" points="584.969 557.416 584.196 559.794 581.696 559.794"/>
      <line class="cls-6" x1="576.691" y1="559.794" x2="238.817" y2="559.794"/>
      <polyline class="cls-5" points="236.315 559.794 233.815 559.794 233.042 557.416"/>
      <line class="cls-6" x1="231.495" y1="552.656" x2="127.087" y2="231.319"/>
      <polyline class="cls-5" points="126.313 228.939 125.541 226.561 127.563 225.092"/>
      <line class="cls-6" x1="131.613" y1="222.15" x2="404.958" y2="23.553"/>
    </g>
    <g>
      <polyline class="cls-5" points="406.983 81.692 409.005 80.223 411.028 81.692"/>
      <line class="cls-7" x1="415.078" y1="84.634" x2="631.729" y2="242.041"/>
      <polyline class="cls-5" points="633.754 243.512 635.776 244.982 635.004 247.359"/>
      <line class="cls-7" x1="633.457" y1="252.12" x2="550.704" y2="506.809"/>
      <polyline class="cls-5" points="549.93 509.189 549.158 511.567 546.658 511.567"/>
      <line class="cls-7" x1="541.652" y1="511.567" x2="273.856" y2="511.567"/>
      <polyline class="cls-5" points="271.353 511.567 268.853 511.567 268.081 509.189"/>
      <line class="cls-7" x1="266.534" y1="504.429" x2="183.78" y2="249.74"/>
      <polyline class="cls-5" points="183.007 247.359 182.234 244.982 184.257 243.512"/>
      <line class="cls-7" x1="188.307" y1="240.57" x2="404.958" y2="83.163"/>
    </g>
    <g>
      <polyline class="cls-5" points="406.983 141.303 409.005 139.833 411.028 141.303"/>
      <line class="cls-8" x1="415.078" y1="144.245" x2="575.036" y2="260.462"/>
      <polyline class="cls-5" points="577.061 261.933 579.084 263.402 578.311 265.78"/>
      <line class="cls-8" x1="576.764" y1="270.541" x2="515.665" y2="458.583"/>
      <polyline class="cls-5" points="514.892 460.964 514.12 463.341 511.62 463.341"/>
      <line class="cls-8" x1="506.614" y1="463.341" x2="308.894" y2="463.341"/>
      <polyline class="cls-5" points="306.391 463.341 303.891 463.341 303.119 460.964"/>
      <line class="cls-8" x1="301.572" y1="456.203" x2="240.473" y2="268.16"/>
      <polyline class="cls-5" points="239.7 265.78 238.927 263.402 240.95 261.933"/>
      <line class="cls-8" x1="244.999" y1="258.991" x2="404.958" y2="142.774"/>
    </g>
    <g>
      <polyline class="cls-5" points="406.983 200.913 409.005 199.444 411.028 200.913"/>
      <line class="cls-9" x1="415.078" y1="203.855" x2="518.344" y2="278.883"/>
      <polyline class="cls-5" points="520.368 280.354 522.391 281.823 521.618 284.201"/>
      <line class="cls-9" x1="520.072" y1="288.961" x2="480.627" y2="410.358"/>
      <polyline class="cls-5" points="479.854 412.738 479.082 415.116 476.582 415.116"/>
      <line class="cls-9" x1="471.576" y1="415.116" x2="343.932" y2="415.116"/>
      <polyline class="cls-5" points="341.429 415.116 338.929 415.116 338.157 412.738"/>
      <line class="cls-9" x1="336.61" y1="407.977" x2="297.166" y2="286.581"/>
      <polyline class="cls-5" points="296.392 284.201 295.62 281.823 297.642 280.354"/>
      <line class="cls-9" x1="301.692" y1="277.411" x2="404.958" y2="202.384"/>
    </g>
    <g>
      <polyline class="cls-5" points="406.983 260.524 409.005 259.054 411.028 260.524"/>
      <line class="cls-10" x1="415.078" y1="263.466" x2="461.651" y2="297.303"/>
      <polyline class="cls-5" points="463.676 298.774 465.698 300.244 464.926 302.622"/>
      <line class="cls-10" x1="463.379" y1="307.382" x2="445.589" y2="362.132"/>
      <polyline class="cls-5" points="444.816 364.513 444.043 366.89 441.543 366.89"/>
      <line class="cls-10" x1="436.538" y1="366.89" x2="378.97" y2="366.89"/>
      <polyline class="cls-5" points="376.467 366.89 373.967 366.89 373.195 364.513"/>
      <line class="cls-10" x1="371.648" y1="359.752" x2="353.859" y2="305.002"/>
      <polyline class="cls-5" points="353.085 302.622 352.313 300.244 354.335 298.774"/>
      <line class="cls-10" x1="358.385" y1="295.832" x2="404.958" y2="261.995"/>
    </g>
  </g>
  <g id="Form">
    <g>
      <line class="cls-11" x1="409.005" y1="318.665" x2="409.005" y2="20.612"/>
      <line class="cls-11" x1="409.005" y1="318.665" x2="692.47" y2="226.561"/>
      <line class="cls-11" x1="409.005" y1="318.665" x2="584.196" y2="559.794"/>
      <line class="cls-11" x1="409.005" y1="318.665" x2="125.541" y2="226.561"/>
      <line class="cls-11" x1="233.815" y1="559.794" x2="409.005" y2="318.665"/>
    </g>
  </g>
  <g id="Values">
    <polygon class="cls-12" points="409.004 139.833 635.777 244.982 550.738 511.567 303.892 463.341 238.926 263.402 409.004 139.833"/>
  </g>
  <g id="Labels">
    <g>
      <path class="cls-13" d="M375.676,141.773H372.3v3.486h-1.758v-8.531H376.1v1.424h-3.8v2.2h3.375Z" transform="translate(-16.191 -134.994)"/>
      <path class="cls-13" d="M382.25,141.562h-3.375v2.285h3.961v1.412h-5.719v-8.531h5.707v1.424h-3.949v2.033h3.375Z" transform="translate(-16.191 -134.994)"/>
      <path class="cls-13" d="M389,141.562h-3.375v2.285h3.961v1.412h-5.719v-8.531h5.707v1.424h-3.949v2.033H389Z" transform="translate(-16.191 -134.994)"/>
      <path class="cls-13" d="M390.618,145.259v-8.531h2.625a3.986,3.986,0,0,1,2.013.507,3.534,3.534,0,0,1,1.386,1.441,4.446,4.446,0,0,1,.5,2.124v.393a4.458,4.458,0,0,1-.489,2.115,3.5,3.5,0,0,1-1.38,1.436,4.016,4.016,0,0,1-2.01.516Zm1.758-7.107v5.7h.85a1.909,1.909,0,0,0,1.576-.674,3.045,3.045,0,0,0,.557-1.928v-.451a3.093,3.093,0,0,0-.539-1.972,1.9,1.9,0,0,0-1.576-.671Z" transform="translate(-16.191 -134.994)"/>
      <path class="cls-13" d="M398.417,145.259v-8.531H401.4a3.924,3.924,0,0,1,2.355.595,2.034,2.034,0,0,1,.8,1.743,1.927,1.927,0,0,1-.322,1.1,1.861,1.861,0,0,1-.9.7,1.8,1.8,0,0,1,1.034.662,1.957,1.957,0,0,1,.378,1.219,2.251,2.251,0,0,1-.785,1.863,3.535,3.535,0,0,1-2.238.645Zm1.758-4.957h1.3q1.33-.023,1.33-1.061a.98.98,0,0,0-.337-.835,1.772,1.772,0,0,0-1.063-.255h-1.23Zm0,1.242v2.3h1.506a1.453,1.453,0,0,0,.97-.3,1.015,1.015,0,0,0,.349-.817,1.071,1.071,0,0,0-1.213-1.189Z" transform="translate(-16.191 -134.994)"/>
      <path class="cls-13" d="M410.891,143.5h-3.082l-.586,1.758h-1.869l3.176-8.531h1.629l3.193,8.531h-1.869Zm-2.607-1.424h2.133l-1.072-3.193Z" transform="translate(-16.191 -134.994)"/>
      <path class="cls-13" d="M420.723,142.417a3.019,3.019,0,0,1-1.017,2.168,3.57,3.57,0,0,1-2.417.791,3.21,3.21,0,0,1-2.581-1.1,4.529,4.529,0,0,1-.94-3.032v-.521a5.114,5.114,0,0,1,.434-2.168,3.249,3.249,0,0,1,1.239-1.438,3.873,3.873,0,0,1,4.251.29,3.244,3.244,0,0,1,1.043,2.221h-1.758a1.782,1.782,0,0,0-.46-1.2,1.7,1.7,0,0,0-1.2-.372,1.494,1.494,0,0,0-1.315.63,3.53,3.53,0,0,0-.448,1.954v.645a3.778,3.778,0,0,0,.419,2.021,1.466,1.466,0,0,0,1.321.639,1.735,1.735,0,0,0,1.216-.372,1.681,1.681,0,0,0,.46-1.151Z" transform="translate(-16.191 -134.994)"/>
      <path class="cls-13" d="M424.549,141.837l-.914.984v2.438h-1.758v-8.531h1.758V140.6l.773-1.061,2.173-2.807h2.162l-3.029,3.791,3.117,4.74H426.74Z" transform="translate(-16.191 -134.994)"/>
      <path class="cls-13" d="M439.479,141.187a5.14,5.14,0,0,1-.387,2.077,3.566,3.566,0,0,1-1.072,1.415l1.418,1.113-1.119.99-1.816-1.459a3.845,3.845,0,0,1-.645.053,3.549,3.549,0,0,1-1.893-.51,3.387,3.387,0,0,1-1.289-1.456,5,5,0,0,1-.463-2.177v-.422a5.123,5.123,0,0,1,.454-2.218,3.381,3.381,0,0,1,1.283-1.471,3.76,3.76,0,0,1,3.791,0,3.381,3.381,0,0,1,1.283,1.471,5.109,5.109,0,0,1,.454,2.212ZM437.7,140.8a3.59,3.59,0,0,0-.48-2.039,1.7,1.7,0,0,0-2.736-.009,3.549,3.549,0,0,0-.486,2.019v.416a3.635,3.635,0,0,0,.48,2.027,1.682,1.682,0,0,0,2.742.026,3.614,3.614,0,0,0,.48-2.024Z" transform="translate(-16.191 -134.994)"/>
      <path class="cls-13" d="M447.225,136.728v5.619a2.877,2.877,0,0,1-.876,2.215,3.377,3.377,0,0,1-2.394.814,3.415,3.415,0,0,1-2.373-.791,2.828,2.828,0,0,1-.9-2.174v-5.684h1.758v5.631a1.626,1.626,0,0,0,.4,1.222,1.541,1.541,0,0,0,1.11.384q1.482,0,1.506-1.559v-5.678Z" transform="translate(-16.191 -134.994)"/>
      <path class="cls-13" d="M453.354,143.5h-3.082l-.586,1.758h-1.869l3.176-8.531h1.629l3.193,8.531h-1.869Zm-2.607-1.424h2.133l-1.072-3.193Z" transform="translate(-16.191 -134.994)"/>
      <path class="cls-13" d="M458.369,143.847H462.1v1.412h-5.49v-8.531h1.758Z" transform="translate(-16.191 -134.994)"/>
      <path class="cls-13" d="M464.979,145.259h-1.758v-8.531h1.758Z" transform="translate(-16.191 -134.994)"/>
      <path class="cls-13" d="M472.859,138.152h-2.613v7.107h-1.758v-7.107H465.91v-1.424h6.949Z" transform="translate(-16.191 -134.994)"/>
      <path class="cls-13" d="M476.9,140.572l1.775-3.844h1.922l-2.8,5.438v3.094h-1.787v-3.094l-2.8-5.437h1.928Z" transform="translate(-16.191 -134.994)"/>
    </g>
    <g>
      <path class="cls-13" d="M736.837,344.486a3.019,3.019,0,0,1-1.017,2.168,3.57,3.57,0,0,1-2.417.791,3.21,3.21,0,0,1-2.581-1.1,4.529,4.529,0,0,1-.94-3.032v-.521a5.114,5.114,0,0,1,.434-2.168,3.249,3.249,0,0,1,1.239-1.438,3.873,3.873,0,0,1,4.251.29,3.244,3.244,0,0,1,1.043,2.221h-1.758a1.782,1.782,0,0,0-.46-1.2,1.7,1.7,0,0,0-1.2-.372,1.494,1.494,0,0,0-1.315.63,3.53,3.53,0,0,0-.448,1.954v.645a3.778,3.778,0,0,0,.419,2.021,1.466,1.466,0,0,0,1.321.639,1.735,1.735,0,0,0,1.216-.372,1.681,1.681,0,0,0,.46-1.151Z" transform="translate(-16.191 -134.994)"/>
      <path class="cls-13" d="M745,343.255a5.15,5.15,0,0,1-.445,2.209,3.354,3.354,0,0,1-1.274,1.465,3.766,3.766,0,0,1-3.794.006,3.387,3.387,0,0,1-1.289-1.456,5,5,0,0,1-.463-2.177v-.422a5.123,5.123,0,0,1,.454-2.218,3.381,3.381,0,0,1,1.283-1.471,3.76,3.76,0,0,1,3.791,0,3.381,3.381,0,0,1,1.283,1.471,5.109,5.109,0,0,1,.454,2.212Zm-1.781-.387a3.59,3.59,0,0,0-.48-2.039,1.7,1.7,0,0,0-2.736-.009,3.549,3.549,0,0,0-.486,2.019v.416a3.635,3.635,0,0,0,.48,2.027,1.682,1.682,0,0,0,2.742.026,3.614,3.614,0,0,0,.48-2.024Z" transform="translate(-16.191 -134.994)"/>
      <path class="cls-13" d="M748.573,338.8l2.191,6.188,2.18-6.187h2.309v8.531h-1.764V345l.176-4.025-2.3,6.357h-1.207l-2.3-6.352.176,4.02v2.332h-1.758V338.8Z" transform="translate(-16.191 -134.994)"/>
      <path class="cls-13" d="M761.921,343.841h-3.375v3.486h-1.758V338.8h5.555v1.424h-3.8v2.2h3.375Z" transform="translate(-16.191 -134.994)"/>
      <path class="cls-13" d="M770.37,343.255a5.15,5.15,0,0,1-.445,2.209,3.354,3.354,0,0,1-1.274,1.465,3.766,3.766,0,0,1-3.794.006,3.387,3.387,0,0,1-1.289-1.456,5,5,0,0,1-.463-2.177v-.422a5.123,5.123,0,0,1,.454-2.218,3.381,3.381,0,0,1,1.283-1.471,3.76,3.76,0,0,1,3.791,0,3.381,3.381,0,0,1,1.283,1.471,5.109,5.109,0,0,1,.454,2.212Zm-1.781-.387a3.59,3.59,0,0,0-.48-2.039,1.7,1.7,0,0,0-2.736-.009,3.549,3.549,0,0,0-.486,2.019v.416a3.635,3.635,0,0,0,.48,2.027,1.682,1.682,0,0,0,2.742.026,3.614,3.614,0,0,0,.48-2.024Z" transform="translate(-16.191 -134.994)"/>
      <path class="cls-13" d="M774.806,344.2h-1.4v3.123h-1.758V338.8h3.17a3.583,3.583,0,0,1,2.332.674,2.326,2.326,0,0,1,.82,1.9,2.625,2.625,0,0,1-.378,1.456,2.578,2.578,0,0,1-1.146.929l1.846,3.486v.082h-1.887Zm-1.4-1.424h1.418a1.452,1.452,0,0,0,1.025-.337,1.2,1.2,0,0,0,.363-.929,1.289,1.289,0,0,0-.343-.949,1.424,1.424,0,0,0-1.052-.346h-1.412Z" transform="translate(-16.191 -134.994)"/>
      <path class="cls-13" d="M785.435,340.22h-2.613v7.107h-1.758V340.22h-2.578V338.8h6.949Z" transform="translate(-16.191 -134.994)"/>
    </g>
    <g>
      <path class="cls-13" d="M60.617,338.8v5.619a2.877,2.877,0,0,1-.876,2.215,3.377,3.377,0,0,1-2.394.814,3.415,3.415,0,0,1-2.373-.791,2.828,2.828,0,0,1-.9-2.174V338.8h1.758v5.631a1.626,1.626,0,0,0,.4,1.222,1.541,1.541,0,0,0,1.11.384q1.482,0,1.506-1.559V338.8Z" transform="translate(-16.191 -134.994)"/>
      <path class="cls-13" d="M66.482,345.089a.9.9,0,0,0-.352-.765,4.611,4.611,0,0,0-1.266-.562,8.972,8.972,0,0,1-1.447-.583,2.365,2.365,0,0,1-1.453-2.115,2.06,2.06,0,0,1,.39-1.233,2.542,2.542,0,0,1,1.119-.847,4.212,4.212,0,0,1,1.638-.3,3.834,3.834,0,0,1,1.629.331,2.594,2.594,0,0,1,1.11.935,2.445,2.445,0,0,1,.4,1.371H66.488a1.15,1.15,0,0,0-.369-.911,1.517,1.517,0,0,0-1.037-.325,1.621,1.621,0,0,0-1,.272.859.859,0,0,0-.357.718.823.823,0,0,0,.419.7,4.733,4.733,0,0,0,1.233.527,5.329,5.329,0,0,1,2.186,1.119,2.229,2.229,0,0,1,.686,1.664,2.053,2.053,0,0,1-.838,1.737,3.668,3.668,0,0,1-2.256.63,4.356,4.356,0,0,1-1.793-.36,2.837,2.837,0,0,1-1.233-.987,2.528,2.528,0,0,1-.425-1.453h1.764q0,1.412,1.688,1.412a1.642,1.642,0,0,0,.979-.255A.829.829,0,0,0,66.482,345.089Z" transform="translate(-16.191 -134.994)"/>
      <path class="cls-13" d="M74.568,343.63H71.193v2.285h3.961v1.412H69.436V338.8h5.707v1.424H71.193v2.033h3.375Z" transform="translate(-16.191 -134.994)"/>
      <path class="cls-13" d="M79.344,344.2h-1.4v3.123H76.186V338.8h3.17a3.583,3.583,0,0,1,2.332.674,2.326,2.326,0,0,1,.82,1.9,2.625,2.625,0,0,1-.378,1.456,2.578,2.578,0,0,1-1.146.929l1.846,3.486v.082H80.943Zm-1.4-1.424h1.418a1.452,1.452,0,0,0,1.025-.337,1.2,1.2,0,0,0,.363-.929,1.289,1.289,0,0,0-.343-.949,1.424,1.424,0,0,0-1.052-.346H77.943Z" transform="translate(-16.191 -134.994)"/>
      <path class="cls-13" d="M91.648,345.57H88.566l-.586,1.758H86.111l3.176-8.531h1.629l3.193,8.531H92.24Zm-2.607-1.424h2.133L90.1,340.953Z" transform="translate(-16.191 -134.994)"/>
      <path class="cls-13" d="M101.533,346.25a3.051,3.051,0,0,1-1.342.882,5.619,5.619,0,0,1-1.922.313,3.807,3.807,0,0,1-1.942-.483,3.224,3.224,0,0,1-1.289-1.4,4.939,4.939,0,0,1-.466-2.162v-.58A5.245,5.245,0,0,1,95,340.6a3.186,3.186,0,0,1,1.242-1.43,4.09,4.09,0,0,1,4.274.229,3.092,3.092,0,0,1,1.014,2.106H99.822a1.7,1.7,0,0,0-.519-1.072,1.656,1.656,0,0,0-1.1-.34,1.559,1.559,0,0,0-1.365.674,3.543,3.543,0,0,0-.475,2v.545a3.373,3.373,0,0,0,.51,2.027,1.746,1.746,0,0,0,1.494.686,1.95,1.95,0,0,0,1.412-.422V344.14h-1.6v-1.295h3.357Z" transform="translate(-16.191 -134.994)"/>
      <path class="cls-13" d="M108.09,343.63h-3.375v2.285h3.961v1.412h-5.719V338.8h5.707v1.424h-3.949v2.033h3.375Z" transform="translate(-16.191 -134.994)"/>
      <path class="cls-13" d="M116.645,347.328h-1.758l-3.422-5.613v5.613h-1.758V338.8h1.758l3.428,5.625V338.8h1.752Z" transform="translate(-16.191 -134.994)"/>
      <path class="cls-13" d="M124.877,344.486a3.019,3.019,0,0,1-1.017,2.168,3.57,3.57,0,0,1-2.417.791,3.21,3.21,0,0,1-2.581-1.1,4.529,4.529,0,0,1-.94-3.032v-.521a5.114,5.114,0,0,1,.434-2.168,3.249,3.249,0,0,1,1.239-1.438,3.873,3.873,0,0,1,4.251.29,3.244,3.244,0,0,1,1.043,2.221h-1.758a1.782,1.782,0,0,0-.46-1.2,1.7,1.7,0,0,0-1.2-.372,1.494,1.494,0,0,0-1.315.63,3.53,3.53,0,0,0-.448,1.954v.645a3.778,3.778,0,0,0,.419,2.021,1.466,1.466,0,0,0,1.321.639,1.735,1.735,0,0,0,1.216-.372,1.681,1.681,0,0,0,.46-1.151Z" transform="translate(-16.191 -134.994)"/>
      <path class="cls-13" d="M128.973,342.64l1.775-3.844h1.922l-2.8,5.438v3.094h-1.787v-3.094l-2.8-5.437h1.928Z" transform="translate(-16.191 -134.994)"/>
    </g>
    <g>
      <path class="cls-13" d="M200.524,716.006h-3.375v2.285h3.961V719.7h-5.719v-8.531H201.1V712.6h-3.949v2.033h3.375Z" transform="translate(-16.191 -134.994)"/>
      <path class="cls-13" d="M205.3,716.58h-1.4V719.7h-1.758v-8.531h3.17a3.583,3.583,0,0,1,2.332.674,2.326,2.326,0,0,1,.82,1.9,2.625,2.625,0,0,1-.378,1.456,2.578,2.578,0,0,1-1.146.929l1.846,3.486v.082H206.9Zm-1.4-1.424h1.418a1.452,1.452,0,0,0,1.025-.337,1.2,1.2,0,0,0,.363-.929,1.289,1.289,0,0,0-.343-.949,1.424,1.424,0,0,0-1.052-.346H203.9Z" transform="translate(-16.191 -134.994)"/>
      <path class="cls-13" d="M216.549,718.625a3.051,3.051,0,0,1-1.342.882,5.619,5.619,0,0,1-1.922.313,3.807,3.807,0,0,1-1.942-.483,3.224,3.224,0,0,1-1.289-1.4,4.939,4.939,0,0,1-.466-2.162v-.58a5.245,5.245,0,0,1,.431-2.212,3.186,3.186,0,0,1,1.242-1.43,4.09,4.09,0,0,1,4.274.229,3.092,3.092,0,0,1,1.014,2.106h-1.711a1.7,1.7,0,0,0-.519-1.072,1.656,1.656,0,0,0-1.1-.34,1.559,1.559,0,0,0-1.365.674,3.543,3.543,0,0,0-.475,2v.545a3.373,3.373,0,0,0,.51,2.027,1.746,1.746,0,0,0,1.494.686,1.95,1.95,0,0,0,1.412-.422v-1.471h-1.6v-1.295h3.357Z" transform="translate(-16.191 -134.994)"/>
      <path class="cls-13" d="M224.981,715.631a5.15,5.15,0,0,1-.445,2.209,3.354,3.354,0,0,1-1.274,1.465,3.766,3.766,0,0,1-3.794.006,3.387,3.387,0,0,1-1.289-1.456,5,5,0,0,1-.463-2.177v-.422a5.123,5.123,0,0,1,.454-2.218,3.381,3.381,0,0,1,1.283-1.471,3.76,3.76,0,0,1,3.791,0,3.381,3.381,0,0,1,1.283,1.471,5.109,5.109,0,0,1,.454,2.212Zm-1.781-.387a3.59,3.59,0,0,0-.48-2.039,1.7,1.7,0,0,0-2.736-.009,3.549,3.549,0,0,0-.486,2.019v.416a3.635,3.635,0,0,0,.48,2.027,1.682,1.682,0,0,0,2.742.026,3.614,3.614,0,0,0,.48-2.024Z" transform="translate(-16.191 -134.994)"/>
      <path class="cls-13" d="M233.2,719.7h-1.758l-3.422-5.613V719.7h-1.758v-8.531h1.758l3.428,5.625v-5.625H233.2Z" transform="translate(-16.191 -134.994)"/>
      <path class="cls-13" d="M241.739,715.631a5.15,5.15,0,0,1-.445,2.209,3.354,3.354,0,0,1-1.274,1.465,3.766,3.766,0,0,1-3.794.006,3.387,3.387,0,0,1-1.289-1.456,5,5,0,0,1-.463-2.177v-.422a5.123,5.123,0,0,1,.454-2.218,3.381,3.381,0,0,1,1.283-1.471,3.76,3.76,0,0,1,3.791,0,3.381,3.381,0,0,1,1.283,1.471,5.109,5.109,0,0,1,.454,2.212Zm-1.781-.387a3.59,3.59,0,0,0-.48-2.039,1.7,1.7,0,0,0-2.736-.009,3.549,3.549,0,0,0-.486,2.019v.416a3.635,3.635,0,0,0,.48,2.027,1.682,1.682,0,0,0,2.742.026,3.614,3.614,0,0,0,.48-2.024Z" transform="translate(-16.191 -134.994)"/>
      <path class="cls-13" d="M245.313,711.172l2.191,6.188,2.18-6.187h2.309V719.7h-1.764v-2.332l.176-4.025-2.3,6.357H246.9l-2.3-6.352.176,4.02V719.7h-1.758v-8.531Z" transform="translate(-16.191 -134.994)"/>
      <path class="cls-13" d="M255.4,719.7h-1.758v-8.531H255.4Z" transform="translate(-16.191 -134.994)"/>
      <path class="cls-13" d="M263.723,716.861a3.019,3.019,0,0,1-1.017,2.168,3.57,3.57,0,0,1-2.417.791,3.21,3.21,0,0,1-2.581-1.1,4.529,4.529,0,0,1-.94-3.032v-.521a5.114,5.114,0,0,1,.434-2.168,3.249,3.249,0,0,1,1.239-1.438,3.873,3.873,0,0,1,4.251.29,3.244,3.244,0,0,1,1.043,2.221h-1.758a1.782,1.782,0,0,0-.46-1.2,1.7,1.7,0,0,0-1.2-.372,1.494,1.494,0,0,0-1.315.63,3.53,3.53,0,0,0-.448,1.954v.645a3.778,3.778,0,0,0,.419,2.021,1.466,1.466,0,0,0,1.321.639,1.735,1.735,0,0,0,1.216-.372,1.681,1.681,0,0,0,.46-1.151Z" transform="translate(-16.191 -134.994)"/>
      <path class="cls-13" d="M269.3,717.465a.9.9,0,0,0-.352-.765,4.611,4.611,0,0,0-1.266-.562,8.972,8.972,0,0,1-1.447-.583,2.365,2.365,0,0,1-1.453-2.115,2.06,2.06,0,0,1,.39-1.233,2.542,2.542,0,0,1,1.119-.847,4.212,4.212,0,0,1,1.638-.3,3.834,3.834,0,0,1,1.629.331,2.594,2.594,0,0,1,1.11.935,2.445,2.445,0,0,1,.4,1.371h-1.758a1.15,1.15,0,0,0-.369-.911,1.517,1.517,0,0,0-1.037-.325,1.621,1.621,0,0,0-1,.272.859.859,0,0,0-.357.718.823.823,0,0,0,.419.7,4.733,4.733,0,0,0,1.233.527,5.329,5.329,0,0,1,2.186,1.119,2.229,2.229,0,0,1,.686,1.664,2.053,2.053,0,0,1-.838,1.737,3.668,3.668,0,0,1-2.256.63,4.356,4.356,0,0,1-1.793-.36,2.837,2.837,0,0,1-1.233-.987,2.528,2.528,0,0,1-.425-1.453h1.764q0,1.412,1.688,1.412a1.642,1.642,0,0,0,.979-.255A.829.829,0,0,0,269.3,717.465Z" transform="translate(-16.191 -134.994)"/>
    </g>
    <g>
      <path class="cls-13" d="M555.75,717.465a.9.9,0,0,0-.352-.765,4.611,4.611,0,0,0-1.266-.562,8.972,8.972,0,0,1-1.447-.583,2.365,2.365,0,0,1-1.453-2.115,2.06,2.06,0,0,1,.39-1.233,2.542,2.542,0,0,1,1.119-.847,4.212,4.212,0,0,1,1.638-.3,3.834,3.834,0,0,1,1.629.331,2.594,2.594,0,0,1,1.11.935,2.445,2.445,0,0,1,.4,1.371h-1.758a1.15,1.15,0,0,0-.369-.911,1.517,1.517,0,0,0-1.037-.325,1.621,1.621,0,0,0-1,.272.859.859,0,0,0-.357.718.823.823,0,0,0,.419.7,4.733,4.733,0,0,0,1.233.527,5.329,5.329,0,0,1,2.186,1.119,2.229,2.229,0,0,1,.686,1.664,2.053,2.053,0,0,1-.838,1.737,3.668,3.668,0,0,1-2.256.63,4.356,4.356,0,0,1-1.793-.36,2.837,2.837,0,0,1-1.233-.987,2.528,2.528,0,0,1-.425-1.453h1.764q0,1.412,1.688,1.412a1.642,1.642,0,0,0,.979-.255A.829.829,0,0,0,555.75,717.465Z" transform="translate(-16.191 -134.994)"/>
      <path class="cls-13" d="M565.711,715.631a5.15,5.15,0,0,1-.445,2.209,3.354,3.354,0,0,1-1.274,1.465,3.766,3.766,0,0,1-3.794.006,3.387,3.387,0,0,1-1.289-1.456,5,5,0,0,1-.463-2.177v-.422a5.123,5.123,0,0,1,.454-2.218,3.381,3.381,0,0,1,1.283-1.471,3.76,3.76,0,0,1,3.791,0,3.381,3.381,0,0,1,1.283,1.471,5.109,5.109,0,0,1,.454,2.212Zm-1.781-.387a3.59,3.59,0,0,0-.48-2.039,1.7,1.7,0,0,0-2.736-.009,3.549,3.549,0,0,0-.486,2.019v.416a3.635,3.635,0,0,0,.48,2.027,1.682,1.682,0,0,0,2.742.026,3.614,3.614,0,0,0,.48-2.024Z" transform="translate(-16.191 -134.994)"/>
      <path class="cls-13" d="M573.686,716.861a3.019,3.019,0,0,1-1.017,2.168,3.57,3.57,0,0,1-2.417.791,3.21,3.21,0,0,1-2.581-1.1,4.529,4.529,0,0,1-.94-3.032v-.521a5.114,5.114,0,0,1,.434-2.168,3.249,3.249,0,0,1,1.239-1.438,3.873,3.873,0,0,1,4.251.29,3.244,3.244,0,0,1,1.043,2.221h-1.758a1.782,1.782,0,0,0-.46-1.2,1.7,1.7,0,0,0-1.2-.372,1.494,1.494,0,0,0-1.315.63,3.53,3.53,0,0,0-.448,1.954v.645a3.778,3.778,0,0,0,.419,2.021,1.466,1.466,0,0,0,1.321.639,1.735,1.735,0,0,0,1.216-.372,1.681,1.681,0,0,0,.46-1.151Z" transform="translate(-16.191 -134.994)"/>
      <path class="cls-13" d="M576.709,719.7h-1.758v-8.531h1.758Z" transform="translate(-16.191 -134.994)"/>
      <path class="cls-13" d="M583.26,717.945h-3.082l-.586,1.758h-1.869l3.176-8.531h1.629l3.193,8.531h-1.869Zm-2.607-1.424h2.133l-1.072-3.193Z" transform="translate(-16.191 -134.994)"/>
      <path class="cls-13" d="M588.275,718.291h3.732V719.7h-5.49v-8.531h1.758Z" transform="translate(-16.191 -134.994)"/>
      <path class="cls-13" d="M600.82,717.945h-3.082l-.586,1.758h-1.869l3.176-8.531h1.629l3.193,8.531h-1.869Zm-2.607-1.424h2.133l-1.072-3.193Z" transform="translate(-16.191 -134.994)"/>
      <path class="cls-13" d="M610.652,716.861a3.019,3.019,0,0,1-1.017,2.168,3.57,3.57,0,0,1-2.417.791,3.21,3.21,0,0,1-2.581-1.1,4.529,4.529,0,0,1-.94-3.032v-.521a5.114,5.114,0,0,1,.434-2.168,3.249,3.249,0,0,1,1.239-1.438,3.873,3.873,0,0,1,4.251.29,3.244,3.244,0,0,1,1.043,2.221h-1.758a1.782,1.782,0,0,0-.46-1.2,1.7,1.7,0,0,0-1.2-.372,1.494,1.494,0,0,0-1.315.63,3.53,3.53,0,0,0-.448,1.954v.645a3.778,3.778,0,0,0,.419,2.021,1.466,1.466,0,0,0,1.321.639,1.735,1.735,0,0,0,1.216-.372,1.681,1.681,0,0,0,.46-1.151Z" transform="translate(-16.191 -134.994)"/>
      <path class="cls-13" d="M618.5,716.861a3.019,3.019,0,0,1-1.017,2.168,3.57,3.57,0,0,1-2.417.791,3.21,3.21,0,0,1-2.581-1.1,4.529,4.529,0,0,1-.94-3.032v-.521a5.114,5.114,0,0,1,.434-2.168,3.249,3.249,0,0,1,1.239-1.438,3.873,3.873,0,0,1,4.251.29,3.244,3.244,0,0,1,1.043,2.221h-1.758a1.782,1.782,0,0,0-.46-1.2,1.7,1.7,0,0,0-1.2-.372,1.494,1.494,0,0,0-1.315.63,3.53,3.53,0,0,0-.448,1.954v.645a3.778,3.778,0,0,0,.419,2.021,1.466,1.466,0,0,0,1.321.639,1.735,1.735,0,0,0,1.216-.372,1.681,1.681,0,0,0,.46-1.151Z" transform="translate(-16.191 -134.994)"/>
      <path class="cls-13" d="M624.791,716.006h-3.375v2.285h3.961V719.7h-5.719v-8.531h5.707V712.6h-3.949v2.033h3.375Z" transform="translate(-16.191 -134.994)"/>
      <path class="cls-13" d="M628.166,716.7V719.7h-1.758v-8.531h3.328a3.85,3.85,0,0,1,1.69.352,2.591,2.591,0,0,1,1.122,1,2.786,2.786,0,0,1,.393,1.474,2.45,2.45,0,0,1-.858,1.978,3.575,3.575,0,0,1-2.376.724Zm0-1.424h1.57a1.544,1.544,0,0,0,1.063-.328,1.193,1.193,0,0,0,.366-.937,1.407,1.407,0,0,0-.369-1.014,1.379,1.379,0,0,0-1.02-.4h-1.611Z" transform="translate(-16.191 -134.994)"/>
      <path class="cls-13" d="M640.57,712.6h-2.613V719.7H636.2V712.6h-2.578v-1.424h6.949Z" transform="translate(-16.191 -134.994)"/>
      <path class="cls-13" d="M645.686,717.945H642.6l-.586,1.758h-1.869l3.176-8.531h1.629l3.193,8.531h-1.869Zm-2.607-1.424h2.133l-1.072-3.193Z" transform="translate(-16.191 -134.994)"/>
      <path class="cls-13" d="M648.943,719.7v-8.531h2.988a3.924,3.924,0,0,1,2.355.595,2.034,2.034,0,0,1,.8,1.743,1.927,1.927,0,0,1-.322,1.1,1.861,1.861,0,0,1-.9.7,1.8,1.8,0,0,1,1.034.662,1.957,1.957,0,0,1,.378,1.219,2.251,2.251,0,0,1-.785,1.863,3.535,3.535,0,0,1-2.238.645Zm1.758-4.957H652q1.33-.023,1.33-1.061a.98.98,0,0,0-.337-.835,1.772,1.772,0,0,0-1.063-.255H650.7Zm0,1.242v2.3h1.506a1.453,1.453,0,0,0,.97-.3,1.015,1.015,0,0,0,.349-.817,1.071,1.071,0,0,0-1.213-1.189Z" transform="translate(-16.191 -134.994)"/>
      <path class="cls-13" d="M658.471,719.7h-1.758v-8.531h1.758Z" transform="translate(-16.191 -134.994)"/>
      <path class="cls-13" d="M661.857,718.291h3.732V719.7H660.1v-8.531h1.758Z" transform="translate(-16.191 -134.994)"/>
      <path class="cls-13" d="M668.467,719.7h-1.758v-8.531h1.758Z" transform="translate(-16.191 -134.994)"/>
      <path class="cls-13" d="M676.348,712.6h-2.613V719.7h-1.758V712.6H669.4v-1.424h6.949Z" transform="translate(-16.191 -134.994)"/>
      <path class="cls-13" d="M680.385,715.016l1.775-3.844h1.922l-2.8,5.438V719.7h-1.787v-3.094l-2.8-5.437h1.928Z" transform="translate(-16.191 -134.994)"/>
    </g>
  </g>
</svg>
