<svg id="Layer_1" data-name="Layer 1" xmlns="http://www.w3.org/2000/svg" xmlns:xlink="http://www.w3.org/1999/xlink" viewBox="0 0 60 60">
  <defs>
    <style>
      .cls-1, .cls-3 {
        fill: none;
      }

      .cls-2 {
        clip-path: url(#clip-path);
      }

      .cls-3, .cls-6 {
        stroke: #313133;
      }

      .cls-3 {
        stroke-miterlimit: 10;
      }

      .cls-4 {
        fill: url(#Crosshatch_Fill);
      }

      .cls-5 {
        fill: #313133;
      }

      .cls-6, .cls-7 {
        fill: #fff;
      }

      .cls-6 {
        stroke-linecap: round;
        stroke-linejoin: round;
      }
    </style>
    <clipPath id="clip-path">
      <polygon class="cls-1" points="44.801 0 44.801 44.801 0 44.801 0 0 44.801 0"/>
    </clipPath>
    <pattern id="Crosshatch_Fill" data-name="Crosshatch Fill" width="44.801" height="44.801" patternTransform="translate(18.558)" patternUnits="userSpaceOnUse" viewBox="0 0 44.801 44.801">
      <rect class="cls-1" width="44.801" height="44.801"/>
      <g class="cls-2">
        <g>
          <line class="cls-3" x1="4.695" y1="81.654" x2="123.306" y2="-36.957"/>
          <line class="cls-3" x1="-1.705" y1="81.654" x2="116.906" y2="-36.957"/>
          <line class="cls-3" x1="-8.105" y1="81.654" x2="110.506" y2="-36.957"/>
          <line class="cls-3" x1="-14.505" y1="81.654" x2="104.106" y2="-36.957"/>
          <line class="cls-3" x1="-20.905" y1="81.654" x2="97.706" y2="-36.957"/>
          <line class="cls-3" x1="-27.305" y1="81.654" x2="91.306" y2="-36.957"/>
          <line class="cls-3" x1="-33.705" y1="81.654" x2="84.906" y2="-36.957"/>
          <line class="cls-3" x1="-40.105" y1="81.654" x2="78.506" y2="-36.957"/>
          <line class="cls-3" x1="-46.505" y1="81.654" x2="72.106" y2="-36.957"/>
          <line class="cls-3" x1="-52.905" y1="81.654" x2="65.706" y2="-36.957"/>
          <line class="cls-3" x1="-59.306" y1="81.654" x2="59.306" y2="-36.957"/>
          <line class="cls-3" x1="-65.706" y1="81.654" x2="52.905" y2="-36.957"/>
          <line class="cls-3" x1="-72.106" y1="81.654" x2="46.505" y2="-36.957"/>
          <line class="cls-3" x1="-78.506" y1="81.654" x2="40.105" y2="-36.957"/>
          <line class="cls-3" x1="-84.906" y1="81.654" x2="33.705" y2="-36.957"/>
          <line class="cls-3" x1="11.095" y1="81.654" x2="129.707" y2="-36.957"/>
          <line class="cls-3" x1="-36.905" y1="4.644" x2="81.706" y2="123.255"/>
          <line class="cls-3" x1="-36.905" y1="-1.756" x2="81.706" y2="116.855"/>
          <line class="cls-3" x1="-36.905" y1="-8.157" x2="81.706" y2="110.455"/>
          <line class="cls-3" x1="-36.905" y1="-14.557" x2="81.706" y2="104.054"/>
          <line class="cls-3" x1="-36.905" y1="-20.957" x2="81.706" y2="97.654"/>
          <line class="cls-3" x1="-36.905" y1="-27.357" x2="81.706" y2="91.254"/>
          <line class="cls-3" x1="-36.905" y1="-33.757" x2="81.706" y2="84.854"/>
          <line class="cls-3" x1="-36.905" y1="-40.157" x2="81.706" y2="78.454"/>
          <line class="cls-3" x1="-36.905" y1="-46.557" x2="81.706" y2="72.054"/>
          <line class="cls-3" x1="-36.905" y1="-52.957" x2="81.706" y2="65.654"/>
          <line class="cls-3" x1="-36.905" y1="-59.357" x2="81.706" y2="59.254"/>
          <line class="cls-3" x1="-36.905" y1="-65.757" x2="81.706" y2="52.854"/>
          <line class="cls-3" x1="-36.905" y1="-72.158" x2="81.706" y2="46.454"/>
          <line class="cls-3" x1="-36.905" y1="-78.558" x2="81.706" y2="40.054"/>
          <line class="cls-3" x1="-36.905" y1="-84.958" x2="81.706" y2="33.653"/>
          <line class="cls-3" x1="-36.905" y1="11.044" x2="81.706" y2="129.655"/>
        </g>
      </g>
    </pattern>
  </defs>
  <title>FYP - YouTube</title>
  <g>
    <g>
      <path class="cls-4" d="M27.129,35.329a.021.021,0,0,1-.021-.021V24.647c1.883,1.232,3.846,2.488,5.743,3.7l2.51,1.631-2.627,1.731c-1.826,1.16-3.715,2.36-5.5,3.554Z"/>
      <path class="cls-5" d="M27.608,25.545c1.666,1.109,3.4,2.217,5.078,3.293l.088.056L34.472,30l-1.913,1.233c-1.64,1.041-3.328,2.114-4.951,3.184V25.545m-.479-1.42a.52.52,0,0,0-.521.522v10.66a.521.521,0,0,0,.521.522.513.513,0,0,0,.279-.084l.1-.064c1.814-1.21,3.69-2.4,5.587-3.606l2.538-1.636a.524.524,0,0,0,0-.878l-2.313-1.506c-2-1.28-3.991-2.552-5.9-3.843l-.008-.005a.517.517,0,0,0-.28-.083Z"/>
    </g>
    <g>
      <path class="cls-4" d="M28.764,59.5a2.011,2.011,0,0,1-.3-.034c-.117-.019-.235-.037-.353-.044a28.133,28.133,0,0,1-9.619-2.275A29.41,29.41,0,0,1,4.22,44.155,28.3,28.3,0,0,1,.842,33.813C.8,33.507.781,33.2.757,32.9A11.571,11.571,0,0,0,.5,31.009V29.073a.99.99,0,0,0,.145-.7,26.469,26.469,0,0,1,.946-5.88A29.4,29.4,0,0,1,15.812,4.172,27.722,27.722,0,0,1,26.283.747l.465-.059A17.882,17.882,0,0,1,28.963.5h2.273c.166,0,.331.015.5.03.114.01.229.02.344.026A26.947,26.947,0,0,1,39,1.814,29.364,29.364,0,0,1,55.812,15.594a28.2,28.2,0,0,1,3.447,10.5l.057.449a17.133,17.133,0,0,1,.185,2.143V31.27a4.059,4.059,0,0,1-.045.6c-.1.645-.178,1.3-.253,1.948a24.212,24.212,0,0,1-.576,3.5A29.191,29.191,0,0,1,43.575,56.238a27.679,27.679,0,0,1-9.612,3c-.228.027-.455.06-.684.092a13.489,13.489,0,0,1-1.847.174ZM27.073,17.734q-2.958.058-5.92.122l-.379.009c-1.008.022-2.05.045-3.084.121a5.342,5.342,0,0,0-1.272.25l-.194.064c-.086.032-.156.059-.223.088a4.53,4.53,0,0,0-2.292,2.875,10.683,10.683,0,0,0-.468,1.485c-.041.167-.076.333-.108.5l-.054.286a28.37,28.37,0,0,0-.32,3.774c-.062,1.613-.013,3.236.034,4.806.018.6.036,1.2.048,1.8a15.108,15.108,0,0,0,1.011,5.19,4,4,0,0,0,3.466,2.841c1.084.105,2.268.185,3.724.249,1.351.06,2.791.117,4.227.117h.21c1.919,0,3.839-.033,5.758-.061l3.243-.042,1.156.007c.214,0,.428,0,.643-.008q2.285-.051,4.576-.136l.267-.009a9.422,9.422,0,0,0,1.606-.139,4.941,4.941,0,0,0,1.795-.643,5.461,5.461,0,0,0,2.024-3.255,24.276,24.276,0,0,0,.724-6.61c0-.951-.029-1.9-.054-2.853-.019-.723-.037-1.447-.047-2.17a17.473,17.473,0,0,0-.278-2.929,13.569,13.569,0,0,0-.825-2.808.484.484,0,0,0-.059-.123,4.6,4.6,0,0,0-.869-1.4,3.656,3.656,0,0,0-.467-.435l-.091-.069a1.28,1.28,0,0,0-.316-.159.283.283,0,0,1-.163-.1.5.5,0,0,0-.389-.186c-.016,0-.092-.021-.107-.024a3.21,3.21,0,0,0-.4-.076,26.884,26.884,0,0,0-2.942-.24c-1.476-.062-3.06-.1-4.709-.118-.642-.007-1.271-.009-1.9-.009l-3.742.009a.422.422,0,0,0-.2-.054Z"/>
      <path class="cls-5" d="M31.236,1c.152,0,.3.015.454.028.119.011.238.021.355.028a26.47,26.47,0,0,1,6.8,1.233A28.882,28.882,0,0,1,55.377,15.841a27.692,27.692,0,0,1,3.386,10.317l.058.458A16.511,16.511,0,0,1,59,28.689V31.27a3.545,3.545,0,0,1-.038.521c-.1.663-.182,1.33-.256,1.976a23.888,23.888,0,0,1-.562,3.431,28.706,28.706,0,0,1-14.8,18.6A27.167,27.167,0,0,1,33.9,58.738c-.229.028-.458.06-.687.092a13.04,13.04,0,0,1-1.783.17H28.764a1.45,1.45,0,0,1-.225-.028c-.132-.021-.264-.041-.4-.049a27.63,27.63,0,0,1-9.449-2.234A28.926,28.926,0,0,1,4.657,43.913,27.8,27.8,0,0,1,1.338,33.75c-.037-.3-.06-.593-.083-.89A12.282,12.282,0,0,0,1,30.949V29.212a1.515,1.515,0,0,0,.138-.9,26.414,26.414,0,0,1,.935-5.686A28.913,28.913,0,0,1,16.06,4.606,27.229,27.229,0,0,1,26.343,1.243l.469-.059A17.245,17.245,0,0,1,28.963,1h2.273M25.288,42.818h.191c1.937-.005,3.9-.034,5.8-.062q1.444-.021,2.888-.04l.309,0,.573,0,.59,0c.216,0,.432,0,.644-.007,1.577-.035,3.12-.081,4.584-.136l.268-.008a9.929,9.929,0,0,0,1.688-.149A5.383,5.383,0,0,0,44.8,41.7a5.923,5.923,0,0,0,2.229-3.538,24.726,24.726,0,0,0,.741-6.745c0-.964-.029-1.928-.054-2.892-.018-.712-.037-1.424-.047-2.136a17.819,17.819,0,0,0-.286-3.011,14.263,14.263,0,0,0-.854-2.909l-.017-.043h0A5.488,5.488,0,0,0,45.5,18.8a3.965,3.965,0,0,0-.494-.463c-.044-.036-.087-.068-.142-.108a1.78,1.78,0,0,0-.418-.213,1.006,1.006,0,0,0-.682-.321l-.076-.02a3.456,3.456,0,0,0-.415-.077l-.091-.013a26.939,26.939,0,0,0-2.9-.231c-1.477-.062-3.066-.1-4.724-.118-.648-.007-1.282-.009-1.918-.009s-1.283,0-1.939,0l-.474,0H30.043a1,1,0,0,0-.325-.054H29.7l-2.441.048q-3.055.06-6.116.126l-.356.008c-1.022.022-2.078.046-3.134.122a5.848,5.848,0,0,0-1.385.272l-.241.081c-.077.029-.153.058-.207.082a5,5,0,0,0-2.574,3.154,11.213,11.213,0,0,0-.49,1.553c-.043.176-.079.35-.112.52-.02.1-.04.2-.056.3a28.82,28.82,0,0,0-.328,3.856c-.061,1.619-.013,3.253.035,4.833.018.6.036,1.2.048,1.795a15.594,15.594,0,0,0,1.044,5.36,4.494,4.494,0,0,0,3.884,3.159c1.091.106,2.283.186,3.751.251,1.293.057,2.8.118,4.27.118M31.236,0H28.963a22.838,22.838,0,0,0-2.741.251A28.106,28.106,0,0,0,15.564,3.737,29.765,29.765,0,0,0,1.109,22.359a27.3,27.3,0,0,0-.97,5.9c-.01.212.1.417-.139.627V31.07a21.527,21.527,0,0,1,.346,2.8A28.687,28.687,0,0,0,3.782,44.4,29.81,29.81,0,0,0,18.29,57.6a28.511,28.511,0,0,0,9.79,2.316c.228.014.458.08.684.08h2.669a21.435,21.435,0,0,0,2.592-.27A28.044,28.044,0,0,0,43.81,56.68a29.578,29.578,0,0,0,15.3-19.224,53.647,53.647,0,0,0,.84-5.508A4.587,4.587,0,0,0,60,31.27V28.689a21.97,21.97,0,0,0-.245-2.653,28.558,28.558,0,0,0-3.509-10.689A29.732,29.732,0,0,0,39.158,1.34,27.571,27.571,0,0,0,32.1.058C31.812.041,31.526,0,31.236,0ZM25.288,41.818c-1.409,0-2.819-.055-4.226-.117-1.236-.055-2.47-.128-3.7-.247a3.543,3.543,0,0,1-3.048-2.524,14.557,14.557,0,0,1-.977-5.019c-.044-2.188-.166-4.384-.083-6.57a27.947,27.947,0,0,1,.314-3.721c.016-.091.034-.185.052-.276.031-.161.065-.32.1-.481a10.157,10.157,0,0,1,.446-1.415,4.066,4.066,0,0,1,2.027-2.6c.06-.026.122-.049.184-.073l.189-.062a4.893,4.893,0,0,1,1.153-.226c1.148-.083,2.288-.1,3.439-.127,2.858-.065,5.7-.117,8.555-.174v.055l1.513,0c.823,0,1.618-.007,2.413-.007.632,0,1.263,0,1.907.009,1.56.016,3.136.052,4.693.117a26.306,26.306,0,0,1,2.791.221,3.717,3.717,0,0,1,.4.068l.062.016a.7.7,0,0,0,.215.036h0c.21.26.4.226.575.351.029.021.057.042.086.065a3.186,3.186,0,0,1,.4.375,4.509,4.509,0,0,1,.819,1.332l0,.01a13.163,13.163,0,0,1,.806,2.735,16.731,16.731,0,0,1,.27,2.844c.023,1.673.093,3.346.1,5.019a23.561,23.561,0,0,1-.7,6.474,4.93,4.93,0,0,1-1.822,2.974,4.511,4.511,0,0,1-1.614.567,11.131,11.131,0,0,1-1.793.138q-2.286.086-4.571.135c-.207.005-.414.007-.621.007-.388,0-.776-.006-1.163-.006l-.32,0c-2.895.034-5.789.094-8.684.1Z"/>
    </g>
  </g>
  <path class="cls-6" d="M42.976,18"/>
  <path class="cls-7" d="M42.365,21.157a1.035,1.035,0,0,1,.1.024A.671.671,0,0,0,42.365,21.157Z"/>
  <path class="cls-7" d="M28.134,25.433v.018C28.125,25.446,28.134,25.44,28.134,25.433Z"/>
  <path class="cls-7" d="M28.134,36.126v.018C28.134,36.137,28.125,36.13,28.134,36.126Z"/>
</svg>
