<svg id="Layer_1" data-name="Layer 1" xmlns="http://www.w3.org/2000/svg" xmlns:xlink="http://www.w3.org/1999/xlink" viewBox="0 0 60 59.258">
  <defs>
    <style>
      .cls-1, .cls-3 {
        fill: none;
      }

      .cls-2 {
        clip-path: url(#clip-path);
      }

      .cls-3, .cls-4 {
        stroke: #313133;
      }

      .cls-3 {
        stroke-miterlimit: 10;
      }

      .cls-4 {
        fill: #fff;
        stroke-linecap: round;
        stroke-linejoin: round;
      }

      .cls-5 {
        fill: url(#Crosshatch_Fill);
      }

      .cls-6 {
        fill: #313133;
      }
    </style>
    <clipPath id="clip-path">
      <polygon class="cls-1" points="44.801 0 44.801 44.801 0 44.801 0 0 44.801 0"/>
    </clipPath>
    <pattern id="Crosshatch_Fill" data-name="Crosshatch Fill" width="44.801" height="44.801" patternUnits="userSpaceOnUse" viewBox="0 0 44.801 44.801">
      <rect class="cls-1" width="44.801" height="44.801"/>
      <g class="cls-2">
        <g>
          <line class="cls-3" x1="4.695" y1="81.654" x2="123.306" y2="-36.957"/>
          <line class="cls-3" x1="-1.705" y1="81.654" x2="116.906" y2="-36.957"/>
          <line class="cls-3" x1="-8.105" y1="81.654" x2="110.506" y2="-36.957"/>
          <line class="cls-3" x1="-14.505" y1="81.654" x2="104.106" y2="-36.957"/>
          <line class="cls-3" x1="-20.905" y1="81.654" x2="97.706" y2="-36.957"/>
          <line class="cls-3" x1="-27.305" y1="81.654" x2="91.306" y2="-36.957"/>
          <line class="cls-3" x1="-33.705" y1="81.654" x2="84.906" y2="-36.957"/>
          <line class="cls-3" x1="-40.105" y1="81.654" x2="78.506" y2="-36.957"/>
          <line class="cls-3" x1="-46.505" y1="81.654" x2="72.106" y2="-36.957"/>
          <line class="cls-3" x1="-52.905" y1="81.654" x2="65.706" y2="-36.957"/>
          <line class="cls-3" x1="-59.306" y1="81.654" x2="59.306" y2="-36.957"/>
          <line class="cls-3" x1="-65.706" y1="81.654" x2="52.905" y2="-36.957"/>
          <line class="cls-3" x1="-72.106" y1="81.654" x2="46.505" y2="-36.957"/>
          <line class="cls-3" x1="-78.506" y1="81.654" x2="40.105" y2="-36.957"/>
          <line class="cls-3" x1="-84.906" y1="81.654" x2="33.705" y2="-36.957"/>
          <line class="cls-3" x1="11.095" y1="81.654" x2="129.707" y2="-36.957"/>
          <line class="cls-3" x1="-36.905" y1="4.644" x2="81.706" y2="123.255"/>
          <line class="cls-3" x1="-36.905" y1="-1.756" x2="81.706" y2="116.855"/>
          <line class="cls-3" x1="-36.905" y1="-8.157" x2="81.706" y2="110.455"/>
          <line class="cls-3" x1="-36.905" y1="-14.557" x2="81.706" y2="104.054"/>
          <line class="cls-3" x1="-36.905" y1="-20.957" x2="81.706" y2="97.654"/>
          <line class="cls-3" x1="-36.905" y1="-27.357" x2="81.706" y2="91.254"/>
          <line class="cls-3" x1="-36.905" y1="-33.757" x2="81.706" y2="84.854"/>
          <line class="cls-3" x1="-36.905" y1="-40.157" x2="81.706" y2="78.454"/>
          <line class="cls-3" x1="-36.905" y1="-46.557" x2="81.706" y2="72.054"/>
          <line class="cls-3" x1="-36.905" y1="-52.957" x2="81.706" y2="65.654"/>
          <line class="cls-3" x1="-36.905" y1="-59.357" x2="81.706" y2="59.254"/>
          <line class="cls-3" x1="-36.905" y1="-65.757" x2="81.706" y2="52.854"/>
          <line class="cls-3" x1="-36.905" y1="-72.158" x2="81.706" y2="46.454"/>
          <line class="cls-3" x1="-36.905" y1="-78.558" x2="81.706" y2="40.054"/>
          <line class="cls-3" x1="-36.905" y1="-84.958" x2="81.706" y2="33.653"/>
          <line class="cls-3" x1="-36.905" y1="11.044" x2="81.706" y2="129.655"/>
        </g>
      </g>
    </pattern>
  </defs>
  <title>FYP - Github Repo</title>
  <path class="cls-4" d="M42.976,18" transform="translate(0 0)"/>
  <g>
    <path class="cls-5" d="M22.88,58.627a29.482,29.482,0,1,1,15.1-.218v-4.49c0-2.189,0-3.576-.008-4.959A7.913,7.913,0,0,0,36.579,44.1l.028,0c.642-.1,1.261-.2,1.87-.342,3.816-.863,6.412-2.437,8.169-4.95a13.305,13.305,0,0,0,2.124-5.866,13.855,13.855,0,0,0-.387-7.008A18.382,18.382,0,0,0,46.6,22.662l-.185-.29c-.213-.336-.242-.474-.158-.735a9.815,9.815,0,0,0-.439-6.953,1.417,1.417,0,0,0-1.219-.67c-.022,0-.116.006-.14.009a8.881,8.881,0,0,0-2.438.569c-.883.393-1.748.845-2.585,1.283-.559.292-1.117.584-1.684.861a1.368,1.368,0,0,1-.558.143.52.52,0,0,1-.115-.012,28.018,28.018,0,0,0-6.678-.823,27.739,27.739,0,0,0-6.656.823.468.468,0,0,1-.113.012,1.153,1.153,0,0,1-.557-.161,20.925,20.925,0,0,0-5.7-2.562,1.7,1.7,0,0,0-.221-.064,5.081,5.081,0,0,0-.961-.122c-1.1,0-1.35.864-1.591,1.7a10.046,10.046,0,0,0,.018,6.263.487.487,0,0,1-.06.176A11.662,11.662,0,0,0,11.847,30.6a18.822,18.822,0,0,0,1.229,6.13c1.27,3.23,3.784,5.394,7.684,6.614a27.065,27.065,0,0,0,2.891.673l.545.106a1.665,1.665,0,0,0-.093.176c-.23.519-.439,1.046-.648,1.572-.13.33-.261.659-.4.986a3.349,3.349,0,0,1-.134.309,8.214,8.214,0,0,1-2.885.585,4.184,4.184,0,0,1-3.144-1.231,11.373,11.373,0,0,1-1.239-1.608A6.612,6.612,0,0,0,11.322,41.8a4.416,4.416,0,0,0-.826-.1,1.309,1.309,0,0,0-1.284.7c-.323.652.684,1.642,1.034,1.853a7.869,7.869,0,0,1,3.1,4.083A5.852,5.852,0,0,0,18.3,52.047a17.459,17.459,0,0,0,2.489.2,11.572,11.572,0,0,0,2.089-.181l0,.821C22.884,54.034,22.893,55.613,22.88,58.627Z" transform="translate(0 0)"/>
    <path class="cls-6" d="M30,1a29,29,0,0,1,8.477,56.742c0-1.49,0-2.714,0-3.756,0-2.229,0-3.631-.008-5.03a8.848,8.848,0,0,0-1.048-4.486c.391-.067.776-.139,1.166-.227,3.945-.893,6.636-2.53,8.467-5.151a13.779,13.779,0,0,0,2.209-6.081,14.3,14.3,0,0,0-.414-7.258A18.8,18.8,0,0,0,47.027,22.4L46.84,22.1a1.088,1.088,0,0,1-.125-.23.344.344,0,0,1,.02-.084,10.426,10.426,0,0,0-.453-7.3,1.884,1.884,0,0,0-1.681-.981,1.677,1.677,0,0,0-.239.018,9.267,9.267,0,0,0-2.543.6c-.9.4-1.771.857-2.615,1.3-.554.29-1.107.579-1.668.853a.963.963,0,0,1-.335.095,27.957,27.957,0,0,0-13.566,0,.664.664,0,0,1-.29-.083A21.488,21.488,0,0,0,17.5,13.667a1.849,1.849,0,0,0-.241-.067,5.506,5.506,0,0,0-1.057-.131c-1.477,0-1.835,1.24-2.071,2.06a10.586,10.586,0,0,0-.04,6.37,12.157,12.157,0,0,0-2.739,8.724,19.326,19.326,0,0,0,1.263,6.291c1.33,3.38,3.947,5.639,8,6.907a26.438,26.438,0,0,0,2.864.671c-.17.4-.329.8-.484,1.194-.13.327-.26.655-.395.98l-.035.087-.008.019a7.574,7.574,0,0,1-2.514.48,3.7,3.7,0,0,1-2.784-1.079,10.831,10.831,0,0,1-1.181-1.537,7.083,7.083,0,0,0-4.655-3.327A4.826,4.826,0,0,0,10.5,41.2a1.8,1.8,0,0,0-1.732.983c-.513,1.035.806,2.251,1.224,2.5a7.228,7.228,0,0,1,2.892,3.841,6.32,6.32,0,0,0,5.345,4.015,17.991,17.991,0,0,0,2.56.2,12.5,12.5,0,0,0,1.591-.1v.24c.006,1.065.013,2.5,0,5.1A29,29,0,0,1,30,1m0-1a30,30,0,0,0-6.622,59.258c.022-4.813,0-6.254,0-7.707-.138,0-.249-.009-.348-.009a.857.857,0,0,0-.162.013,11.055,11.055,0,0,1-2.077.187,17.046,17.046,0,0,1-2.418-.19,5.331,5.331,0,0,1-4.56-3.4,8.3,8.3,0,0,0-3.3-4.324c-.4-.243-.952-.982-.844-1.2A.844.844,0,0,1,10.5,42.2a3.952,3.952,0,0,1,.731.09,6.143,6.143,0,0,1,4.011,2.9,11.727,11.727,0,0,0,1.3,1.679,4.7,4.7,0,0,0,3.5,1.385,8.723,8.723,0,0,0,3.134-.645c.164-.065.262-.353.346-.556.352-.847.668-1.709,1.041-2.546a3.509,3.509,0,0,1,.549-.7c-1.443-.314-2.856-.514-4.2-.935-3.34-1.045-6.026-2.907-7.368-6.319a18.379,18.379,0,0,1-1.194-5.97,11.218,11.218,0,0,1,2.6-8.146.812.812,0,0,0,.151-.665,9.577,9.577,0,0,1-.01-5.96c.288-1,.476-1.337,1.111-1.337a4.8,4.8,0,0,1,.866.113c.063.012.123.039.185.056a20.543,20.543,0,0,1,5.563,2.5,1.649,1.649,0,0,0,.822.237.976.976,0,0,0,.233-.026,26.935,26.935,0,0,1,13.094,0,.989.989,0,0,0,.235.026,1.868,1.868,0,0,0,.777-.194c1.426-.7,2.8-1.492,4.252-2.137a8.513,8.513,0,0,1,2.3-.53.528.528,0,0,1,.071,0,.964.964,0,0,1,.756.36,9.4,9.4,0,0,1,.427,6.61A1.207,1.207,0,0,0,46,22.64a19.955,19.955,0,0,1,1.922,3.468,13.391,13.391,0,0,1,.358,6.761,12.832,12.832,0,0,1-2.039,5.65c-1.912,2.737-4.724,4.037-7.868,4.749-.883.2-1.784.319-2.752.488a6.95,6.95,0,0,1,1.854,5.209c.018,2.234,0,4.476.007,10.1A30,30,0,0,0,30,0Z" transform="translate(0 0)"/>
  </g>
</svg>
