<svg id="Layer_1" data-name="Layer 1" xmlns="http://www.w3.org/2000/svg" xmlns:xlink="http://www.w3.org/1999/xlink" viewBox="0 0 539.083 339.846">
  <defs>
    <style>
      .cls-1, .cls-3, .cls-9 {
        fill: none;
      }

      .cls-2 {
        clip-path: url(#clip-path);
      }

      .cls-3, .cls-4, .cls-5, .cls-6, .cls-7, .cls-9 {
        stroke: #313133;
      }

      .cls-3 {
        stroke-miterlimit: 10;
      }

      .cls-4, .cls-5, .cls-6, .cls-7, .cls-9 {
        stroke-linecap: round;
        stroke-linejoin: round;
      }

      .cls-4 {
        fill: url(#New_Pattern_2);
      }

      .cls-5 {
        fill: url(#New_Pattern);
      }

      .cls-6 {
        fill: url(#New_Pattern-3);
      }

      .cls-7 {
        fill: url(#New_Pattern-15);
      }

      .cls-8 {
        fill: #313133;
      }
    </style>
    <clipPath id="clip-path">
      <polygon class="cls-1" points="44.801 0 44.801 44.801 0 44.801 0 0 44.801 0"/>
    </clipPath>
    <pattern id="New_Pattern_2" data-name="New Pattern 2" width="44.801" height="44.801" patternTransform="translate(23.404 -283.9)" patternUnits="userSpaceOnUse" viewBox="0 0 44.801 44.801">
      <rect class="cls-1" width="44.801" height="44.801"/>
      <g class="cls-2">
        <g>
          <line class="cls-3" x1="-36.905" y1="4.644" x2="81.706" y2="123.255"/>
          <line class="cls-3" x1="-36.905" y1="-1.756" x2="81.706" y2="116.855"/>
          <line class="cls-3" x1="-36.905" y1="-8.157" x2="81.706" y2="110.455"/>
          <line class="cls-3" x1="-36.905" y1="-14.557" x2="81.706" y2="104.054"/>
          <line class="cls-3" x1="-36.905" y1="-20.957" x2="81.706" y2="97.654"/>
          <line class="cls-3" x1="-36.905" y1="-27.357" x2="81.706" y2="91.254"/>
          <line class="cls-3" x1="-36.905" y1="-33.757" x2="81.706" y2="84.854"/>
          <line class="cls-3" x1="-36.905" y1="-40.157" x2="81.706" y2="78.454"/>
          <line class="cls-3" x1="-36.905" y1="-46.557" x2="81.706" y2="72.054"/>
          <line class="cls-3" x1="-36.905" y1="-52.957" x2="81.706" y2="65.654"/>
          <line class="cls-3" x1="-36.905" y1="-59.357" x2="81.706" y2="59.254"/>
          <line class="cls-3" x1="-36.905" y1="-65.757" x2="81.706" y2="52.854"/>
          <line class="cls-3" x1="-36.905" y1="-72.158" x2="81.706" y2="46.454"/>
          <line class="cls-3" x1="-36.905" y1="-78.558" x2="81.706" y2="40.054"/>
          <line class="cls-3" x1="-36.905" y1="-84.958" x2="81.706" y2="33.653"/>
          <line class="cls-3" x1="-36.905" y1="11.044" x2="81.706" y2="129.655"/>
        </g>
      </g>
    </pattern>
    <pattern id="New_Pattern" data-name="New Pattern" width="44.801" height="44.801" patternTransform="translate(-0.363 -260.457)" patternUnits="userSpaceOnUse" viewBox="0 0 44.801 44.801">
      <rect class="cls-1" width="44.801" height="44.801"/>
      <g class="cls-2">
        <g>
          <line class="cls-3" x1="4.695" y1="81.654" x2="123.306" y2="-36.957"/>
          <line class="cls-3" x1="-1.705" y1="81.654" x2="116.906" y2="-36.957"/>
          <line class="cls-3" x1="-8.105" y1="81.654" x2="110.506" y2="-36.957"/>
          <line class="cls-3" x1="-14.505" y1="81.654" x2="104.106" y2="-36.957"/>
          <line class="cls-3" x1="-20.905" y1="81.654" x2="97.706" y2="-36.957"/>
          <line class="cls-3" x1="-27.305" y1="81.654" x2="91.306" y2="-36.957"/>
          <line class="cls-3" x1="-33.705" y1="81.654" x2="84.906" y2="-36.957"/>
          <line class="cls-3" x1="-40.105" y1="81.654" x2="78.506" y2="-36.957"/>
          <line class="cls-3" x1="-46.505" y1="81.654" x2="72.106" y2="-36.957"/>
          <line class="cls-3" x1="-52.905" y1="81.654" x2="65.706" y2="-36.957"/>
          <line class="cls-3" x1="-59.306" y1="81.654" x2="59.306" y2="-36.957"/>
          <line class="cls-3" x1="-65.706" y1="81.654" x2="52.905" y2="-36.957"/>
          <line class="cls-3" x1="-72.106" y1="81.654" x2="46.505" y2="-36.957"/>
          <line class="cls-3" x1="-78.506" y1="81.654" x2="40.105" y2="-36.957"/>
          <line class="cls-3" x1="-84.906" y1="81.654" x2="33.705" y2="-36.957"/>
          <line class="cls-3" x1="11.095" y1="81.654" x2="129.707" y2="-36.957"/>
          <line class="cls-3" x1="-36.905" y1="4.644" x2="81.706" y2="123.255"/>
          <line class="cls-3" x1="-36.905" y1="-1.756" x2="81.706" y2="116.855"/>
          <line class="cls-3" x1="-36.905" y1="-8.157" x2="81.706" y2="110.455"/>
          <line class="cls-3" x1="-36.905" y1="-14.557" x2="81.706" y2="104.054"/>
          <line class="cls-3" x1="-36.905" y1="-20.957" x2="81.706" y2="97.654"/>
          <line class="cls-3" x1="-36.905" y1="-27.357" x2="81.706" y2="91.254"/>
          <line class="cls-3" x1="-36.905" y1="-33.757" x2="81.706" y2="84.854"/>
          <line class="cls-3" x1="-36.905" y1="-40.157" x2="81.706" y2="78.454"/>
          <line class="cls-3" x1="-36.905" y1="-46.557" x2="81.706" y2="72.054"/>
          <line class="cls-3" x1="-36.905" y1="-52.957" x2="81.706" y2="65.654"/>
          <line class="cls-3" x1="-36.905" y1="-59.357" x2="81.706" y2="59.254"/>
          <line class="cls-3" x1="-36.905" y1="-65.757" x2="81.706" y2="52.854"/>
          <line class="cls-3" x1="-36.905" y1="-72.158" x2="81.706" y2="46.454"/>
          <line class="cls-3" x1="-36.905" y1="-78.558" x2="81.706" y2="40.054"/>
          <line class="cls-3" x1="-36.905" y1="-84.958" x2="81.706" y2="33.653"/>
          <line class="cls-3" x1="-36.905" y1="11.044" x2="81.706" y2="129.655"/>
        </g>
      </g>
    </pattern>
    <pattern id="New_Pattern-3" data-name="New Pattern" width="44.801" height="44.801" patternTransform="translate(-43.339 -226.057)" patternUnits="userSpaceOnUse" viewBox="0 0 44.801 44.801">
      <rect class="cls-1" width="44.801" height="44.801"/>
      <g class="cls-2">
        <g>
          <line class="cls-3" x1="4.695" y1="81.654" x2="123.306" y2="-36.957"/>
          <line class="cls-3" x1="-1.705" y1="81.654" x2="116.906" y2="-36.957"/>
          <line class="cls-3" x1="-8.105" y1="81.654" x2="110.506" y2="-36.957"/>
          <line class="cls-3" x1="-14.505" y1="81.654" x2="104.106" y2="-36.957"/>
          <line class="cls-3" x1="-20.905" y1="81.654" x2="97.706" y2="-36.957"/>
          <line class="cls-3" x1="-27.305" y1="81.654" x2="91.306" y2="-36.957"/>
          <line class="cls-3" x1="-33.705" y1="81.654" x2="84.906" y2="-36.957"/>
          <line class="cls-3" x1="-40.105" y1="81.654" x2="78.506" y2="-36.957"/>
          <line class="cls-3" x1="-46.505" y1="81.654" x2="72.106" y2="-36.957"/>
          <line class="cls-3" x1="-52.905" y1="81.654" x2="65.706" y2="-36.957"/>
          <line class="cls-3" x1="-59.306" y1="81.654" x2="59.306" y2="-36.957"/>
          <line class="cls-3" x1="-65.706" y1="81.654" x2="52.905" y2="-36.957"/>
          <line class="cls-3" x1="-72.106" y1="81.654" x2="46.505" y2="-36.957"/>
          <line class="cls-3" x1="-78.506" y1="81.654" x2="40.105" y2="-36.957"/>
          <line class="cls-3" x1="-84.906" y1="81.654" x2="33.705" y2="-36.957"/>
          <line class="cls-3" x1="11.095" y1="81.654" x2="129.707" y2="-36.957"/>
          <line class="cls-3" x1="-36.905" y1="4.644" x2="81.706" y2="123.255"/>
          <line class="cls-3" x1="-36.905" y1="-1.756" x2="81.706" y2="116.855"/>
          <line class="cls-3" x1="-36.905" y1="-8.157" x2="81.706" y2="110.455"/>
          <line class="cls-3" x1="-36.905" y1="-14.557" x2="81.706" y2="104.054"/>
          <line class="cls-3" x1="-36.905" y1="-20.957" x2="81.706" y2="97.654"/>
          <line class="cls-3" x1="-36.905" y1="-27.357" x2="81.706" y2="91.254"/>
          <line class="cls-3" x1="-36.905" y1="-33.757" x2="81.706" y2="84.854"/>
          <line class="cls-3" x1="-36.905" y1="-40.157" x2="81.706" y2="78.454"/>
          <line class="cls-3" x1="-36.905" y1="-46.557" x2="81.706" y2="72.054"/>
          <line class="cls-3" x1="-36.905" y1="-52.957" x2="81.706" y2="65.654"/>
          <line class="cls-3" x1="-36.905" y1="-59.357" x2="81.706" y2="59.254"/>
          <line class="cls-3" x1="-36.905" y1="-65.757" x2="81.706" y2="52.854"/>
          <line class="cls-3" x1="-36.905" y1="-72.158" x2="81.706" y2="46.454"/>
          <line class="cls-3" x1="-36.905" y1="-78.558" x2="81.706" y2="40.054"/>
          <line class="cls-3" x1="-36.905" y1="-84.958" x2="81.706" y2="33.653"/>
          <line class="cls-3" x1="-36.905" y1="11.044" x2="81.706" y2="129.655"/>
        </g>
      </g>
    </pattern>
    <pattern id="New_Pattern-15" data-name="New Pattern" width="44.801" height="44.801" patternTransform="translate(-43.339 -192.069)" patternUnits="userSpaceOnUse" viewBox="0 0 44.801 44.801">
      <rect class="cls-1" width="44.801" height="44.801"/>
      <g class="cls-2">
        <g>
          <line class="cls-3" x1="4.695" y1="81.654" x2="123.306" y2="-36.957"/>
          <line class="cls-3" x1="-1.705" y1="81.654" x2="116.906" y2="-36.957"/>
          <line class="cls-3" x1="-8.105" y1="81.654" x2="110.506" y2="-36.957"/>
          <line class="cls-3" x1="-14.505" y1="81.654" x2="104.106" y2="-36.957"/>
          <line class="cls-3" x1="-20.905" y1="81.654" x2="97.706" y2="-36.957"/>
          <line class="cls-3" x1="-27.305" y1="81.654" x2="91.306" y2="-36.957"/>
          <line class="cls-3" x1="-33.705" y1="81.654" x2="84.906" y2="-36.957"/>
          <line class="cls-3" x1="-40.105" y1="81.654" x2="78.506" y2="-36.957"/>
          <line class="cls-3" x1="-46.505" y1="81.654" x2="72.106" y2="-36.957"/>
          <line class="cls-3" x1="-52.905" y1="81.654" x2="65.706" y2="-36.957"/>
          <line class="cls-3" x1="-59.306" y1="81.654" x2="59.306" y2="-36.957"/>
          <line class="cls-3" x1="-65.706" y1="81.654" x2="52.905" y2="-36.957"/>
          <line class="cls-3" x1="-72.106" y1="81.654" x2="46.505" y2="-36.957"/>
          <line class="cls-3" x1="-78.506" y1="81.654" x2="40.105" y2="-36.957"/>
          <line class="cls-3" x1="-84.906" y1="81.654" x2="33.705" y2="-36.957"/>
          <line class="cls-3" x1="11.095" y1="81.654" x2="129.707" y2="-36.957"/>
          <line class="cls-3" x1="-36.905" y1="4.644" x2="81.706" y2="123.255"/>
          <line class="cls-3" x1="-36.905" y1="-1.756" x2="81.706" y2="116.855"/>
          <line class="cls-3" x1="-36.905" y1="-8.157" x2="81.706" y2="110.455"/>
          <line class="cls-3" x1="-36.905" y1="-14.557" x2="81.706" y2="104.054"/>
          <line class="cls-3" x1="-36.905" y1="-20.957" x2="81.706" y2="97.654"/>
          <line class="cls-3" x1="-36.905" y1="-27.357" x2="81.706" y2="91.254"/>
          <line class="cls-3" x1="-36.905" y1="-33.757" x2="81.706" y2="84.854"/>
          <line class="cls-3" x1="-36.905" y1="-40.157" x2="81.706" y2="78.454"/>
          <line class="cls-3" x1="-36.905" y1="-46.557" x2="81.706" y2="72.054"/>
          <line class="cls-3" x1="-36.905" y1="-52.957" x2="81.706" y2="65.654"/>
          <line class="cls-3" x1="-36.905" y1="-59.357" x2="81.706" y2="59.254"/>
          <line class="cls-3" x1="-36.905" y1="-65.757" x2="81.706" y2="52.854"/>
          <line class="cls-3" x1="-36.905" y1="-72.158" x2="81.706" y2="46.454"/>
          <line class="cls-3" x1="-36.905" y1="-78.558" x2="81.706" y2="40.054"/>
          <line class="cls-3" x1="-36.905" y1="-84.958" x2="81.706" y2="33.653"/>
          <line class="cls-3" x1="-36.905" y1="11.044" x2="81.706" y2="129.655"/>
        </g>
      </g>
    </pattern>
  </defs>
  <title>Initial Filtration</title>
  <rect class="cls-4" x="297.873" y="16.564" width="36" height="305.521" rx="18" ry="18"/>
  <circle class="cls-5" cx="11.326" cy="169.923" r="10.826"/>
  <circle class="cls-6" cx="121.281" cy="50.098" r="7.087"/>
  <circle class="cls-6" cx="121.281" cy="83.901" r="7.087"/>
  <circle class="cls-6" cx="121.281" cy="117.705" r="7.087"/>
  <circle class="cls-6" cx="121.281" cy="151.508" r="7.087"/>
  <circle class="cls-6" cx="121.281" cy="185.311" r="7.087"/>
  <circle class="cls-6" cx="121.281" cy="219.114" r="7.087"/>
  <circle class="cls-7" cx="121.281" cy="286.906" r="7.087"/>
  <circle class="cls-7" cx="121.281" cy="252.504" r="7.087"/>
  <g>
    <path class="cls-8" d="M56.936,433.706H54.111l-.537,1.611H51.86l2.911-7.82h1.493l2.927,7.82H57.479Zm-2.39-1.306H56.5l-.983-2.927Z" transform="translate(-23.197 -261.5)"/>
    <path class="cls-8" d="M65.165,428.8h-2.4v6.516H61.158V428.8H58.794v-1.3h6.37Z" transform="translate(-23.197 -261.5)"/>
    <path class="cls-8" d="M72.356,431.584a4.724,4.724,0,0,1-.408,2.025,3.077,3.077,0,0,1-1.168,1.343,3.451,3.451,0,0,1-3.478,0,3.1,3.1,0,0,1-1.182-1.334,4.589,4.589,0,0,1-.424-2v-.387a4.7,4.7,0,0,1,.416-2.032,3.1,3.1,0,0,1,1.177-1.349,3.448,3.448,0,0,1,3.475,0,3.1,3.1,0,0,1,1.177,1.349,4.681,4.681,0,0,1,.416,2.027Zm-1.633-.354a3.3,3.3,0,0,0-.44-1.869,1.556,1.556,0,0,0-2.508-.008,3.253,3.253,0,0,0-.446,1.851v.381a3.333,3.333,0,0,0,.44,1.858,1.542,1.542,0,0,0,2.514.024,3.31,3.31,0,0,0,.44-1.855Z" transform="translate(-23.197 -261.5)"/>
    <path class="cls-8" d="M75.633,427.5l2.009,5.672,2-5.672h2.116v7.82H80.139V433.18l.161-3.69-2.111,5.828H77.083L74.978,429.5l.161,3.685v2.138H73.527V427.5Z" transform="translate(-23.197 -261.5)"/>
    <path class="cls-8" d="M87.218,433.266a.827.827,0,0,0-.322-.7,4.217,4.217,0,0,0-1.16-.516,8.266,8.266,0,0,1-1.327-.534,2.168,2.168,0,0,1-1.332-1.939,1.886,1.886,0,0,1,.357-1.13,2.319,2.319,0,0,1,1.025-.776,3.858,3.858,0,0,1,1.5-.279,3.5,3.5,0,0,1,1.493.3,2.376,2.376,0,0,1,1.018.856,2.242,2.242,0,0,1,.362,1.257H87.224a1.053,1.053,0,0,0-.338-.835,1.389,1.389,0,0,0-.951-.3,1.489,1.489,0,0,0-.918.25.789.789,0,0,0-.328.658.754.754,0,0,0,.384.639,4.348,4.348,0,0,0,1.131.483,4.894,4.894,0,0,1,2,1.026,2.042,2.042,0,0,1,.628,1.525,1.883,1.883,0,0,1-.768,1.593,3.363,3.363,0,0,1-2.068.577,4,4,0,0,1-1.644-.33,2.609,2.609,0,0,1-1.131-.905,2.321,2.321,0,0,1-.389-1.332h1.617q0,1.293,1.547,1.294a1.5,1.5,0,0,0,.9-.233A.759.759,0,0,0,87.218,433.266Z" transform="translate(-23.197 -261.5)"/>
  </g>
  <g>
    <path class="cls-8" d="M169.667,345.3l.242,1.214.3-1.16,1.7-5.763h.6l1.676,5.763.29,1.171.258-1.225,1.413-5.709h.677l-2,7.82h-.634l-1.772-6.118-.2-.773-.193.773-1.815,6.118h-.634l-2-7.82h.677Z" transform="translate(-23.197 -261.5)"/>
    <path class="cls-8" d="M181.005,344.149h-2.272v3.26h-.666v-7.82h2.541a2.9,2.9,0,0,1,1.955.606,2.314,2.314,0,0,1,.263,3.02,2.25,2.25,0,0,1-1.182.794l1.955,3.33v.07h-.7Zm-2.272-.559h2.025a1.874,1.874,0,0,0,1.337-.474,1.787,1.787,0,0,0-.021-2.512,2.18,2.18,0,0,0-1.477-.458h-1.864Z" transform="translate(-23.197 -261.5)"/>
    <path class="cls-8" d="M185.872,347.409h-.661v-7.82h.661Z" transform="translate(-23.197 -261.5)"/>
    <path class="cls-8" d="M192.419,345.486a1.265,1.265,0,0,0-.457-1.028,4.805,4.805,0,0,0-1.67-.72,5.862,5.862,0,0,1-1.772-.744,1.8,1.8,0,0,1-.057-2.951,3.033,3.033,0,0,1,1.888-.562,3.131,3.131,0,0,1,1.394.3,2.284,2.284,0,0,1,.953.838,2.2,2.2,0,0,1,.338,1.2h-.666a1.642,1.642,0,0,0-.548-1.29,2.132,2.132,0,0,0-1.472-.488,2.319,2.319,0,0,0-1.429.4,1.25,1.25,0,0,0-.532,1.046,1.183,1.183,0,0,0,.478.974,4.435,4.435,0,0,0,1.531.665,7.222,7.222,0,0,1,1.6.6,2.273,2.273,0,0,1,.816.739,1.849,1.849,0,0,1,.274,1.015,1.768,1.768,0,0,1-.738,1.482,3.146,3.146,0,0,1-1.947.559,3.822,3.822,0,0,1-1.518-.3,2.314,2.314,0,0,1-1.047-.827,2.134,2.134,0,0,1-.357-1.219h.661a1.562,1.562,0,0,0,.618,1.305,2.613,2.613,0,0,0,1.644.478,2.436,2.436,0,0,0,1.466-.4A1.26,1.26,0,0,0,192.419,345.486Z" transform="translate(-23.197 -261.5)"/>
    <path class="cls-8" d="M199.815,340.147h-2.68v7.262h-.661v-7.262H193.8v-.559h6.016Z" transform="translate(-23.197 -261.5)"/>
  </g>
  <g>
    <path class="cls-8" d="M173.76,312.06a2.8,2.8,0,0,1-.883,1.891,2.924,2.924,0,0,1-2,.655,2.756,2.756,0,0,1-1.539-.435,2.833,2.833,0,0,1-1.034-1.233,4.383,4.383,0,0,1-.371-1.823V310.1a4.428,4.428,0,0,1,.365-1.848,2.809,2.809,0,0,1,1.05-1.244,2.864,2.864,0,0,1,1.576-.437,2.8,2.8,0,0,1,1.984.677,2.834,2.834,0,0,1,.846,1.875h-.666a1.99,1.99,0,0,0-2.165-1.993,2.05,2.05,0,0,0-1.694.8,3.45,3.45,0,0,0-.631,2.2v.957a3.478,3.478,0,0,0,.615,2.161,1.982,1.982,0,0,0,1.663.806,2.2,2.2,0,0,0,1.563-.5,2.38,2.38,0,0,0,.65-1.49Z" transform="translate(-23.197 -261.5)"/>
    <path class="cls-8" d="M176.032,313.939h3.862v.559h-4.528v-7.82h.666Z" transform="translate(-23.197 -261.5)"/>
    <path class="cls-8" d="M186.591,311.012a4.524,4.524,0,0,1-.373,1.9,2.848,2.848,0,0,1-1.066,1.257,2.921,2.921,0,0,1-1.6.44,2.777,2.777,0,0,1-2.213-.98,3.919,3.919,0,0,1-.843-2.645v-.806a4.5,4.5,0,0,1,.378-1.893,2.815,2.815,0,0,1,2.667-1.711,2.924,2.924,0,0,1,1.593.435,2.858,2.858,0,0,1,1.066,1.23,4.429,4.429,0,0,1,.392,1.842Zm-.661-.849a3.455,3.455,0,0,0-.639-2.213,2.3,2.3,0,0,0-3.488,0,3.485,3.485,0,0,0-.647,2.243v.816a3.455,3.455,0,0,0,.645,2.2,2.3,2.3,0,0,0,3.5.011,3.547,3.547,0,0,0,.628-2.237Z" transform="translate(-23.197 -261.5)"/>
    <path class="cls-8" d="M193.418,307.236h-2.68V314.5h-.661v-7.262H187.4v-.559h6.016Z" transform="translate(-23.197 -261.5)"/>
    <path class="cls-8" d="M200.476,314.5h-.666v-3.749h-4.469V314.5h-.661v-7.82h.661v3.513h4.469v-3.513h.666Z" transform="translate(-23.197 -261.5)"/>
    <path class="cls-8" d="M206.781,310.749h-3.658v3.19h4.206v.559h-4.866v-7.82H207.3v.559h-4.179v2.954h3.658Z" transform="translate(-23.197 -261.5)"/>
    <path class="cls-8" d="M213.146,312.575a1.265,1.265,0,0,0-.457-1.028,4.805,4.805,0,0,0-1.67-.72,5.862,5.862,0,0,1-1.772-.744,1.8,1.8,0,0,1-.057-2.951,3.033,3.033,0,0,1,1.888-.562,3.131,3.131,0,0,1,1.394.3,2.284,2.284,0,0,1,.953.838,2.2,2.2,0,0,1,.338,1.2H213.1a1.642,1.642,0,0,0-.548-1.29,2.132,2.132,0,0,0-1.472-.488,2.319,2.319,0,0,0-1.429.4,1.25,1.25,0,0,0-.532,1.046,1.183,1.183,0,0,0,.478.974,4.435,4.435,0,0,0,1.531.665,7.222,7.222,0,0,1,1.6.6,2.273,2.273,0,0,1,.816.739,1.849,1.849,0,0,1,.274,1.015,1.768,1.768,0,0,1-.738,1.482,3.146,3.146,0,0,1-1.947.559,3.822,3.822,0,0,1-1.518-.3,2.314,2.314,0,0,1-1.047-.827,2.134,2.134,0,0,1-.357-1.219h.661a1.562,1.562,0,0,0,.618,1.305,2.613,2.613,0,0,0,1.644.478,2.436,2.436,0,0,0,1.466-.4A1.26,1.26,0,0,0,213.146,312.575Z" transform="translate(-23.197 -261.5)"/>
  </g>
  <g>
    <path class="cls-8" d="M172.53,377.6h-3.647v3.658h-.661v-7.82h4.845v.559h-4.184v3.045h3.647Z" transform="translate(-23.197 -261.5)"/>
    <path class="cls-8" d="M175.215,381.255h-.661v-7.82h.661Z" transform="translate(-23.197 -261.5)"/>
    <path class="cls-8" d="M183.159,381.255H182.5l-4.5-6.692v6.692h-.666v-7.82H178l4.5,6.7v-6.7h.655Z" transform="translate(-23.197 -261.5)"/>
    <path class="cls-8" d="M190.792,380.326a2.215,2.215,0,0,1-1.077.763,4.664,4.664,0,0,1-1.641.274,3.048,3.048,0,0,1-1.633-.44,2.93,2.93,0,0,1-1.106-1.246,4.221,4.221,0,0,1-.4-1.848v-.988a3.779,3.779,0,0,1,.822-2.57,2.782,2.782,0,0,1,2.208-.942,2.932,2.932,0,0,1,1.944.615,2.537,2.537,0,0,1,.875,1.694h-.661a2.031,2.031,0,0,0-.7-1.307,2.26,2.26,0,0,0-1.453-.444,2.125,2.125,0,0,0-1.735.779,3.378,3.378,0,0,0-.639,2.2v.924a3.857,3.857,0,0,0,.3,1.578,2.4,2.4,0,0,0,.87,1.062,2.3,2.3,0,0,0,1.3.376,3.632,3.632,0,0,0,1.466-.269,1.576,1.576,0,0,0,.591-.414V378.1h-2.1v-.559h2.761Z" transform="translate(-23.197 -261.5)"/>
    <path class="cls-8" d="M196.984,377.506h-3.658v3.19h4.206v.559h-4.866v-7.82h4.839v.559h-4.179v2.954h3.658Z" transform="translate(-23.197 -261.5)"/>
    <path class="cls-8" d="M201.845,377.995h-2.272v3.26h-.666v-7.82h2.541a2.9,2.9,0,0,1,1.955.606,2.314,2.314,0,0,1,.263,3.02,2.25,2.25,0,0,1-1.182.794l1.955,3.33v.07h-.7Zm-2.272-.559H201.6a1.874,1.874,0,0,0,1.337-.474,1.787,1.787,0,0,0-.021-2.512,2.18,2.18,0,0,0-1.477-.458h-1.864Z" transform="translate(-23.197 -261.5)"/>
    <path class="cls-8" d="M210.332,379.332a1.265,1.265,0,0,0-.457-1.028,4.805,4.805,0,0,0-1.67-.72,5.862,5.862,0,0,1-1.772-.744,1.8,1.8,0,0,1-.057-2.951,3.033,3.033,0,0,1,1.888-.562,3.131,3.131,0,0,1,1.394.3,2.284,2.284,0,0,1,.953.838,2.2,2.2,0,0,1,.338,1.2h-.666a1.642,1.642,0,0,0-.548-1.29,2.132,2.132,0,0,0-1.472-.488,2.319,2.319,0,0,0-1.429.4,1.25,1.25,0,0,0-.532,1.046,1.183,1.183,0,0,0,.478.974,4.435,4.435,0,0,0,1.531.665,7.222,7.222,0,0,1,1.6.6,2.273,2.273,0,0,1,.816.739,1.849,1.849,0,0,1,.274,1.015,1.768,1.768,0,0,1-.738,1.482,3.146,3.146,0,0,1-1.947.559,3.822,3.822,0,0,1-1.518-.3,2.314,2.314,0,0,1-1.047-.827,2.134,2.134,0,0,1-.357-1.219h.661a1.562,1.562,0,0,0,.618,1.305,2.613,2.613,0,0,0,1.644.478,2.436,2.436,0,0,0,1.466-.4A1.26,1.26,0,0,0,210.332,379.332Z" transform="translate(-23.197 -261.5)"/>
  </g>
  <g>
    <path class="cls-8" d="M172.53,445.289h-3.647v3.657h-.661v-7.82h4.845v.559h-4.184v3.046h3.647Z" transform="translate(-23.197 -261.5)"/>
    <path class="cls-8" d="M180.189,445.461a4.52,4.52,0,0,1-.373,1.9,2.843,2.843,0,0,1-1.066,1.257,2.917,2.917,0,0,1-1.6.44,2.775,2.775,0,0,1-2.213-.98,3.919,3.919,0,0,1-.843-2.645v-.806a4.5,4.5,0,0,1,.378-1.894,2.815,2.815,0,0,1,2.667-1.711,2.925,2.925,0,0,1,1.593.436,2.86,2.86,0,0,1,1.066,1.229,4.433,4.433,0,0,1,.392,1.843Zm-.661-.849a3.453,3.453,0,0,0-.639-2.213,2.3,2.3,0,0,0-3.488,0,3.486,3.486,0,0,0-.647,2.243v.816a3.454,3.454,0,0,0,.645,2.2,2.3,2.3,0,0,0,3.5.011,3.546,3.546,0,0,0,.628-2.236Z" transform="translate(-23.197 -261.5)"/>
    <path class="cls-8" d="M184.776,445.687H182.5v3.26h-.666v-7.82h2.541a2.9,2.9,0,0,1,1.955.606,2.314,2.314,0,0,1,.263,3.021,2.25,2.25,0,0,1-1.182.794l1.955,3.33v.069h-.7Zm-2.272-.559h2.025a1.876,1.876,0,0,0,1.337-.474,1.787,1.787,0,0,0-.021-2.512,2.177,2.177,0,0,0-1.477-.458H182.5Z" transform="translate(-23.197 -261.5)"/>
    <path class="cls-8" d="M193.155,445.2H189.5v3.19H193.7v.559h-4.866v-7.82h4.839v.559H189.5v2.954h3.658Z" transform="translate(-23.197 -261.5)"/>
    <path class="cls-8" d="M199.315,446.75h-3.55l-.806,2.2h-.693l2.959-7.82h.628l2.959,7.82h-.687Zm-3.346-.559h3.137l-1.568-4.26Z" transform="translate(-23.197 -261.5)"/>
    <path class="cls-8" d="M204.885,445.687h-2.272v3.26h-.666v-7.82h2.541a2.9,2.9,0,0,1,1.955.606,2.314,2.314,0,0,1,.263,3.021,2.25,2.25,0,0,1-1.182.794l1.955,3.33v.069h-.7Zm-2.272-.559h2.025a1.876,1.876,0,0,0,1.337-.474,1.787,1.787,0,0,0-.021-2.512,2.177,2.177,0,0,0-1.477-.458h-1.864Z" transform="translate(-23.197 -261.5)"/>
    <path class="cls-8" d="M209.821,441.126l2.884,6.9,2.9-6.9h.881v7.82h-.661v-3.405l.054-3.491-2.911,6.9h-.51l-2.9-6.869.054,3.442v3.427h-.661v-7.82Z" transform="translate(-23.197 -261.5)"/>
  </g>
  <g>
    <path class="cls-8" d="M172.648,480.869a1.265,1.265,0,0,0-.457-1.028,4.8,4.8,0,0,0-1.67-.72,5.862,5.862,0,0,1-1.772-.744,1.8,1.8,0,0,1-.057-2.951,3.03,3.03,0,0,1,1.888-.562,3.125,3.125,0,0,1,1.394.3,2.278,2.278,0,0,1,.953.838,2.2,2.2,0,0,1,.338,1.2H172.6a1.643,1.643,0,0,0-.548-1.29,2.132,2.132,0,0,0-1.472-.487,2.322,2.322,0,0,0-1.429.4,1.252,1.252,0,0,0-.532,1.047,1.184,1.184,0,0,0,.478.974,4.427,4.427,0,0,0,1.531.664,7.218,7.218,0,0,1,1.6.6,2.276,2.276,0,0,1,.816.738,1.85,1.85,0,0,1,.274,1.016,1.769,1.769,0,0,1-.738,1.482,3.149,3.149,0,0,1-1.947.559,3.814,3.814,0,0,1-1.518-.3,2.311,2.311,0,0,1-1.047-.827,2.133,2.133,0,0,1-.357-1.219h.661a1.561,1.561,0,0,0,.618,1.3,2.61,2.61,0,0,0,1.644.479,2.436,2.436,0,0,0,1.466-.4A1.26,1.26,0,0,0,172.648,480.869Z" transform="translate(-23.197 -261.5)"/>
    <path class="cls-8" d="M179.056,479.043H175.4v3.19H179.6v.559h-4.866v-7.82h4.839v.559H175.4v2.954h3.658Z" transform="translate(-23.197 -261.5)"/>
    <path class="cls-8" d="M186.817,482.792h-.661l-4.5-6.692v6.692h-.666v-7.82h.666l4.5,6.7v-6.7h.655Z" transform="translate(-23.197 -261.5)"/>
    <path class="cls-8" d="M193.23,480.869a1.265,1.265,0,0,0-.457-1.028,4.8,4.8,0,0,0-1.67-.72,5.862,5.862,0,0,1-1.772-.744,1.8,1.8,0,0,1-.057-2.951,3.03,3.03,0,0,1,1.888-.562,3.125,3.125,0,0,1,1.394.3,2.278,2.278,0,0,1,.953.838,2.2,2.2,0,0,1,.338,1.2h-.666a1.643,1.643,0,0,0-.548-1.29,2.132,2.132,0,0,0-1.472-.487,2.322,2.322,0,0,0-1.429.4,1.252,1.252,0,0,0-.532,1.047,1.184,1.184,0,0,0,.478.974,4.427,4.427,0,0,0,1.531.664,7.218,7.218,0,0,1,1.6.6,2.276,2.276,0,0,1,.816.738,1.85,1.85,0,0,1,.274,1.016,1.769,1.769,0,0,1-.738,1.482,3.149,3.149,0,0,1-1.947.559,3.814,3.814,0,0,1-1.518-.3,2.311,2.311,0,0,1-1.047-.827,2.133,2.133,0,0,1-.357-1.219h.661a1.561,1.561,0,0,0,.618,1.3,2.61,2.61,0,0,0,1.644.479,2.436,2.436,0,0,0,1.466-.4A1.26,1.26,0,0,0,193.23,480.869Z" transform="translate(-23.197 -261.5)"/>
    <path class="cls-8" d="M201.1,479.306a4.528,4.528,0,0,1-.373,1.9,2.854,2.854,0,0,1-1.066,1.257,2.925,2.925,0,0,1-1.6.44,2.778,2.778,0,0,1-2.213-.98,3.92,3.92,0,0,1-.843-2.646v-.806a4.494,4.494,0,0,1,.378-1.893,2.815,2.815,0,0,1,2.667-1.711,2.924,2.924,0,0,1,1.593.435,2.857,2.857,0,0,1,1.066,1.23,4.425,4.425,0,0,1,.392,1.842Zm-.661-.849a3.457,3.457,0,0,0-.639-2.213,2.3,2.3,0,0,0-3.488,0,3.483,3.483,0,0,0-.647,2.242v.816a3.455,3.455,0,0,0,.645,2.205,2.3,2.3,0,0,0,3.5.011,3.549,3.549,0,0,0,.628-2.237Z" transform="translate(-23.197 -261.5)"/>
    <path class="cls-8" d="M205.686,479.531h-2.272v3.261h-.666v-7.82h2.541a2.9,2.9,0,0,1,1.955.606,2.313,2.313,0,0,1,.263,3.02,2.25,2.25,0,0,1-1.182.794l1.955,3.33v.07h-.7Zm-2.272-.559h2.025a1.872,1.872,0,0,0,1.337-.474,1.787,1.787,0,0,0-.021-2.512,2.182,2.182,0,0,0-1.477-.457h-1.864Z" transform="translate(-23.197 -261.5)"/>
    <path class="cls-8" d="M211.782,479.236l2.39-4.265h.763l-2.825,4.877v2.943h-.661v-2.943l-2.82-4.877h.784Z" transform="translate(-23.197 -261.5)"/>
    <path class="cls-8" d="M223.174,480.869a1.265,1.265,0,0,0-.457-1.028,4.8,4.8,0,0,0-1.67-.72,5.862,5.862,0,0,1-1.772-.744,1.8,1.8,0,0,1-.057-2.951,3.03,3.03,0,0,1,1.888-.562,3.125,3.125,0,0,1,1.394.3,2.278,2.278,0,0,1,.953.838,2.2,2.2,0,0,1,.338,1.2h-.666a1.643,1.643,0,0,0-.548-1.29,2.132,2.132,0,0,0-1.472-.487,2.322,2.322,0,0,0-1.429.4,1.252,1.252,0,0,0-.532,1.047,1.184,1.184,0,0,0,.478.974,4.427,4.427,0,0,0,1.531.664,7.218,7.218,0,0,1,1.6.6,2.276,2.276,0,0,1,.816.738,1.85,1.85,0,0,1,.274,1.016,1.769,1.769,0,0,1-.738,1.482,3.149,3.149,0,0,1-1.947.559,3.814,3.814,0,0,1-1.518-.3,2.311,2.311,0,0,1-1.047-.827,2.133,2.133,0,0,1-.357-1.219h.661a1.561,1.561,0,0,0,.618,1.3,2.61,2.61,0,0,0,1.644.479,2.436,2.436,0,0,0,1.466-.4A1.26,1.26,0,0,0,223.174,480.869Z" transform="translate(-23.197 -261.5)"/>
    <path class="cls-8" d="M230.65,474.972v5.339a2.7,2.7,0,0,1-.349,1.375,2.286,2.286,0,0,1-.97.9,3.152,3.152,0,0,1-1.437.314,2.836,2.836,0,0,1-1.979-.674,2.476,2.476,0,0,1-.771-1.867v-5.387h.655v5.29a2.036,2.036,0,0,0,.564,1.534,2.414,2.414,0,0,0,3.059,0,2.034,2.034,0,0,0,.561-1.525v-5.3Z" transform="translate(-23.197 -261.5)"/>
    <path class="cls-8" d="M232.493,482.792v-7.82h2.31a3.005,3.005,0,0,1,1.907.519,1.84,1.84,0,0,1,.65,1.529,1.735,1.735,0,0,1-.33,1.056,1.808,1.808,0,0,1-.905.643,1.893,1.893,0,0,1,1.515,1.873,2.03,2.03,0,0,1-.669,1.618,2.738,2.738,0,0,1-1.861.583Zm.661-4.313h1.8a2.028,2.028,0,0,0,1.281-.39,1.331,1.331,0,0,0,.454-1.09,1.309,1.309,0,0,0-.47-1.111,2.335,2.335,0,0,0-1.421-.357h-1.649Zm0,.559v3.2h1.982a1.985,1.985,0,0,0,1.346-.432,1.5,1.5,0,0,0,.5-1.2,1.454,1.454,0,0,0-.475-1.146,1.915,1.915,0,0,0-1.313-.421Z" transform="translate(-23.197 -261.5)"/>
    <path class="cls-8" d="M243.659,480.869a1.265,1.265,0,0,0-.457-1.028,4.8,4.8,0,0,0-1.67-.72,5.862,5.862,0,0,1-1.772-.744,1.8,1.8,0,0,1-.057-2.951,3.03,3.03,0,0,1,1.888-.562,3.125,3.125,0,0,1,1.394.3,2.278,2.278,0,0,1,.953.838,2.2,2.2,0,0,1,.338,1.2h-.666a1.643,1.643,0,0,0-.548-1.29,2.132,2.132,0,0,0-1.472-.487,2.322,2.322,0,0,0-1.429.4,1.252,1.252,0,0,0-.532,1.047,1.184,1.184,0,0,0,.478.974,4.427,4.427,0,0,0,1.531.664,7.218,7.218,0,0,1,1.6.6,2.276,2.276,0,0,1,.816.738,1.85,1.85,0,0,1,.274,1.016,1.769,1.769,0,0,1-.738,1.482,3.149,3.149,0,0,1-1.947.559,3.814,3.814,0,0,1-1.518-.3,2.311,2.311,0,0,1-1.047-.827,2.133,2.133,0,0,1-.357-1.219h.661a1.561,1.561,0,0,0,.618,1.3,2.61,2.61,0,0,0,1.644.479,2.436,2.436,0,0,0,1.466-.4A1.26,1.26,0,0,0,243.659,480.869Z" transform="translate(-23.197 -261.5)"/>
    <path class="cls-8" d="M251.055,475.53h-2.68v7.262h-.661V475.53H245.04v-.559h6.016Z" transform="translate(-23.197 -261.5)"/>
    <path class="cls-8" d="M253.123,482.792h-.661v-7.82h.661Z" transform="translate(-23.197 -261.5)"/>
    <path class="cls-8" d="M260.4,475.53h-2.68v7.262h-.661V475.53H254.38v-.559H260.4Z" transform="translate(-23.197 -261.5)"/>
    <path class="cls-8" d="M267.045,474.972v5.339a2.7,2.7,0,0,1-.349,1.375,2.286,2.286,0,0,1-.97.9,3.152,3.152,0,0,1-1.437.314,2.836,2.836,0,0,1-1.979-.674,2.476,2.476,0,0,1-.771-1.867v-5.387h.655v5.29a2.036,2.036,0,0,0,.564,1.534,2.414,2.414,0,0,0,3.059,0,2.034,2.034,0,0,0,.561-1.525v-5.3Z" transform="translate(-23.197 -261.5)"/>
    <path class="cls-8" d="M274.194,475.53h-2.68v7.262h-.661V475.53h-2.675v-.559h6.016Z" transform="translate(-23.197 -261.5)"/>
    <path class="cls-8" d="M276.262,482.792H275.6v-7.82h.661Z" transform="translate(-23.197 -261.5)"/>
    <path class="cls-8" d="M284.163,479.306a4.528,4.528,0,0,1-.373,1.9,2.854,2.854,0,0,1-1.066,1.257,2.925,2.925,0,0,1-1.6.44,2.778,2.778,0,0,1-2.213-.98,3.92,3.92,0,0,1-.843-2.646v-.806a4.494,4.494,0,0,1,.378-1.893,2.815,2.815,0,0,1,2.667-1.711,2.924,2.924,0,0,1,1.593.435,2.857,2.857,0,0,1,1.066,1.23,4.425,4.425,0,0,1,.392,1.842Zm-.661-.849a3.457,3.457,0,0,0-.639-2.213,2.3,2.3,0,0,0-3.488,0,3.483,3.483,0,0,0-.647,2.242v.816a3.455,3.455,0,0,0,.645,2.205,2.3,2.3,0,0,0,3.5.011,3.549,3.549,0,0,0,.628-2.237Z" transform="translate(-23.197 -261.5)"/>
    <path class="cls-8" d="M291.65,482.792h-.661l-4.5-6.692v6.692h-.666v-7.82h.666l4.5,6.7v-6.7h.655Z" transform="translate(-23.197 -261.5)"/>
  </g>
  <g>
    <path class="cls-8" d="M168.883,411.916V415.1h-.661v-7.82h2.664a2.808,2.808,0,0,1,1.926.623,2.167,2.167,0,0,1,.706,1.713,2.145,2.145,0,0,1-.68,1.7,2.887,2.887,0,0,1-1.968.6Zm0-.559h2a2.114,2.114,0,0,0,1.466-.457,1.634,1.634,0,0,0,.5-1.275,1.708,1.708,0,0,0-.5-1.294,2.015,2.015,0,0,0-1.426-.492h-2.046Z" transform="translate(-23.197 -261.5)"/>
    <path class="cls-8" d="M178.476,412.9h-3.55l-.806,2.2h-.693l2.959-7.82h.628l2.959,7.82h-.687Zm-3.346-.559h3.137l-1.568-4.259Z" transform="translate(-23.197 -261.5)"/>
    <path class="cls-8" d="M181.79,414.542h3.862v.559h-4.528v-7.82h.666Z" transform="translate(-23.197 -261.5)"/>
    <path class="cls-8" d="M187.794,407.28l2.884,6.9,2.9-6.9h.881v7.82h-.661V411.7l.054-3.491-2.911,6.9h-.51l-2.9-6.87.054,3.443V415.1h-.661v-7.82Z" transform="translate(-23.197 -261.5)"/>
  </g>
  <g>
    <path class="cls-8" d="M168.222,550.627v-7.82h2.186a3.408,3.408,0,0,1,1.724.438,3.026,3.026,0,0,1,1.189,1.254,3.948,3.948,0,0,1,.427,1.859v.719a3.954,3.954,0,0,1-.424,1.859,3.021,3.021,0,0,1-1.2,1.251,3.5,3.5,0,0,1-1.77.44Zm.661-7.262v6.7h1.482a2.55,2.55,0,0,0,1.982-.82,3.166,3.166,0,0,0,.747-2.217v-.687a3.1,3.1,0,0,0-.736-2.162,2.509,2.509,0,0,0-1.939-.816Z" transform="translate(-23.197 -261.5)"/>
    <path class="cls-8" d="M177.487,547.071l2.39-4.265h.763l-2.825,4.877v2.943h-.661v-2.943l-2.82-4.877h.784Z" transform="translate(-23.197 -261.5)"/>
    <path class="cls-8" d="M187.6,550.627h-.661l-4.5-6.692v6.692h-.666v-7.82h.666l4.5,6.7v-6.7h.655Z" transform="translate(-23.197 -261.5)"/>
    <path class="cls-8" d="M193.907,548.43h-3.55l-.806,2.2h-.693l2.959-7.82h.628l2.959,7.82h-.687Zm-3.346-.559H193.7l-1.568-4.259Z" transform="translate(-23.197 -261.5)"/>
    <path class="cls-8" d="M197.43,542.807l2.884,6.9,2.9-6.9h.881v7.82h-.661v-3.405l.054-3.491-2.911,6.9h-.51l-2.9-6.869.054,3.442v3.427h-.661v-7.82Z" transform="translate(-23.197 -261.5)"/>
    <path class="cls-8" d="M206.878,550.627h-.661v-7.82h.661Z" transform="translate(-23.197 -261.5)"/>
    <path class="cls-8" d="M214.537,548.188a2.8,2.8,0,0,1-.883,1.891,2.926,2.926,0,0,1-2,.655,2.749,2.749,0,0,1-1.539-.436,2.826,2.826,0,0,1-1.034-1.232,4.381,4.381,0,0,1-.371-1.823v-1.015a4.427,4.427,0,0,1,.365-1.848,2.81,2.81,0,0,1,1.05-1.244,2.868,2.868,0,0,1,1.576-.437,2.8,2.8,0,0,1,1.984.677,2.834,2.834,0,0,1,.846,1.874h-.666a1.99,1.99,0,0,0-2.165-1.992,2.053,2.053,0,0,0-1.694.795,3.452,3.452,0,0,0-.631,2.2v.957a3.476,3.476,0,0,0,.615,2.16,1.981,1.981,0,0,0,1.663.807,2.2,2.2,0,0,0,1.563-.5,2.378,2.378,0,0,0,.65-1.49Z" transform="translate(-23.197 -261.5)"/>
    <path class="cls-8" d="M223.136,546.878h-3.658v3.19h4.206v.559h-4.866v-7.82h4.839v.559h-4.179v2.954h3.658Z" transform="translate(-23.197 -261.5)"/>
    <path class="cls-8" d="M230.9,550.627h-.661l-4.5-6.692v6.692h-.666v-7.82h.666l4.5,6.7v-6.7h.655Z" transform="translate(-23.197 -261.5)"/>
    <path class="cls-8" d="M235.243,549.66l.043.166.048-.166,2.46-6.854h.725l-2.911,7.82h-.634l-2.911-7.82h.72Z" transform="translate(-23.197 -261.5)"/>
    <path class="cls-8" d="M240.474,550.627h-.661v-7.82h.661Z" transform="translate(-23.197 -261.5)"/>
    <path class="cls-8" d="M245.518,547.367h-2.272v3.26h-.666v-7.82h2.541a2.9,2.9,0,0,1,1.955.606,2.314,2.314,0,0,1,.263,3.021,2.248,2.248,0,0,1-1.182.793l1.955,3.33v.07h-.7Zm-2.272-.559h2.025a1.873,1.873,0,0,0,1.337-.475,1.787,1.787,0,0,0-.021-2.512,2.182,2.182,0,0,0-1.477-.457h-1.864Z" transform="translate(-23.197 -261.5)"/>
    <path class="cls-8" d="M255.357,547.141a4.525,4.525,0,0,1-.373,1.9,2.848,2.848,0,0,1-1.066,1.257,2.917,2.917,0,0,1-1.6.44,2.775,2.775,0,0,1-2.213-.98,3.919,3.919,0,0,1-.843-2.645V546.3a4.494,4.494,0,0,1,.378-1.893,2.993,2.993,0,0,1,4.26-1.275,2.849,2.849,0,0,1,1.066,1.229,4.429,4.429,0,0,1,.392,1.843Zm-.661-.848a3.453,3.453,0,0,0-.639-2.213,2.3,2.3,0,0,0-3.488,0,3.483,3.483,0,0,0-.647,2.242v.816a3.455,3.455,0,0,0,.645,2.205,2.3,2.3,0,0,0,3.5.011,3.547,3.547,0,0,0,.628-2.237Z" transform="translate(-23.197 -261.5)"/>
    <path class="cls-8" d="M262.845,550.627h-.661l-4.5-6.692v6.692h-.666v-7.82h.666l4.5,6.7v-6.7h.655Z" transform="translate(-23.197 -261.5)"/>
    <path class="cls-8" d="M265.708,542.807l2.884,6.9,2.9-6.9h.881v7.82h-.661v-3.405l.054-3.491-2.911,6.9h-.51l-2.9-6.869.054,3.442v3.427h-.661v-7.82Z" transform="translate(-23.197 -261.5)"/>
    <path class="cls-8" d="M278.668,546.878H275.01v3.19h4.206v.559H274.35v-7.82h4.839v.559H275.01v2.954h3.658Z" transform="translate(-23.197 -261.5)"/>
    <path class="cls-8" d="M286.429,550.627h-.661l-4.5-6.692v6.692h-.666v-7.82h.666l4.5,6.7v-6.7h.655Z" transform="translate(-23.197 -261.5)"/>
    <path class="cls-8" d="M293.567,543.365h-2.68v7.262h-.661v-7.262h-2.675v-.559h6.016Z" transform="translate(-23.197 -261.5)"/>
    <path class="cls-8" d="M299.169,548.7a1.266,1.266,0,0,0-.457-1.028,4.815,4.815,0,0,0-1.67-.72,5.862,5.862,0,0,1-1.772-.744,1.8,1.8,0,0,1-.057-2.951,3.036,3.036,0,0,1,1.888-.562,3.125,3.125,0,0,1,1.394.3,2.291,2.291,0,0,1,.953.838,2.2,2.2,0,0,1,.338,1.2h-.666a1.639,1.639,0,0,0-.548-1.289,2.128,2.128,0,0,0-1.472-.488,2.322,2.322,0,0,0-1.429.4,1.252,1.252,0,0,0-.532,1.047,1.182,1.182,0,0,0,.478.974,4.444,4.444,0,0,0,1.531.665,7.225,7.225,0,0,1,1.6.6,2.276,2.276,0,0,1,.816.738,1.85,1.85,0,0,1,.274,1.016,1.769,1.769,0,0,1-.738,1.482,3.143,3.143,0,0,1-1.947.559,3.831,3.831,0,0,1-1.518-.295,2.313,2.313,0,0,1-1.047-.828,2.129,2.129,0,0,1-.357-1.219h.661a1.561,1.561,0,0,0,.618,1.3,2.61,2.61,0,0,0,1.644.479,2.442,2.442,0,0,0,1.466-.4A1.261,1.261,0,0,0,299.169,548.7Z" transform="translate(-23.197 -261.5)"/>
  </g>
  <g>
    <path class="cls-8" d="M169.1,508.446l2.884,6.9,2.9-6.9h.881v7.82H175.1v-3.405l.054-3.491-2.911,6.9h-.51l-2.9-6.87.054,3.443v3.427h-.661v-7.82Z" transform="translate(-23.197 -261.5)"/>
    <path class="cls-8" d="M178.545,516.267h-.661v-7.82h.661Z" transform="translate(-23.197 -261.5)"/>
    <path class="cls-8" d="M180.667,516.267v-7.82h2.186a3.4,3.4,0,0,1,1.724.438,3.026,3.026,0,0,1,1.189,1.254,3.947,3.947,0,0,1,.427,1.858v.72a3.95,3.95,0,0,1-.424,1.858,3.018,3.018,0,0,1-1.2,1.252,3.509,3.509,0,0,1-1.77.44Zm.661-7.262v6.7h1.482a2.55,2.55,0,0,0,1.982-.82,3.166,3.166,0,0,0,.747-2.217v-.688a3.1,3.1,0,0,0-.736-2.161,2.506,2.506,0,0,0-1.939-.816Z" transform="translate(-23.197 -261.5)"/>
    <path class="cls-8" d="M194.766,514.069h-3.55l-.806,2.2h-.693l2.959-7.82h.628l2.959,7.82h-.687Zm-3.346-.559h3.137l-1.568-4.259Z" transform="translate(-23.197 -261.5)"/>
    <path class="cls-8" d="M198.22,516.267h-.661v-7.82h.661Z" transform="translate(-23.197 -261.5)"/>
    <path class="cls-8" d="M203.263,513.006h-2.272v3.261h-.666v-7.82h2.541a2.9,2.9,0,0,1,1.955.606,2.313,2.313,0,0,1,.263,3.02,2.25,2.25,0,0,1-1.182.794l1.955,3.33v.07h-.7Zm-2.272-.559h2.025a1.872,1.872,0,0,0,1.337-.474,1.787,1.787,0,0,0-.021-2.512,2.182,2.182,0,0,0-1.477-.457h-1.864Z" transform="translate(-23.197 -261.5)"/>
    <path class="cls-8" d="M215.794,516.267h-.666v-3.749h-4.469v3.749H210v-7.82h.661v3.513h4.469v-3.513h.666Z" transform="translate(-23.197 -261.5)"/>
    <path class="cls-8" d="M222.1,514.069h-3.55l-.806,2.2h-.693l2.959-7.82h.628l2.959,7.82h-.687Zm-3.346-.559h3.137l-1.568-4.259Z" transform="translate(-23.197 -261.5)"/>
    <path class="cls-8" d="M225.408,513.081v3.186h-.661v-7.82h2.664a2.806,2.806,0,0,1,1.926.623,2.448,2.448,0,0,1,.026,3.413,2.887,2.887,0,0,1-1.968.6Zm0-.559h2a2.114,2.114,0,0,0,1.466-.457,1.632,1.632,0,0,0,.5-1.274,1.707,1.707,0,0,0-.5-1.294,2.01,2.01,0,0,0-1.426-.492h-2.046Z" transform="translate(-23.197 -261.5)"/>
    <path class="cls-8" d="M236.827,509h-2.68v7.262h-.661V509h-2.675v-.559h6.016Z" transform="translate(-23.197 -261.5)"/>
    <path class="cls-8" d="M238.9,516.267h-.661v-7.82h.661Z" transform="translate(-23.197 -261.5)"/>
    <path class="cls-8" d="M246.554,513.828a2.806,2.806,0,0,1-.883,1.891,2.926,2.926,0,0,1-2,.655,2.757,2.757,0,0,1-1.539-.436,2.832,2.832,0,0,1-1.034-1.232,4.384,4.384,0,0,1-.371-1.823v-1.016a4.43,4.43,0,0,1,.365-1.848,2.808,2.808,0,0,1,1.05-1.243,2.86,2.86,0,0,1,1.576-.437,2.8,2.8,0,0,1,1.984.677,2.834,2.834,0,0,1,.846,1.874h-.666a1.99,1.99,0,0,0-2.165-1.992,2.05,2.05,0,0,0-1.694.795,3.452,3.452,0,0,0-.631,2.2v.956a3.477,3.477,0,0,0,.615,2.161,1.981,1.981,0,0,0,1.663.807,2.2,2.2,0,0,0,1.563-.5,2.381,2.381,0,0,0,.65-1.49Z" transform="translate(-23.197 -261.5)"/>
    <path class="cls-8" d="M252.586,514.344a1.265,1.265,0,0,0-.457-1.028,4.8,4.8,0,0,0-1.67-.72,5.862,5.862,0,0,1-1.772-.744,1.8,1.8,0,0,1-.057-2.951,3.03,3.03,0,0,1,1.888-.562,3.125,3.125,0,0,1,1.394.3,2.278,2.278,0,0,1,.953.838,2.2,2.2,0,0,1,.338,1.2h-.666a1.643,1.643,0,0,0-.548-1.29,2.132,2.132,0,0,0-1.472-.487,2.322,2.322,0,0,0-1.429.4,1.252,1.252,0,0,0-.532,1.047,1.184,1.184,0,0,0,.478.974,4.427,4.427,0,0,0,1.531.664,7.218,7.218,0,0,1,1.6.6,2.276,2.276,0,0,1,.816.738,1.85,1.85,0,0,1,.274,1.016,1.769,1.769,0,0,1-.738,1.482,3.149,3.149,0,0,1-1.947.559,3.814,3.814,0,0,1-1.518-.3,2.311,2.311,0,0,1-1.047-.827,2.133,2.133,0,0,1-.357-1.219h.661a1.561,1.561,0,0,0,.618,1.3,2.61,2.61,0,0,0,1.644.479,2.436,2.436,0,0,0,1.466-.4A1.26,1.26,0,0,0,252.586,514.344Z" transform="translate(-23.197 -261.5)"/>
  </g>
  <g>
    <g>
      <path class="cls-8" d="M414.739,307.548h-2.68v7.262H411.4v-7.262h-2.675v-.559h6.016Z" transform="translate(-23.197 -261.5)"/>
      <path class="cls-8" d="M421.8,314.81h-.666v-3.749h-4.469v3.749H416v-7.82h.661V310.5h4.469V306.99h.666Z" transform="translate(-23.197 -261.5)"/>
      <path class="cls-8" d="M429.171,306.99v5.339a2.7,2.7,0,0,1-.35,1.375,2.277,2.277,0,0,1-.97.9,3.151,3.151,0,0,1-1.437.314,2.836,2.836,0,0,1-1.979-.674,2.474,2.474,0,0,1-.771-1.867V306.99h.655v5.291a2.035,2.035,0,0,0,.564,1.534,2.413,2.413,0,0,0,3.059,0,2.034,2.034,0,0,0,.562-1.525v-5.3Z" transform="translate(-23.197 -261.5)"/>
      <path class="cls-8" d="M431.889,306.99l2.884,6.9,2.9-6.9h.881v7.82h-.661V311.4l.054-3.491-2.911,6.9h-.51l-2.9-6.87.054,3.443v3.427h-.661v-7.82Z" transform="translate(-23.197 -261.5)"/>
      <path class="cls-8" d="M440.53,314.81v-7.82h2.31a3.008,3.008,0,0,1,1.907.519,1.841,1.841,0,0,1,.649,1.529,1.734,1.734,0,0,1-.33,1.056,1.8,1.8,0,0,1-.905.643,1.894,1.894,0,0,1,1.515,1.874,2.031,2.031,0,0,1-.669,1.618,2.739,2.739,0,0,1-1.86.583Zm.661-4.313H443a2.024,2.024,0,0,0,1.28-.39,1.33,1.33,0,0,0,.454-1.09,1.307,1.307,0,0,0-.47-1.111,2.332,2.332,0,0,0-1.421-.358h-1.648Zm0,.559v3.2h1.981a1.981,1.981,0,0,0,1.346-.432,1.5,1.5,0,0,0,.5-1.2,1.453,1.453,0,0,0-.476-1.145,1.913,1.913,0,0,0-1.313-.421Z" transform="translate(-23.197 -261.5)"/>
      <path class="cls-8" d="M452.868,311.55H450.6v3.26h-.666v-7.82h2.541a2.9,2.9,0,0,1,1.955.606,2.314,2.314,0,0,1,.263,3.02,2.248,2.248,0,0,1-1.182.794l1.955,3.33v.07h-.7Zm-2.272-.559h2.025a1.873,1.873,0,0,0,1.337-.474,1.787,1.787,0,0,0-.021-2.512,2.177,2.177,0,0,0-1.477-.458H450.6Z" transform="translate(-23.197 -261.5)"/>
      <path class="cls-8" d="M457.734,314.81h-.661v-7.82h.661Z" transform="translate(-23.197 -261.5)"/>
      <path class="cls-8" d="M465.678,314.81h-.66l-4.5-6.692v6.692h-.666v-7.82h.666l4.5,6.7v-6.7h.655Z" transform="translate(-23.197 -261.5)"/>
      <path class="cls-8" d="M473.311,313.881a2.219,2.219,0,0,1-1.077.763,4.663,4.663,0,0,1-1.641.274,3.047,3.047,0,0,1-1.633-.44,2.924,2.924,0,0,1-1.106-1.246,4.208,4.208,0,0,1-.4-1.848V310.4a3.778,3.778,0,0,1,.821-2.57,2.783,2.783,0,0,1,2.208-.942,2.933,2.933,0,0,1,1.944.615,2.537,2.537,0,0,1,.875,1.694h-.66a2.031,2.031,0,0,0-.7-1.307,2.259,2.259,0,0,0-1.453-.444,2.124,2.124,0,0,0-1.734.779,3.375,3.375,0,0,0-.64,2.2v.924a3.865,3.865,0,0,0,.3,1.578,2.4,2.4,0,0,0,.87,1.062,2.3,2.3,0,0,0,1.3.376,3.63,3.63,0,0,0,1.466-.269,1.572,1.572,0,0,0,.591-.414v-2.02h-2.1V311.1h2.761Z" transform="translate(-23.197 -261.5)"/>
    </g>
    <g>
      <path class="cls-8" d="M410.238,281.9h-.661v-7.82h.661Z" transform="translate(-23.197 -261.5)"/>
      <path class="cls-8" d="M418.182,281.9h-.661l-4.5-6.692V281.9h-.666v-7.82h.666l4.5,6.7v-6.7h.655Z" transform="translate(-23.197 -261.5)"/>
      <path class="cls-8" d="M420.169,281.9v-7.82h2.186a3.4,3.4,0,0,1,1.724.438,3.024,3.024,0,0,1,1.189,1.254,3.944,3.944,0,0,1,.427,1.858v.72a3.951,3.951,0,0,1-.424,1.858,3.017,3.017,0,0,1-1.2,1.251,3.5,3.5,0,0,1-1.77.44Zm.661-7.262v6.7h1.482a2.551,2.551,0,0,0,1.982-.82,3.168,3.168,0,0,0,.747-2.217v-.688a3.1,3.1,0,0,0-.736-2.161,2.508,2.508,0,0,0-1.939-.817Z" transform="translate(-23.197 -261.5)"/>
      <path class="cls-8" d="M431.689,278.15h-3.657v3.19h4.205v.559h-4.866v-7.82h4.84v.559h-4.179v2.954h3.657Z" transform="translate(-23.197 -261.5)"/>
      <path class="cls-8" d="M436.008,277.388l2.2-3.309H439l-2.589,3.856,2.669,3.964h-.795l-2.277-3.416L433.72,281.9h-.784l2.675-3.964-2.594-3.856h.789Z" transform="translate(-23.197 -261.5)"/>
      <path class="cls-8" d="M447.341,278.242h-3.646V281.9h-.661v-7.82h4.845v.559h-4.184v3.045h3.646Z" transform="translate(-23.197 -261.5)"/>
      <path class="cls-8" d="M450.026,281.9h-.66v-7.82h.66Z" transform="translate(-23.197 -261.5)"/>
      <path class="cls-8" d="M457.971,281.9h-.661l-4.5-6.692V281.9h-.666v-7.82h.666l4.5,6.7v-6.7h.655Z" transform="translate(-23.197 -261.5)"/>
      <path class="cls-8" d="M465.6,280.97a2.212,2.212,0,0,1-1.076.763,4.665,4.665,0,0,1-1.642.274,3.05,3.05,0,0,1-1.633-.44,2.937,2.937,0,0,1-1.106-1.246,4.235,4.235,0,0,1-.4-1.848v-.988a3.779,3.779,0,0,1,.822-2.57,2.781,2.781,0,0,1,2.207-.942,2.931,2.931,0,0,1,1.944.615,2.537,2.537,0,0,1,.876,1.694h-.661a2.03,2.03,0,0,0-.7-1.307,2.261,2.261,0,0,0-1.453-.444,2.127,2.127,0,0,0-1.735.779,3.381,3.381,0,0,0-.639,2.2v.924a3.849,3.849,0,0,0,.3,1.578,2.4,2.4,0,0,0,.87,1.062,2.3,2.3,0,0,0,1.3.376,3.635,3.635,0,0,0,1.467-.269,1.58,1.58,0,0,0,.591-.414v-2.02h-2.1v-.559H465.6Z" transform="translate(-23.197 -261.5)"/>
      <path class="cls-8" d="M471.8,278.15h-3.658v3.19h4.206v.559h-4.866v-7.82h4.839v.559h-4.179v2.954H471.8Z" transform="translate(-23.197 -261.5)"/>
      <path class="cls-8" d="M476.656,278.639h-2.271v3.26h-.666v-7.82h2.54a2.9,2.9,0,0,1,1.955.606,2.313,2.313,0,0,1,.264,3.02,2.252,2.252,0,0,1-1.182.794l1.955,3.33v.07h-.7Zm-2.271-.559h2.024a1.875,1.875,0,0,0,1.338-.474,1.787,1.787,0,0,0-.021-2.512,2.182,2.182,0,0,0-1.478-.458h-1.863Z" transform="translate(-23.197 -261.5)"/>
      <path class="cls-8" d="M486.313,278.639h-2.271v3.26h-.666v-7.82h2.54a2.9,2.9,0,0,1,1.955.606,2.313,2.313,0,0,1,.264,3.02,2.252,2.252,0,0,1-1.182.794l1.955,3.33v.07h-.7Zm-2.271-.559h2.024a1.875,1.875,0,0,0,1.338-.474,1.787,1.787,0,0,0-.021-2.512,2.182,2.182,0,0,0-1.478-.458h-1.863Z" transform="translate(-23.197 -261.5)"/>
      <path class="cls-8" d="M491.18,281.9h-.66v-7.82h.66Z" transform="translate(-23.197 -261.5)"/>
      <path class="cls-8" d="M499.124,281.9h-.661l-4.5-6.692V281.9H493.3v-7.82h.666l4.5,6.7v-6.7h.655Z" transform="translate(-23.197 -261.5)"/>
      <path class="cls-8" d="M506.756,280.97a2.212,2.212,0,0,1-1.076.763,4.665,4.665,0,0,1-1.642.274,3.05,3.05,0,0,1-1.633-.44,2.937,2.937,0,0,1-1.106-1.246,4.235,4.235,0,0,1-.4-1.848v-.988a3.779,3.779,0,0,1,.822-2.57,2.781,2.781,0,0,1,2.207-.942,2.931,2.931,0,0,1,1.944.615,2.537,2.537,0,0,1,.876,1.694h-.661a2.03,2.03,0,0,0-.7-1.307,2.261,2.261,0,0,0-1.453-.444,2.127,2.127,0,0,0-1.735.779,3.381,3.381,0,0,0-.639,2.2v.924a3.849,3.849,0,0,0,.3,1.578,2.4,2.4,0,0,0,.87,1.062,2.3,2.3,0,0,0,1.3.376,3.635,3.635,0,0,0,1.467-.269,1.58,1.58,0,0,0,.591-.414v-2.02H504v-.559h2.761Z" transform="translate(-23.197 -261.5)"/>
    </g>
    <g>
      <path class="cls-8" d="M413.74,345h-3.647v3.658h-.661v-7.82h4.845v.559h-4.184v3.045h3.647Z" transform="translate(-23.197 -261.5)"/>
      <path class="cls-8" d="M416.425,348.656h-.661v-7.82h.661Z" transform="translate(-23.197 -261.5)"/>
      <path class="cls-8" d="M424.369,348.656h-.661l-4.5-6.692v6.692h-.666v-7.82h.666l4.5,6.7v-6.7h.655Z" transform="translate(-23.197 -261.5)"/>
      <path class="cls-8" d="M432,347.727a2.212,2.212,0,0,1-1.076.763,4.665,4.665,0,0,1-1.642.274,3.05,3.05,0,0,1-1.633-.44,2.937,2.937,0,0,1-1.106-1.246,4.235,4.235,0,0,1-.4-1.848v-.988a3.779,3.779,0,0,1,.822-2.57,2.781,2.781,0,0,1,2.207-.942,2.931,2.931,0,0,1,1.944.615,2.537,2.537,0,0,1,.876,1.694h-.661a2.03,2.03,0,0,0-.7-1.307,2.261,2.261,0,0,0-1.453-.444,2.127,2.127,0,0,0-1.735.779,3.381,3.381,0,0,0-.639,2.2v.924a3.849,3.849,0,0,0,.3,1.578,2.4,2.4,0,0,0,.87,1.062,2.3,2.3,0,0,0,1.3.376,3.635,3.635,0,0,0,1.467-.269,1.58,1.58,0,0,0,.591-.414V345.5h-2.1v-.559H432Z" transform="translate(-23.197 -261.5)"/>
      <path class="cls-8" d="M438.194,344.907h-3.658v3.19h4.206v.559h-4.866v-7.82h4.839v.559h-4.179v2.954h3.658Z" transform="translate(-23.197 -261.5)"/>
      <path class="cls-8" d="M443.055,345.4h-2.271v3.26h-.666v-7.82h2.54a2.9,2.9,0,0,1,1.955.606,2.313,2.313,0,0,1,.264,3.02,2.252,2.252,0,0,1-1.182.794l1.955,3.33v.07h-.7Zm-2.271-.559h2.024a1.875,1.875,0,0,0,1.338-.474,1.787,1.787,0,0,0-.021-2.512,2.182,2.182,0,0,0-1.478-.458h-1.863Z" transform="translate(-23.197 -261.5)"/>
      <path class="cls-8" d="M451.992,341.395h-2.68v7.262h-.661v-7.262h-2.675v-.559h6.016Z" transform="translate(-23.197 -261.5)"/>
      <path class="cls-8" d="M454.061,348.656H453.4v-7.82h.661Z" transform="translate(-23.197 -261.5)"/>
      <path class="cls-8" d="M456.843,345.471v3.185h-.661v-7.82h2.664a2.807,2.807,0,0,1,1.926.623,2.167,2.167,0,0,1,.706,1.713,2.145,2.145,0,0,1-.68,1.7,2.884,2.884,0,0,1-1.968.6Zm0-.559h2a2.115,2.115,0,0,0,1.467-.457,1.635,1.635,0,0,0,.5-1.275,1.709,1.709,0,0,0-.5-1.294,2.013,2.013,0,0,0-1.426-.492h-2.046Z" transform="translate(-23.197 -261.5)"/>
      <path class="cls-8" d="M471.274,347.727a2.212,2.212,0,0,1-1.076.763,4.665,4.665,0,0,1-1.642.274,3.05,3.05,0,0,1-1.633-.44,2.937,2.937,0,0,1-1.106-1.246,4.235,4.235,0,0,1-.4-1.848v-.988a3.779,3.779,0,0,1,.822-2.57,2.781,2.781,0,0,1,2.207-.942,2.931,2.931,0,0,1,1.944.615,2.537,2.537,0,0,1,.876,1.694h-.661a2.03,2.03,0,0,0-.7-1.307,2.261,2.261,0,0,0-1.453-.444,2.127,2.127,0,0,0-1.735.779,3.381,3.381,0,0,0-.639,2.2v.924a3.849,3.849,0,0,0,.3,1.578,2.4,2.4,0,0,0,.87,1.062,2.3,2.3,0,0,0,1.3.376,3.635,3.635,0,0,0,1.467-.269,1.58,1.58,0,0,0,.591-.414V345.5h-2.1v-.559h2.761Z" transform="translate(-23.197 -261.5)"/>
      <path class="cls-8" d="M473.815,348.1h3.861v.559h-4.527v-7.82h.666Z" transform="translate(-23.197 -261.5)"/>
      <path class="cls-8" d="M484.375,345.17a4.532,4.532,0,0,1-.373,1.9,2.848,2.848,0,0,1-1.066,1.257,2.922,2.922,0,0,1-1.6.44,2.776,2.776,0,0,1-2.213-.98,3.917,3.917,0,0,1-.844-2.645v-.806a4.5,4.5,0,0,1,.379-1.893,2.814,2.814,0,0,1,2.667-1.711,2.926,2.926,0,0,1,1.593.435,2.854,2.854,0,0,1,1.065,1.23,4.421,4.421,0,0,1,.393,1.842Zm-.661-.849a3.458,3.458,0,0,0-.639-2.213,2.3,2.3,0,0,0-3.488,0,3.485,3.485,0,0,0-.647,2.243v.816a3.455,3.455,0,0,0,.645,2.2,2.3,2.3,0,0,0,3.5.011,3.547,3.547,0,0,0,.628-2.237Z" transform="translate(-23.197 -261.5)"/>
      <path class="cls-8" d="M488.279,347.689l.043.167.049-.167,2.46-6.854h.725l-2.911,7.82h-.634l-2.911-7.82h.72Z" transform="translate(-23.197 -261.5)"/>
      <path class="cls-8" d="M497.023,344.907h-3.657v3.19h4.205v.559h-4.866v-7.82h4.84v.559h-4.179v2.954h3.657Z" transform="translate(-23.197 -261.5)"/>
    </g>
    <g>
      <path class="cls-8" d="M410.877,414.237l.242,1.214.3-1.16,1.7-5.763h.6l1.676,5.763.29,1.171.258-1.225,1.413-5.709h.677l-2,7.82h-.634l-1.772-6.118-.2-.773-.193.773-1.815,6.118h-.634l-2-7.82h.677Z" transform="translate(-23.197 -261.5)"/>
      <path class="cls-8" d="M422.215,413.087h-2.272v3.26h-.666v-7.82h2.541a2.9,2.9,0,0,1,1.955.606,2.314,2.314,0,0,1,.263,3.02,2.25,2.25,0,0,1-1.182.794l1.955,3.33v.07h-.7Zm-2.272-.559h2.025a1.874,1.874,0,0,0,1.337-.474,1.787,1.787,0,0,0-.021-2.512,2.18,2.18,0,0,0-1.477-.458h-1.864Z" transform="translate(-23.197 -261.5)"/>
      <path class="cls-8" d="M427.081,416.348h-.66v-7.82h.66Z" transform="translate(-23.197 -261.5)"/>
      <path class="cls-8" d="M433.629,414.425a1.264,1.264,0,0,0-.457-1.028,4.8,4.8,0,0,0-1.67-.72,5.85,5.85,0,0,1-1.772-.744,1.8,1.8,0,0,1-.057-2.951,3.031,3.031,0,0,1,1.888-.562,3.132,3.132,0,0,1,1.395.3,2.287,2.287,0,0,1,.953.838,2.2,2.2,0,0,1,.338,1.2h-.666a1.642,1.642,0,0,0-.548-1.29,2.131,2.131,0,0,0-1.472-.488,2.32,2.32,0,0,0-1.429.4,1.25,1.25,0,0,0-.531,1.046,1.184,1.184,0,0,0,.478.974,4.439,4.439,0,0,0,1.531.665,7.216,7.216,0,0,1,1.595.6,2.269,2.269,0,0,1,.816.739,1.849,1.849,0,0,1,.274,1.015,1.768,1.768,0,0,1-.738,1.482,3.147,3.147,0,0,1-1.947.559,3.819,3.819,0,0,1-1.518-.3,2.312,2.312,0,0,1-1.047-.827,2.134,2.134,0,0,1-.357-1.219h.66a1.561,1.561,0,0,0,.618,1.305,2.611,2.611,0,0,0,1.644.478,2.434,2.434,0,0,0,1.466-.4A1.259,1.259,0,0,0,433.629,414.425Z" transform="translate(-23.197 -261.5)"/>
      <path class="cls-8" d="M441.024,409.086h-2.68v7.262h-.661v-7.262h-2.675v-.559h6.016Z" transform="translate(-23.197 -261.5)"/>
      <path class="cls-8" d="M450.284,413.909a2.8,2.8,0,0,1-.883,1.891,2.924,2.924,0,0,1-2,.655,2.755,2.755,0,0,1-1.538-.435,2.83,2.83,0,0,1-1.034-1.233,4.383,4.383,0,0,1-.371-1.823v-1.015a4.436,4.436,0,0,1,.365-1.848,2.813,2.813,0,0,1,1.051-1.244,2.863,2.863,0,0,1,1.576-.437,2.8,2.8,0,0,1,1.984.677,2.832,2.832,0,0,1,.846,1.875h-.666a1.99,1.99,0,0,0-2.164-1.993,2.05,2.05,0,0,0-1.694.8,3.45,3.45,0,0,0-.632,2.2v.957a3.475,3.475,0,0,0,.615,2.161,1.981,1.981,0,0,0,1.662.806,2.2,2.2,0,0,0,1.563-.5,2.379,2.379,0,0,0,.649-1.49Z" transform="translate(-23.197 -261.5)"/>
      <path class="cls-8" d="M457.277,408.527v5.339a2.7,2.7,0,0,1-.349,1.375,2.289,2.289,0,0,1-.97.9,3.154,3.154,0,0,1-1.437.314,2.835,2.835,0,0,1-1.979-.674,2.47,2.47,0,0,1-.771-1.867v-5.387h.655v5.291a2.035,2.035,0,0,0,.563,1.534,2.415,2.415,0,0,0,3.06,0,2.033,2.033,0,0,0,.561-1.525v-5.3Z" transform="translate(-23.197 -261.5)"/>
      <path class="cls-8" d="M463.428,412.69H459.78v3.658h-.66v-7.82h4.845v.559H459.78v3.045h3.647Z" transform="translate(-23.197 -261.5)"/>
      <path class="cls-8" d="M469.615,412.69h-3.647v3.658h-.66v-7.82h4.845v.559h-4.185v3.045h3.647Z" transform="translate(-23.197 -261.5)"/>
    </g>
    <g>
      <path class="cls-8" d="M413.858,448.271a1.265,1.265,0,0,0-.457-1.028,4.8,4.8,0,0,0-1.67-.72,5.862,5.862,0,0,1-1.772-.744,1.8,1.8,0,0,1-.057-2.951,3.03,3.03,0,0,1,1.888-.562,3.125,3.125,0,0,1,1.394.3,2.278,2.278,0,0,1,.953.838,2.2,2.2,0,0,1,.338,1.2h-.666a1.643,1.643,0,0,0-.548-1.29,2.132,2.132,0,0,0-1.472-.487,2.322,2.322,0,0,0-1.429.4,1.252,1.252,0,0,0-.532,1.047,1.184,1.184,0,0,0,.478.974,4.427,4.427,0,0,0,1.531.664,7.218,7.218,0,0,1,1.6.6,2.276,2.276,0,0,1,.816.738,1.85,1.85,0,0,1,.274,1.016,1.769,1.769,0,0,1-.738,1.482,3.149,3.149,0,0,1-1.947.559,3.814,3.814,0,0,1-1.518-.3,2.311,2.311,0,0,1-1.047-.827,2.133,2.133,0,0,1-.357-1.219h.661a1.561,1.561,0,0,0,.618,1.3,2.61,2.61,0,0,0,1.644.479,2.436,2.436,0,0,0,1.466-.4A1.26,1.26,0,0,0,413.858,448.271Z" transform="translate(-23.197 -261.5)"/>
      <path class="cls-8" d="M416.613,449.635h3.862v.559h-4.528v-7.82h.666Z" transform="translate(-23.197 -261.5)"/>
      <path class="cls-8" d="M422.548,450.193h-.661v-7.82h.661Z" transform="translate(-23.197 -261.5)"/>
      <path class="cls-8" d="M424.67,450.193v-7.82h2.186a3.4,3.4,0,0,1,1.725.438,3.029,3.029,0,0,1,1.189,1.254,3.947,3.947,0,0,1,.427,1.858v.72a3.956,3.956,0,0,1-.424,1.858,3.024,3.024,0,0,1-1.2,1.252,3.509,3.509,0,0,1-1.77.44Zm.661-7.262v6.7h1.482a2.551,2.551,0,0,0,1.982-.82,3.168,3.168,0,0,0,.746-2.217v-.688a3.1,3.1,0,0,0-.735-2.161,2.507,2.507,0,0,0-1.939-.816Z" transform="translate(-23.197 -261.5)"/>
      <path class="cls-8" d="M432.678,450.193h-.66v-7.82h.66Z" transform="translate(-23.197 -261.5)"/>
      <path class="cls-8" d="M440.622,450.193h-.661l-4.5-6.692v6.692H434.8v-7.82h.666l4.5,6.7v-6.7h.655Z" transform="translate(-23.197 -261.5)"/>
      <path class="cls-8" d="M448.254,449.264a2.208,2.208,0,0,1-1.076.763,4.664,4.664,0,0,1-1.642.274,3.054,3.054,0,0,1-1.633-.44,2.94,2.94,0,0,1-1.106-1.246,4.237,4.237,0,0,1-.4-1.848v-.988a3.779,3.779,0,0,1,.822-2.57,2.781,2.781,0,0,1,2.207-.942,2.931,2.931,0,0,1,1.944.615,2.536,2.536,0,0,1,.876,1.694h-.661a2.028,2.028,0,0,0-.7-1.307,2.261,2.261,0,0,0-1.453-.444,2.127,2.127,0,0,0-1.735.779,3.379,3.379,0,0,0-.639,2.2v.925a3.845,3.845,0,0,0,.3,1.577,2.4,2.4,0,0,0,.87,1.062,2.3,2.3,0,0,0,1.3.377,3.643,3.643,0,0,0,1.467-.269,1.575,1.575,0,0,0,.591-.414v-2.02h-2.1v-.559h2.761Z" transform="translate(-23.197 -261.5)"/>
      <path class="cls-8" d="M458.341,447.755a2.8,2.8,0,0,1-.883,1.891,2.927,2.927,0,0,1-2,.655,2.755,2.755,0,0,1-1.538-.436,2.828,2.828,0,0,1-1.034-1.232,4.384,4.384,0,0,1-.371-1.823v-1.016a4.438,4.438,0,0,1,.365-1.848,2.812,2.812,0,0,1,1.051-1.243,2.859,2.859,0,0,1,1.576-.437,2.8,2.8,0,0,1,1.984.677,2.831,2.831,0,0,1,.846,1.874h-.666a1.99,1.99,0,0,0-2.164-1.992,2.049,2.049,0,0,0-1.694.795,3.453,3.453,0,0,0-.632,2.2v.956a3.474,3.474,0,0,0,.615,2.161,1.98,1.98,0,0,0,1.662.807,2.2,2.2,0,0,0,1.563-.5,2.381,2.381,0,0,0,.649-1.49Z" transform="translate(-23.197 -261.5)"/>
      <path class="cls-8" d="M460.613,449.635h3.861v.559h-4.527v-7.82h.666Z" transform="translate(-23.197 -261.5)"/>
      <path class="cls-8" d="M466.548,450.193h-.66v-7.82h.66Z" transform="translate(-23.197 -261.5)"/>
      <path class="cls-8" d="M469.33,447.008v3.186h-.66v-7.82h2.664a2.808,2.808,0,0,1,1.926.623,2.448,2.448,0,0,1,.026,3.413,2.889,2.889,0,0,1-1.969.6Zm0-.559h2a2.113,2.113,0,0,0,1.466-.457,1.63,1.63,0,0,0,.5-1.274,1.706,1.706,0,0,0-.5-1.294,2.012,2.012,0,0,0-1.426-.492H469.33Z" transform="translate(-23.197 -261.5)"/>
    </g>
    <g>
      <path class="cls-8" d="M410.093,379.317V382.5h-.661v-7.82H412.1a2.808,2.808,0,0,1,1.926.623,2.167,2.167,0,0,1,.706,1.713,2.145,2.145,0,0,1-.68,1.7,2.887,2.887,0,0,1-1.968.6Zm0-.559h2a2.114,2.114,0,0,0,1.466-.457,1.634,1.634,0,0,0,.5-1.275,1.708,1.708,0,0,0-.5-1.294,2.015,2.015,0,0,0-1.426-.492h-2.046Z" transform="translate(-23.197 -261.5)"/>
      <path class="cls-8" d="M419.686,380.305h-3.55l-.806,2.2h-.693l2.959-7.82h.628l2.959,7.82H420.5Zm-3.346-.559h3.137l-1.568-4.259Z" transform="translate(-23.197 -261.5)"/>
      <path class="cls-8" d="M423,381.943h3.862v.559h-4.528v-7.82H423Z" transform="translate(-23.197 -261.5)"/>
      <path class="cls-8" d="M429,374.682l2.885,6.9,2.895-6.9h.881v7.82H435V379.1l.054-3.491-2.911,6.9h-.511l-2.9-6.87.054,3.443V382.5h-.66v-7.82Z" transform="translate(-23.197 -261.5)"/>
      <path class="cls-8" d="M445.966,381.573a2.212,2.212,0,0,1-1.076.763,4.665,4.665,0,0,1-1.642.274,3.05,3.05,0,0,1-1.633-.44,2.937,2.937,0,0,1-1.106-1.246,4.235,4.235,0,0,1-.4-1.848v-.988a3.779,3.779,0,0,1,.822-2.57,2.781,2.781,0,0,1,2.207-.942,2.931,2.931,0,0,1,1.944.615,2.537,2.537,0,0,1,.876,1.694H445.3a2.03,2.03,0,0,0-.7-1.307,2.261,2.261,0,0,0-1.453-.444,2.127,2.127,0,0,0-1.735.779,3.381,3.381,0,0,0-.639,2.2v.924a3.849,3.849,0,0,0,.3,1.578,2.4,2.4,0,0,0,.87,1.062,2.3,2.3,0,0,0,1.3.376,3.635,3.635,0,0,0,1.467-.269,1.58,1.58,0,0,0,.591-.414v-2.02h-2.1v-.559h2.761Z" transform="translate(-23.197 -261.5)"/>
      <path class="cls-8" d="M448.507,381.943h3.861v.559h-4.527v-7.82h.666Z" transform="translate(-23.197 -261.5)"/>
      <path class="cls-8" d="M459.066,379.016a4.532,4.532,0,0,1-.373,1.9,2.848,2.848,0,0,1-1.066,1.257,2.922,2.922,0,0,1-1.6.44,2.776,2.776,0,0,1-2.213-.98,3.917,3.917,0,0,1-.844-2.645v-.806a4.5,4.5,0,0,1,.379-1.893,2.814,2.814,0,0,1,2.667-1.711,2.926,2.926,0,0,1,1.593.435,2.854,2.854,0,0,1,1.065,1.23,4.421,4.421,0,0,1,.393,1.842Zm-.661-.849a3.458,3.458,0,0,0-.639-2.213,2.3,2.3,0,0,0-3.488,0,3.485,3.485,0,0,0-.647,2.243v.816a3.455,3.455,0,0,0,.645,2.2,2.3,2.3,0,0,0,3.5.011,3.547,3.547,0,0,0,.628-2.237Z" transform="translate(-23.197 -261.5)"/>
      <path class="cls-8" d="M462.971,381.535l.043.167.049-.167,2.46-6.854h.725l-2.911,7.82H462.7l-2.911-7.82h.72Z" transform="translate(-23.197 -261.5)"/>
      <path class="cls-8" d="M471.715,378.753h-3.657v3.19h4.205v.559H467.4v-7.82h4.84v.559h-4.179v2.954h3.657Z" transform="translate(-23.197 -261.5)"/>
    </g>
    <g>
      <path class="cls-8" d="M414.819,510.208v5.339a2.7,2.7,0,0,1-.349,1.375,2.286,2.286,0,0,1-.97.9,3.152,3.152,0,0,1-1.437.314,2.836,2.836,0,0,1-1.979-.674,2.476,2.476,0,0,1-.771-1.867v-5.387h.655v5.29a2.036,2.036,0,0,0,.564,1.534,2.414,2.414,0,0,0,3.059,0,2.034,2.034,0,0,0,.561-1.525v-5.3Z" transform="translate(-23.197 -261.5)"/>
      <path class="cls-8" d="M417.322,514.843v3.186h-.661v-7.82h2.664a2.806,2.806,0,0,1,1.926.623,2.448,2.448,0,0,1,.026,3.413,2.887,2.887,0,0,1-1.968.6Zm0-.559h2a2.114,2.114,0,0,0,1.466-.457,1.632,1.632,0,0,0,.5-1.274,1.707,1.707,0,0,0-.5-1.294,2.01,2.01,0,0,0-1.426-.492h-2.046Z" transform="translate(-23.197 -261.5)"/>
      <path class="cls-8" d="M424.1,514.843v3.186h-.661v-7.82H426.1a2.808,2.808,0,0,1,1.926.623,2.448,2.448,0,0,1,.026,3.413,2.889,2.889,0,0,1-1.969.6Zm0-.559h2a2.113,2.113,0,0,0,1.466-.457,1.63,1.63,0,0,0,.5-1.274,1.706,1.706,0,0,0-.5-1.294,2.012,2.012,0,0,0-1.426-.492H424.1Z" transform="translate(-23.197 -261.5)"/>
      <path class="cls-8" d="M434.525,514.279h-3.657v3.19h4.205v.559h-4.866v-7.82h4.84v.559h-4.179v2.954h3.657Z" transform="translate(-23.197 -261.5)"/>
      <path class="cls-8" d="M439.387,514.768h-2.272v3.261h-.666v-7.82h2.541a2.9,2.9,0,0,1,1.955.606,2.314,2.314,0,0,1,.263,3.02,2.248,2.248,0,0,1-1.182.794l1.955,3.33v.07h-.7Zm-2.272-.559h2.025a1.871,1.871,0,0,0,1.337-.474,1.787,1.787,0,0,0-.021-2.512,2.18,2.18,0,0,0-1.477-.457h-1.864Z" transform="translate(-23.197 -261.5)"/>
      <path class="cls-8" d="M450.344,515.831h-3.551l-.806,2.2h-.692l2.959-7.82h.629l2.959,7.82h-.687ZM447,515.272h3.137l-1.568-4.259Z" transform="translate(-23.197 -261.5)"/>
      <path class="cls-8" d="M455.913,514.768h-2.271v3.261h-.666v-7.82h2.54a2.9,2.9,0,0,1,1.955.606,2.312,2.312,0,0,1,.264,3.02,2.252,2.252,0,0,1-1.182.794l1.955,3.33v.07h-.7Zm-2.271-.559h2.024a1.873,1.873,0,0,0,1.338-.474,1.787,1.787,0,0,0-.021-2.512,2.184,2.184,0,0,0-1.478-.457h-1.863Z" transform="translate(-23.197 -261.5)"/>
      <path class="cls-8" d="M460.85,510.208l2.884,6.9,2.9-6.9h.881v7.82h-.661v-3.405l.054-3.491-2.911,6.9h-.51l-2.9-6.87.054,3.443v3.427h-.661v-7.82Z" transform="translate(-23.197 -261.5)"/>
      <path class="cls-8" d="M472.827,514.843v3.186h-.661v-7.82h2.664a2.8,2.8,0,0,1,1.926.623,2.448,2.448,0,0,1,.026,3.413,2.884,2.884,0,0,1-1.968.6Zm0-.559h2a2.115,2.115,0,0,0,1.467-.457,1.634,1.634,0,0,0,.5-1.274,1.707,1.707,0,0,0-.5-1.294,2.009,2.009,0,0,0-1.426-.492h-2.046Z" transform="translate(-23.197 -261.5)"/>
      <path class="cls-8" d="M482.42,515.831h-3.551l-.806,2.2h-.692l2.959-7.82h.629l2.959,7.82h-.687Zm-3.347-.559h3.137l-1.568-4.259Z" transform="translate(-23.197 -261.5)"/>
      <path class="cls-8" d="M485.067,518.028v-7.82h2.187a3.4,3.4,0,0,1,1.724.438,3.023,3.023,0,0,1,1.189,1.254,3.947,3.947,0,0,1,.428,1.858v.72a3.944,3.944,0,0,1-.425,1.858,3.012,3.012,0,0,1-1.2,1.252,3.509,3.509,0,0,1-1.77.44Zm.661-7.262v6.7h1.482a2.549,2.549,0,0,0,1.981-.82,3.164,3.164,0,0,0,.747-2.217v-.688a3.094,3.094,0,0,0-.736-2.161,2.5,2.5,0,0,0-1.938-.816Z" transform="translate(-23.197 -261.5)"/>
    </g>
    <g>
      <path class="cls-8" d="M413.74,480.01h-3.647v3.658h-.661v-7.82h4.845v.559h-4.184v3.045h3.647Z" transform="translate(-23.197 -261.5)"/>
      <path class="cls-8" d="M421.4,480.182a4.528,4.528,0,0,1-.373,1.9,2.854,2.854,0,0,1-1.066,1.257,2.925,2.925,0,0,1-1.6.44,2.778,2.778,0,0,1-2.213-.98,3.92,3.92,0,0,1-.843-2.646v-.806a4.494,4.494,0,0,1,.378-1.893,2.815,2.815,0,0,1,2.667-1.711,2.924,2.924,0,0,1,1.593.435,2.857,2.857,0,0,1,1.066,1.23,4.425,4.425,0,0,1,.392,1.842Zm-.661-.849a3.457,3.457,0,0,0-.639-2.213,2.3,2.3,0,0,0-3.488,0,3.483,3.483,0,0,0-.647,2.242v.816a3.455,3.455,0,0,0,.645,2.205,2.3,2.3,0,0,0,3.5.011,3.549,3.549,0,0,0,.628-2.237Z" transform="translate(-23.197 -261.5)"/>
      <path class="cls-8" d="M425.986,480.407h-2.272v3.261h-.666v-7.82h2.541a2.9,2.9,0,0,1,1.955.606,2.312,2.312,0,0,1,.264,3.02,2.252,2.252,0,0,1-1.182.794l1.955,3.33v.07h-.7Zm-2.272-.559h2.025a1.873,1.873,0,0,0,1.337-.474,1.787,1.787,0,0,0-.021-2.512,2.184,2.184,0,0,0-1.477-.457h-1.864Z" transform="translate(-23.197 -261.5)"/>
      <path class="cls-8" d="M434.364,479.919h-3.657v3.19h4.205v.559h-4.866v-7.82h4.84v.559h-4.179v2.954h3.657Z" transform="translate(-23.197 -261.5)"/>
      <path class="cls-8" d="M440.525,481.471h-3.551l-.806,2.2h-.692l2.959-7.82h.629l2.959,7.82h-.687Zm-3.347-.559h3.137l-1.568-4.259Z" transform="translate(-23.197 -261.5)"/>
      <path class="cls-8" d="M446.095,480.407h-2.271v3.261h-.666v-7.82h2.54a2.9,2.9,0,0,1,1.955.606,2.312,2.312,0,0,1,.264,3.02,2.252,2.252,0,0,1-1.182.794l1.955,3.33v.07h-.7Zm-2.271-.559h2.024a1.873,1.873,0,0,0,1.338-.474,1.787,1.787,0,0,0-.021-2.512,2.184,2.184,0,0,0-1.478-.457h-1.863Z" transform="translate(-23.197 -261.5)"/>
      <path class="cls-8" d="M451.031,475.848l2.884,6.9,2.9-6.9h.881v7.82h-.661v-3.405l.054-3.491-2.911,6.9h-.51l-2.9-6.87.054,3.443v3.427h-.661v-7.82Z" transform="translate(-23.197 -261.5)"/>
      <path class="cls-8" d="M463.009,480.482v3.186h-.661v-7.82h2.664a2.8,2.8,0,0,1,1.926.623,2.448,2.448,0,0,1,.026,3.413,2.884,2.884,0,0,1-1.968.6Zm0-.559h2a2.115,2.115,0,0,0,1.467-.457,1.634,1.634,0,0,0,.5-1.274,1.707,1.707,0,0,0-.5-1.294,2.009,2.009,0,0,0-1.426-.492h-2.046Z" transform="translate(-23.197 -261.5)"/>
      <path class="cls-8" d="M472.6,481.471h-3.551l-.806,2.2h-.692l2.959-7.82h.629l2.959,7.82h-.687Zm-3.347-.559h3.137l-1.568-4.259Z" transform="translate(-23.197 -261.5)"/>
      <path class="cls-8" d="M475.249,483.668v-7.82h2.187a3.4,3.4,0,0,1,1.724.438,3.023,3.023,0,0,1,1.189,1.254,3.947,3.947,0,0,1,.428,1.858v.72a3.944,3.944,0,0,1-.425,1.858,3.012,3.012,0,0,1-1.2,1.252,3.509,3.509,0,0,1-1.77.44Zm.661-7.262v6.7h1.482a2.549,2.549,0,0,0,1.981-.82,3.164,3.164,0,0,0,.747-2.217v-.688a3.094,3.094,0,0,0-.736-2.161,2.5,2.5,0,0,0-1.938-.816Z" transform="translate(-23.197 -261.5)"/>
    </g>
    <g>
      <path class="cls-8" d="M414.97,584.31a2.8,2.8,0,0,1-.883,1.891,2.921,2.921,0,0,1-2,.655,2.756,2.756,0,0,1-1.539-.435,2.834,2.834,0,0,1-1.034-1.233,4.381,4.381,0,0,1-.371-1.823V582.35a4.427,4.427,0,0,1,.365-1.848,2.81,2.81,0,0,1,1.05-1.244,2.868,2.868,0,0,1,1.576-.437,2.8,2.8,0,0,1,1.984.677,2.834,2.834,0,0,1,.846,1.875H414.3a1.99,1.99,0,0,0-2.165-1.993,2.051,2.051,0,0,0-1.694.8,3.448,3.448,0,0,0-.631,2.2v.957a3.479,3.479,0,0,0,.615,2.161,1.982,1.982,0,0,0,1.663.806,2.2,2.2,0,0,0,1.563-.5,2.378,2.378,0,0,0,.65-1.49Z" transform="translate(-23.197 -261.5)"/>
      <path class="cls-8" d="M421.963,578.928v5.339a2.7,2.7,0,0,1-.349,1.375,2.28,2.28,0,0,1-.97.9,3.152,3.152,0,0,1-1.437.314,2.836,2.836,0,0,1-1.979-.674,2.472,2.472,0,0,1-.771-1.866v-5.388h.655v5.291a2.034,2.034,0,0,0,.564,1.533,2.414,2.414,0,0,0,3.059,0,2.033,2.033,0,0,0,.561-1.525v-5.3Z" transform="translate(-23.197 -261.5)"/>
      <path class="cls-8" d="M428.112,583.091h-3.646v3.657h-.661v-7.82h4.844v.559h-4.184v3.046h3.646Z" transform="translate(-23.197 -261.5)"/>
      <path class="cls-8" d="M434.3,583.091h-3.646v3.657h-.661v-7.82h4.845v.559h-4.184v3.046H434.3Z" transform="translate(-23.197 -261.5)"/>
      <path class="cls-8" d="M444.393,584.31a2.8,2.8,0,0,1-.884,1.891,2.921,2.921,0,0,1-2,.655,2.758,2.758,0,0,1-1.539-.435,2.838,2.838,0,0,1-1.034-1.233,4.381,4.381,0,0,1-.37-1.823V582.35a4.419,4.419,0,0,1,.365-1.848,2.806,2.806,0,0,1,1.05-1.244,2.869,2.869,0,0,1,1.576-.437,2.8,2.8,0,0,1,1.984.677,2.837,2.837,0,0,1,.847,1.875h-.666a1.991,1.991,0,0,0-2.165-1.993,2.052,2.052,0,0,0-1.694.8,3.448,3.448,0,0,0-.631,2.2v.957a3.482,3.482,0,0,0,.614,2.161,1.983,1.983,0,0,0,1.663.806,2.195,2.195,0,0,0,1.563-.5,2.379,2.379,0,0,0,.65-1.49Z" transform="translate(-23.197 -261.5)"/>
      <path class="cls-8" d="M446.664,586.189h3.862v.559H446v-7.82h.666Z" transform="translate(-23.197 -261.5)"/>
      <path class="cls-8" d="M452.6,586.748h-.661v-7.82h.661Z" transform="translate(-23.197 -261.5)"/>
      <path class="cls-8" d="M455.382,583.563v3.185h-.661v-7.82h2.664a2.809,2.809,0,0,1,1.926.623,2.168,2.168,0,0,1,.706,1.714,2.144,2.144,0,0,1-.68,1.7,2.885,2.885,0,0,1-1.968.6Zm0-.559h2a2.115,2.115,0,0,0,1.467-.457,1.637,1.637,0,0,0,.5-1.275,1.71,1.71,0,0,0-.5-1.294,2.018,2.018,0,0,0-1.426-.492h-2.046Z" transform="translate(-23.197 -261.5)"/>
    </g>
    <g>
      <path class="cls-8" d="M410.093,549.2v3.185h-.661v-7.82H412.1a2.811,2.811,0,0,1,1.926.623,2.168,2.168,0,0,1,.706,1.714,2.144,2.144,0,0,1-.68,1.7,2.887,2.887,0,0,1-1.968.6Zm0-.559h2a2.114,2.114,0,0,0,1.466-.457,1.636,1.636,0,0,0,.5-1.275,1.71,1.71,0,0,0-.5-1.294,2.019,2.019,0,0,0-1.426-.492h-2.046Z" transform="translate(-23.197 -261.5)"/>
      <path class="cls-8" d="M419.686,550.191h-3.55l-.806,2.2h-.693l2.959-7.82h.628l2.959,7.82H420.5Zm-3.346-.559h3.137l-1.568-4.26Z" transform="translate(-23.197 -261.5)"/>
      <path class="cls-8" d="M423,551.829h3.862v.559h-4.528v-7.82H423Z" transform="translate(-23.197 -261.5)"/>
      <path class="cls-8" d="M429,544.567l2.885,6.9,2.895-6.9h.881v7.82H435v-3.405l.054-3.491-2.911,6.9h-.511l-2.9-6.869.054,3.442v3.427h-.66v-7.82Z" transform="translate(-23.197 -261.5)"/>
      <path class="cls-8" d="M440.981,549.2v3.185h-.66v-7.82h2.664a2.813,2.813,0,0,1,1.926.623,2.168,2.168,0,0,1,.706,1.714,2.144,2.144,0,0,1-.68,1.7,2.889,2.889,0,0,1-1.969.6Zm0-.559h2a2.113,2.113,0,0,0,1.466-.457,1.634,1.634,0,0,0,.5-1.275,1.709,1.709,0,0,0-.5-1.294,2.021,2.021,0,0,0-1.426-.492h-2.047Z" transform="translate(-23.197 -261.5)"/>
      <path class="cls-8" d="M450.574,550.191h-3.55l-.806,2.2h-.693l2.96-7.82h.628l2.96,7.82h-.687Zm-3.346-.559h3.137l-1.568-4.26Z" transform="translate(-23.197 -261.5)"/>
      <path class="cls-8" d="M453.223,552.388v-7.82h2.186a3.41,3.41,0,0,1,1.725.438,3.026,3.026,0,0,1,1.189,1.255,3.941,3.941,0,0,1,.427,1.858v.72a3.959,3.959,0,0,1-.424,1.858,3.021,3.021,0,0,1-1.2,1.251,3.5,3.5,0,0,1-1.77.44Zm.66-7.262v6.7h1.482a2.554,2.554,0,0,0,1.982-.819,3.172,3.172,0,0,0,.746-2.218V548.1a3.1,3.1,0,0,0-.735-2.161,2.511,2.511,0,0,0-1.939-.817Z" transform="translate(-23.197 -261.5)"/>
    </g>
  </g>
  <polyline class="cls-9" points="71.498 169.923 90.938 169.923 90.938 83.901 114.195 83.901"/>
  <polyline class="cls-9" points="71.498 169.923 90.938 169.923 90.938 50.098 114.195 50.098"/>
  <polyline class="cls-9" points="71.498 169.923 90.938 169.923 90.938 117.705 114.195 117.705"/>
  <polyline class="cls-9" points="71.498 169.923 90.938 169.923 90.938 151.508 114.195 151.508"/>
  <polyline class="cls-9" points="71.498 169.923 90.938 169.923 90.938 185.311 114.195 185.311"/>
  <polyline class="cls-9" points="71.498 169.923 90.938 169.923 90.938 251.866 114.195 251.866"/>
  <polyline class="cls-9" points="71.498 169.923 90.938 169.923 90.938 219.114 114.195 219.114"/>
  <polyline class="cls-9" points="71.498 169.923 90.938 169.923 90.938 286.084 114.195 286.084"/>
  <polyline class="cls-9" points="333.873 216.531 353.313 216.531 353.313 169.923 376.57 169.923"/>
  <polyline class="cls-9" points="333.873 184.546 353.313 184.546 353.313 169.923 376.57 169.923"/>
  <polyline class="cls-9" points="333.873 150.7 353.313 150.7 353.313 169.923 376.57 169.923"/>
  <polyline class="cls-9" points="333.873 117.705 353.313 117.705 353.313 169.923 376.57 169.923"/>
  <polyline class="cls-9" points="333.873 82.541 353.313 82.541 353.313 169.923 376.57 169.923"/>
  <line class="cls-9" x1="202.803" y1="50.41" x2="297.873" y2="50.41"/>
  <line class="cls-9" x1="202.803" y1="118.102" x2="297.873" y2="118.102"/>
  <line class="cls-9" x1="202.803" y1="184.546" x2="297.873" y2="184.546"/>
  <line class="cls-9" x1="241.338" y1="251.866" x2="297.873" y2="251.866"/>
  <line class="cls-9" x1="276.177" y1="216.531" x2="297.873" y2="216.531"/>
  <line class="cls-9" x1="287.025" y1="286.226" x2="297.873" y2="286.226"/>
  <line class="cls-9" x1="184.803" y1="82.541" x2="297.873" y2="82.541"/>
  <line class="cls-9" x1="184.803" y1="151.508" x2="297.873" y2="151.508"/>
  <polyline class="cls-9" points="391.5 339.346 376.57 339.346 376.57 0.5 391.5 0.5"/>
</svg>
