<svg id="Layer_1" data-name="Layer 1" xmlns="http://www.w3.org/2000/svg" xmlns:xlink="http://www.w3.org/1999/xlink" viewBox="0 0 690.901 509.713">
  <defs>
    <style>
      .cls-1, .cls-15, .cls-19, .cls-3, .cls-5, .cls-6, .cls-7 {
        fill: none;
      }

      .cls-2 {
        clip-path: url(#clip-path);
      }

      .cls-10, .cls-11, .cls-12, .cls-13, .cls-14, .cls-15, .cls-17, .cls-18, .cls-19, .cls-20, .cls-21, .cls-22, .cls-23, .cls-24, .cls-25, .cls-26, .cls-3, .cls-5, .cls-6, .cls-7, .cls-8, .cls-9 {
        stroke: #313133;
      }

      .cls-3 {
        stroke-miterlimit: 10;
      }

      .cls-4 {
        clip-path: url(#clip-path-2);
      }

      .cls-10, .cls-11, .cls-12, .cls-13, .cls-14, .cls-15, .cls-17, .cls-18, .cls-19, .cls-20, .cls-21, .cls-22, .cls-23, .cls-24, .cls-25, .cls-26, .cls-5, .cls-6, .cls-7, .cls-8, .cls-9 {
        stroke-linecap: round;
        stroke-linejoin: round;
      }

      .cls-5, .cls-6 {
        stroke-width: 2px;
      }

      .cls-6 {
        stroke-dasharray: 0 4.874;
      }

      .cls-8 {
        fill: url(#Oblique_Fill);
      }

      .cls-9 {
        fill: url(#Oblique_Fill-3);
      }

      .cls-10 {
        fill: url(#Crosshatch_Fill);
      }

      .cls-11 {
        fill: url(#Crosshatch_Fill-3);
      }

      .cls-12 {
        fill: url(#Crosshatch_Fill-5);
      }

      .cls-13 {
        fill: url(#Crosshatch_Fill-7);
      }

      .cls-14 {
        fill: url(#Crosshatch_Fill-9);
      }

      .cls-15 {
        stroke-width: 0.5px;
        stroke-dasharray: 3 3;
      }

      .cls-16 {
        fill: #313133;
      }

      .cls-17 {
        fill: #fff;
      }

      .cls-18 {
        fill: url(#Crosshatch_Fill-11);
      }

      .cls-19 {
        stroke-dasharray: 6 6;
      }

      .cls-20 {
        fill: url(#New_Pattern_4);
      }

      .cls-21 {
        fill: url(#New_Pattern_4-3);
      }

      .cls-22 {
        fill: url(#New_Pattern_4-5);
      }

      .cls-23 {
        fill: url(#New_Pattern_4-7);
      }

      .cls-24 {
        fill: url(#New_Pattern_4-9);
      }

      .cls-25 {
        fill: url(#New_Pattern_4-11);
      }

      .cls-26 {
        fill: url(#New_Pattern_4-13);
      }
    </style>
    <clipPath id="clip-path">
      <polygon class="cls-1" points="44.801 0 44.801 44.801 0 44.801 0 0 44.801 0"/>
    </clipPath>
    <clipPath id="clip-path-2">
      <rect class="cls-1" width="41.416" height="41.416"/>
    </clipPath>
    <pattern id="Oblique_Fill" data-name="Oblique Fill" width="44.801" height="44.801" patternTransform="translate(-62.109 -260.004)" patternUnits="userSpaceOnUse" viewBox="0 0 44.801 44.801">
      <rect class="cls-1" width="44.801" height="44.801"/>
      <g class="cls-2">
        <g>
          <line class="cls-3" x1="-36.905" y1="4.644" x2="81.706" y2="123.255"/>
          <line class="cls-3" x1="-36.905" y1="-1.756" x2="81.706" y2="116.855"/>
          <line class="cls-3" x1="-36.905" y1="-8.157" x2="81.706" y2="110.455"/>
          <line class="cls-3" x1="-36.905" y1="-14.557" x2="81.706" y2="104.054"/>
          <line class="cls-3" x1="-36.905" y1="-20.957" x2="81.706" y2="97.654"/>
          <line class="cls-3" x1="-36.905" y1="-27.357" x2="81.706" y2="91.254"/>
          <line class="cls-3" x1="-36.905" y1="-33.757" x2="81.706" y2="84.854"/>
          <line class="cls-3" x1="-36.905" y1="-40.157" x2="81.706" y2="78.454"/>
          <line class="cls-3" x1="-36.905" y1="-46.557" x2="81.706" y2="72.054"/>
          <line class="cls-3" x1="-36.905" y1="-52.957" x2="81.706" y2="65.654"/>
          <line class="cls-3" x1="-36.905" y1="-59.357" x2="81.706" y2="59.254"/>
          <line class="cls-3" x1="-36.905" y1="-65.757" x2="81.706" y2="52.854"/>
          <line class="cls-3" x1="-36.905" y1="-72.158" x2="81.706" y2="46.454"/>
          <line class="cls-3" x1="-36.905" y1="-78.558" x2="81.706" y2="40.054"/>
          <line class="cls-3" x1="-36.905" y1="-84.958" x2="81.706" y2="33.653"/>
          <line class="cls-3" x1="-36.905" y1="11.044" x2="81.706" y2="129.655"/>
        </g>
      </g>
    </pattern>
    <pattern id="Oblique_Fill-3" data-name="Oblique Fill" width="44.801" height="44.801" patternTransform="translate(-106.909 -219.2)" patternUnits="userSpaceOnUse" viewBox="0 0 44.801 44.801">
      <rect class="cls-1" width="44.801" height="44.801"/>
      <g class="cls-2">
        <g>
          <line class="cls-3" x1="-36.905" y1="4.644" x2="81.706" y2="123.255"/>
          <line class="cls-3" x1="-36.905" y1="-1.756" x2="81.706" y2="116.855"/>
          <line class="cls-3" x1="-36.905" y1="-8.157" x2="81.706" y2="110.455"/>
          <line class="cls-3" x1="-36.905" y1="-14.557" x2="81.706" y2="104.054"/>
          <line class="cls-3" x1="-36.905" y1="-20.957" x2="81.706" y2="97.654"/>
          <line class="cls-3" x1="-36.905" y1="-27.357" x2="81.706" y2="91.254"/>
          <line class="cls-3" x1="-36.905" y1="-33.757" x2="81.706" y2="84.854"/>
          <line class="cls-3" x1="-36.905" y1="-40.157" x2="81.706" y2="78.454"/>
          <line class="cls-3" x1="-36.905" y1="-46.557" x2="81.706" y2="72.054"/>
          <line class="cls-3" x1="-36.905" y1="-52.957" x2="81.706" y2="65.654"/>
          <line class="cls-3" x1="-36.905" y1="-59.357" x2="81.706" y2="59.254"/>
          <line class="cls-3" x1="-36.905" y1="-65.757" x2="81.706" y2="52.854"/>
          <line class="cls-3" x1="-36.905" y1="-72.158" x2="81.706" y2="46.454"/>
          <line class="cls-3" x1="-36.905" y1="-78.558" x2="81.706" y2="40.054"/>
          <line class="cls-3" x1="-36.905" y1="-84.958" x2="81.706" y2="33.653"/>
          <line class="cls-3" x1="-36.905" y1="11.044" x2="81.706" y2="129.655"/>
        </g>
      </g>
    </pattern>
    <pattern id="Crosshatch_Fill" data-name="Crosshatch Fill" width="44.801" height="44.801" patternTransform="translate(-297.076 -341.742)" patternUnits="userSpaceOnUse" viewBox="0 0 44.801 44.801">
      <rect class="cls-1" width="44.801" height="44.801"/>
      <g class="cls-2">
        <g>
          <line class="cls-3" x1="4.695" y1="81.654" x2="123.306" y2="-36.957"/>
          <line class="cls-3" x1="-1.705" y1="81.654" x2="116.906" y2="-36.957"/>
          <line class="cls-3" x1="-8.105" y1="81.654" x2="110.506" y2="-36.957"/>
          <line class="cls-3" x1="-14.505" y1="81.654" x2="104.106" y2="-36.957"/>
          <line class="cls-3" x1="-20.905" y1="81.654" x2="97.706" y2="-36.957"/>
          <line class="cls-3" x1="-27.305" y1="81.654" x2="91.306" y2="-36.957"/>
          <line class="cls-3" x1="-33.705" y1="81.654" x2="84.906" y2="-36.957"/>
          <line class="cls-3" x1="-40.105" y1="81.654" x2="78.506" y2="-36.957"/>
          <line class="cls-3" x1="-46.505" y1="81.654" x2="72.106" y2="-36.957"/>
          <line class="cls-3" x1="-52.905" y1="81.654" x2="65.706" y2="-36.957"/>
          <line class="cls-3" x1="-59.306" y1="81.654" x2="59.306" y2="-36.957"/>
          <line class="cls-3" x1="-65.706" y1="81.654" x2="52.905" y2="-36.957"/>
          <line class="cls-3" x1="-72.106" y1="81.654" x2="46.505" y2="-36.957"/>
          <line class="cls-3" x1="-78.506" y1="81.654" x2="40.105" y2="-36.957"/>
          <line class="cls-3" x1="-84.906" y1="81.654" x2="33.705" y2="-36.957"/>
          <line class="cls-3" x1="11.095" y1="81.654" x2="129.707" y2="-36.957"/>
          <line class="cls-3" x1="-36.905" y1="4.644" x2="81.706" y2="123.255"/>
          <line class="cls-3" x1="-36.905" y1="-1.756" x2="81.706" y2="116.855"/>
          <line class="cls-3" x1="-36.905" y1="-8.157" x2="81.706" y2="110.455"/>
          <line class="cls-3" x1="-36.905" y1="-14.557" x2="81.706" y2="104.054"/>
          <line class="cls-3" x1="-36.905" y1="-20.957" x2="81.706" y2="97.654"/>
          <line class="cls-3" x1="-36.905" y1="-27.357" x2="81.706" y2="91.254"/>
          <line class="cls-3" x1="-36.905" y1="-33.757" x2="81.706" y2="84.854"/>
          <line class="cls-3" x1="-36.905" y1="-40.157" x2="81.706" y2="78.454"/>
          <line class="cls-3" x1="-36.905" y1="-46.557" x2="81.706" y2="72.054"/>
          <line class="cls-3" x1="-36.905" y1="-52.957" x2="81.706" y2="65.654"/>
          <line class="cls-3" x1="-36.905" y1="-59.357" x2="81.706" y2="59.254"/>
          <line class="cls-3" x1="-36.905" y1="-65.757" x2="81.706" y2="52.854"/>
          <line class="cls-3" x1="-36.905" y1="-72.158" x2="81.706" y2="46.454"/>
          <line class="cls-3" x1="-36.905" y1="-78.558" x2="81.706" y2="40.054"/>
          <line class="cls-3" x1="-36.905" y1="-84.958" x2="81.706" y2="33.653"/>
          <line class="cls-3" x1="-36.905" y1="11.044" x2="81.706" y2="129.655"/>
        </g>
      </g>
    </pattern>
    <pattern id="Crosshatch_Fill-3" data-name="Crosshatch Fill" width="44.801" height="44.801" patternTransform="translate(-297.076 -320.519)" patternUnits="userSpaceOnUse" viewBox="0 0 44.801 44.801">
      <rect class="cls-1" width="44.801" height="44.801"/>
      <g class="cls-2">
        <g>
          <line class="cls-3" x1="4.695" y1="81.654" x2="123.306" y2="-36.957"/>
          <line class="cls-3" x1="-1.705" y1="81.654" x2="116.906" y2="-36.957"/>
          <line class="cls-3" x1="-8.105" y1="81.654" x2="110.506" y2="-36.957"/>
          <line class="cls-3" x1="-14.505" y1="81.654" x2="104.106" y2="-36.957"/>
          <line class="cls-3" x1="-20.905" y1="81.654" x2="97.706" y2="-36.957"/>
          <line class="cls-3" x1="-27.305" y1="81.654" x2="91.306" y2="-36.957"/>
          <line class="cls-3" x1="-33.705" y1="81.654" x2="84.906" y2="-36.957"/>
          <line class="cls-3" x1="-40.105" y1="81.654" x2="78.506" y2="-36.957"/>
          <line class="cls-3" x1="-46.505" y1="81.654" x2="72.106" y2="-36.957"/>
          <line class="cls-3" x1="-52.905" y1="81.654" x2="65.706" y2="-36.957"/>
          <line class="cls-3" x1="-59.306" y1="81.654" x2="59.306" y2="-36.957"/>
          <line class="cls-3" x1="-65.706" y1="81.654" x2="52.905" y2="-36.957"/>
          <line class="cls-3" x1="-72.106" y1="81.654" x2="46.505" y2="-36.957"/>
          <line class="cls-3" x1="-78.506" y1="81.654" x2="40.105" y2="-36.957"/>
          <line class="cls-3" x1="-84.906" y1="81.654" x2="33.705" y2="-36.957"/>
          <line class="cls-3" x1="11.095" y1="81.654" x2="129.707" y2="-36.957"/>
          <line class="cls-3" x1="-36.905" y1="4.644" x2="81.706" y2="123.255"/>
          <line class="cls-3" x1="-36.905" y1="-1.756" x2="81.706" y2="116.855"/>
          <line class="cls-3" x1="-36.905" y1="-8.157" x2="81.706" y2="110.455"/>
          <line class="cls-3" x1="-36.905" y1="-14.557" x2="81.706" y2="104.054"/>
          <line class="cls-3" x1="-36.905" y1="-20.957" x2="81.706" y2="97.654"/>
          <line class="cls-3" x1="-36.905" y1="-27.357" x2="81.706" y2="91.254"/>
          <line class="cls-3" x1="-36.905" y1="-33.757" x2="81.706" y2="84.854"/>
          <line class="cls-3" x1="-36.905" y1="-40.157" x2="81.706" y2="78.454"/>
          <line class="cls-3" x1="-36.905" y1="-46.557" x2="81.706" y2="72.054"/>
          <line class="cls-3" x1="-36.905" y1="-52.957" x2="81.706" y2="65.654"/>
          <line class="cls-3" x1="-36.905" y1="-59.357" x2="81.706" y2="59.254"/>
          <line class="cls-3" x1="-36.905" y1="-65.757" x2="81.706" y2="52.854"/>
          <line class="cls-3" x1="-36.905" y1="-72.158" x2="81.706" y2="46.454"/>
          <line class="cls-3" x1="-36.905" y1="-78.558" x2="81.706" y2="40.054"/>
          <line class="cls-3" x1="-36.905" y1="-84.958" x2="81.706" y2="33.653"/>
          <line class="cls-3" x1="-36.905" y1="11.044" x2="81.706" y2="129.655"/>
        </g>
      </g>
    </pattern>
    <pattern id="Crosshatch_Fill-5" data-name="Crosshatch Fill" width="44.801" height="44.801" patternTransform="translate(-297.076 -299.295)" patternUnits="userSpaceOnUse" viewBox="0 0 44.801 44.801">
      <rect class="cls-1" width="44.801" height="44.801"/>
      <g class="cls-2">
        <g>
          <line class="cls-3" x1="4.695" y1="81.654" x2="123.306" y2="-36.957"/>
          <line class="cls-3" x1="-1.705" y1="81.654" x2="116.906" y2="-36.957"/>
          <line class="cls-3" x1="-8.105" y1="81.654" x2="110.506" y2="-36.957"/>
          <line class="cls-3" x1="-14.505" y1="81.654" x2="104.106" y2="-36.957"/>
          <line class="cls-3" x1="-20.905" y1="81.654" x2="97.706" y2="-36.957"/>
          <line class="cls-3" x1="-27.305" y1="81.654" x2="91.306" y2="-36.957"/>
          <line class="cls-3" x1="-33.705" y1="81.654" x2="84.906" y2="-36.957"/>
          <line class="cls-3" x1="-40.105" y1="81.654" x2="78.506" y2="-36.957"/>
          <line class="cls-3" x1="-46.505" y1="81.654" x2="72.106" y2="-36.957"/>
          <line class="cls-3" x1="-52.905" y1="81.654" x2="65.706" y2="-36.957"/>
          <line class="cls-3" x1="-59.306" y1="81.654" x2="59.306" y2="-36.957"/>
          <line class="cls-3" x1="-65.706" y1="81.654" x2="52.905" y2="-36.957"/>
          <line class="cls-3" x1="-72.106" y1="81.654" x2="46.505" y2="-36.957"/>
          <line class="cls-3" x1="-78.506" y1="81.654" x2="40.105" y2="-36.957"/>
          <line class="cls-3" x1="-84.906" y1="81.654" x2="33.705" y2="-36.957"/>
          <line class="cls-3" x1="11.095" y1="81.654" x2="129.707" y2="-36.957"/>
          <line class="cls-3" x1="-36.905" y1="4.644" x2="81.706" y2="123.255"/>
          <line class="cls-3" x1="-36.905" y1="-1.756" x2="81.706" y2="116.855"/>
          <line class="cls-3" x1="-36.905" y1="-8.157" x2="81.706" y2="110.455"/>
          <line class="cls-3" x1="-36.905" y1="-14.557" x2="81.706" y2="104.054"/>
          <line class="cls-3" x1="-36.905" y1="-20.957" x2="81.706" y2="97.654"/>
          <line class="cls-3" x1="-36.905" y1="-27.357" x2="81.706" y2="91.254"/>
          <line class="cls-3" x1="-36.905" y1="-33.757" x2="81.706" y2="84.854"/>
          <line class="cls-3" x1="-36.905" y1="-40.157" x2="81.706" y2="78.454"/>
          <line class="cls-3" x1="-36.905" y1="-46.557" x2="81.706" y2="72.054"/>
          <line class="cls-3" x1="-36.905" y1="-52.957" x2="81.706" y2="65.654"/>
          <line class="cls-3" x1="-36.905" y1="-59.357" x2="81.706" y2="59.254"/>
          <line class="cls-3" x1="-36.905" y1="-65.757" x2="81.706" y2="52.854"/>
          <line class="cls-3" x1="-36.905" y1="-72.158" x2="81.706" y2="46.454"/>
          <line class="cls-3" x1="-36.905" y1="-78.558" x2="81.706" y2="40.054"/>
          <line class="cls-3" x1="-36.905" y1="-84.958" x2="81.706" y2="33.653"/>
          <line class="cls-3" x1="-36.905" y1="11.044" x2="81.706" y2="129.655"/>
        </g>
      </g>
    </pattern>
    <pattern id="Crosshatch_Fill-7" data-name="Crosshatch Fill" width="44.801" height="44.801" patternTransform="translate(-297.076 -321.55)" patternUnits="userSpaceOnUse" viewBox="0 0 44.801 44.801">
      <rect class="cls-1" width="44.801" height="44.801"/>
      <g class="cls-2">
        <g>
          <line class="cls-3" x1="4.695" y1="81.654" x2="123.306" y2="-36.957"/>
          <line class="cls-3" x1="-1.705" y1="81.654" x2="116.906" y2="-36.957"/>
          <line class="cls-3" x1="-8.105" y1="81.654" x2="110.506" y2="-36.957"/>
          <line class="cls-3" x1="-14.505" y1="81.654" x2="104.106" y2="-36.957"/>
          <line class="cls-3" x1="-20.905" y1="81.654" x2="97.706" y2="-36.957"/>
          <line class="cls-3" x1="-27.305" y1="81.654" x2="91.306" y2="-36.957"/>
          <line class="cls-3" x1="-33.705" y1="81.654" x2="84.906" y2="-36.957"/>
          <line class="cls-3" x1="-40.105" y1="81.654" x2="78.506" y2="-36.957"/>
          <line class="cls-3" x1="-46.505" y1="81.654" x2="72.106" y2="-36.957"/>
          <line class="cls-3" x1="-52.905" y1="81.654" x2="65.706" y2="-36.957"/>
          <line class="cls-3" x1="-59.306" y1="81.654" x2="59.306" y2="-36.957"/>
          <line class="cls-3" x1="-65.706" y1="81.654" x2="52.905" y2="-36.957"/>
          <line class="cls-3" x1="-72.106" y1="81.654" x2="46.505" y2="-36.957"/>
          <line class="cls-3" x1="-78.506" y1="81.654" x2="40.105" y2="-36.957"/>
          <line class="cls-3" x1="-84.906" y1="81.654" x2="33.705" y2="-36.957"/>
          <line class="cls-3" x1="11.095" y1="81.654" x2="129.707" y2="-36.957"/>
          <line class="cls-3" x1="-36.905" y1="4.644" x2="81.706" y2="123.255"/>
          <line class="cls-3" x1="-36.905" y1="-1.756" x2="81.706" y2="116.855"/>
          <line class="cls-3" x1="-36.905" y1="-8.157" x2="81.706" y2="110.455"/>
          <line class="cls-3" x1="-36.905" y1="-14.557" x2="81.706" y2="104.054"/>
          <line class="cls-3" x1="-36.905" y1="-20.957" x2="81.706" y2="97.654"/>
          <line class="cls-3" x1="-36.905" y1="-27.357" x2="81.706" y2="91.254"/>
          <line class="cls-3" x1="-36.905" y1="-33.757" x2="81.706" y2="84.854"/>
          <line class="cls-3" x1="-36.905" y1="-40.157" x2="81.706" y2="78.454"/>
          <line class="cls-3" x1="-36.905" y1="-46.557" x2="81.706" y2="72.054"/>
          <line class="cls-3" x1="-36.905" y1="-52.957" x2="81.706" y2="65.654"/>
          <line class="cls-3" x1="-36.905" y1="-59.357" x2="81.706" y2="59.254"/>
          <line class="cls-3" x1="-36.905" y1="-65.757" x2="81.706" y2="52.854"/>
          <line class="cls-3" x1="-36.905" y1="-72.158" x2="81.706" y2="46.454"/>
          <line class="cls-3" x1="-36.905" y1="-78.558" x2="81.706" y2="40.054"/>
          <line class="cls-3" x1="-36.905" y1="-84.958" x2="81.706" y2="33.653"/>
          <line class="cls-3" x1="-36.905" y1="11.044" x2="81.706" y2="129.655"/>
        </g>
      </g>
    </pattern>
    <pattern id="Crosshatch_Fill-9" data-name="Crosshatch Fill" width="44.801" height="44.801" patternTransform="translate(-297.076 -301.358)" patternUnits="userSpaceOnUse" viewBox="0 0 44.801 44.801">
      <rect class="cls-1" width="44.801" height="44.801"/>
      <g class="cls-2">
        <g>
          <line class="cls-3" x1="4.695" y1="81.654" x2="123.306" y2="-36.957"/>
          <line class="cls-3" x1="-1.705" y1="81.654" x2="116.906" y2="-36.957"/>
          <line class="cls-3" x1="-8.105" y1="81.654" x2="110.506" y2="-36.957"/>
          <line class="cls-3" x1="-14.505" y1="81.654" x2="104.106" y2="-36.957"/>
          <line class="cls-3" x1="-20.905" y1="81.654" x2="97.706" y2="-36.957"/>
          <line class="cls-3" x1="-27.305" y1="81.654" x2="91.306" y2="-36.957"/>
          <line class="cls-3" x1="-33.705" y1="81.654" x2="84.906" y2="-36.957"/>
          <line class="cls-3" x1="-40.105" y1="81.654" x2="78.506" y2="-36.957"/>
          <line class="cls-3" x1="-46.505" y1="81.654" x2="72.106" y2="-36.957"/>
          <line class="cls-3" x1="-52.905" y1="81.654" x2="65.706" y2="-36.957"/>
          <line class="cls-3" x1="-59.306" y1="81.654" x2="59.306" y2="-36.957"/>
          <line class="cls-3" x1="-65.706" y1="81.654" x2="52.905" y2="-36.957"/>
          <line class="cls-3" x1="-72.106" y1="81.654" x2="46.505" y2="-36.957"/>
          <line class="cls-3" x1="-78.506" y1="81.654" x2="40.105" y2="-36.957"/>
          <line class="cls-3" x1="-84.906" y1="81.654" x2="33.705" y2="-36.957"/>
          <line class="cls-3" x1="11.095" y1="81.654" x2="129.707" y2="-36.957"/>
          <line class="cls-3" x1="-36.905" y1="4.644" x2="81.706" y2="123.255"/>
          <line class="cls-3" x1="-36.905" y1="-1.756" x2="81.706" y2="116.855"/>
          <line class="cls-3" x1="-36.905" y1="-8.157" x2="81.706" y2="110.455"/>
          <line class="cls-3" x1="-36.905" y1="-14.557" x2="81.706" y2="104.054"/>
          <line class="cls-3" x1="-36.905" y1="-20.957" x2="81.706" y2="97.654"/>
          <line class="cls-3" x1="-36.905" y1="-27.357" x2="81.706" y2="91.254"/>
          <line class="cls-3" x1="-36.905" y1="-33.757" x2="81.706" y2="84.854"/>
          <line class="cls-3" x1="-36.905" y1="-40.157" x2="81.706" y2="78.454"/>
          <line class="cls-3" x1="-36.905" y1="-46.557" x2="81.706" y2="72.054"/>
          <line class="cls-3" x1="-36.905" y1="-52.957" x2="81.706" y2="65.654"/>
          <line class="cls-3" x1="-36.905" y1="-59.357" x2="81.706" y2="59.254"/>
          <line class="cls-3" x1="-36.905" y1="-65.757" x2="81.706" y2="52.854"/>
          <line class="cls-3" x1="-36.905" y1="-72.158" x2="81.706" y2="46.454"/>
          <line class="cls-3" x1="-36.905" y1="-78.558" x2="81.706" y2="40.054"/>
          <line class="cls-3" x1="-36.905" y1="-84.958" x2="81.706" y2="33.653"/>
          <line class="cls-3" x1="-36.905" y1="11.044" x2="81.706" y2="129.655"/>
        </g>
      </g>
    </pattern>
    <pattern id="Crosshatch_Fill-11" data-name="Crosshatch Fill" width="44.801" height="44.801" patternTransform="translate(-229.722 -339.725)" patternUnits="userSpaceOnUse" viewBox="0 0 44.801 44.801">
      <rect class="cls-1" width="44.801" height="44.801"/>
      <g class="cls-2">
        <g>
          <line class="cls-3" x1="4.695" y1="81.654" x2="123.306" y2="-36.957"/>
          <line class="cls-3" x1="-1.705" y1="81.654" x2="116.906" y2="-36.957"/>
          <line class="cls-3" x1="-8.105" y1="81.654" x2="110.506" y2="-36.957"/>
          <line class="cls-3" x1="-14.505" y1="81.654" x2="104.106" y2="-36.957"/>
          <line class="cls-3" x1="-20.905" y1="81.654" x2="97.706" y2="-36.957"/>
          <line class="cls-3" x1="-27.305" y1="81.654" x2="91.306" y2="-36.957"/>
          <line class="cls-3" x1="-33.705" y1="81.654" x2="84.906" y2="-36.957"/>
          <line class="cls-3" x1="-40.105" y1="81.654" x2="78.506" y2="-36.957"/>
          <line class="cls-3" x1="-46.505" y1="81.654" x2="72.106" y2="-36.957"/>
          <line class="cls-3" x1="-52.905" y1="81.654" x2="65.706" y2="-36.957"/>
          <line class="cls-3" x1="-59.306" y1="81.654" x2="59.306" y2="-36.957"/>
          <line class="cls-3" x1="-65.706" y1="81.654" x2="52.905" y2="-36.957"/>
          <line class="cls-3" x1="-72.106" y1="81.654" x2="46.505" y2="-36.957"/>
          <line class="cls-3" x1="-78.506" y1="81.654" x2="40.105" y2="-36.957"/>
          <line class="cls-3" x1="-84.906" y1="81.654" x2="33.705" y2="-36.957"/>
          <line class="cls-3" x1="11.095" y1="81.654" x2="129.707" y2="-36.957"/>
          <line class="cls-3" x1="-36.905" y1="4.644" x2="81.706" y2="123.255"/>
          <line class="cls-3" x1="-36.905" y1="-1.756" x2="81.706" y2="116.855"/>
          <line class="cls-3" x1="-36.905" y1="-8.157" x2="81.706" y2="110.455"/>
          <line class="cls-3" x1="-36.905" y1="-14.557" x2="81.706" y2="104.054"/>
          <line class="cls-3" x1="-36.905" y1="-20.957" x2="81.706" y2="97.654"/>
          <line class="cls-3" x1="-36.905" y1="-27.357" x2="81.706" y2="91.254"/>
          <line class="cls-3" x1="-36.905" y1="-33.757" x2="81.706" y2="84.854"/>
          <line class="cls-3" x1="-36.905" y1="-40.157" x2="81.706" y2="78.454"/>
          <line class="cls-3" x1="-36.905" y1="-46.557" x2="81.706" y2="72.054"/>
          <line class="cls-3" x1="-36.905" y1="-52.957" x2="81.706" y2="65.654"/>
          <line class="cls-3" x1="-36.905" y1="-59.357" x2="81.706" y2="59.254"/>
          <line class="cls-3" x1="-36.905" y1="-65.757" x2="81.706" y2="52.854"/>
          <line class="cls-3" x1="-36.905" y1="-72.158" x2="81.706" y2="46.454"/>
          <line class="cls-3" x1="-36.905" y1="-78.558" x2="81.706" y2="40.054"/>
          <line class="cls-3" x1="-36.905" y1="-84.958" x2="81.706" y2="33.653"/>
          <line class="cls-3" x1="-36.905" y1="11.044" x2="81.706" y2="129.655"/>
        </g>
      </g>
    </pattern>
    <pattern id="New_Pattern_4" data-name="New Pattern 4" width="41.416" height="41.416" patternTransform="translate(-331.405 -187.281)" patternUnits="userSpaceOnUse" viewBox="0 0 41.416 41.416">
      <rect class="cls-1" width="41.416" height="41.416"/>
      <g class="cls-4">
        <g>
          <g>
            <line class="cls-5" y1="-6.831" y2="-6.831"/>
            <line class="cls-6" x1="3.446" y1="-3.384" x2="43.078" y2="36.247"/>
            <line class="cls-5" x1="44.801" y1="37.97" x2="44.801" y2="37.97"/>
          </g>
          <g>
            <line class="cls-5" y1="-48.185" y2="-48.185"/>
            <line class="cls-6" x1="3.446" y1="-44.739" x2="43.078" y2="-5.108"/>
            <line class="cls-5" x1="44.801" y1="-3.384" x2="44.801" y2="-3.384"/>
          </g>
          <g>
            <line class="cls-5" y1="-41.293" y2="-41.293"/>
            <line class="cls-6" x1="3.446" y1="-37.846" x2="43.078" y2="1.785"/>
            <line class="cls-5" x1="44.801" y1="3.508" x2="44.801" y2="3.508"/>
          </g>
          <g>
            <line class="cls-5" y1="0.062" y2="0.062"/>
            <line class="cls-6" x1="3.446" y1="3.508" x2="43.078" y2="43.139"/>
            <line class="cls-5" x1="44.801" y1="44.863" x2="44.801" y2="44.863"/>
          </g>
          <g>
            <line class="cls-5" y1="6.954" y2="6.954"/>
            <line class="cls-6" x1="3.446" y1="10.4" x2="43.078" y2="50.032"/>
            <line class="cls-5" x1="44.801" y1="51.755" x2="44.801" y2="51.755"/>
          </g>
          <g>
            <line class="cls-5" y1="13.847" y2="13.847"/>
            <line class="cls-6" x1="3.446" y1="17.293" x2="43.078" y2="56.924"/>
            <line class="cls-5" x1="44.801" y1="58.647" x2="44.801" y2="58.647"/>
          </g>
          <g>
            <line class="cls-5" y1="20.739" y2="20.739"/>
            <line class="cls-6" x1="3.446" y1="24.185" x2="43.078" y2="63.817"/>
            <line class="cls-5" x1="44.801" y1="65.54" x2="44.801" y2="65.54"/>
          </g>
          <g>
            <line class="cls-5" y1="27.631" y2="27.631"/>
            <line class="cls-6" x1="3.446" y1="31.078" x2="43.078" y2="70.709"/>
            <line class="cls-5" x1="44.801" y1="72.432" x2="44.801" y2="72.432"/>
          </g>
          <g>
            <line class="cls-5" y1="34.524" y2="34.524"/>
            <line class="cls-6" x1="3.446" y1="37.97" x2="43.078" y2="77.601"/>
            <line class="cls-5" x1="44.801" y1="79.325" x2="44.801" y2="79.325"/>
          </g>
          <g>
            <line class="cls-5" y1="-27.508" y2="-27.508"/>
            <line class="cls-6" x1="3.446" y1="-24.062" x2="43.078" y2="15.57"/>
            <line class="cls-5" x1="44.801" y1="17.293" x2="44.801" y2="17.293"/>
          </g>
          <g>
            <line class="cls-5" y1="-34.4" y2="-34.4"/>
            <line class="cls-6" x1="3.446" y1="-30.954" x2="43.078" y2="8.677"/>
            <line class="cls-5" x1="44.801" y1="10.4" x2="44.801" y2="10.4"/>
          </g>
          <g>
            <line class="cls-5" y1="-20.615" y2="-20.615"/>
            <line class="cls-6" x1="3.446" y1="-17.169" x2="43.078" y2="22.462"/>
            <line class="cls-5" x1="44.801" y1="24.185" x2="44.801" y2="24.185"/>
          </g>
          <g>
            <line class="cls-5" y1="-13.723" y2="-13.723"/>
            <line class="cls-6" x1="3.446" y1="-10.277" x2="43.078" y2="29.355"/>
            <line class="cls-5" x1="44.801" y1="31.078" x2="44.801" y2="31.078"/>
          </g>
          <g>
            <line class="cls-5" y1="41.416" y2="41.416"/>
            <line class="cls-6" x1="3.446" y1="44.863" x2="43.078" y2="84.494"/>
            <line class="cls-5" x1="44.801" y1="86.217" x2="44.801" y2="86.217"/>
          </g>
        </g>
      </g>
    </pattern>
    <pattern id="New_Pattern_4-3" data-name="New Pattern 4" width="41.416" height="41.416" patternTransform="translate(-331.405 -142.046)" patternUnits="userSpaceOnUse" viewBox="0 0 41.416 41.416">
      <rect class="cls-1" width="41.416" height="41.416"/>
      <g class="cls-4">
        <g>
          <g>
            <line class="cls-5" y1="-6.831" y2="-6.831"/>
            <line class="cls-6" x1="3.446" y1="-3.384" x2="43.078" y2="36.247"/>
            <line class="cls-5" x1="44.801" y1="37.97" x2="44.801" y2="37.97"/>
          </g>
          <g>
            <line class="cls-5" y1="-48.185" y2="-48.185"/>
            <line class="cls-6" x1="3.446" y1="-44.739" x2="43.078" y2="-5.108"/>
            <line class="cls-5" x1="44.801" y1="-3.384" x2="44.801" y2="-3.384"/>
          </g>
          <g>
            <line class="cls-5" y1="-41.293" y2="-41.293"/>
            <line class="cls-6" x1="3.446" y1="-37.846" x2="43.078" y2="1.785"/>
            <line class="cls-5" x1="44.801" y1="3.508" x2="44.801" y2="3.508"/>
          </g>
          <g>
            <line class="cls-5" y1="0.062" y2="0.062"/>
            <line class="cls-6" x1="3.446" y1="3.508" x2="43.078" y2="43.139"/>
            <line class="cls-5" x1="44.801" y1="44.863" x2="44.801" y2="44.863"/>
          </g>
          <g>
            <line class="cls-5" y1="6.954" y2="6.954"/>
            <line class="cls-6" x1="3.446" y1="10.4" x2="43.078" y2="50.032"/>
            <line class="cls-5" x1="44.801" y1="51.755" x2="44.801" y2="51.755"/>
          </g>
          <g>
            <line class="cls-5" y1="13.847" y2="13.847"/>
            <line class="cls-6" x1="3.446" y1="17.293" x2="43.078" y2="56.924"/>
            <line class="cls-5" x1="44.801" y1="58.647" x2="44.801" y2="58.647"/>
          </g>
          <g>
            <line class="cls-5" y1="20.739" y2="20.739"/>
            <line class="cls-6" x1="3.446" y1="24.185" x2="43.078" y2="63.817"/>
            <line class="cls-5" x1="44.801" y1="65.54" x2="44.801" y2="65.54"/>
          </g>
          <g>
            <line class="cls-5" y1="27.631" y2="27.631"/>
            <line class="cls-6" x1="3.446" y1="31.078" x2="43.078" y2="70.709"/>
            <line class="cls-5" x1="44.801" y1="72.432" x2="44.801" y2="72.432"/>
          </g>
          <g>
            <line class="cls-5" y1="34.524" y2="34.524"/>
            <line class="cls-6" x1="3.446" y1="37.97" x2="43.078" y2="77.601"/>
            <line class="cls-5" x1="44.801" y1="79.325" x2="44.801" y2="79.325"/>
          </g>
          <g>
            <line class="cls-5" y1="-27.508" y2="-27.508"/>
            <line class="cls-6" x1="3.446" y1="-24.062" x2="43.078" y2="15.57"/>
            <line class="cls-5" x1="44.801" y1="17.293" x2="44.801" y2="17.293"/>
          </g>
          <g>
            <line class="cls-5" y1="-34.4" y2="-34.4"/>
            <line class="cls-6" x1="3.446" y1="-30.954" x2="43.078" y2="8.677"/>
            <line class="cls-5" x1="44.801" y1="10.4" x2="44.801" y2="10.4"/>
          </g>
          <g>
            <line class="cls-5" y1="-20.615" y2="-20.615"/>
            <line class="cls-6" x1="3.446" y1="-17.169" x2="43.078" y2="22.462"/>
            <line class="cls-5" x1="44.801" y1="24.185" x2="44.801" y2="24.185"/>
          </g>
          <g>
            <line class="cls-5" y1="-13.723" y2="-13.723"/>
            <line class="cls-6" x1="3.446" y1="-10.277" x2="43.078" y2="29.355"/>
            <line class="cls-5" x1="44.801" y1="31.078" x2="44.801" y2="31.078"/>
          </g>
          <g>
            <line class="cls-5" y1="41.416" y2="41.416"/>
            <line class="cls-6" x1="3.446" y1="44.863" x2="43.078" y2="84.494"/>
            <line class="cls-5" x1="44.801" y1="86.217" x2="44.801" y2="86.217"/>
          </g>
        </g>
      </g>
    </pattern>
    <pattern id="New_Pattern_4-5" data-name="New Pattern 4" width="41.416" height="41.416" patternTransform="translate(-284.135 -136.029)" patternUnits="userSpaceOnUse" viewBox="0 0 41.416 41.416">
      <rect class="cls-1" width="41.416" height="41.416"/>
      <g class="cls-4">
        <g>
          <g>
            <line class="cls-5" y1="-6.831" y2="-6.831"/>
            <line class="cls-6" x1="3.446" y1="-3.384" x2="43.078" y2="36.247"/>
            <line class="cls-5" x1="44.801" y1="37.97" x2="44.801" y2="37.97"/>
          </g>
          <g>
            <line class="cls-5" y1="-48.185" y2="-48.185"/>
            <line class="cls-6" x1="3.446" y1="-44.739" x2="43.078" y2="-5.108"/>
            <line class="cls-5" x1="44.801" y1="-3.384" x2="44.801" y2="-3.384"/>
          </g>
          <g>
            <line class="cls-5" y1="-41.293" y2="-41.293"/>
            <line class="cls-6" x1="3.446" y1="-37.846" x2="43.078" y2="1.785"/>
            <line class="cls-5" x1="44.801" y1="3.508" x2="44.801" y2="3.508"/>
          </g>
          <g>
            <line class="cls-5" y1="0.062" y2="0.062"/>
            <line class="cls-6" x1="3.446" y1="3.508" x2="43.078" y2="43.139"/>
            <line class="cls-5" x1="44.801" y1="44.863" x2="44.801" y2="44.863"/>
          </g>
          <g>
            <line class="cls-5" y1="6.954" y2="6.954"/>
            <line class="cls-6" x1="3.446" y1="10.4" x2="43.078" y2="50.032"/>
            <line class="cls-5" x1="44.801" y1="51.755" x2="44.801" y2="51.755"/>
          </g>
          <g>
            <line class="cls-5" y1="13.847" y2="13.847"/>
            <line class="cls-6" x1="3.446" y1="17.293" x2="43.078" y2="56.924"/>
            <line class="cls-5" x1="44.801" y1="58.647" x2="44.801" y2="58.647"/>
          </g>
          <g>
            <line class="cls-5" y1="20.739" y2="20.739"/>
            <line class="cls-6" x1="3.446" y1="24.185" x2="43.078" y2="63.817"/>
            <line class="cls-5" x1="44.801" y1="65.54" x2="44.801" y2="65.54"/>
          </g>
          <g>
            <line class="cls-5" y1="27.631" y2="27.631"/>
            <line class="cls-6" x1="3.446" y1="31.078" x2="43.078" y2="70.709"/>
            <line class="cls-5" x1="44.801" y1="72.432" x2="44.801" y2="72.432"/>
          </g>
          <g>
            <line class="cls-5" y1="34.524" y2="34.524"/>
            <line class="cls-6" x1="3.446" y1="37.97" x2="43.078" y2="77.601"/>
            <line class="cls-5" x1="44.801" y1="79.325" x2="44.801" y2="79.325"/>
          </g>
          <g>
            <line class="cls-5" y1="-27.508" y2="-27.508"/>
            <line class="cls-6" x1="3.446" y1="-24.062" x2="43.078" y2="15.57"/>
            <line class="cls-5" x1="44.801" y1="17.293" x2="44.801" y2="17.293"/>
          </g>
          <g>
            <line class="cls-5" y1="-34.4" y2="-34.4"/>
            <line class="cls-6" x1="3.446" y1="-30.954" x2="43.078" y2="8.677"/>
            <line class="cls-5" x1="44.801" y1="10.4" x2="44.801" y2="10.4"/>
          </g>
          <g>
            <line class="cls-5" y1="-20.615" y2="-20.615"/>
            <line class="cls-6" x1="3.446" y1="-17.169" x2="43.078" y2="22.462"/>
            <line class="cls-5" x1="44.801" y1="24.185" x2="44.801" y2="24.185"/>
          </g>
          <g>
            <line class="cls-5" y1="-13.723" y2="-13.723"/>
            <line class="cls-6" x1="3.446" y1="-10.277" x2="43.078" y2="29.355"/>
            <line class="cls-5" x1="44.801" y1="31.078" x2="44.801" y2="31.078"/>
          </g>
          <g>
            <line class="cls-5" y1="41.416" y2="41.416"/>
            <line class="cls-6" x1="3.446" y1="44.863" x2="43.078" y2="84.494"/>
            <line class="cls-5" x1="44.801" y1="86.217" x2="44.801" y2="86.217"/>
          </g>
        </g>
      </g>
    </pattern>
    <pattern id="New_Pattern_4-7" data-name="New Pattern 4" width="41.416" height="41.416" patternTransform="translate(-331.405 -138.227)" patternUnits="userSpaceOnUse" viewBox="0 0 41.416 41.416">
      <rect class="cls-1" width="41.416" height="41.416"/>
      <g class="cls-4">
        <g>
          <g>
            <line class="cls-5" y1="-6.831" y2="-6.831"/>
            <line class="cls-6" x1="3.446" y1="-3.384" x2="43.078" y2="36.247"/>
            <line class="cls-5" x1="44.801" y1="37.97" x2="44.801" y2="37.97"/>
          </g>
          <g>
            <line class="cls-5" y1="-48.185" y2="-48.185"/>
            <line class="cls-6" x1="3.446" y1="-44.739" x2="43.078" y2="-5.108"/>
            <line class="cls-5" x1="44.801" y1="-3.384" x2="44.801" y2="-3.384"/>
          </g>
          <g>
            <line class="cls-5" y1="-41.293" y2="-41.293"/>
            <line class="cls-6" x1="3.446" y1="-37.846" x2="43.078" y2="1.785"/>
            <line class="cls-5" x1="44.801" y1="3.508" x2="44.801" y2="3.508"/>
          </g>
          <g>
            <line class="cls-5" y1="0.062" y2="0.062"/>
            <line class="cls-6" x1="3.446" y1="3.508" x2="43.078" y2="43.139"/>
            <line class="cls-5" x1="44.801" y1="44.863" x2="44.801" y2="44.863"/>
          </g>
          <g>
            <line class="cls-5" y1="6.954" y2="6.954"/>
            <line class="cls-6" x1="3.446" y1="10.4" x2="43.078" y2="50.032"/>
            <line class="cls-5" x1="44.801" y1="51.755" x2="44.801" y2="51.755"/>
          </g>
          <g>
            <line class="cls-5" y1="13.847" y2="13.847"/>
            <line class="cls-6" x1="3.446" y1="17.293" x2="43.078" y2="56.924"/>
            <line class="cls-5" x1="44.801" y1="58.647" x2="44.801" y2="58.647"/>
          </g>
          <g>
            <line class="cls-5" y1="20.739" y2="20.739"/>
            <line class="cls-6" x1="3.446" y1="24.185" x2="43.078" y2="63.817"/>
            <line class="cls-5" x1="44.801" y1="65.54" x2="44.801" y2="65.54"/>
          </g>
          <g>
            <line class="cls-5" y1="27.631" y2="27.631"/>
            <line class="cls-6" x1="3.446" y1="31.078" x2="43.078" y2="70.709"/>
            <line class="cls-5" x1="44.801" y1="72.432" x2="44.801" y2="72.432"/>
          </g>
          <g>
            <line class="cls-5" y1="34.524" y2="34.524"/>
            <line class="cls-6" x1="3.446" y1="37.97" x2="43.078" y2="77.601"/>
            <line class="cls-5" x1="44.801" y1="79.325" x2="44.801" y2="79.325"/>
          </g>
          <g>
            <line class="cls-5" y1="-27.508" y2="-27.508"/>
            <line class="cls-6" x1="3.446" y1="-24.062" x2="43.078" y2="15.57"/>
            <line class="cls-5" x1="44.801" y1="17.293" x2="44.801" y2="17.293"/>
          </g>
          <g>
            <line class="cls-5" y1="-34.4" y2="-34.4"/>
            <line class="cls-6" x1="3.446" y1="-30.954" x2="43.078" y2="8.677"/>
            <line class="cls-5" x1="44.801" y1="10.4" x2="44.801" y2="10.4"/>
          </g>
          <g>
            <line class="cls-5" y1="-20.615" y2="-20.615"/>
            <line class="cls-6" x1="3.446" y1="-17.169" x2="43.078" y2="22.462"/>
            <line class="cls-5" x1="44.801" y1="24.185" x2="44.801" y2="24.185"/>
          </g>
          <g>
            <line class="cls-5" y1="-13.723" y2="-13.723"/>
            <line class="cls-6" x1="3.446" y1="-10.277" x2="43.078" y2="29.355"/>
            <line class="cls-5" x1="44.801" y1="31.078" x2="44.801" y2="31.078"/>
          </g>
          <g>
            <line class="cls-5" y1="41.416" y2="41.416"/>
            <line class="cls-6" x1="3.446" y1="44.863" x2="43.078" y2="84.494"/>
            <line class="cls-5" x1="44.801" y1="86.217" x2="44.801" y2="86.217"/>
          </g>
        </g>
      </g>
    </pattern>
    <pattern id="New_Pattern_4-9" data-name="New Pattern 4" width="41.416" height="41.416" patternTransform="translate(-331.405 -164.663)" patternUnits="userSpaceOnUse" viewBox="0 0 41.416 41.416">
      <rect class="cls-1" width="41.416" height="41.416"/>
      <g class="cls-4">
        <g>
          <g>
            <line class="cls-5" y1="-6.831" y2="-6.831"/>
            <line class="cls-6" x1="3.446" y1="-3.384" x2="43.078" y2="36.247"/>
            <line class="cls-5" x1="44.801" y1="37.97" x2="44.801" y2="37.97"/>
          </g>
          <g>
            <line class="cls-5" y1="-48.185" y2="-48.185"/>
            <line class="cls-6" x1="3.446" y1="-44.739" x2="43.078" y2="-5.108"/>
            <line class="cls-5" x1="44.801" y1="-3.384" x2="44.801" y2="-3.384"/>
          </g>
          <g>
            <line class="cls-5" y1="-41.293" y2="-41.293"/>
            <line class="cls-6" x1="3.446" y1="-37.846" x2="43.078" y2="1.785"/>
            <line class="cls-5" x1="44.801" y1="3.508" x2="44.801" y2="3.508"/>
          </g>
          <g>
            <line class="cls-5" y1="0.062" y2="0.062"/>
            <line class="cls-6" x1="3.446" y1="3.508" x2="43.078" y2="43.139"/>
            <line class="cls-5" x1="44.801" y1="44.863" x2="44.801" y2="44.863"/>
          </g>
          <g>
            <line class="cls-5" y1="6.954" y2="6.954"/>
            <line class="cls-6" x1="3.446" y1="10.4" x2="43.078" y2="50.032"/>
            <line class="cls-5" x1="44.801" y1="51.755" x2="44.801" y2="51.755"/>
          </g>
          <g>
            <line class="cls-5" y1="13.847" y2="13.847"/>
            <line class="cls-6" x1="3.446" y1="17.293" x2="43.078" y2="56.924"/>
            <line class="cls-5" x1="44.801" y1="58.647" x2="44.801" y2="58.647"/>
          </g>
          <g>
            <line class="cls-5" y1="20.739" y2="20.739"/>
            <line class="cls-6" x1="3.446" y1="24.185" x2="43.078" y2="63.817"/>
            <line class="cls-5" x1="44.801" y1="65.54" x2="44.801" y2="65.54"/>
          </g>
          <g>
            <line class="cls-5" y1="27.631" y2="27.631"/>
            <line class="cls-6" x1="3.446" y1="31.078" x2="43.078" y2="70.709"/>
            <line class="cls-5" x1="44.801" y1="72.432" x2="44.801" y2="72.432"/>
          </g>
          <g>
            <line class="cls-5" y1="34.524" y2="34.524"/>
            <line class="cls-6" x1="3.446" y1="37.97" x2="43.078" y2="77.601"/>
            <line class="cls-5" x1="44.801" y1="79.325" x2="44.801" y2="79.325"/>
          </g>
          <g>
            <line class="cls-5" y1="-27.508" y2="-27.508"/>
            <line class="cls-6" x1="3.446" y1="-24.062" x2="43.078" y2="15.57"/>
            <line class="cls-5" x1="44.801" y1="17.293" x2="44.801" y2="17.293"/>
          </g>
          <g>
            <line class="cls-5" y1="-34.4" y2="-34.4"/>
            <line class="cls-6" x1="3.446" y1="-30.954" x2="43.078" y2="8.677"/>
            <line class="cls-5" x1="44.801" y1="10.4" x2="44.801" y2="10.4"/>
          </g>
          <g>
            <line class="cls-5" y1="-20.615" y2="-20.615"/>
            <line class="cls-6" x1="3.446" y1="-17.169" x2="43.078" y2="22.462"/>
            <line class="cls-5" x1="44.801" y1="24.185" x2="44.801" y2="24.185"/>
          </g>
          <g>
            <line class="cls-5" y1="-13.723" y2="-13.723"/>
            <line class="cls-6" x1="3.446" y1="-10.277" x2="43.078" y2="29.355"/>
            <line class="cls-5" x1="44.801" y1="31.078" x2="44.801" y2="31.078"/>
          </g>
          <g>
            <line class="cls-5" y1="41.416" y2="41.416"/>
            <line class="cls-6" x1="3.446" y1="44.863" x2="43.078" y2="84.494"/>
            <line class="cls-5" x1="44.801" y1="86.217" x2="44.801" y2="86.217"/>
          </g>
        </g>
      </g>
    </pattern>
    <pattern id="New_Pattern_4-11" data-name="New Pattern 4" width="41.416" height="41.416" patternTransform="translate(-331.405 -160.845)" patternUnits="userSpaceOnUse" viewBox="0 0 41.416 41.416">
      <rect class="cls-1" width="41.416" height="41.416"/>
      <g class="cls-4">
        <g>
          <g>
            <line class="cls-5" y1="-6.831" y2="-6.831"/>
            <line class="cls-6" x1="3.446" y1="-3.384" x2="43.078" y2="36.247"/>
            <line class="cls-5" x1="44.801" y1="37.97" x2="44.801" y2="37.97"/>
          </g>
          <g>
            <line class="cls-5" y1="-48.185" y2="-48.185"/>
            <line class="cls-6" x1="3.446" y1="-44.739" x2="43.078" y2="-5.108"/>
            <line class="cls-5" x1="44.801" y1="-3.384" x2="44.801" y2="-3.384"/>
          </g>
          <g>
            <line class="cls-5" y1="-41.293" y2="-41.293"/>
            <line class="cls-6" x1="3.446" y1="-37.846" x2="43.078" y2="1.785"/>
            <line class="cls-5" x1="44.801" y1="3.508" x2="44.801" y2="3.508"/>
          </g>
          <g>
            <line class="cls-5" y1="0.062" y2="0.062"/>
            <line class="cls-6" x1="3.446" y1="3.508" x2="43.078" y2="43.139"/>
            <line class="cls-5" x1="44.801" y1="44.863" x2="44.801" y2="44.863"/>
          </g>
          <g>
            <line class="cls-5" y1="6.954" y2="6.954"/>
            <line class="cls-6" x1="3.446" y1="10.4" x2="43.078" y2="50.032"/>
            <line class="cls-5" x1="44.801" y1="51.755" x2="44.801" y2="51.755"/>
          </g>
          <g>
            <line class="cls-5" y1="13.847" y2="13.847"/>
            <line class="cls-6" x1="3.446" y1="17.293" x2="43.078" y2="56.924"/>
            <line class="cls-5" x1="44.801" y1="58.647" x2="44.801" y2="58.647"/>
          </g>
          <g>
            <line class="cls-5" y1="20.739" y2="20.739"/>
            <line class="cls-6" x1="3.446" y1="24.185" x2="43.078" y2="63.817"/>
            <line class="cls-5" x1="44.801" y1="65.54" x2="44.801" y2="65.54"/>
          </g>
          <g>
            <line class="cls-5" y1="27.631" y2="27.631"/>
            <line class="cls-6" x1="3.446" y1="31.078" x2="43.078" y2="70.709"/>
            <line class="cls-5" x1="44.801" y1="72.432" x2="44.801" y2="72.432"/>
          </g>
          <g>
            <line class="cls-5" y1="34.524" y2="34.524"/>
            <line class="cls-6" x1="3.446" y1="37.97" x2="43.078" y2="77.601"/>
            <line class="cls-5" x1="44.801" y1="79.325" x2="44.801" y2="79.325"/>
          </g>
          <g>
            <line class="cls-5" y1="-27.508" y2="-27.508"/>
            <line class="cls-6" x1="3.446" y1="-24.062" x2="43.078" y2="15.57"/>
            <line class="cls-5" x1="44.801" y1="17.293" x2="44.801" y2="17.293"/>
          </g>
          <g>
            <line class="cls-5" y1="-34.4" y2="-34.4"/>
            <line class="cls-6" x1="3.446" y1="-30.954" x2="43.078" y2="8.677"/>
            <line class="cls-5" x1="44.801" y1="10.4" x2="44.801" y2="10.4"/>
          </g>
          <g>
            <line class="cls-5" y1="-20.615" y2="-20.615"/>
            <line class="cls-6" x1="3.446" y1="-17.169" x2="43.078" y2="22.462"/>
            <line class="cls-5" x1="44.801" y1="24.185" x2="44.801" y2="24.185"/>
          </g>
          <g>
            <line class="cls-5" y1="-13.723" y2="-13.723"/>
            <line class="cls-6" x1="3.446" y1="-10.277" x2="43.078" y2="29.355"/>
            <line class="cls-5" x1="44.801" y1="31.078" x2="44.801" y2="31.078"/>
          </g>
          <g>
            <line class="cls-5" y1="41.416" y2="41.416"/>
            <line class="cls-6" x1="3.446" y1="44.863" x2="43.078" y2="84.494"/>
            <line class="cls-5" x1="44.801" y1="86.217" x2="44.801" y2="86.217"/>
          </g>
        </g>
      </g>
    </pattern>
    <pattern id="New_Pattern_4-13" data-name="New Pattern 4" width="41.416" height="41.416" patternTransform="translate(-331.405 -157.026)" patternUnits="userSpaceOnUse" viewBox="0 0 41.416 41.416">
      <rect class="cls-1" width="41.416" height="41.416"/>
      <g class="cls-4">
        <g>
          <g>
            <line class="cls-5" y1="-6.831" y2="-6.831"/>
            <line class="cls-6" x1="3.446" y1="-3.384" x2="43.078" y2="36.247"/>
            <line class="cls-5" x1="44.801" y1="37.97" x2="44.801" y2="37.97"/>
          </g>
          <g>
            <line class="cls-5" y1="-48.185" y2="-48.185"/>
            <line class="cls-6" x1="3.446" y1="-44.739" x2="43.078" y2="-5.108"/>
            <line class="cls-5" x1="44.801" y1="-3.384" x2="44.801" y2="-3.384"/>
          </g>
          <g>
            <line class="cls-5" y1="-41.293" y2="-41.293"/>
            <line class="cls-6" x1="3.446" y1="-37.846" x2="43.078" y2="1.785"/>
            <line class="cls-5" x1="44.801" y1="3.508" x2="44.801" y2="3.508"/>
          </g>
          <g>
            <line class="cls-5" y1="0.062" y2="0.062"/>
            <line class="cls-6" x1="3.446" y1="3.508" x2="43.078" y2="43.139"/>
            <line class="cls-5" x1="44.801" y1="44.863" x2="44.801" y2="44.863"/>
          </g>
          <g>
            <line class="cls-5" y1="6.954" y2="6.954"/>
            <line class="cls-6" x1="3.446" y1="10.4" x2="43.078" y2="50.032"/>
            <line class="cls-5" x1="44.801" y1="51.755" x2="44.801" y2="51.755"/>
          </g>
          <g>
            <line class="cls-5" y1="13.847" y2="13.847"/>
            <line class="cls-6" x1="3.446" y1="17.293" x2="43.078" y2="56.924"/>
            <line class="cls-5" x1="44.801" y1="58.647" x2="44.801" y2="58.647"/>
          </g>
          <g>
            <line class="cls-5" y1="20.739" y2="20.739"/>
            <line class="cls-6" x1="3.446" y1="24.185" x2="43.078" y2="63.817"/>
            <line class="cls-5" x1="44.801" y1="65.54" x2="44.801" y2="65.54"/>
          </g>
          <g>
            <line class="cls-5" y1="27.631" y2="27.631"/>
            <line class="cls-6" x1="3.446" y1="31.078" x2="43.078" y2="70.709"/>
            <line class="cls-5" x1="44.801" y1="72.432" x2="44.801" y2="72.432"/>
          </g>
          <g>
            <line class="cls-5" y1="34.524" y2="34.524"/>
            <line class="cls-6" x1="3.446" y1="37.97" x2="43.078" y2="77.601"/>
            <line class="cls-5" x1="44.801" y1="79.325" x2="44.801" y2="79.325"/>
          </g>
          <g>
            <line class="cls-5" y1="-27.508" y2="-27.508"/>
            <line class="cls-6" x1="3.446" y1="-24.062" x2="43.078" y2="15.57"/>
            <line class="cls-5" x1="44.801" y1="17.293" x2="44.801" y2="17.293"/>
          </g>
          <g>
            <line class="cls-5" y1="-34.4" y2="-34.4"/>
            <line class="cls-6" x1="3.446" y1="-30.954" x2="43.078" y2="8.677"/>
            <line class="cls-5" x1="44.801" y1="10.4" x2="44.801" y2="10.4"/>
          </g>
          <g>
            <line class="cls-5" y1="-20.615" y2="-20.615"/>
            <line class="cls-6" x1="3.446" y1="-17.169" x2="43.078" y2="22.462"/>
            <line class="cls-5" x1="44.801" y1="24.185" x2="44.801" y2="24.185"/>
          </g>
          <g>
            <line class="cls-5" y1="-13.723" y2="-13.723"/>
            <line class="cls-6" x1="3.446" y1="-10.277" x2="43.078" y2="29.355"/>
            <line class="cls-5" x1="44.801" y1="31.078" x2="44.801" y2="31.078"/>
          </g>
          <g>
            <line class="cls-5" y1="41.416" y2="41.416"/>
            <line class="cls-6" x1="3.446" y1="44.863" x2="43.078" y2="84.494"/>
            <line class="cls-5" x1="44.801" y1="86.217" x2="44.801" y2="86.217"/>
          </g>
        </g>
      </g>
    </pattern>
  </defs>
  <title>Project Plan</title>
  <path class="cls-7" d="M665.184,519.961A128.741,128.741,0,0,1,536.443,648.7" transform="translate(-106.248 -259.546)"/>
  <path class="cls-7" d="M500.6,384.276a128.6,128.6,0,0,1,128.6,128.6" transform="translate(-106.248 -259.546)"/>
  <rect class="cls-8" x="264.669" y="61.594" width="36" height="124.802" rx="18" ry="18"/>
  <rect class="cls-9" x="264.669" y="326.402" width="36" height="124.802" rx="18" ry="18"/>
  <circle class="cls-10" cx="7.587" cy="123.995" r="7.087"/>
  <circle class="cls-11" cx="7.587" cy="145.218" r="7.087"/>
  <circle class="cls-12" cx="7.587" cy="166.442" r="7.087"/>
  <circle class="cls-13" cx="7.587" cy="102.771" r="7.087"/>
  <circle class="cls-14" cx="7.587" cy="81.547" r="7.087"/>
  <path class="cls-15" d="M490.657,384.276c-41.722,0-41.722-43.182-83.444-43.182" transform="translate(-106.248 -259.546)"/>
  <path class="cls-15" d="M490.657,384.276c-41.722,0-41.722-21.958-83.444-21.958" transform="translate(-106.248 -259.546)"/>
  <path class="cls-15" d="M490.657,384.276c-41.722,0-41.722,41.713-83.444,41.713" transform="translate(-106.248 -259.546)"/>
  <path class="cls-7" d="M490.657,384.276c-41.722,0-41.722,20.489-83.444,20.489" transform="translate(-106.248 -259.546)"/>
  <g>
    <path class="cls-16" d="M127.984,268.957h-1.611V265.6H123.23v3.352h-1.611v-7.82h1.611v3.169h3.142v-3.169h1.611Z" transform="translate(-106.248 -259.546)"/>
    <path class="cls-16" d="M133.9,267.345h-2.825l-.537,1.611h-1.713l2.911-7.82h1.493l2.927,7.82h-1.713Zm-2.39-1.305h1.955l-.983-2.927Z" transform="translate(-106.248 -259.546)"/>
    <path class="cls-16" d="M139.784,266.094H138.5v2.863h-1.611v-7.82h2.906a3.286,3.286,0,0,1,2.138.618,2.131,2.131,0,0,1,.752,1.746,2.411,2.411,0,0,1-.346,1.335,2.368,2.368,0,0,1-1.05.851l1.692,3.2v.075H141.25Zm-1.284-1.305h1.3a1.332,1.332,0,0,0,.94-.309,1.1,1.1,0,0,0,.333-.852,1.184,1.184,0,0,0-.314-.87,1.307,1.307,0,0,0-.964-.317H138.5Z" transform="translate(-106.248 -259.546)"/>
    <path class="cls-16" d="M143.909,268.957v-7.82h2.406a3.649,3.649,0,0,1,1.845.465,3.234,3.234,0,0,1,1.271,1.321,4.075,4.075,0,0,1,.457,1.947v.36a4.083,4.083,0,0,1-.449,1.939,3.208,3.208,0,0,1-1.265,1.316,3.68,3.68,0,0,1-1.842.473Zm1.611-6.515v5.221h.779a1.75,1.75,0,0,0,1.445-.618,2.792,2.792,0,0,0,.51-1.767v-.414a2.836,2.836,0,0,0-.494-1.808,1.745,1.745,0,0,0-1.445-.615Z" transform="translate(-106.248 -259.546)"/>
    <path class="cls-16" d="M157.149,266.7l1.053-5.564h1.606l-1.735,7.82h-1.622l-1.273-5.231-1.273,5.231h-1.622l-1.735-7.82h1.606l1.058,5.554,1.289-5.554h1.364Z" transform="translate(-106.248 -259.546)"/>
    <path class="cls-16" d="M164.862,267.345h-2.825l-.537,1.611h-1.713l2.911-7.82h1.493l2.927,7.82H165.4Zm-2.39-1.305h1.955l-.983-2.927Z" transform="translate(-106.248 -259.546)"/>
    <path class="cls-16" d="M170.743,266.094h-1.284v2.863h-1.611v-7.82h2.906a3.286,3.286,0,0,1,2.138.618,2.131,2.131,0,0,1,.752,1.746,2.411,2.411,0,0,1-.346,1.335,2.368,2.368,0,0,1-1.05.851l1.692,3.2v.075h-1.729Zm-1.284-1.305h1.3a1.332,1.332,0,0,0,.94-.309,1.1,1.1,0,0,0,.333-.852,1.184,1.184,0,0,0-.314-.87,1.307,1.307,0,0,0-.964-.317h-1.294Z" transform="translate(-106.248 -259.546)"/>
    <path class="cls-16" d="M179.573,265.567h-3.094v2.095h3.631v1.294h-5.242v-7.82H180.1v1.305h-3.62v1.864h3.094Z" transform="translate(-106.248 -259.546)"/>
    <path class="cls-16" d="M183.795,268.957v-7.82H186.2a3.649,3.649,0,0,1,1.845.465,3.234,3.234,0,0,1,1.271,1.321,4.075,4.075,0,0,1,.457,1.947v.36a4.083,4.083,0,0,1-.449,1.939,3.208,3.208,0,0,1-1.265,1.316,3.68,3.68,0,0,1-1.842.473Zm1.611-6.515v5.221h.779a1.75,1.75,0,0,0,1.445-.618,2.792,2.792,0,0,0,.51-1.767v-.414a2.836,2.836,0,0,0-.494-1.808,1.745,1.745,0,0,0-1.445-.615Z" transform="translate(-106.248 -259.546)"/>
    <path class="cls-16" d="M195.649,265.567h-3.094v2.095h3.631v1.294h-5.242v-7.82h5.231v1.305h-3.62v1.864h3.094Z" transform="translate(-106.248 -259.546)"/>
    <path class="cls-16" d="M200.021,267.018l1.772-5.881h1.794l-2.723,7.82h-1.681l-2.712-7.82h1.789Z" transform="translate(-106.248 -259.546)"/>
    <path class="cls-16" d="M209.028,265.567h-3.094v2.095h3.631v1.294h-5.242v-7.82h5.231v1.305h-3.62v1.864h3.094Z" transform="translate(-106.248 -259.546)"/>
    <path class="cls-16" d="M212.122,267.662h3.421v1.294h-5.033v-7.82h1.611Z" transform="translate(-106.248 -259.546)"/>
    <path class="cls-16" d="M222.547,265.224a4.723,4.723,0,0,1-.408,2.025,3.074,3.074,0,0,1-1.168,1.343,3.452,3.452,0,0,1-3.478.005,3.106,3.106,0,0,1-1.182-1.334,4.586,4.586,0,0,1-.424-2v-.387a4.7,4.7,0,0,1,.416-2.033,3.1,3.1,0,0,1,1.177-1.349,3.448,3.448,0,0,1,3.475,0,3.1,3.1,0,0,1,1.177,1.349,4.683,4.683,0,0,1,.416,2.027Zm-1.633-.354a3.293,3.293,0,0,0-.44-1.869,1.556,1.556,0,0,0-2.508-.008,3.254,3.254,0,0,0-.446,1.851v.381a3.334,3.334,0,0,0,.44,1.858,1.542,1.542,0,0,0,2.514.024,3.309,3.309,0,0,0,.44-1.855Z" transform="translate(-106.248 -259.546)"/>
    <path class="cls-16" d="M225.33,266.2v2.755h-1.611v-7.82h3.051a3.532,3.532,0,0,1,1.55.322,2.374,2.374,0,0,1,1.028.916,2.554,2.554,0,0,1,.36,1.351,2.245,2.245,0,0,1-.787,1.813,3.278,3.278,0,0,1-2.178.664Zm0-1.305h1.439a1.413,1.413,0,0,0,.975-.3,1.093,1.093,0,0,0,.336-.859,1.29,1.29,0,0,0-.338-.929,1.265,1.265,0,0,0-.935-.365H225.33Z" transform="translate(-106.248 -259.546)"/>
    <path class="cls-16" d="M232.919,261.136l2.009,5.672,2-5.672h2.116v7.82h-1.617v-2.138l.161-3.69-2.111,5.828h-1.106l-2.105-5.822.161,3.685v2.138h-1.611v-7.82Z" transform="translate(-106.248 -259.546)"/>
    <path class="cls-16" d="M245.154,265.567h-3.094v2.095h3.631v1.294h-5.242v-7.82h5.231v1.305h-3.62v1.864h3.094Z" transform="translate(-106.248 -259.546)"/>
    <path class="cls-16" d="M253,268.957h-1.611l-3.137-5.146v5.146h-1.611v-7.82h1.611l3.142,5.156v-5.156H253Z" transform="translate(-106.248 -259.546)"/>
    <path class="cls-16" d="M260.134,262.441h-2.4v6.515h-1.611v-6.515h-2.363v-1.305h6.37Z" transform="translate(-106.248 -259.546)"/>
  </g>
  <g>
    <path class="cls-16" d="M127.538,758.459v5.15a2.636,2.636,0,0,1-.8,2.03,3.1,3.1,0,0,1-2.194.747,3.131,3.131,0,0,1-2.175-.726,2.592,2.592,0,0,1-.822-1.992v-5.21h1.611v5.161a1.488,1.488,0,0,0,.368,1.12,1.412,1.412,0,0,0,1.018.352q1.359,0,1.38-1.429v-5.2Z" transform="translate(-106.248 -259.546)"/>
    <path class="cls-16" d="M132.915,764.228a.827.827,0,0,0-.322-.7,4.217,4.217,0,0,0-1.16-.516,8.266,8.266,0,0,1-1.327-.534,2.168,2.168,0,0,1-1.332-1.939,1.886,1.886,0,0,1,.357-1.13,2.319,2.319,0,0,1,1.025-.776,3.858,3.858,0,0,1,1.5-.279,3.5,3.5,0,0,1,1.493.3,2.376,2.376,0,0,1,1.018.856,2.242,2.242,0,0,1,.362,1.257H132.92a1.053,1.053,0,0,0-.338-.835,1.389,1.389,0,0,0-.951-.3,1.489,1.489,0,0,0-.918.25.789.789,0,0,0-.328.658.754.754,0,0,0,.384.639,4.348,4.348,0,0,0,1.131.483,4.894,4.894,0,0,1,2,1.026,2.042,2.042,0,0,1,.628,1.525,1.883,1.883,0,0,1-.768,1.593,3.363,3.363,0,0,1-2.068.577,4,4,0,0,1-1.644-.33,2.609,2.609,0,0,1-1.131-.905,2.321,2.321,0,0,1-.389-1.332h1.617q0,1.293,1.547,1.294a1.5,1.5,0,0,0,.9-.233A.759.759,0,0,0,132.915,764.228Z" transform="translate(-106.248 -259.546)"/>
    <path class="cls-16" d="M140.327,762.89h-3.094v2.095h3.631v1.295h-5.242v-7.82h5.231v1.3h-3.62v1.864h3.094Z" transform="translate(-106.248 -259.546)"/>
    <path class="cls-16" d="M150.688,763.674a2.767,2.767,0,0,1-.932,1.987,3.272,3.272,0,0,1-2.215.726,2.943,2.943,0,0,1-2.366-1.013,4.148,4.148,0,0,1-.862-2.779v-.479a4.686,4.686,0,0,1,.4-1.987,2.986,2.986,0,0,1,1.136-1.318,3.552,3.552,0,0,1,3.9.266,2.975,2.975,0,0,1,.956,2.036h-1.611a1.637,1.637,0,0,0-.421-1.1,1.562,1.562,0,0,0-1.1-.341,1.369,1.369,0,0,0-1.206.577,3.235,3.235,0,0,0-.411,1.791v.591a3.466,3.466,0,0,0,.384,1.854,1.346,1.346,0,0,0,1.211.585,1.591,1.591,0,0,0,1.115-.341,1.541,1.541,0,0,0,.421-1.056Z" transform="translate(-106.248 -259.546)"/>
    <path class="cls-16" d="M156.161,764.668h-2.825l-.537,1.611h-1.713l2.911-7.82h1.493l2.927,7.82H156.7Zm-2.39-1.306h1.955l-.983-2.927Z" transform="translate(-106.248 -259.546)"/>
    <path class="cls-16" d="M163.2,764.228a.827.827,0,0,0-.322-.7,4.217,4.217,0,0,0-1.16-.516,8.266,8.266,0,0,1-1.327-.534,2.168,2.168,0,0,1-1.332-1.939,1.886,1.886,0,0,1,.357-1.13,2.319,2.319,0,0,1,1.025-.776,3.858,3.858,0,0,1,1.5-.279,3.5,3.5,0,0,1,1.493.3,2.376,2.376,0,0,1,1.018.856,2.242,2.242,0,0,1,.362,1.257h-1.611a1.053,1.053,0,0,0-.338-.835,1.389,1.389,0,0,0-.951-.3,1.489,1.489,0,0,0-.918.25.789.789,0,0,0-.328.658.754.754,0,0,0,.384.639,4.348,4.348,0,0,0,1.131.483,4.894,4.894,0,0,1,2,1.026,2.042,2.042,0,0,1,.628,1.525,1.883,1.883,0,0,1-.768,1.593,3.363,3.363,0,0,1-2.068.577,4,4,0,0,1-1.644-.33,2.609,2.609,0,0,1-1.131-.905,2.321,2.321,0,0,1-.389-1.332h1.617q0,1.293,1.547,1.294a1.5,1.5,0,0,0,.9-.233A.759.759,0,0,0,163.2,764.228Z" transform="translate(-106.248 -259.546)"/>
    <path class="cls-16" d="M170.614,762.89h-3.094v2.095h3.631v1.295h-5.242v-7.82h5.231v1.3h-3.62v1.864h3.094Z" transform="translate(-106.248 -259.546)"/>
    <path class="cls-16" d="M174.836,766.279v-7.82h2.406a3.644,3.644,0,0,1,1.845.465,3.234,3.234,0,0,1,1.271,1.321,4.073,4.073,0,0,1,.457,1.946v.36a4.081,4.081,0,0,1-.449,1.938,3.207,3.207,0,0,1-1.265,1.316,3.685,3.685,0,0,1-1.842.473Zm1.611-6.516v5.221h.779a1.751,1.751,0,0,0,1.445-.617,2.794,2.794,0,0,0,.51-1.768v-.413a2.836,2.836,0,0,0-.494-1.808,1.744,1.744,0,0,0-1.445-.615Z" transform="translate(-106.248 -259.546)"/>
    <path class="cls-16" d="M186.69,762.89H183.6v2.095h3.631v1.295h-5.242v-7.82h5.231v1.3H183.6v1.864h3.094Z" transform="translate(-106.248 -259.546)"/>
    <path class="cls-16" d="M191.062,764.34l1.772-5.881h1.794l-2.723,7.82h-1.681l-2.712-7.82H189.3Z" transform="translate(-106.248 -259.546)"/>
    <path class="cls-16" d="M200.069,762.89h-3.094v2.095h3.631v1.295h-5.242v-7.82H200.6v1.3h-3.62v1.864h3.094Z" transform="translate(-106.248 -259.546)"/>
    <path class="cls-16" d="M203.163,764.984h3.421v1.295h-5.033v-7.82h1.611Z" transform="translate(-106.248 -259.546)"/>
    <path class="cls-16" d="M213.588,762.546a4.724,4.724,0,0,1-.408,2.025,3.077,3.077,0,0,1-1.168,1.343,3.451,3.451,0,0,1-3.478,0,3.1,3.1,0,0,1-1.182-1.334,4.589,4.589,0,0,1-.424-2V762.2a4.7,4.7,0,0,1,.416-2.032,3.1,3.1,0,0,1,1.177-1.349,3.448,3.448,0,0,1,3.475,0,3.1,3.1,0,0,1,1.177,1.349,4.681,4.681,0,0,1,.416,2.027Zm-1.633-.354a3.3,3.3,0,0,0-.44-1.869,1.556,1.556,0,0,0-2.508-.008,3.253,3.253,0,0,0-.446,1.851v.381A3.333,3.333,0,0,0,209,764.4a1.542,1.542,0,0,0,2.514.024,3.31,3.31,0,0,0,.44-1.855Z" transform="translate(-106.248 -259.546)"/>
    <path class="cls-16" d="M216.371,763.523v2.756h-1.611v-7.82h3.051a3.532,3.532,0,0,1,1.55.322,2.371,2.371,0,0,1,1.028.916,2.554,2.554,0,0,1,.36,1.351,2.246,2.246,0,0,1-.787,1.813,3.278,3.278,0,0,1-2.178.663Zm0-1.3h1.439a1.416,1.416,0,0,0,.975-.3,1.094,1.094,0,0,0,.336-.859,1.29,1.29,0,0,0-.338-.93,1.267,1.267,0,0,0-.935-.365h-1.477Z" transform="translate(-106.248 -259.546)"/>
    <path class="cls-16" d="M223.96,758.459l2.009,5.672,2-5.672h2.116v7.82h-1.617v-2.138l.161-3.69-2.111,5.828H225.41l-2.105-5.822.161,3.685v2.138h-1.611v-7.82Z" transform="translate(-106.248 -259.546)"/>
    <path class="cls-16" d="M236.2,762.89H233.1v2.095h3.631v1.295H231.49v-7.82h5.231v1.3H233.1v1.864H236.2Z" transform="translate(-106.248 -259.546)"/>
    <path class="cls-16" d="M244.037,766.279h-1.611l-3.137-5.146v5.146h-1.611v-7.82h1.611l3.142,5.156v-5.156h1.606Z" transform="translate(-106.248 -259.546)"/>
    <path class="cls-16" d="M251.175,759.764h-2.4v6.516h-1.611v-6.516h-2.363v-1.3h6.37Z" transform="translate(-106.248 -259.546)"/>
  </g>
  <polyline class="cls-7" points="14.673 30.272 14.673 15.841 264.67 15.841 264.67 30.272"/>
  <g>
    <path class="cls-16" d="M712.382,509.169a2.765,2.765,0,0,1-.932,1.987,3.273,3.273,0,0,1-2.216.726,2.942,2.942,0,0,1-2.365-1.013,4.148,4.148,0,0,1-.862-2.779v-.479a4.679,4.679,0,0,1,.4-1.987,2.983,2.983,0,0,1,1.136-1.318,3.551,3.551,0,0,1,3.9.266,2.973,2.973,0,0,1,.956,2.036h-1.611a1.635,1.635,0,0,0-.421-1.1,1.563,1.563,0,0,0-1.1-.341,1.368,1.368,0,0,0-1.205.577,3.226,3.226,0,0,0-.411,1.791v.591a3.466,3.466,0,0,0,.384,1.854,1.345,1.345,0,0,0,1.211.585,1.593,1.593,0,0,0,1.115-.341,1.538,1.538,0,0,0,.421-1.056Z" transform="translate(-106.248 -259.546)"/>
    <path class="cls-16" d="M719.864,508.041a4.731,4.731,0,0,1-.408,2.025,3.083,3.083,0,0,1-1.168,1.343,3.452,3.452,0,0,1-3.479,0,3.107,3.107,0,0,1-1.182-1.334,4.582,4.582,0,0,1-.424-2V507.7a4.7,4.7,0,0,1,.416-2.032,3.1,3.1,0,0,1,1.177-1.349,3.448,3.448,0,0,1,3.475,0,3.1,3.1,0,0,1,1.177,1.349,4.681,4.681,0,0,1,.416,2.027Zm-1.633-.354a3.3,3.3,0,0,0-.44-1.869,1.557,1.557,0,0,0-2.509-.008,3.253,3.253,0,0,0-.445,1.851v.381a3.329,3.329,0,0,0,.44,1.858,1.542,1.542,0,0,0,2.514.024,3.314,3.314,0,0,0,.44-1.855Z" transform="translate(-106.248 -259.546)"/>
    <path class="cls-16" d="M723.141,503.954l2.009,5.672,2-5.672h2.116v7.82h-1.617v-2.138l.161-3.69-2.11,5.828h-1.106l-2.105-5.822.161,3.685v2.138h-1.611v-7.82Z" transform="translate(-106.248 -259.546)"/>
    <path class="cls-16" d="M732.776,503.954l2.009,5.672,2-5.672H738.9v7.82h-1.617v-2.138l.161-3.69-2.11,5.828h-1.106l-2.105-5.822.161,3.685v2.138h-1.611v-7.82Z" transform="translate(-106.248 -259.546)"/>
    <path class="cls-16" d="M746.226,503.954v5.15a2.636,2.636,0,0,1-.8,2.03,3.1,3.1,0,0,1-2.194.747,3.132,3.132,0,0,1-2.176-.726,2.591,2.591,0,0,1-.821-1.992v-5.21h1.611v5.161a1.486,1.486,0,0,0,.368,1.12,1.412,1.412,0,0,0,1.018.352q1.358,0,1.38-1.429v-5.2Z" transform="translate(-106.248 -259.546)"/>
    <path class="cls-16" d="M753.906,511.774h-1.611l-3.137-5.146v5.146h-1.611v-7.82h1.611l3.142,5.156v-5.156h1.606Z" transform="translate(-106.248 -259.546)"/>
    <path class="cls-16" d="M757.026,511.774h-1.611v-7.82h1.611Z" transform="translate(-106.248 -259.546)"/>
    <path class="cls-16" d="M764.659,509.169a2.769,2.769,0,0,1-.933,1.987,3.271,3.271,0,0,1-2.215.726,2.943,2.943,0,0,1-2.366-1.013,4.148,4.148,0,0,1-.862-2.779v-.479a4.694,4.694,0,0,1,.4-1.987,2.989,2.989,0,0,1,1.136-1.318,3.553,3.553,0,0,1,3.9.266,2.977,2.977,0,0,1,.956,2.036h-1.611a1.64,1.64,0,0,0-.422-1.1,1.561,1.561,0,0,0-1.1-.341,1.37,1.37,0,0,0-1.206.577,3.243,3.243,0,0,0-.411,1.791v.591a3.466,3.466,0,0,0,.384,1.854,1.347,1.347,0,0,0,1.212.585,1.59,1.59,0,0,0,1.114-.341,1.543,1.543,0,0,0,.422-1.056Z" transform="translate(-106.248 -259.546)"/>
    <path class="cls-16" d="M770.132,510.163h-2.825l-.537,1.611h-1.713l2.911-7.82h1.493l2.927,7.82h-1.713Zm-2.39-1.306H769.7l-.983-2.927Z" transform="translate(-106.248 -259.546)"/>
    <path class="cls-16" d="M778.36,505.259h-2.4v6.516h-1.611v-6.516H771.99v-1.3h6.37Z" transform="translate(-106.248 -259.546)"/>
    <path class="cls-16" d="M780.992,511.774h-1.611v-7.82h1.611Z" transform="translate(-106.248 -259.546)"/>
    <path class="cls-16" d="M788.909,508.041a4.716,4.716,0,0,1-.408,2.025,3.07,3.07,0,0,1-1.168,1.343,3.45,3.45,0,0,1-3.478,0,3.1,3.1,0,0,1-1.182-1.334,4.6,4.6,0,0,1-.425-2V507.7a4.7,4.7,0,0,1,.416-2.032,3.1,3.1,0,0,1,1.177-1.349,3.448,3.448,0,0,1,3.475,0,3.1,3.1,0,0,1,1.177,1.349,4.681,4.681,0,0,1,.416,2.027Zm-1.633-.354a3.291,3.291,0,0,0-.44-1.869,1.556,1.556,0,0,0-2.508-.008,3.253,3.253,0,0,0-.446,1.851v.381a3.337,3.337,0,0,0,.44,1.858,1.433,1.433,0,0,0,1.268.661,1.417,1.417,0,0,0,1.246-.637,3.306,3.306,0,0,0,.44-1.855Z" transform="translate(-106.248 -259.546)"/>
    <path class="cls-16" d="M796.439,511.774h-1.611l-3.137-5.146v5.146H790.08v-7.82h1.611l3.143,5.156v-5.156h1.605Z" transform="translate(-106.248 -259.546)"/>
  </g>
  <polyline class="cls-7" points="264.67 477.803 264.67 492.234 14.673 492.234 14.673 477.803"/>
  <path class="cls-15" d="M120.921,404.765c65.939,0,82.913-35.361,108.374-35.361s49.853,56.585,141.622,56.585" transform="translate(-106.248 -259.546)"/>
  <path class="cls-15" d="M120.921,341.094c39.771,0,72.3,45.272,101.3,45.272s33.241-81.533,60.823-81.533,13.783,36.261,87.871,36.261" transform="translate(-106.248 -259.546)"/>
  <path class="cls-7" d="M120.921,362.317c90.692,0,85.034,92.677,109.788,92.677s21.563-50.229,140.208-50.229" transform="translate(-106.248 -259.546)"/>
  <path class="cls-15" d="M120.921,383.541c65.232,0,47.55-49.534,85.742-49.534s42.435,99.068,80.626,99.068S323,383.541,370.917,383.541" transform="translate(-106.248 -259.546)"/>
  <path class="cls-15" d="M120.921,425.988c61.7,0,74.426-21.224,106.959-21.224s41.02-56.585,65.067-56.585,13.076,14.137,77.97,14.137" transform="translate(-106.248 -259.546)"/>
  <line class="cls-15" x1="384.409" y1="124.729" x2="300.965" y2="124.657"/>
  <circle class="cls-17" cx="522.947" cy="260.414" r="7.087"/>
  <circle class="cls-18" cx="522.947" cy="260.414" r="7.087"/>
  <line class="cls-19" x1="5.457" y1="259.446" x2="339.975" y2="259.446"/>
  <circle class="cls-20" cx="14.673" cy="333.41" r="7.087"/>
  <circle class="cls-21" cx="14.673" cy="378.645" r="7.087"/>
  <circle class="cls-17" cx="558.937" cy="260.414" r="7.087"/>
  <circle class="cls-22" cx="558.937" cy="260.414" r="7.087"/>
  <circle class="cls-23" cx="14.673" cy="423.88" r="7.087"/>
  <circle class="cls-24" cx="14.673" cy="356.028" r="7.087"/>
  <circle class="cls-25" cx="14.673" cy="401.263" r="7.087"/>
  <circle class="cls-26" cx="14.673" cy="446.498" r="7.087"/>
  <path class="cls-15" d="M128.008,593.312h51.4c25.492,0,33.918,24.9,51.756,24.9,26.718,0,37.194-47.1,61.026-47.1,29.808,0,8.362,32.835,78.725,32.835" transform="translate(-106.248 -259.546)"/>
  <path class="cls-7" d="M128.008,637.05H224.6c31.739,0,21.295,33.463,40.195,33.463s22.734-19.948,41.3-19.948,14.85,24.174,40.081,24.174h24.74" transform="translate(-106.248 -259.546)"/>
  <path class="cls-15" d="M128.008,658.92s22.072.205,32.77.205,23.438-29.143,54.027-29.143c46.736,0,70.954,75.261,93.472,75.261s28.3-47.529,45.424-47.529h17.216" transform="translate(-106.248 -259.546)"/>
  <path class="cls-15" d="M490.953,648.7c-42.018,0-42.018-44.491-84.036-44.491" transform="translate(-106.248 -259.546)"/>
  <path class="cls-15" d="M490.953,648.7c-42.018,0-42.018-26.954-84.036-26.954" transform="translate(-106.248 -259.546)"/>
  <path class="cls-15" d="M490.953,648.628c-42.018,0-42.018-9.256-84.036-9.256" transform="translate(-106.248 -259.546)"/>
  <path class="cls-15" d="M490.953,648.7c-42.018,0-42.018,42.978-84.036,42.978" transform="translate(-106.248 -259.546)"/>
  <path class="cls-7" d="M490.953,648.7c-42.018,0-42.018,26.037-84.036,26.037" transform="translate(-106.248 -259.546)"/>
  <path class="cls-15" d="M490.953,648.773c-42.018,0-42.018,8.941-84.036,8.941" transform="translate(-106.248 -259.546)"/>
  <path class="cls-15" d="M128.008,706.044h83.586c22.751,0,44.715-54.849,64.468-54.849s18.555,20.9,34.122,20.9S342.326,638.222,365.2,639.4h0" transform="translate(-106.248 -259.546)"/>
  <path class="cls-15" d="M128.008,683.45c17.667,0,56.028-.079,68.19-.079,15.2,0,20.291-27.479,35.741-27.479s9.092,31.117,37.376,31.117,29.29-62.589,49.142-62.589,19.308,67.2,39.006,67.26c7.2.02,13.454,0,13.454,0" transform="translate(-106.248 -259.546)"/>
  <path class="cls-15" d="M128.008,615.574c7.858.1,14.062-.393,27.069-.393,20.278,0,15.588-29.537,50.564-29.537s40.6,72.91,88,72.91,41.092-36.807,77.274-36.807" transform="translate(-106.248 -259.546)"/>
  <line class="cls-7" x1="384.705" y1="389.156" x2="430.195" y2="389.156"/>
  <line class="cls-7" x1="384.426" y1="124.729" x2="394.349" y2="124.729"/>
  <g>
    <line class="cls-7" x1="530.034" y1="260.414" x2="550.707" y2="260.414"/>
    <polygon class="cls-16" points="548.715 262.109 550.412 260.414 548.715 258.719 550.155 258.719 551.85 260.414 550.155 262.109 548.715 262.109"/>
  </g>
  <g>
    <line class="cls-7" x1="566.023" y1="260.414" x2="689.758" y2="260.414"/>
    <polygon class="cls-16" points="687.766 262.109 689.462 260.414 687.766 258.719 689.205 258.719 690.9 260.414 689.205 262.109 687.766 262.109"/>
  </g>
</svg>
