<svg id="Layer_1" data-name="Layer 1" xmlns="http://www.w3.org/2000/svg" xmlns:xlink="http://www.w3.org/1999/xlink" viewBox="0 0 60 60">
  <defs>
    <style>
      .cls-1, .cls-3, .cls-8 {
        fill: none;
      }

      .cls-2 {
        clip-path: url(#clip-path);
      }

      .cls-3, .cls-6, .cls-8 {
        stroke: #313133;
      }

      .cls-3 {
        stroke-miterlimit: 10;
      }

      .cls-4 {
        fill: url(#Crosshatch_Fill);
      }

      .cls-5 {
        fill: #313133;
      }

      .cls-6, .cls-7 {
        fill: #fff;
      }

      .cls-6, .cls-8 {
        stroke-linecap: round;
        stroke-linejoin: round;
      }
    </style>
    <clipPath id="clip-path">
      <polygon class="cls-1" points="44.801 0 44.801 44.801 0 44.801 0 0 44.801 0"/>
    </clipPath>
    <pattern id="Crosshatch_Fill" data-name="Crosshatch Fill" width="44.801" height="44.801" patternUnits="userSpaceOnUse" viewBox="0 0 44.801 44.801">
      <rect class="cls-1" width="44.801" height="44.801"/>
      <g class="cls-2">
        <g>
          <line class="cls-3" x1="4.695" y1="81.654" x2="123.306" y2="-36.957"/>
          <line class="cls-3" x1="-1.705" y1="81.654" x2="116.906" y2="-36.957"/>
          <line class="cls-3" x1="-8.105" y1="81.654" x2="110.506" y2="-36.957"/>
          <line class="cls-3" x1="-14.505" y1="81.654" x2="104.106" y2="-36.957"/>
          <line class="cls-3" x1="-20.905" y1="81.654" x2="97.706" y2="-36.957"/>
          <line class="cls-3" x1="-27.305" y1="81.654" x2="91.306" y2="-36.957"/>
          <line class="cls-3" x1="-33.705" y1="81.654" x2="84.906" y2="-36.957"/>
          <line class="cls-3" x1="-40.105" y1="81.654" x2="78.506" y2="-36.957"/>
          <line class="cls-3" x1="-46.505" y1="81.654" x2="72.106" y2="-36.957"/>
          <line class="cls-3" x1="-52.905" y1="81.654" x2="65.706" y2="-36.957"/>
          <line class="cls-3" x1="-59.306" y1="81.654" x2="59.306" y2="-36.957"/>
          <line class="cls-3" x1="-65.706" y1="81.654" x2="52.905" y2="-36.957"/>
          <line class="cls-3" x1="-72.106" y1="81.654" x2="46.505" y2="-36.957"/>
          <line class="cls-3" x1="-78.506" y1="81.654" x2="40.105" y2="-36.957"/>
          <line class="cls-3" x1="-84.906" y1="81.654" x2="33.705" y2="-36.957"/>
          <line class="cls-3" x1="11.095" y1="81.654" x2="129.707" y2="-36.957"/>
          <line class="cls-3" x1="-36.905" y1="4.644" x2="81.706" y2="123.255"/>
          <line class="cls-3" x1="-36.905" y1="-1.756" x2="81.706" y2="116.855"/>
          <line class="cls-3" x1="-36.905" y1="-8.157" x2="81.706" y2="110.455"/>
          <line class="cls-3" x1="-36.905" y1="-14.557" x2="81.706" y2="104.054"/>
          <line class="cls-3" x1="-36.905" y1="-20.957" x2="81.706" y2="97.654"/>
          <line class="cls-3" x1="-36.905" y1="-27.357" x2="81.706" y2="91.254"/>
          <line class="cls-3" x1="-36.905" y1="-33.757" x2="81.706" y2="84.854"/>
          <line class="cls-3" x1="-36.905" y1="-40.157" x2="81.706" y2="78.454"/>
          <line class="cls-3" x1="-36.905" y1="-46.557" x2="81.706" y2="72.054"/>
          <line class="cls-3" x1="-36.905" y1="-52.957" x2="81.706" y2="65.654"/>
          <line class="cls-3" x1="-36.905" y1="-59.357" x2="81.706" y2="59.254"/>
          <line class="cls-3" x1="-36.905" y1="-65.757" x2="81.706" y2="52.854"/>
          <line class="cls-3" x1="-36.905" y1="-72.158" x2="81.706" y2="46.454"/>
          <line class="cls-3" x1="-36.905" y1="-78.558" x2="81.706" y2="40.054"/>
          <line class="cls-3" x1="-36.905" y1="-84.958" x2="81.706" y2="33.653"/>
          <line class="cls-3" x1="-36.905" y1="11.044" x2="81.706" y2="129.655"/>
        </g>
      </g>
    </pattern>
  </defs>
  <title>SKILLS - Digital Fabrication</title>
  <g>
    <path class="cls-4" d="M30,59.5A29.5,29.5,0,1,1,59.5,30,29.533,29.533,0,0,1,30,59.5Z"/>
    <path class="cls-5" d="M30,1A29,29,0,1,1,1,30,29.033,29.033,0,0,1,30,1m0-1A30,30,0,1,0,60,30,30,30,0,0,0,30,0Z"/>
  </g>
  <path class="cls-6" d="M42.976,18"/>
  <g>
    <g>
      <path class="cls-7" d="M14.891,50.968c-.064,0-.187-.142-.187-.364V49.39c0-.209.114-.336.165-.336H30.123a1.235,1.235,0,0,0,1.142-1.309l15.072-.036c.025,0,.133.1.133.3v2.809a.257.257,0,0,1-.045.153Z"/>
      <path class="cls-5" d="M31.765,47.746h0m14.2.464v1.027l0,.036q0,.032,0,.064l0,.036v1.095H15.2v-.913H30.123a1.682,1.682,0,0,0,1.588-1.345H45.97M15.205,49.383h0M46.337,47.21H31.191a.49.49,0,0,0-.426.536.74.74,0,0,1-.643.809H14.869a.767.767,0,0,0-.664.836V50.6a.793.793,0,0,0,.686.864h31.56a.6.6,0,0,0,.518-.652v-1.48c0-.01,0-.02,0-.03s0-.02,0-.03V48.006a.731.731,0,0,0-.633-.8Z"/>
    </g>
    <g>
      <path class="cls-7" d="M30.053,48.869a.977.977,0,0,1-.976-.976V31.708a.977.977,0,0,1,.976-.976.993.993,0,0,1,1.04.976V47.894a.977.977,0,0,1-.976.976Z"/>
      <path class="cls-5" d="M30.117,31.232a.476.476,0,0,1,.476.476V47.893a.476.476,0,0,1-.476.476h-.064a.476.476,0,0,1-.476-.476V31.708a.476.476,0,0,1,.476-.476h.064m0-1h-.064a1.478,1.478,0,0,0-1.476,1.476V47.893a1.478,1.478,0,0,0,1.476,1.476h.064a1.478,1.478,0,0,0,1.476-1.476V31.708a1.478,1.478,0,0,0-1.476-1.476Z"/>
    </g>
    <g>
      <rect class="cls-6" x="28.591" y="30.067" width="2.988" height="2.331" rx="1.092" ry="1.092"/>
      <g>
        <path class="cls-7" d="M31.416,30.889a1.475,1.475,0,0,0,1.311-.95A38.724,38.724,0,0,0,34.5,19.787c0-7.255-1.972-13.1-4.4-13.1s-4.4,5.829-4.4,13.084a38.914,38.914,0,0,0,1.778,10.169,1.473,1.473,0,0,0,1.31.951Z"/>
        <path class="cls-8" d="M31.416,30.889a1.475,1.475,0,0,0,1.311-.95A38.724,38.724,0,0,0,34.5,19.787c0-7.255-1.972-13.1-4.4-13.1s-4.4,5.829-4.4,13.084a38.914,38.914,0,0,0,1.778,10.169,1.473,1.473,0,0,0,1.31.951Z"/>
      </g>
    </g>
  </g>
</svg>
