<svg id="Layer_1" data-name="Layer 1" xmlns="http://www.w3.org/2000/svg" xmlns:xlink="http://www.w3.org/1999/xlink" viewBox="0 0 60 60">
  <defs>
    <style>
      .cls-1, .cls-3, .cls-7 {
        fill: none;
      }

      .cls-2 {
        clip-path: url(#clip-path);
      }

      .cls-3, .cls-6, .cls-7 {
        stroke: #313133;
      }

      .cls-3 {
        stroke-miterlimit: 10;
      }

      .cls-4 {
        fill: url(#Crosshatch_Fill);
      }

      .cls-5 {
        fill: #313133;
      }

      .cls-6, .cls-8 {
        fill: #fff;
      }

      .cls-6, .cls-7 {
        stroke-linecap: round;
        stroke-linejoin: round;
      }
    </style>
    <clipPath id="clip-path">
      <polygon class="cls-1" points="44.801 0 44.801 44.801 0 44.801 0 0 44.801 0"/>
    </clipPath>
    <pattern id="Crosshatch_Fill" data-name="Crosshatch Fill" width="44.801" height="44.801" patternUnits="userSpaceOnUse" viewBox="0 0 44.801 44.801">
      <rect class="cls-1" width="44.801" height="44.801"/>
      <g class="cls-2">
        <g>
          <line class="cls-3" x1="4.695" y1="81.654" x2="123.306" y2="-36.957"/>
          <line class="cls-3" x1="-1.705" y1="81.654" x2="116.906" y2="-36.957"/>
          <line class="cls-3" x1="-8.105" y1="81.654" x2="110.506" y2="-36.957"/>
          <line class="cls-3" x1="-14.505" y1="81.654" x2="104.106" y2="-36.957"/>
          <line class="cls-3" x1="-20.905" y1="81.654" x2="97.706" y2="-36.957"/>
          <line class="cls-3" x1="-27.305" y1="81.654" x2="91.306" y2="-36.957"/>
          <line class="cls-3" x1="-33.705" y1="81.654" x2="84.906" y2="-36.957"/>
          <line class="cls-3" x1="-40.105" y1="81.654" x2="78.506" y2="-36.957"/>
          <line class="cls-3" x1="-46.505" y1="81.654" x2="72.106" y2="-36.957"/>
          <line class="cls-3" x1="-52.905" y1="81.654" x2="65.706" y2="-36.957"/>
          <line class="cls-3" x1="-59.306" y1="81.654" x2="59.306" y2="-36.957"/>
          <line class="cls-3" x1="-65.706" y1="81.654" x2="52.905" y2="-36.957"/>
          <line class="cls-3" x1="-72.106" y1="81.654" x2="46.505" y2="-36.957"/>
          <line class="cls-3" x1="-78.506" y1="81.654" x2="40.105" y2="-36.957"/>
          <line class="cls-3" x1="-84.906" y1="81.654" x2="33.705" y2="-36.957"/>
          <line class="cls-3" x1="11.095" y1="81.654" x2="129.707" y2="-36.957"/>
          <line class="cls-3" x1="-36.905" y1="4.644" x2="81.706" y2="123.255"/>
          <line class="cls-3" x1="-36.905" y1="-1.756" x2="81.706" y2="116.855"/>
          <line class="cls-3" x1="-36.905" y1="-8.157" x2="81.706" y2="110.455"/>
          <line class="cls-3" x1="-36.905" y1="-14.557" x2="81.706" y2="104.054"/>
          <line class="cls-3" x1="-36.905" y1="-20.957" x2="81.706" y2="97.654"/>
          <line class="cls-3" x1="-36.905" y1="-27.357" x2="81.706" y2="91.254"/>
          <line class="cls-3" x1="-36.905" y1="-33.757" x2="81.706" y2="84.854"/>
          <line class="cls-3" x1="-36.905" y1="-40.157" x2="81.706" y2="78.454"/>
          <line class="cls-3" x1="-36.905" y1="-46.557" x2="81.706" y2="72.054"/>
          <line class="cls-3" x1="-36.905" y1="-52.957" x2="81.706" y2="65.654"/>
          <line class="cls-3" x1="-36.905" y1="-59.357" x2="81.706" y2="59.254"/>
          <line class="cls-3" x1="-36.905" y1="-65.757" x2="81.706" y2="52.854"/>
          <line class="cls-3" x1="-36.905" y1="-72.158" x2="81.706" y2="46.454"/>
          <line class="cls-3" x1="-36.905" y1="-78.558" x2="81.706" y2="40.054"/>
          <line class="cls-3" x1="-36.905" y1="-84.958" x2="81.706" y2="33.653"/>
          <line class="cls-3" x1="-36.905" y1="11.044" x2="81.706" y2="129.655"/>
        </g>
      </g>
    </pattern>
  </defs>
  <title>SKILLS - Graphic Design</title>
  <g>
    <path class="cls-4" d="M30,59.5A29.5,29.5,0,1,1,59.5,30,29.533,29.533,0,0,1,30,59.5Z"/>
    <path class="cls-5" d="M30,1A29,29,0,1,1,1,30,29.033,29.033,0,0,1,30,1m0-1A30,30,0,1,0,60,30,30,30,0,0,0,30,0Z"/>
  </g>
  <polygon class="cls-6" points="30 24.11 20.538 41.267 25.269 52.393 30 52.393 34.731 52.393 39.462 41.267 30 24.11"/>
  <line class="cls-7" x1="30" y1="24.11" x2="30" y2="44.415"/>
  <circle class="cls-6" cx="30" cy="44.415" r="1.582"/>
  <g>
    <path class="cls-8" d="M45.066,31.557a1.312,1.312,0,0,1-1.3-1.252,13.788,13.788,0,0,0-27.535,0,1.305,1.305,0,0,1-2.254.842,1.267,1.267,0,0,1-.353-.944,16.337,16.337,0,0,1,7.691-13.037h-9.5a.5.5,0,0,1-.5-.5v-.677a.5.5,0,0,1,.5-.5H24.9a16.169,16.169,0,0,1,10.208,0H48.18a.5.5,0,0,1,.5.5v.677a.5.5,0,0,1-.5.5h-9.5A16.336,16.336,0,0,1,46.373,30.2a1.265,1.265,0,0,1-.352.945A1.323,1.323,0,0,1,45.066,31.557Z"/>
    <path class="cls-5" d="M30,15.162a15.846,15.846,0,0,1,5.023.826H48.179v.677H36.715a15.886,15.886,0,0,1,9.159,13.563.8.8,0,1,1-1.607.05,14.288,14.288,0,0,0-28.534,0,.8.8,0,1,1-1.607-.05,15.886,15.886,0,0,1,9.159-13.563H11.821v-.677H24.977A15.846,15.846,0,0,1,30,15.162m0-1a16.842,16.842,0,0,0-5.183.826h-13a1,1,0,0,0-1,1v.677a1,1,0,0,0,1,1h7.9a16.823,16.823,0,0,0-6.59,12.511,1.762,1.762,0,0,0,.489,1.315,1.8,1.8,0,0,0,3.115-1.16,13.288,13.288,0,0,1,26.536,0,1.8,1.8,0,0,0,3.115,1.16,1.762,1.762,0,0,0,.489-1.315,16.823,16.823,0,0,0-6.59-12.511h7.9a1,1,0,0,0,1-1v-.677a1,1,0,0,0-1-1h-13A16.842,16.842,0,0,0,30,14.162Z"/>
  </g>
  <rect class="cls-6" x="27.557" y="13.883" width="4.887" height="4.887"/>
  <circle class="cls-6" cx="48.179" cy="16.327" r="1.607"/>
  <circle class="cls-6" cx="11.821" cy="16.327" r="1.607"/>
</svg>
