<svg id="Layer_1" data-name="Layer 1" xmlns="http://www.w3.org/2000/svg" xmlns:xlink="http://www.w3.org/1999/xlink" viewBox="0 0 60 60">
  <defs>
    <style>
      .cls-1, .cls-3 {
        fill: none;
      }

      .cls-2 {
        clip-path: url(#clip-path);
      }

      .cls-3, .cls-4 {
        stroke: #313133;
      }

      .cls-3 {
        stroke-miterlimit: 10;
      }

      .cls-4 {
        fill: #fff;
        stroke-linecap: round;
        stroke-linejoin: round;
      }

      .cls-5 {
        fill: url(#Crosshatch_Fill);
      }

      .cls-6 {
        fill: #313133;
      }
    </style>
    <clipPath id="clip-path">
      <polygon class="cls-1" points="44.801 0 44.801 44.801 0 44.801 0 0 44.801 0"/>
    </clipPath>
    <pattern id="Crosshatch_Fill" data-name="Crosshatch Fill" width="44.801" height="44.801" patternUnits="userSpaceOnUse" viewBox="0 0 44.801 44.801">
      <rect class="cls-1" width="44.801" height="44.801"/>
      <g class="cls-2">
        <g>
          <line class="cls-3" x1="4.695" y1="81.654" x2="123.306" y2="-36.957"/>
          <line class="cls-3" x1="-1.705" y1="81.654" x2="116.906" y2="-36.957"/>
          <line class="cls-3" x1="-8.105" y1="81.654" x2="110.506" y2="-36.957"/>
          <line class="cls-3" x1="-14.505" y1="81.654" x2="104.106" y2="-36.957"/>
          <line class="cls-3" x1="-20.905" y1="81.654" x2="97.706" y2="-36.957"/>
          <line class="cls-3" x1="-27.305" y1="81.654" x2="91.306" y2="-36.957"/>
          <line class="cls-3" x1="-33.705" y1="81.654" x2="84.906" y2="-36.957"/>
          <line class="cls-3" x1="-40.105" y1="81.654" x2="78.506" y2="-36.957"/>
          <line class="cls-3" x1="-46.505" y1="81.654" x2="72.106" y2="-36.957"/>
          <line class="cls-3" x1="-52.905" y1="81.654" x2="65.706" y2="-36.957"/>
          <line class="cls-3" x1="-59.306" y1="81.654" x2="59.306" y2="-36.957"/>
          <line class="cls-3" x1="-65.706" y1="81.654" x2="52.905" y2="-36.957"/>
          <line class="cls-3" x1="-72.106" y1="81.654" x2="46.505" y2="-36.957"/>
          <line class="cls-3" x1="-78.506" y1="81.654" x2="40.105" y2="-36.957"/>
          <line class="cls-3" x1="-84.906" y1="81.654" x2="33.705" y2="-36.957"/>
          <line class="cls-3" x1="11.095" y1="81.654" x2="129.707" y2="-36.957"/>
          <line class="cls-3" x1="-36.905" y1="4.644" x2="81.706" y2="123.255"/>
          <line class="cls-3" x1="-36.905" y1="-1.756" x2="81.706" y2="116.855"/>
          <line class="cls-3" x1="-36.905" y1="-8.157" x2="81.706" y2="110.455"/>
          <line class="cls-3" x1="-36.905" y1="-14.557" x2="81.706" y2="104.054"/>
          <line class="cls-3" x1="-36.905" y1="-20.957" x2="81.706" y2="97.654"/>
          <line class="cls-3" x1="-36.905" y1="-27.357" x2="81.706" y2="91.254"/>
          <line class="cls-3" x1="-36.905" y1="-33.757" x2="81.706" y2="84.854"/>
          <line class="cls-3" x1="-36.905" y1="-40.157" x2="81.706" y2="78.454"/>
          <line class="cls-3" x1="-36.905" y1="-46.557" x2="81.706" y2="72.054"/>
          <line class="cls-3" x1="-36.905" y1="-52.957" x2="81.706" y2="65.654"/>
          <line class="cls-3" x1="-36.905" y1="-59.357" x2="81.706" y2="59.254"/>
          <line class="cls-3" x1="-36.905" y1="-65.757" x2="81.706" y2="52.854"/>
          <line class="cls-3" x1="-36.905" y1="-72.158" x2="81.706" y2="46.454"/>
          <line class="cls-3" x1="-36.905" y1="-78.558" x2="81.706" y2="40.054"/>
          <line class="cls-3" x1="-36.905" y1="-84.958" x2="81.706" y2="33.653"/>
          <line class="cls-3" x1="-36.905" y1="11.044" x2="81.706" y2="129.655"/>
        </g>
      </g>
    </pattern>
  </defs>
  <title>SKILLS - Interaction Design</title>
  <path class="cls-4" d="M42.976,18"/>
  <g>
    <g>
      <path class="cls-5" d="M30,59.5A29.5,29.5,0,1,1,59.5,30,29.533,29.533,0,0,1,30,59.5Z"/>
      <path class="cls-6" d="M30,1A29,29,0,1,1,1,30,29.033,29.033,0,0,1,30,1m0-1A30,30,0,1,0,60,30,30,30,0,0,0,30,0Z"/>
    </g>
    <g>
      <g>
        <path class="cls-4" d="M31.717,16.493a2.055,2.055,0,0,1,2.055,2.055V15a2.055,2.055,0,0,1,2.055-2.055h0A2.055,2.055,0,0,1,37.882,15V13.446a2.055,2.055,0,1,1,4.11,0v2.126a2.055,2.055,0,0,1,4.11,0V29.957l-.064.35,2.631-3.7a2.143,2.143,0,0,1,2.631-.751,2.069,2.069,0,0,1,.845,3l-5.037,9.524A7.033,7.033,0,0,1,40.4,42.109l-2.552-.179h0a7.687,7.687,0,0,1-8.183-7.742V18.547A2.055,2.055,0,0,1,31.717,16.493Z"/>
        <line class="cls-4" x1="41.991" y1="15.571" x2="41.991" y2="26.759"/>
        <line class="cls-4" x1="37.882" y1="15.005" x2="37.882" y2="26.759"/>
        <line class="cls-4" x1="33.772" y1="18.547" x2="33.772" y2="26.759"/>
      </g>
      <g>
        <path class="cls-4" d="M30.222,20.581a2.247,2.247,0,0,0-2.247,2.247V18.954a2.247,2.247,0,0,0-2.247-2.247h0a2.247,2.247,0,0,0-2.247,2.247v-1.7a2.247,2.247,0,0,0-4.494,0v2.324a2.247,2.247,0,0,0-4.494,0V35.3l.07.383-2.876-4.045a2.344,2.344,0,0,0-2.877-.822A2.263,2.263,0,0,0,7.887,34.1L13.4,44.515a7.69,7.69,0,0,0,7.334,4.075l2.79-.2h0a8.4,8.4,0,0,0,8.948-8.465v-17.1A2.247,2.247,0,0,0,30.222,20.581Z"/>
        <line class="cls-4" x1="18.988" y1="19.574" x2="18.988" y2="31.806"/>
        <line class="cls-4" x1="23.482" y1="18.954" x2="23.482" y2="31.806"/>
        <line class="cls-4" x1="27.975" y1="22.828" x2="27.975" y2="31.806"/>
      </g>
    </g>
  </g>
</svg>
