<svg id="Layer_1" data-name="Layer 1" xmlns="http://www.w3.org/2000/svg" xmlns:xlink="http://www.w3.org/1999/xlink" viewBox="0 0 60 60">
  <defs>
    <style>
      .cls-1, .cls-3, .cls-7 {
        fill: none;
      }

      .cls-2 {
        clip-path: url(#clip-path);
      }

      .cls-3, .cls-4, .cls-7, .cls-8 {
        stroke: #313133;
      }

      .cls-3 {
        stroke-miterlimit: 10;
      }

      .cls-4, .cls-8 {
        fill: #fff;
      }

      .cls-4, .cls-7, .cls-8 {
        stroke-linecap: round;
        stroke-linejoin: round;
      }

      .cls-5 {
        fill: url(#Crosshatch_Fill);
      }

      .cls-6 {
        fill: #313133;
      }

      .cls-8 {
        stroke-width: 2px;
      }
    </style>
    <clipPath id="clip-path">
      <polygon class="cls-1" points="44.801 0 44.801 44.801 0 44.801 0 0 44.801 0"/>
    </clipPath>
    <pattern id="Crosshatch_Fill" data-name="Crosshatch Fill" width="44.801" height="44.801" patternUnits="userSpaceOnUse" viewBox="0 0 44.801 44.801">
      <rect class="cls-1" width="44.801" height="44.801"/>
      <g class="cls-2">
        <g>
          <line class="cls-3" x1="4.695" y1="81.654" x2="123.306" y2="-36.957"/>
          <line class="cls-3" x1="-1.705" y1="81.654" x2="116.906" y2="-36.957"/>
          <line class="cls-3" x1="-8.105" y1="81.654" x2="110.506" y2="-36.957"/>
          <line class="cls-3" x1="-14.505" y1="81.654" x2="104.106" y2="-36.957"/>
          <line class="cls-3" x1="-20.905" y1="81.654" x2="97.706" y2="-36.957"/>
          <line class="cls-3" x1="-27.305" y1="81.654" x2="91.306" y2="-36.957"/>
          <line class="cls-3" x1="-33.705" y1="81.654" x2="84.906" y2="-36.957"/>
          <line class="cls-3" x1="-40.105" y1="81.654" x2="78.506" y2="-36.957"/>
          <line class="cls-3" x1="-46.505" y1="81.654" x2="72.106" y2="-36.957"/>
          <line class="cls-3" x1="-52.905" y1="81.654" x2="65.706" y2="-36.957"/>
          <line class="cls-3" x1="-59.306" y1="81.654" x2="59.306" y2="-36.957"/>
          <line class="cls-3" x1="-65.706" y1="81.654" x2="52.905" y2="-36.957"/>
          <line class="cls-3" x1="-72.106" y1="81.654" x2="46.505" y2="-36.957"/>
          <line class="cls-3" x1="-78.506" y1="81.654" x2="40.105" y2="-36.957"/>
          <line class="cls-3" x1="-84.906" y1="81.654" x2="33.705" y2="-36.957"/>
          <line class="cls-3" x1="11.095" y1="81.654" x2="129.707" y2="-36.957"/>
          <line class="cls-3" x1="-36.905" y1="4.644" x2="81.706" y2="123.255"/>
          <line class="cls-3" x1="-36.905" y1="-1.756" x2="81.706" y2="116.855"/>
          <line class="cls-3" x1="-36.905" y1="-8.157" x2="81.706" y2="110.455"/>
          <line class="cls-3" x1="-36.905" y1="-14.557" x2="81.706" y2="104.054"/>
          <line class="cls-3" x1="-36.905" y1="-20.957" x2="81.706" y2="97.654"/>
          <line class="cls-3" x1="-36.905" y1="-27.357" x2="81.706" y2="91.254"/>
          <line class="cls-3" x1="-36.905" y1="-33.757" x2="81.706" y2="84.854"/>
          <line class="cls-3" x1="-36.905" y1="-40.157" x2="81.706" y2="78.454"/>
          <line class="cls-3" x1="-36.905" y1="-46.557" x2="81.706" y2="72.054"/>
          <line class="cls-3" x1="-36.905" y1="-52.957" x2="81.706" y2="65.654"/>
          <line class="cls-3" x1="-36.905" y1="-59.357" x2="81.706" y2="59.254"/>
          <line class="cls-3" x1="-36.905" y1="-65.757" x2="81.706" y2="52.854"/>
          <line class="cls-3" x1="-36.905" y1="-72.158" x2="81.706" y2="46.454"/>
          <line class="cls-3" x1="-36.905" y1="-78.558" x2="81.706" y2="40.054"/>
          <line class="cls-3" x1="-36.905" y1="-84.958" x2="81.706" y2="33.653"/>
          <line class="cls-3" x1="-36.905" y1="11.044" x2="81.706" y2="129.655"/>
        </g>
      </g>
    </pattern>
  </defs>
  <title>SKILLS - Electronics</title>
  <path class="cls-4" d="M42.976,18"/>
  <g>
    <path class="cls-5" d="M30,59.5A29.5,29.5,0,1,1,59.5,30,29.533,29.533,0,0,1,30,59.5Z"/>
    <path class="cls-6" d="M30,1A29,29,0,1,1,1,30,29.033,29.033,0,0,1,30,1m0-1A30,30,0,1,0,60,30,30,30,0,0,0,30,0Z"/>
  </g>
  <g>
    <polygon class="cls-4" points="54.645 34.748 34.012 46.661 5.355 29.092 5.355 25.929 25.988 14.079 54.645 31.585 54.645 34.748"/>
    <polygon class="cls-4" points="54.645 31.585 34.012 43.498 5.355 25.929 25.988 14.079 54.645 31.585"/>
    <line class="cls-7" x1="34.012" y1="46.661" x2="34.012" y2="43.498"/>
    <path class="cls-4" d="M35.647,41.807"/>
    <line class="cls-8" x1="26.864" y1="17.148" x2="26.864" y2="13.339"/>
    <line class="cls-8" x1="31.907" y1="20.323" x2="31.907" y2="16.514"/>
    <line class="cls-8" x1="29.43" y1="18.771" x2="29.43" y2="14.962"/>
    <line class="cls-8" x1="34.234" y1="21.684" x2="34.234" y2="17.875"/>
    <line class="cls-8" x1="39.277" y1="24.858" x2="39.277" y2="21.049"/>
    <line class="cls-8" x1="36.801" y1="23.307" x2="36.801" y2="19.498"/>
  </g>
</svg>
