<svg id="Layer_1" data-name="Layer 1" xmlns="http://www.w3.org/2000/svg" xmlns:xlink="http://www.w3.org/1999/xlink" viewBox="0 0 632.707 201.885">
  <defs>
    <style>
      .cls-1, .cls-11, .cls-18, .cls-19, .cls-3, .cls-4, .cls-6, .cls-7 {
        fill: none;
      }

      .cls-2 {
        clip-path: url(#clip-path);
      }

      .cls-11, .cls-12, .cls-13, .cls-14, .cls-15, .cls-16, .cls-17, .cls-18, .cls-19, .cls-3, .cls-4, .cls-6, .cls-7, .cls-8, .cls-9 {
        stroke: #313133;
      }

      .cls-11, .cls-12, .cls-13, .cls-14, .cls-15, .cls-16, .cls-17, .cls-18, .cls-19, .cls-3, .cls-4, .cls-7, .cls-8, .cls-9 {
        stroke-linecap: round;
        stroke-linejoin: round;
      }

      .cls-3, .cls-4 {
        stroke-width: 2px;
      }

      .cls-4 {
        stroke-dasharray: 0 4.874;
      }

      .cls-5 {
        clip-path: url(#clip-path-2);
      }

      .cls-6 {
        stroke-miterlimit: 10;
      }

      .cls-7 {
        stroke-width: 0.25px;
      }

      .cls-18, .cls-19, .cls-7 {
        stroke-dasharray: 3 3;
      }

      .cls-8 {
        fill: url(#Oblique_Fill);
      }

      .cls-9 {
        fill: url(#Oblique_Fill-3);
      }

      .cls-10 {
        fill: #313133;
      }

      .cls-12 {
        fill: url(#New_Pattern_4);
      }

      .cls-13 {
        fill: url(#New_Pattern_4-3);
      }

      .cls-14 {
        fill: url(#New_Pattern_4-5);
      }

      .cls-15 {
        fill: url(#New_Pattern_4-7);
      }

      .cls-16 {
        fill: url(#New_Pattern_4-9);
      }

      .cls-17 {
        fill: url(#New_Pattern_4-11);
      }

      .cls-18 {
        stroke-width: 0.5px;
      }

      .cls-19 {
        stroke-width: 0.75px;
      }

      .cls-20 {
        fill: #fff;
      }
    </style>
    <clipPath id="clip-path">
      <rect class="cls-1" width="41.416" height="41.416"/>
    </clipPath>
    <clipPath id="clip-path-2">
      <polygon class="cls-1" points="44.801 0 44.801 44.801 0 44.801 0 0 44.801 0"/>
    </clipPath>
    <pattern id="Oblique_Fill" data-name="Oblique Fill" width="44.801" height="44.801" patternTransform="translate(-113.996 -336.998)" patternUnits="userSpaceOnUse" viewBox="0 0 44.801 44.801">
      <rect class="cls-1" width="44.801" height="44.801"/>
      <g class="cls-5">
        <g>
          <line class="cls-6" x1="-36.905" y1="4.644" x2="81.706" y2="123.255"/>
          <line class="cls-6" x1="-36.905" y1="-1.756" x2="81.706" y2="116.855"/>
          <line class="cls-6" x1="-36.905" y1="-8.157" x2="81.706" y2="110.455"/>
          <line class="cls-6" x1="-36.905" y1="-14.557" x2="81.706" y2="104.054"/>
          <line class="cls-6" x1="-36.905" y1="-20.957" x2="81.706" y2="97.654"/>
          <line class="cls-6" x1="-36.905" y1="-27.357" x2="81.706" y2="91.254"/>
          <line class="cls-6" x1="-36.905" y1="-33.757" x2="81.706" y2="84.854"/>
          <line class="cls-6" x1="-36.905" y1="-40.157" x2="81.706" y2="78.454"/>
          <line class="cls-6" x1="-36.905" y1="-46.557" x2="81.706" y2="72.054"/>
          <line class="cls-6" x1="-36.905" y1="-52.957" x2="81.706" y2="65.654"/>
          <line class="cls-6" x1="-36.905" y1="-59.357" x2="81.706" y2="59.254"/>
          <line class="cls-6" x1="-36.905" y1="-65.757" x2="81.706" y2="52.854"/>
          <line class="cls-6" x1="-36.905" y1="-72.158" x2="81.706" y2="46.454"/>
          <line class="cls-6" x1="-36.905" y1="-78.558" x2="81.706" y2="40.054"/>
          <line class="cls-6" x1="-36.905" y1="-84.958" x2="81.706" y2="33.653"/>
          <line class="cls-6" x1="-36.905" y1="11.044" x2="81.706" y2="129.655"/>
        </g>
      </g>
    </pattern>
    <pattern id="Oblique_Fill-3" data-name="Oblique Fill" width="44.801" height="44.801" patternTransform="translate(-100.249 -336.998)" patternUnits="userSpaceOnUse" viewBox="0 0 44.801 44.801">
      <rect class="cls-1" width="44.801" height="44.801"/>
      <g class="cls-5">
        <g>
          <line class="cls-6" x1="-36.905" y1="4.644" x2="81.706" y2="123.255"/>
          <line class="cls-6" x1="-36.905" y1="-1.756" x2="81.706" y2="116.855"/>
          <line class="cls-6" x1="-36.905" y1="-8.157" x2="81.706" y2="110.455"/>
          <line class="cls-6" x1="-36.905" y1="-14.557" x2="81.706" y2="104.054"/>
          <line class="cls-6" x1="-36.905" y1="-20.957" x2="81.706" y2="97.654"/>
          <line class="cls-6" x1="-36.905" y1="-27.357" x2="81.706" y2="91.254"/>
          <line class="cls-6" x1="-36.905" y1="-33.757" x2="81.706" y2="84.854"/>
          <line class="cls-6" x1="-36.905" y1="-40.157" x2="81.706" y2="78.454"/>
          <line class="cls-6" x1="-36.905" y1="-46.557" x2="81.706" y2="72.054"/>
          <line class="cls-6" x1="-36.905" y1="-52.957" x2="81.706" y2="65.654"/>
          <line class="cls-6" x1="-36.905" y1="-59.357" x2="81.706" y2="59.254"/>
          <line class="cls-6" x1="-36.905" y1="-65.757" x2="81.706" y2="52.854"/>
          <line class="cls-6" x1="-36.905" y1="-72.158" x2="81.706" y2="46.454"/>
          <line class="cls-6" x1="-36.905" y1="-78.558" x2="81.706" y2="40.054"/>
          <line class="cls-6" x1="-36.905" y1="-84.958" x2="81.706" y2="33.653"/>
          <line class="cls-6" x1="-36.905" y1="11.044" x2="81.706" y2="129.655"/>
        </g>
      </g>
    </pattern>
    <pattern id="New_Pattern_4" data-name="New Pattern 4" width="41.416" height="41.416" patternTransform="translate(-297.076 -315.232)" patternUnits="userSpaceOnUse" viewBox="0 0 41.416 41.416">
      <rect class="cls-1" width="41.416" height="41.416"/>
      <g class="cls-2">
        <g>
          <g>
            <line class="cls-3" y1="-6.831" y2="-6.831"/>
            <line class="cls-4" x1="3.446" y1="-3.384" x2="43.078" y2="36.247"/>
            <line class="cls-3" x1="44.801" y1="37.97" x2="44.801" y2="37.97"/>
          </g>
          <g>
            <line class="cls-3" y1="-48.185" y2="-48.185"/>
            <line class="cls-4" x1="3.446" y1="-44.739" x2="43.078" y2="-5.108"/>
            <line class="cls-3" x1="44.801" y1="-3.384" x2="44.801" y2="-3.384"/>
          </g>
          <g>
            <line class="cls-3" y1="-41.293" y2="-41.293"/>
            <line class="cls-4" x1="3.446" y1="-37.846" x2="43.078" y2="1.785"/>
            <line class="cls-3" x1="44.801" y1="3.508" x2="44.801" y2="3.508"/>
          </g>
          <g>
            <line class="cls-3" y1="0.062" y2="0.062"/>
            <line class="cls-4" x1="3.446" y1="3.508" x2="43.078" y2="43.139"/>
            <line class="cls-3" x1="44.801" y1="44.863" x2="44.801" y2="44.863"/>
          </g>
          <g>
            <line class="cls-3" y1="6.954" y2="6.954"/>
            <line class="cls-4" x1="3.446" y1="10.4" x2="43.078" y2="50.032"/>
            <line class="cls-3" x1="44.801" y1="51.755" x2="44.801" y2="51.755"/>
          </g>
          <g>
            <line class="cls-3" y1="13.847" y2="13.847"/>
            <line class="cls-4" x1="3.446" y1="17.293" x2="43.078" y2="56.924"/>
            <line class="cls-3" x1="44.801" y1="58.647" x2="44.801" y2="58.647"/>
          </g>
          <g>
            <line class="cls-3" y1="20.739" y2="20.739"/>
            <line class="cls-4" x1="3.446" y1="24.185" x2="43.078" y2="63.817"/>
            <line class="cls-3" x1="44.801" y1="65.54" x2="44.801" y2="65.54"/>
          </g>
          <g>
            <line class="cls-3" y1="27.631" y2="27.631"/>
            <line class="cls-4" x1="3.446" y1="31.078" x2="43.078" y2="70.709"/>
            <line class="cls-3" x1="44.801" y1="72.432" x2="44.801" y2="72.432"/>
          </g>
          <g>
            <line class="cls-3" y1="34.524" y2="34.524"/>
            <line class="cls-4" x1="3.446" y1="37.97" x2="43.078" y2="77.601"/>
            <line class="cls-3" x1="44.801" y1="79.325" x2="44.801" y2="79.325"/>
          </g>
          <g>
            <line class="cls-3" y1="-27.508" y2="-27.508"/>
            <line class="cls-4" x1="3.446" y1="-24.062" x2="43.078" y2="15.57"/>
            <line class="cls-3" x1="44.801" y1="17.293" x2="44.801" y2="17.293"/>
          </g>
          <g>
            <line class="cls-3" y1="-34.4" y2="-34.4"/>
            <line class="cls-4" x1="3.446" y1="-30.954" x2="43.078" y2="8.677"/>
            <line class="cls-3" x1="44.801" y1="10.4" x2="44.801" y2="10.4"/>
          </g>
          <g>
            <line class="cls-3" y1="-20.615" y2="-20.615"/>
            <line class="cls-4" x1="3.446" y1="-17.169" x2="43.078" y2="22.462"/>
            <line class="cls-3" x1="44.801" y1="24.185" x2="44.801" y2="24.185"/>
          </g>
          <g>
            <line class="cls-3" y1="-13.723" y2="-13.723"/>
            <line class="cls-4" x1="3.446" y1="-10.277" x2="43.078" y2="29.355"/>
            <line class="cls-3" x1="44.801" y1="31.078" x2="44.801" y2="31.078"/>
          </g>
          <g>
            <line class="cls-3" y1="41.416" y2="41.416"/>
            <line class="cls-4" x1="3.446" y1="44.863" x2="43.078" y2="84.494"/>
            <line class="cls-3" x1="44.801" y1="86.217" x2="44.801" y2="86.217"/>
          </g>
        </g>
      </g>
    </pattern>
    <pattern id="New_Pattern_4-3" data-name="New Pattern 4" width="41.416" height="41.416" patternTransform="translate(-297.076 -269.997)" patternUnits="userSpaceOnUse" viewBox="0 0 41.416 41.416">
      <rect class="cls-1" width="41.416" height="41.416"/>
      <g class="cls-2">
        <g>
          <g>
            <line class="cls-3" y1="-6.831" y2="-6.831"/>
            <line class="cls-4" x1="3.446" y1="-3.384" x2="43.078" y2="36.247"/>
            <line class="cls-3" x1="44.801" y1="37.97" x2="44.801" y2="37.97"/>
          </g>
          <g>
            <line class="cls-3" y1="-48.185" y2="-48.185"/>
            <line class="cls-4" x1="3.446" y1="-44.739" x2="43.078" y2="-5.108"/>
            <line class="cls-3" x1="44.801" y1="-3.384" x2="44.801" y2="-3.384"/>
          </g>
          <g>
            <line class="cls-3" y1="-41.293" y2="-41.293"/>
            <line class="cls-4" x1="3.446" y1="-37.846" x2="43.078" y2="1.785"/>
            <line class="cls-3" x1="44.801" y1="3.508" x2="44.801" y2="3.508"/>
          </g>
          <g>
            <line class="cls-3" y1="0.062" y2="0.062"/>
            <line class="cls-4" x1="3.446" y1="3.508" x2="43.078" y2="43.139"/>
            <line class="cls-3" x1="44.801" y1="44.863" x2="44.801" y2="44.863"/>
          </g>
          <g>
            <line class="cls-3" y1="6.954" y2="6.954"/>
            <line class="cls-4" x1="3.446" y1="10.4" x2="43.078" y2="50.032"/>
            <line class="cls-3" x1="44.801" y1="51.755" x2="44.801" y2="51.755"/>
          </g>
          <g>
            <line class="cls-3" y1="13.847" y2="13.847"/>
            <line class="cls-4" x1="3.446" y1="17.293" x2="43.078" y2="56.924"/>
            <line class="cls-3" x1="44.801" y1="58.647" x2="44.801" y2="58.647"/>
          </g>
          <g>
            <line class="cls-3" y1="20.739" y2="20.739"/>
            <line class="cls-4" x1="3.446" y1="24.185" x2="43.078" y2="63.817"/>
            <line class="cls-3" x1="44.801" y1="65.54" x2="44.801" y2="65.54"/>
          </g>
          <g>
            <line class="cls-3" y1="27.631" y2="27.631"/>
            <line class="cls-4" x1="3.446" y1="31.078" x2="43.078" y2="70.709"/>
            <line class="cls-3" x1="44.801" y1="72.432" x2="44.801" y2="72.432"/>
          </g>
          <g>
            <line class="cls-3" y1="34.524" y2="34.524"/>
            <line class="cls-4" x1="3.446" y1="37.97" x2="43.078" y2="77.601"/>
            <line class="cls-3" x1="44.801" y1="79.325" x2="44.801" y2="79.325"/>
          </g>
          <g>
            <line class="cls-3" y1="-27.508" y2="-27.508"/>
            <line class="cls-4" x1="3.446" y1="-24.062" x2="43.078" y2="15.57"/>
            <line class="cls-3" x1="44.801" y1="17.293" x2="44.801" y2="17.293"/>
          </g>
          <g>
            <line class="cls-3" y1="-34.4" y2="-34.4"/>
            <line class="cls-4" x1="3.446" y1="-30.954" x2="43.078" y2="8.677"/>
            <line class="cls-3" x1="44.801" y1="10.4" x2="44.801" y2="10.4"/>
          </g>
          <g>
            <line class="cls-3" y1="-20.615" y2="-20.615"/>
            <line class="cls-4" x1="3.446" y1="-17.169" x2="43.078" y2="22.462"/>
            <line class="cls-3" x1="44.801" y1="24.185" x2="44.801" y2="24.185"/>
          </g>
          <g>
            <line class="cls-3" y1="-13.723" y2="-13.723"/>
            <line class="cls-4" x1="3.446" y1="-10.277" x2="43.078" y2="29.355"/>
            <line class="cls-3" x1="44.801" y1="31.078" x2="44.801" y2="31.078"/>
          </g>
          <g>
            <line class="cls-3" y1="41.416" y2="41.416"/>
            <line class="cls-4" x1="3.446" y1="44.863" x2="43.078" y2="84.494"/>
            <line class="cls-3" x1="44.801" y1="86.217" x2="44.801" y2="86.217"/>
          </g>
        </g>
      </g>
    </pattern>
    <pattern id="New_Pattern_4-5" data-name="New Pattern 4" width="41.416" height="41.416" patternTransform="translate(-297.076 -266.178)" patternUnits="userSpaceOnUse" viewBox="0 0 41.416 41.416">
      <rect class="cls-1" width="41.416" height="41.416"/>
      <g class="cls-2">
        <g>
          <g>
            <line class="cls-3" y1="-6.831" y2="-6.831"/>
            <line class="cls-4" x1="3.446" y1="-3.384" x2="43.078" y2="36.247"/>
            <line class="cls-3" x1="44.801" y1="37.97" x2="44.801" y2="37.97"/>
          </g>
          <g>
            <line class="cls-3" y1="-48.185" y2="-48.185"/>
            <line class="cls-4" x1="3.446" y1="-44.739" x2="43.078" y2="-5.108"/>
            <line class="cls-3" x1="44.801" y1="-3.384" x2="44.801" y2="-3.384"/>
          </g>
          <g>
            <line class="cls-3" y1="-41.293" y2="-41.293"/>
            <line class="cls-4" x1="3.446" y1="-37.846" x2="43.078" y2="1.785"/>
            <line class="cls-3" x1="44.801" y1="3.508" x2="44.801" y2="3.508"/>
          </g>
          <g>
            <line class="cls-3" y1="0.062" y2="0.062"/>
            <line class="cls-4" x1="3.446" y1="3.508" x2="43.078" y2="43.139"/>
            <line class="cls-3" x1="44.801" y1="44.863" x2="44.801" y2="44.863"/>
          </g>
          <g>
            <line class="cls-3" y1="6.954" y2="6.954"/>
            <line class="cls-4" x1="3.446" y1="10.4" x2="43.078" y2="50.032"/>
            <line class="cls-3" x1="44.801" y1="51.755" x2="44.801" y2="51.755"/>
          </g>
          <g>
            <line class="cls-3" y1="13.847" y2="13.847"/>
            <line class="cls-4" x1="3.446" y1="17.293" x2="43.078" y2="56.924"/>
            <line class="cls-3" x1="44.801" y1="58.647" x2="44.801" y2="58.647"/>
          </g>
          <g>
            <line class="cls-3" y1="20.739" y2="20.739"/>
            <line class="cls-4" x1="3.446" y1="24.185" x2="43.078" y2="63.817"/>
            <line class="cls-3" x1="44.801" y1="65.54" x2="44.801" y2="65.54"/>
          </g>
          <g>
            <line class="cls-3" y1="27.631" y2="27.631"/>
            <line class="cls-4" x1="3.446" y1="31.078" x2="43.078" y2="70.709"/>
            <line class="cls-3" x1="44.801" y1="72.432" x2="44.801" y2="72.432"/>
          </g>
          <g>
            <line class="cls-3" y1="34.524" y2="34.524"/>
            <line class="cls-4" x1="3.446" y1="37.97" x2="43.078" y2="77.601"/>
            <line class="cls-3" x1="44.801" y1="79.325" x2="44.801" y2="79.325"/>
          </g>
          <g>
            <line class="cls-3" y1="-27.508" y2="-27.508"/>
            <line class="cls-4" x1="3.446" y1="-24.062" x2="43.078" y2="15.57"/>
            <line class="cls-3" x1="44.801" y1="17.293" x2="44.801" y2="17.293"/>
          </g>
          <g>
            <line class="cls-3" y1="-34.4" y2="-34.4"/>
            <line class="cls-4" x1="3.446" y1="-30.954" x2="43.078" y2="8.677"/>
            <line class="cls-3" x1="44.801" y1="10.4" x2="44.801" y2="10.4"/>
          </g>
          <g>
            <line class="cls-3" y1="-20.615" y2="-20.615"/>
            <line class="cls-4" x1="3.446" y1="-17.169" x2="43.078" y2="22.462"/>
            <line class="cls-3" x1="44.801" y1="24.185" x2="44.801" y2="24.185"/>
          </g>
          <g>
            <line class="cls-3" y1="-13.723" y2="-13.723"/>
            <line class="cls-4" x1="3.446" y1="-10.277" x2="43.078" y2="29.355"/>
            <line class="cls-3" x1="44.801" y1="31.078" x2="44.801" y2="31.078"/>
          </g>
          <g>
            <line class="cls-3" y1="41.416" y2="41.416"/>
            <line class="cls-4" x1="3.446" y1="44.863" x2="43.078" y2="84.494"/>
            <line class="cls-3" x1="44.801" y1="86.217" x2="44.801" y2="86.217"/>
          </g>
        </g>
      </g>
    </pattern>
    <pattern id="New_Pattern_4-7" data-name="New Pattern 4" width="41.416" height="41.416" patternTransform="translate(-297.076 -292.615)" patternUnits="userSpaceOnUse" viewBox="0 0 41.416 41.416">
      <rect class="cls-1" width="41.416" height="41.416"/>
      <g class="cls-2">
        <g>
          <g>
            <line class="cls-3" y1="-6.831" y2="-6.831"/>
            <line class="cls-4" x1="3.446" y1="-3.384" x2="43.078" y2="36.247"/>
            <line class="cls-3" x1="44.801" y1="37.97" x2="44.801" y2="37.97"/>
          </g>
          <g>
            <line class="cls-3" y1="-48.185" y2="-48.185"/>
            <line class="cls-4" x1="3.446" y1="-44.739" x2="43.078" y2="-5.108"/>
            <line class="cls-3" x1="44.801" y1="-3.384" x2="44.801" y2="-3.384"/>
          </g>
          <g>
            <line class="cls-3" y1="-41.293" y2="-41.293"/>
            <line class="cls-4" x1="3.446" y1="-37.846" x2="43.078" y2="1.785"/>
            <line class="cls-3" x1="44.801" y1="3.508" x2="44.801" y2="3.508"/>
          </g>
          <g>
            <line class="cls-3" y1="0.062" y2="0.062"/>
            <line class="cls-4" x1="3.446" y1="3.508" x2="43.078" y2="43.139"/>
            <line class="cls-3" x1="44.801" y1="44.863" x2="44.801" y2="44.863"/>
          </g>
          <g>
            <line class="cls-3" y1="6.954" y2="6.954"/>
            <line class="cls-4" x1="3.446" y1="10.4" x2="43.078" y2="50.032"/>
            <line class="cls-3" x1="44.801" y1="51.755" x2="44.801" y2="51.755"/>
          </g>
          <g>
            <line class="cls-3" y1="13.847" y2="13.847"/>
            <line class="cls-4" x1="3.446" y1="17.293" x2="43.078" y2="56.924"/>
            <line class="cls-3" x1="44.801" y1="58.647" x2="44.801" y2="58.647"/>
          </g>
          <g>
            <line class="cls-3" y1="20.739" y2="20.739"/>
            <line class="cls-4" x1="3.446" y1="24.185" x2="43.078" y2="63.817"/>
            <line class="cls-3" x1="44.801" y1="65.54" x2="44.801" y2="65.54"/>
          </g>
          <g>
            <line class="cls-3" y1="27.631" y2="27.631"/>
            <line class="cls-4" x1="3.446" y1="31.078" x2="43.078" y2="70.709"/>
            <line class="cls-3" x1="44.801" y1="72.432" x2="44.801" y2="72.432"/>
          </g>
          <g>
            <line class="cls-3" y1="34.524" y2="34.524"/>
            <line class="cls-4" x1="3.446" y1="37.97" x2="43.078" y2="77.601"/>
            <line class="cls-3" x1="44.801" y1="79.325" x2="44.801" y2="79.325"/>
          </g>
          <g>
            <line class="cls-3" y1="-27.508" y2="-27.508"/>
            <line class="cls-4" x1="3.446" y1="-24.062" x2="43.078" y2="15.57"/>
            <line class="cls-3" x1="44.801" y1="17.293" x2="44.801" y2="17.293"/>
          </g>
          <g>
            <line class="cls-3" y1="-34.4" y2="-34.4"/>
            <line class="cls-4" x1="3.446" y1="-30.954" x2="43.078" y2="8.677"/>
            <line class="cls-3" x1="44.801" y1="10.4" x2="44.801" y2="10.4"/>
          </g>
          <g>
            <line class="cls-3" y1="-20.615" y2="-20.615"/>
            <line class="cls-4" x1="3.446" y1="-17.169" x2="43.078" y2="22.462"/>
            <line class="cls-3" x1="44.801" y1="24.185" x2="44.801" y2="24.185"/>
          </g>
          <g>
            <line class="cls-3" y1="-13.723" y2="-13.723"/>
            <line class="cls-4" x1="3.446" y1="-10.277" x2="43.078" y2="29.355"/>
            <line class="cls-3" x1="44.801" y1="31.078" x2="44.801" y2="31.078"/>
          </g>
          <g>
            <line class="cls-3" y1="41.416" y2="41.416"/>
            <line class="cls-4" x1="3.446" y1="44.863" x2="43.078" y2="84.494"/>
            <line class="cls-3" x1="44.801" y1="86.217" x2="44.801" y2="86.217"/>
          </g>
        </g>
      </g>
    </pattern>
    <pattern id="New_Pattern_4-9" data-name="New Pattern 4" width="41.416" height="41.416" patternTransform="translate(-297.076 -288.796)" patternUnits="userSpaceOnUse" viewBox="0 0 41.416 41.416">
      <rect class="cls-1" width="41.416" height="41.416"/>
      <g class="cls-2">
        <g>
          <g>
            <line class="cls-3" y1="-6.831" y2="-6.831"/>
            <line class="cls-4" x1="3.446" y1="-3.384" x2="43.078" y2="36.247"/>
            <line class="cls-3" x1="44.801" y1="37.97" x2="44.801" y2="37.97"/>
          </g>
          <g>
            <line class="cls-3" y1="-48.185" y2="-48.185"/>
            <line class="cls-4" x1="3.446" y1="-44.739" x2="43.078" y2="-5.108"/>
            <line class="cls-3" x1="44.801" y1="-3.384" x2="44.801" y2="-3.384"/>
          </g>
          <g>
            <line class="cls-3" y1="-41.293" y2="-41.293"/>
            <line class="cls-4" x1="3.446" y1="-37.846" x2="43.078" y2="1.785"/>
            <line class="cls-3" x1="44.801" y1="3.508" x2="44.801" y2="3.508"/>
          </g>
          <g>
            <line class="cls-3" y1="0.062" y2="0.062"/>
            <line class="cls-4" x1="3.446" y1="3.508" x2="43.078" y2="43.139"/>
            <line class="cls-3" x1="44.801" y1="44.863" x2="44.801" y2="44.863"/>
          </g>
          <g>
            <line class="cls-3" y1="6.954" y2="6.954"/>
            <line class="cls-4" x1="3.446" y1="10.4" x2="43.078" y2="50.032"/>
            <line class="cls-3" x1="44.801" y1="51.755" x2="44.801" y2="51.755"/>
          </g>
          <g>
            <line class="cls-3" y1="13.847" y2="13.847"/>
            <line class="cls-4" x1="3.446" y1="17.293" x2="43.078" y2="56.924"/>
            <line class="cls-3" x1="44.801" y1="58.647" x2="44.801" y2="58.647"/>
          </g>
          <g>
            <line class="cls-3" y1="20.739" y2="20.739"/>
            <line class="cls-4" x1="3.446" y1="24.185" x2="43.078" y2="63.817"/>
            <line class="cls-3" x1="44.801" y1="65.54" x2="44.801" y2="65.54"/>
          </g>
          <g>
            <line class="cls-3" y1="27.631" y2="27.631"/>
            <line class="cls-4" x1="3.446" y1="31.078" x2="43.078" y2="70.709"/>
            <line class="cls-3" x1="44.801" y1="72.432" x2="44.801" y2="72.432"/>
          </g>
          <g>
            <line class="cls-3" y1="34.524" y2="34.524"/>
            <line class="cls-4" x1="3.446" y1="37.97" x2="43.078" y2="77.601"/>
            <line class="cls-3" x1="44.801" y1="79.325" x2="44.801" y2="79.325"/>
          </g>
          <g>
            <line class="cls-3" y1="-27.508" y2="-27.508"/>
            <line class="cls-4" x1="3.446" y1="-24.062" x2="43.078" y2="15.57"/>
            <line class="cls-3" x1="44.801" y1="17.293" x2="44.801" y2="17.293"/>
          </g>
          <g>
            <line class="cls-3" y1="-34.4" y2="-34.4"/>
            <line class="cls-4" x1="3.446" y1="-30.954" x2="43.078" y2="8.677"/>
            <line class="cls-3" x1="44.801" y1="10.4" x2="44.801" y2="10.4"/>
          </g>
          <g>
            <line class="cls-3" y1="-20.615" y2="-20.615"/>
            <line class="cls-4" x1="3.446" y1="-17.169" x2="43.078" y2="22.462"/>
            <line class="cls-3" x1="44.801" y1="24.185" x2="44.801" y2="24.185"/>
          </g>
          <g>
            <line class="cls-3" y1="-13.723" y2="-13.723"/>
            <line class="cls-4" x1="3.446" y1="-10.277" x2="43.078" y2="29.355"/>
            <line class="cls-3" x1="44.801" y1="31.078" x2="44.801" y2="31.078"/>
          </g>
          <g>
            <line class="cls-3" y1="41.416" y2="41.416"/>
            <line class="cls-4" x1="3.446" y1="44.863" x2="43.078" y2="84.494"/>
            <line class="cls-3" x1="44.801" y1="86.217" x2="44.801" y2="86.217"/>
          </g>
        </g>
      </g>
    </pattern>
    <pattern id="New_Pattern_4-11" data-name="New Pattern 4" width="41.416" height="41.416" patternTransform="translate(-297.076 -284.977)" patternUnits="userSpaceOnUse" viewBox="0 0 41.416 41.416">
      <rect class="cls-1" width="41.416" height="41.416"/>
      <g class="cls-2">
        <g>
          <g>
            <line class="cls-3" y1="-6.831" y2="-6.831"/>
            <line class="cls-4" x1="3.446" y1="-3.384" x2="43.078" y2="36.247"/>
            <line class="cls-3" x1="44.801" y1="37.97" x2="44.801" y2="37.97"/>
          </g>
          <g>
            <line class="cls-3" y1="-48.185" y2="-48.185"/>
            <line class="cls-4" x1="3.446" y1="-44.739" x2="43.078" y2="-5.108"/>
            <line class="cls-3" x1="44.801" y1="-3.384" x2="44.801" y2="-3.384"/>
          </g>
          <g>
            <line class="cls-3" y1="-41.293" y2="-41.293"/>
            <line class="cls-4" x1="3.446" y1="-37.846" x2="43.078" y2="1.785"/>
            <line class="cls-3" x1="44.801" y1="3.508" x2="44.801" y2="3.508"/>
          </g>
          <g>
            <line class="cls-3" y1="0.062" y2="0.062"/>
            <line class="cls-4" x1="3.446" y1="3.508" x2="43.078" y2="43.139"/>
            <line class="cls-3" x1="44.801" y1="44.863" x2="44.801" y2="44.863"/>
          </g>
          <g>
            <line class="cls-3" y1="6.954" y2="6.954"/>
            <line class="cls-4" x1="3.446" y1="10.4" x2="43.078" y2="50.032"/>
            <line class="cls-3" x1="44.801" y1="51.755" x2="44.801" y2="51.755"/>
          </g>
          <g>
            <line class="cls-3" y1="13.847" y2="13.847"/>
            <line class="cls-4" x1="3.446" y1="17.293" x2="43.078" y2="56.924"/>
            <line class="cls-3" x1="44.801" y1="58.647" x2="44.801" y2="58.647"/>
          </g>
          <g>
            <line class="cls-3" y1="20.739" y2="20.739"/>
            <line class="cls-4" x1="3.446" y1="24.185" x2="43.078" y2="63.817"/>
            <line class="cls-3" x1="44.801" y1="65.54" x2="44.801" y2="65.54"/>
          </g>
          <g>
            <line class="cls-3" y1="27.631" y2="27.631"/>
            <line class="cls-4" x1="3.446" y1="31.078" x2="43.078" y2="70.709"/>
            <line class="cls-3" x1="44.801" y1="72.432" x2="44.801" y2="72.432"/>
          </g>
          <g>
            <line class="cls-3" y1="34.524" y2="34.524"/>
            <line class="cls-4" x1="3.446" y1="37.97" x2="43.078" y2="77.601"/>
            <line class="cls-3" x1="44.801" y1="79.325" x2="44.801" y2="79.325"/>
          </g>
          <g>
            <line class="cls-3" y1="-27.508" y2="-27.508"/>
            <line class="cls-4" x1="3.446" y1="-24.062" x2="43.078" y2="15.57"/>
            <line class="cls-3" x1="44.801" y1="17.293" x2="44.801" y2="17.293"/>
          </g>
          <g>
            <line class="cls-3" y1="-34.4" y2="-34.4"/>
            <line class="cls-4" x1="3.446" y1="-30.954" x2="43.078" y2="8.677"/>
            <line class="cls-3" x1="44.801" y1="10.4" x2="44.801" y2="10.4"/>
          </g>
          <g>
            <line class="cls-3" y1="-20.615" y2="-20.615"/>
            <line class="cls-4" x1="3.446" y1="-17.169" x2="43.078" y2="22.462"/>
            <line class="cls-3" x1="44.801" y1="24.185" x2="44.801" y2="24.185"/>
          </g>
          <g>
            <line class="cls-3" y1="-13.723" y2="-13.723"/>
            <line class="cls-4" x1="3.446" y1="-10.277" x2="43.078" y2="29.355"/>
            <line class="cls-3" x1="44.801" y1="31.078" x2="44.801" y2="31.078"/>
          </g>
          <g>
            <line class="cls-3" y1="41.416" y2="41.416"/>
            <line class="cls-4" x1="3.446" y1="44.863" x2="43.078" y2="84.494"/>
            <line class="cls-3" x1="44.801" y1="86.217" x2="44.801" y2="86.217"/>
          </g>
        </g>
      </g>
    </pattern>
  </defs>
  <title>Stories to Narratives</title>
  <line class="cls-7" x1="361.96" y1="114.752" x2="361.96" y2="127.298"/>
  <line class="cls-7" x1="461.335" y1="114.752" x2="461.335" y2="127.626"/>
  <line class="cls-7" x1="370.388" y1="157.392" x2="370.388" y2="127.298"/>
  <line class="cls-7" x1="447.704" y1="157.392" x2="447.704" y2="127.298"/>
  <line class="cls-7" x1="321.742" y1="114.752" x2="321.742" y2="127.298"/>
  <rect class="cls-8" x="257.582" y="74.202" width="36" height="124.802" rx="18" ry="18"/>
  <rect class="cls-9" x="495.332" y="74.202" width="36" height="124.802" rx="18" ry="18"/>
  <g>
    <path class="cls-10" d="M134.071,386.775h-1.284v2.863h-1.611v-7.82h2.906a3.286,3.286,0,0,1,2.138.618,2.131,2.131,0,0,1,.752,1.746,2.411,2.411,0,0,1-.346,1.335,2.368,2.368,0,0,1-1.05.851l1.692,3.2v.075h-1.729Zm-1.284-1.305h1.3a1.332,1.332,0,0,0,.94-.309,1.1,1.1,0,0,0,.333-.852,1.184,1.184,0,0,0-.314-.87,1.307,1.307,0,0,0-.964-.317h-1.294Z" transform="translate(-108.842 -380.228)"/>
    <path class="cls-10" d="M142.9,386.249h-3.094v2.095h3.631v1.294H138.2v-7.82h5.231v1.305h-3.62v1.864H142.9Z" transform="translate(-108.842 -380.228)"/>
    <path class="cls-10" d="M148.439,387.586a.828.828,0,0,0-.322-.7,4.247,4.247,0,0,0-1.16-.516,8.22,8.22,0,0,1-1.327-.534A2.167,2.167,0,0,1,144.3,383.9a1.887,1.887,0,0,1,.357-1.13,2.326,2.326,0,0,1,1.025-.776,3.867,3.867,0,0,1,1.5-.279,3.51,3.51,0,0,1,1.493.3,2.38,2.38,0,0,1,1.018.856,2.245,2.245,0,0,1,.362,1.257h-1.611a1.054,1.054,0,0,0-.338-.835,1.389,1.389,0,0,0-.951-.3,1.489,1.489,0,0,0-.918.25.789.789,0,0,0-.328.658.754.754,0,0,0,.384.639,4.348,4.348,0,0,0,1.131.483,4.888,4.888,0,0,1,2,1.026,2.043,2.043,0,0,1,.628,1.525,1.882,1.882,0,0,1-.768,1.593,3.363,3.363,0,0,1-2.068.577,4,4,0,0,1-1.644-.33,2.605,2.605,0,0,1-1.131-.905,2.32,2.32,0,0,1-.389-1.332h1.617q0,1.294,1.547,1.294a1.5,1.5,0,0,0,.9-.234A.759.759,0,0,0,148.439,387.586Z" transform="translate(-108.842 -380.228)"/>
    <path class="cls-10" d="M155.851,386.249h-3.094v2.095h3.631v1.294h-5.242v-7.82h5.231v1.305h-3.62v1.864h3.094Z" transform="translate(-108.842 -380.228)"/>
    <path class="cls-10" d="M161.749,388.027h-2.825l-.537,1.611h-1.713l2.911-7.82h1.493l2.927,7.82h-1.713Zm-2.39-1.305h1.955l-.983-2.927Z" transform="translate(-108.842 -380.228)"/>
    <path class="cls-10" d="M167.63,386.775h-1.284v2.863h-1.611v-7.82h2.906a3.286,3.286,0,0,1,2.138.618,2.131,2.131,0,0,1,.752,1.746,2.411,2.411,0,0,1-.346,1.335,2.368,2.368,0,0,1-1.05.851l1.692,3.2v.075H169.1Zm-1.284-1.305h1.3a1.332,1.332,0,0,0,.94-.309,1.1,1.1,0,0,0,.333-.852,1.184,1.184,0,0,0-.314-.87,1.307,1.307,0,0,0-.964-.317h-1.294Z" transform="translate(-108.842 -380.228)"/>
    <path class="cls-10" d="M177.894,387.033a2.768,2.768,0,0,1-.932,1.987,3.272,3.272,0,0,1-2.215.725,2.941,2.941,0,0,1-2.366-1.013,4.148,4.148,0,0,1-.862-2.779v-.478a4.685,4.685,0,0,1,.4-1.987,2.984,2.984,0,0,1,1.136-1.319,3.551,3.551,0,0,1,3.9.266,2.975,2.975,0,0,1,.956,2.036h-1.611a1.637,1.637,0,0,0-.421-1.1,1.564,1.564,0,0,0-1.1-.341,1.369,1.369,0,0,0-1.206.577,3.236,3.236,0,0,0-.411,1.792v.591a3.464,3.464,0,0,0,.384,1.853,1.345,1.345,0,0,0,1.211.585,1.592,1.592,0,0,0,1.115-.341,1.539,1.539,0,0,0,.421-1.055Z" transform="translate(-108.842 -380.228)"/>
    <path class="cls-10" d="M185.317,389.638h-1.611v-3.352h-3.142v3.352h-1.611v-7.82h1.611v3.169h3.142v-3.169h1.611Z" transform="translate(-108.842 -380.228)"/>
    <path class="cls-10" d="M193.878,388.027h-2.825l-.537,1.611H188.8l2.911-7.82h1.493l2.927,7.82h-1.713Zm-2.39-1.305h1.955l-.983-2.927Z" transform="translate(-108.842 -380.228)"/>
    <path class="cls-10" d="M203.224,389.638h-1.611l-3.137-5.146v5.146h-1.611v-7.82h1.611l3.142,5.156v-5.156h1.606Z" transform="translate(-108.842 -380.228)"/>
    <path class="cls-10" d="M204.631,389.638v-7.82h2.406a3.649,3.649,0,0,1,1.845.465,3.234,3.234,0,0,1,1.271,1.321,4.075,4.075,0,0,1,.457,1.947v.36a4.083,4.083,0,0,1-.449,1.939,3.208,3.208,0,0,1-1.265,1.316,3.68,3.68,0,0,1-1.842.473Zm1.611-6.515v5.221h.779a1.75,1.75,0,0,0,1.445-.618,2.792,2.792,0,0,0,.51-1.767v-.414a2.836,2.836,0,0,0-.494-1.808,1.745,1.745,0,0,0-1.445-.615Z" transform="translate(-108.842 -380.228)"/>
    <path class="cls-10" d="M219.225,386.249h-3.094v2.095h3.631v1.294H214.52v-7.82h5.231v1.305h-3.62v1.864h3.094Z" transform="translate(-108.842 -380.228)"/>
    <path class="cls-10" d="M223.505,384.514l1.466-2.7h1.853l-2.277,3.878,2.336,3.942h-1.875l-1.5-2.739-1.5,2.739h-1.875l2.336-3.942-2.277-3.878h1.853Z" transform="translate(-108.842 -380.228)"/>
    <path class="cls-10" d="M229.306,386.883v2.755h-1.611v-7.82h3.051a3.532,3.532,0,0,1,1.55.322,2.374,2.374,0,0,1,1.028.916,2.554,2.554,0,0,1,.36,1.351,2.245,2.245,0,0,1-.787,1.813,3.278,3.278,0,0,1-2.178.664Zm0-1.305h1.439a1.413,1.413,0,0,0,.975-.3,1.093,1.093,0,0,0,.336-.859,1.29,1.29,0,0,0-.338-.929,1.265,1.265,0,0,0-.935-.365h-1.477Z" transform="translate(-108.842 -380.228)"/>
    <path class="cls-10" d="M236.4,388.344h3.421v1.294H234.79v-7.82H236.4Z" transform="translate(-108.842 -380.228)"/>
    <path class="cls-10" d="M246.827,385.905a4.723,4.723,0,0,1-.408,2.025,3.074,3.074,0,0,1-1.168,1.343,3.452,3.452,0,0,1-3.478.005,3.106,3.106,0,0,1-1.182-1.334,4.586,4.586,0,0,1-.424-2v-.387a4.7,4.7,0,0,1,.416-2.033,3.1,3.1,0,0,1,1.177-1.349,3.448,3.448,0,0,1,3.475,0,3.1,3.1,0,0,1,1.177,1.349,4.683,4.683,0,0,1,.416,2.027Zm-1.633-.354a3.293,3.293,0,0,0-.44-1.869,1.556,1.556,0,0,0-2.508-.008,3.254,3.254,0,0,0-.446,1.851v.381a3.334,3.334,0,0,0,.44,1.858,1.542,1.542,0,0,0,2.514.024,3.309,3.309,0,0,0,.44-1.855Z" transform="translate(-108.842 -380.228)"/>
    <path class="cls-10" d="M250.893,386.775h-1.284v2.863H248v-7.82H250.9a3.286,3.286,0,0,1,2.138.618,2.131,2.131,0,0,1,.752,1.746,2.411,2.411,0,0,1-.346,1.335,2.368,2.368,0,0,1-1.05.851l1.692,3.2v.075h-1.729Zm-1.284-1.305h1.3a1.332,1.332,0,0,0,.94-.309,1.1,1.1,0,0,0,.333-.852,1.184,1.184,0,0,0-.314-.87,1.307,1.307,0,0,0-.964-.317h-1.294Z" transform="translate(-108.842 -380.228)"/>
    <path class="cls-10" d="M259.433,388.027h-2.825l-.537,1.611h-1.713l2.911-7.82h1.493l2.927,7.82h-1.713Zm-2.39-1.305H259l-.983-2.927Z" transform="translate(-108.842 -380.228)"/>
    <path class="cls-10" d="M267.661,383.123h-2.4v6.515h-1.611v-6.515h-2.363v-1.305h6.37Z" transform="translate(-108.842 -380.228)"/>
    <path class="cls-10" d="M270.293,389.638h-1.611v-7.82h1.611Z" transform="translate(-108.842 -380.228)"/>
    <path class="cls-10" d="M278.21,385.905a4.723,4.723,0,0,1-.408,2.025,3.074,3.074,0,0,1-1.168,1.343,3.452,3.452,0,0,1-3.478.005,3.106,3.106,0,0,1-1.182-1.334,4.586,4.586,0,0,1-.424-2v-.387a4.7,4.7,0,0,1,.416-2.033,3.1,3.1,0,0,1,1.177-1.349,3.448,3.448,0,0,1,3.475,0,3.1,3.1,0,0,1,1.177,1.349,4.683,4.683,0,0,1,.416,2.027Zm-1.633-.354a3.293,3.293,0,0,0-.44-1.869,1.556,1.556,0,0,0-2.508-.008,3.254,3.254,0,0,0-.446,1.851v.381a3.334,3.334,0,0,0,.44,1.858,1.542,1.542,0,0,0,2.514.024,3.309,3.309,0,0,0,.44-1.855Z" transform="translate(-108.842 -380.228)"/>
    <path class="cls-10" d="M285.74,389.638h-1.611l-3.137-5.146v5.146h-1.611v-7.82h1.611l3.142,5.156v-5.156h1.606Z" transform="translate(-108.842 -380.228)"/>
  </g>
  <polyline class="cls-11" points="21.636 29.455 21.636 15.025 250.62 15.025 250.62 29.455"/>
  <g>
    <path class="cls-10" d="M409.482,389.638h-1.611l-3.137-5.146v5.146h-1.611v-7.82h1.611l3.142,5.156v-5.156h1.606Z" transform="translate(-108.842 -380.228)"/>
    <path class="cls-10" d="M415.4,388.027h-2.825l-.537,1.611h-1.713l2.911-7.82h1.493l2.927,7.82h-1.713Zm-2.39-1.305h1.955l-.983-2.927Z" transform="translate(-108.842 -380.228)"/>
    <path class="cls-10" d="M421.282,386.775H420v2.863h-1.611v-7.82h2.906a3.286,3.286,0,0,1,2.138.618,2.131,2.131,0,0,1,.752,1.746,2.411,2.411,0,0,1-.346,1.335,2.368,2.368,0,0,1-1.05.851l1.692,3.2v.075h-1.729ZM420,385.47h1.3a1.332,1.332,0,0,0,.94-.309,1.1,1.1,0,0,0,.333-.852,1.184,1.184,0,0,0-.314-.87,1.307,1.307,0,0,0-.964-.317H420Z" transform="translate(-108.842 -380.228)"/>
    <path class="cls-10" d="M428.3,386.775h-1.284v2.863h-1.611v-7.82h2.906a3.287,3.287,0,0,1,2.138.618,2.133,2.133,0,0,1,.752,1.746,2.411,2.411,0,0,1-.347,1.335,2.369,2.369,0,0,1-1.05.851l1.691,3.2v.075h-1.729Zm-1.284-1.305h1.3a1.334,1.334,0,0,0,.94-.309,1.106,1.106,0,0,0,.333-.852,1.184,1.184,0,0,0-.314-.87,1.306,1.306,0,0,0-.964-.317h-1.295Z" transform="translate(-108.842 -380.228)"/>
    <path class="cls-10" d="M434.141,389.638h-1.611v-7.82h1.611Z" transform="translate(-108.842 -380.228)"/>
    <path class="cls-10" d="M441.365,383.123h-2.4v6.515h-1.611v-6.515H435v-1.305h6.37Z" transform="translate(-108.842 -380.228)"/>
    <path class="cls-10" d="M444,389.638h-1.611v-7.82H444Z" transform="translate(-108.842 -380.228)"/>
    <path class="cls-10" d="M448.38,387.7l1.772-5.881h1.794l-2.724,7.82h-1.681l-2.713-7.82h1.789Z" transform="translate(-108.842 -380.228)"/>
    <path class="cls-10" d="M457.387,386.249h-3.094v2.095h3.631v1.294h-5.242v-7.82h5.231v1.305h-3.62v1.864h3.094Z" transform="translate(-108.842 -380.228)"/>
    <path class="cls-10" d="M461.608,389.638v-7.82h2.739a3.6,3.6,0,0,1,2.159.545,1.864,1.864,0,0,1,.736,1.6,1.763,1.763,0,0,1-.3,1.012,1.7,1.7,0,0,1-.821.642,1.65,1.65,0,0,1,.947.607,1.791,1.791,0,0,1,.347,1.117,2.062,2.062,0,0,1-.72,1.708,3.239,3.239,0,0,1-2.052.591Zm1.611-4.544h1.192q1.22-.021,1.22-.972a.9.9,0,0,0-.31-.765,1.618,1.618,0,0,0-.975-.234H463.22Zm0,1.139v2.111H464.6a1.333,1.333,0,0,0,.889-.271.931.931,0,0,0,.319-.75.982.982,0,0,0-1.111-1.09Z" transform="translate(-108.842 -380.228)"/>
    <path class="cls-10" d="M474.548,381.818v5.151a2.637,2.637,0,0,1-.8,2.03,3.1,3.1,0,0,1-2.194.747,3.132,3.132,0,0,1-2.176-.725,2.592,2.592,0,0,1-.821-1.993v-5.21h1.611v5.162a1.486,1.486,0,0,0,.368,1.12,1.41,1.41,0,0,0,1.018.352q1.358,0,1.38-1.429v-5.2Z" transform="translate(-108.842 -380.228)"/>
    <path class="cls-10" d="M477.582,389.638h-1.611v-7.82h1.611Z" transform="translate(-108.842 -380.228)"/>
    <path class="cls-10" d="M480.687,388.344h3.422v1.294h-5.033v-7.82h1.611Z" transform="translate(-108.842 -380.228)"/>
    <path class="cls-10" d="M485.032,389.638v-7.82h2.406a3.649,3.649,0,0,1,1.845.465,3.237,3.237,0,0,1,1.271,1.321,4.08,4.08,0,0,1,.456,1.947v.36a4.089,4.089,0,0,1-.448,1.939,3.211,3.211,0,0,1-1.265,1.316,3.682,3.682,0,0,1-1.843.473Zm1.611-6.515v5.221h.778a1.75,1.75,0,0,0,1.445-.618,2.789,2.789,0,0,0,.51-1.767v-.414a2.833,2.833,0,0,0-.494-1.808,1.743,1.743,0,0,0-1.444-.615Z" transform="translate(-108.842 -380.228)"/>
    <path class="cls-10" d="M493.895,389.638h-1.611v-7.82h1.611Z" transform="translate(-108.842 -380.228)"/>
    <path class="cls-10" d="M501.747,389.638h-1.611L497,384.493v5.146h-1.611v-7.82H497l3.142,5.156v-5.156h1.606Z" transform="translate(-108.842 -380.228)"/>
    <path class="cls-10" d="M509.342,388.65a2.8,2.8,0,0,1-1.23.809,5.152,5.152,0,0,1-1.762.287,3.485,3.485,0,0,1-1.78-.443,2.955,2.955,0,0,1-1.182-1.286,4.524,4.524,0,0,1-.427-1.982V385.5a4.813,4.813,0,0,1,.395-2.027,2.92,2.92,0,0,1,1.139-1.311,3.748,3.748,0,0,1,3.918.209,2.833,2.833,0,0,1,.93,1.931h-1.568a1.563,1.563,0,0,0-.476-.983,1.519,1.519,0,0,0-1.013-.312,1.428,1.428,0,0,0-1.251.618,3.244,3.244,0,0,0-.436,1.837v.5a3.092,3.092,0,0,0,.468,1.858,1.6,1.6,0,0,0,1.369.628,1.788,1.788,0,0,0,1.295-.387v-1.348h-1.467v-1.187h3.078Z" transform="translate(-108.842 -380.228)"/>
  </g>
  <g>
    <path class="cls-10" d="M647.012,387.033a2.766,2.766,0,0,1-.932,1.987,3.273,3.273,0,0,1-2.216.725,2.941,2.941,0,0,1-2.365-1.013,4.148,4.148,0,0,1-.862-2.779v-.478a4.677,4.677,0,0,1,.4-1.987,2.981,2.981,0,0,1,1.136-1.319,3.55,3.55,0,0,1,3.9.266,2.973,2.973,0,0,1,.956,2.036h-1.611a1.635,1.635,0,0,0-.421-1.1,1.566,1.566,0,0,0-1.1-.341,1.368,1.368,0,0,0-1.205.577,3.228,3.228,0,0,0-.411,1.792v.591a3.464,3.464,0,0,0,.384,1.853,1.344,1.344,0,0,0,1.211.585,1.593,1.593,0,0,0,1.115-.341,1.537,1.537,0,0,0,.421-1.055Z" transform="translate(-108.842 -380.228)"/>
    <path class="cls-10" d="M654.494,385.905a4.73,4.73,0,0,1-.408,2.025,3.08,3.08,0,0,1-1.168,1.343,3.453,3.453,0,0,1-3.479.005,3.109,3.109,0,0,1-1.182-1.334,4.579,4.579,0,0,1-.424-2v-.387a4.7,4.7,0,0,1,.416-2.033,3.1,3.1,0,0,1,1.177-1.349,3.448,3.448,0,0,1,3.475,0,3.1,3.1,0,0,1,1.177,1.349,4.683,4.683,0,0,1,.416,2.027Zm-1.633-.354a3.3,3.3,0,0,0-.44-1.869,1.556,1.556,0,0,0-2.509-.008,3.254,3.254,0,0,0-.445,1.851v.381a3.33,3.33,0,0,0,.44,1.858,1.542,1.542,0,0,0,2.514.024,3.313,3.313,0,0,0,.44-1.855Z" transform="translate(-108.842 -380.228)"/>
    <path class="cls-10" d="M657.771,381.818l2.009,5.672,2-5.672h2.116v7.82h-1.617V387.5l.161-3.69-2.11,5.828h-1.106l-2.105-5.822.161,3.685v2.138h-1.611v-7.82Z" transform="translate(-108.842 -380.228)"/>
    <path class="cls-10" d="M667.406,381.818l2.009,5.672,2-5.672h2.116v7.82h-1.617V387.5l.161-3.69-2.11,5.828h-1.106l-2.105-5.822.161,3.685v2.138H665.3v-7.82Z" transform="translate(-108.842 -380.228)"/>
    <path class="cls-10" d="M680.855,381.818v5.151a2.637,2.637,0,0,1-.8,2.03,3.1,3.1,0,0,1-2.194.747,3.132,3.132,0,0,1-2.176-.725,2.592,2.592,0,0,1-.821-1.993v-5.21h1.611v5.162a1.486,1.486,0,0,0,.368,1.12,1.41,1.41,0,0,0,1.018.352q1.358,0,1.38-1.429v-5.2Z" transform="translate(-108.842 -380.228)"/>
    <path class="cls-10" d="M688.536,389.638h-1.611l-3.137-5.146v5.146h-1.611v-7.82h1.611l3.142,5.156v-5.156h1.606Z" transform="translate(-108.842 -380.228)"/>
    <path class="cls-10" d="M691.656,389.638h-1.611v-7.82h1.611Z" transform="translate(-108.842 -380.228)"/>
    <path class="cls-10" d="M699.289,387.033a2.77,2.77,0,0,1-.933,1.987,3.271,3.271,0,0,1-2.215.725,2.941,2.941,0,0,1-2.366-1.013,4.148,4.148,0,0,1-.862-2.779v-.478a4.692,4.692,0,0,1,.4-1.987,2.987,2.987,0,0,1,1.136-1.319,3.552,3.552,0,0,1,3.9.266,2.977,2.977,0,0,1,.956,2.036h-1.611a1.64,1.64,0,0,0-.422-1.1,1.563,1.563,0,0,0-1.1-.341,1.37,1.37,0,0,0-1.206.577,3.245,3.245,0,0,0-.411,1.792v.591a3.464,3.464,0,0,0,.384,1.853,1.346,1.346,0,0,0,1.212.585,1.59,1.59,0,0,0,1.114-.341,1.542,1.542,0,0,0,.422-1.055Z" transform="translate(-108.842 -380.228)"/>
    <path class="cls-10" d="M704.762,388.027h-2.825l-.537,1.611h-1.713l2.911-7.82h1.493l2.927,7.82H705.3Zm-2.39-1.305h1.955l-.983-2.927Z" transform="translate(-108.842 -380.228)"/>
    <path class="cls-10" d="M712.99,383.123h-2.4v6.515h-1.611v-6.515H706.62v-1.305h6.37Z" transform="translate(-108.842 -380.228)"/>
    <path class="cls-10" d="M715.622,389.638h-1.611v-7.82h1.611Z" transform="translate(-108.842 -380.228)"/>
    <path class="cls-10" d="M723.539,385.905a4.716,4.716,0,0,1-.408,2.025,3.068,3.068,0,0,1-1.168,1.343,3.452,3.452,0,0,1-3.478.005,3.1,3.1,0,0,1-1.182-1.334,4.593,4.593,0,0,1-.425-2v-.387a4.7,4.7,0,0,1,.416-2.033,3.1,3.1,0,0,1,1.177-1.349,3.448,3.448,0,0,1,3.475,0,3.1,3.1,0,0,1,1.177,1.349,4.683,4.683,0,0,1,.416,2.027Zm-1.633-.354a3.289,3.289,0,0,0-.44-1.869,1.556,1.556,0,0,0-2.508-.008,3.254,3.254,0,0,0-.446,1.851v.381a3.338,3.338,0,0,0,.44,1.858,1.433,1.433,0,0,0,1.268.661,1.417,1.417,0,0,0,1.246-.637,3.3,3.3,0,0,0,.44-1.855Z" transform="translate(-108.842 -380.228)"/>
    <path class="cls-10" d="M731.069,389.638h-1.611l-3.137-5.146v5.146H724.71v-7.82h1.611l3.143,5.156v-5.156h1.605Z" transform="translate(-108.842 -380.228)"/>
  </g>
  <polyline class="cls-11" points="293.583 29.455 293.583 15.025 495.332 15.025 495.332 29.455"/>
  <polyline class="cls-11" points="531.332 29.455 531.332 15.025 632.207 15.025"/>
  <circle class="cls-12" cx="7.587" cy="81.211" r="7.087"/>
  <circle class="cls-13" cx="7.587" cy="126.446" r="7.087"/>
  <circle class="cls-14" cx="7.587" cy="171.681" r="7.087"/>
  <circle class="cls-15" cx="7.587" cy="103.828" r="7.087"/>
  <circle class="cls-16" cx="7.587" cy="149.063" r="7.087"/>
  <circle class="cls-17" cx="7.587" cy="194.298" r="7.087"/>
  <path class="cls-18" d="M123.515,461.794h51.4c25.492,0,33.918,24.9,51.756,24.9,26.718,0,37.194-47.1,61.026-47.1,29.808,0,8.362,32.835,78.725,32.835" transform="translate(-108.842 -380.228)"/>
  <path class="cls-19" d="M123.515,505.532h96.592C251.846,505.532,241.4,539,260.3,539s22.734-19.948,41.3-19.948,14.85,24.174,40.081,24.174h24.74" transform="translate(-108.842 -380.228)"/>
  <path class="cls-19" d="M123.515,527.4s22.072.205,32.77.205,23.438-29.143,54.027-29.143c46.736,0,70.954,75.261,93.472,75.261s28.3-47.529,45.424-47.529h17.216" transform="translate(-108.842 -380.228)"/>
  <path class="cls-11" d="M123.515,574.526H207.1c22.751,0,44.715-54.849,64.468-54.849s18.555,20.9,34.122,20.9S337.833,506.7,360.7,507.884h0" transform="translate(-108.842 -380.228)"/>
  <path class="cls-18" d="M123.515,551.932c17.667,0,56.028-.079,68.19-.079,15.2,0,20.291-27.479,35.741-27.479s9.092,31.117,37.376,31.117,29.29-62.589,49.142-62.589,19.308,67.2,39.006,67.26c7.2.02,13.454,0,13.454,0" transform="translate(-108.842 -380.228)"/>
  <path class="cls-19" d="M123.515,484.056c7.858.1,14.062-.393,27.069-.393,20.278,0,15.588-29.537,50.564-29.537s40.6,72.91,88,72.91,41.092-36.807,77.274-36.807" transform="translate(-108.842 -380.228)"/>
  <line class="cls-19" x1="293.582" y1="109.75" x2="495.332" y2="109.75"/>
  <line class="cls-11" x1="293.582" y1="127.298" x2="495.332" y2="127.298"/>
  <line class="cls-11" x1="531.332" y1="127.298" x2="632.207" y2="127.298"/>
  <line class="cls-19" x1="293.582" y1="162.394" x2="495.332" y2="162.394"/>
  <g>
    <circle class="cls-20" cx="321.742" cy="109.75" r="5.002"/>
    <circle class="cls-19" cx="321.742" cy="109.75" r="5.002"/>
  </g>
  <g>
    <circle class="cls-20" cx="370.388" cy="162.394" r="5.002"/>
    <circle class="cls-19" cx="370.388" cy="162.394" r="5.002"/>
  </g>
  <g>
    <circle class="cls-20" cx="361.96" cy="109.75" r="5.002"/>
    <circle class="cls-19" cx="361.96" cy="109.75" r="5.002"/>
  </g>
  <g>
    <circle class="cls-20" cx="461.335" cy="109.75" r="5.002"/>
    <circle class="cls-19" cx="461.335" cy="109.75" r="5.002"/>
  </g>
  <g>
    <circle class="cls-20" cx="447.704" cy="162.394" r="5.002"/>
    <circle class="cls-19" cx="447.704" cy="162.394" r="5.002"/>
  </g>
  <g>
    <circle class="cls-20" cx="353.72" cy="127.298" r="5.002"/>
    <g>
      <circle class="cls-11" cx="353.72" cy="127.298" r="5.002"/>
      <circle class="cls-19" cx="353.72" cy="127.298" r="5.002"/>
    </g>
  </g>
  <g>
    <circle class="cls-20" cx="370.405" cy="127.298" r="5.002"/>
    <g>
      <circle class="cls-11" cx="370.405" cy="127.298" r="5.002"/>
      <circle class="cls-19" cx="370.405" cy="127.298" r="5.002"/>
    </g>
  </g>
  <g>
    <circle class="cls-20" cx="311.738" cy="127.298" r="5.002"/>
    <g>
      <circle class="cls-11" cx="311.738" cy="127.298" r="5.002"/>
      <circle class="cls-19" cx="311.738" cy="127.298" r="5.002"/>
    </g>
  </g>
  <g>
    <circle class="cls-20" cx="414.571" cy="127.298" r="5.002"/>
    <g>
      <circle class="cls-11" cx="414.571" cy="127.298" r="5.002"/>
      <circle class="cls-19" cx="414.571" cy="127.298" r="5.002"/>
    </g>
  </g>
  <g>
    <circle class="cls-20" cx="429.071" cy="127.298" r="5.002"/>
    <g>
      <circle class="cls-11" cx="429.071" cy="127.298" r="5.002"/>
      <circle class="cls-19" cx="429.071" cy="127.298" r="5.002"/>
    </g>
  </g>
  <g>
    <circle class="cls-20" cx="482.571" cy="127.298" r="5.002"/>
    <g>
      <circle class="cls-11" cx="482.571" cy="127.298" r="5.002"/>
      <circle class="cls-19" cx="482.571" cy="127.298" r="5.002"/>
    </g>
  </g>
</svg>
